G04 #@! TF.GenerationSoftware,KiCad,Pcbnew,(5.0.2)-1*
G04 #@! TF.CreationDate,2019-02-01T15:19:08+01:00*
G04 #@! TF.ProjectId,hac,6861632e-6b69-4636-9164-5f7063625858,rev?*
G04 #@! TF.SameCoordinates,Original*
G04 #@! TF.FileFunction,Soldermask,Top*
G04 #@! TF.FilePolarity,Negative*
%FSLAX46Y46*%
G04 Gerber Fmt 4.6, Leading zero omitted, Abs format (unit mm)*
G04 Created by KiCad (PCBNEW (5.0.2)-1) date 2/1/2019 3:19:08 PM*
%MOMM*%
%LPD*%
G01*
G04 APERTURE LIST*
%ADD10C,0.100000*%
G04 APERTURE END LIST*
D10*
G36*
X193415256Y-144441298D02*
X193521579Y-144462447D01*
X193822042Y-144586903D01*
X194088852Y-144765180D01*
X194092454Y-144767587D01*
X194322413Y-144997546D01*
X194503098Y-145267960D01*
X194627553Y-145568422D01*
X194691000Y-145887389D01*
X194691000Y-146212611D01*
X194627553Y-146531578D01*
X194503098Y-146832040D01*
X194322413Y-147102454D01*
X194092454Y-147332413D01*
X194092451Y-147332415D01*
X193822042Y-147513097D01*
X193521579Y-147637553D01*
X193415256Y-147658702D01*
X193202611Y-147701000D01*
X192877389Y-147701000D01*
X192664744Y-147658702D01*
X192558421Y-147637553D01*
X192257958Y-147513097D01*
X191987549Y-147332415D01*
X191987546Y-147332413D01*
X191757587Y-147102454D01*
X191576902Y-146832040D01*
X191452447Y-146531578D01*
X191389000Y-146212611D01*
X191389000Y-145887389D01*
X191452447Y-145568422D01*
X191576902Y-145267960D01*
X191757587Y-144997546D01*
X191987546Y-144767587D01*
X191991148Y-144765180D01*
X192257958Y-144586903D01*
X192558421Y-144462447D01*
X192664744Y-144441298D01*
X192877389Y-144399000D01*
X193202611Y-144399000D01*
X193415256Y-144441298D01*
X193415256Y-144441298D01*
G37*
G36*
X124327256Y-144441298D02*
X124433579Y-144462447D01*
X124734042Y-144586903D01*
X125000852Y-144765180D01*
X125004454Y-144767587D01*
X125234413Y-144997546D01*
X125415098Y-145267960D01*
X125539553Y-145568422D01*
X125603000Y-145887389D01*
X125603000Y-146212611D01*
X125539553Y-146531578D01*
X125415098Y-146832040D01*
X125234413Y-147102454D01*
X125004454Y-147332413D01*
X125004451Y-147332415D01*
X124734042Y-147513097D01*
X124433579Y-147637553D01*
X124327256Y-147658702D01*
X124114611Y-147701000D01*
X123789389Y-147701000D01*
X123576744Y-147658702D01*
X123470421Y-147637553D01*
X123169958Y-147513097D01*
X122899549Y-147332415D01*
X122899546Y-147332413D01*
X122669587Y-147102454D01*
X122488902Y-146832040D01*
X122364447Y-146531578D01*
X122301000Y-146212611D01*
X122301000Y-145887389D01*
X122364447Y-145568422D01*
X122488902Y-145267960D01*
X122669587Y-144997546D01*
X122899546Y-144767587D01*
X122903148Y-144765180D01*
X123169958Y-144586903D01*
X123470421Y-144462447D01*
X123576744Y-144441298D01*
X123789389Y-144399000D01*
X124114611Y-144399000D01*
X124327256Y-144441298D01*
X124327256Y-144441298D01*
G37*
G36*
X130273527Y-140855736D02*
X130373410Y-140875604D01*
X130655674Y-140992521D01*
X130909705Y-141162259D01*
X131125741Y-141378295D01*
X131295479Y-141632326D01*
X131412396Y-141914590D01*
X131472000Y-142214240D01*
X131472000Y-142519760D01*
X131412396Y-142819410D01*
X131295479Y-143101674D01*
X131125741Y-143355705D01*
X130909705Y-143571741D01*
X130655674Y-143741479D01*
X130373410Y-143858396D01*
X130273527Y-143878264D01*
X130073762Y-143918000D01*
X129768238Y-143918000D01*
X129568473Y-143878264D01*
X129468590Y-143858396D01*
X129186326Y-143741479D01*
X128932295Y-143571741D01*
X128716259Y-143355705D01*
X128546521Y-143101674D01*
X128429604Y-142819410D01*
X128370000Y-142519760D01*
X128370000Y-142214240D01*
X128429604Y-141914590D01*
X128546521Y-141632326D01*
X128716259Y-141378295D01*
X128932295Y-141162259D01*
X129186326Y-140992521D01*
X129468590Y-140875604D01*
X129568473Y-140855736D01*
X129768238Y-140816000D01*
X130073762Y-140816000D01*
X130273527Y-140855736D01*
X130273527Y-140855736D01*
G37*
G36*
X150847527Y-140855736D02*
X150947410Y-140875604D01*
X151229674Y-140992521D01*
X151483705Y-141162259D01*
X151699741Y-141378295D01*
X151869479Y-141632326D01*
X151986396Y-141914590D01*
X152046000Y-142214240D01*
X152046000Y-142519760D01*
X151986396Y-142819410D01*
X151869479Y-143101674D01*
X151699741Y-143355705D01*
X151483705Y-143571741D01*
X151229674Y-143741479D01*
X150947410Y-143858396D01*
X150847527Y-143878264D01*
X150647762Y-143918000D01*
X150342238Y-143918000D01*
X150142473Y-143878264D01*
X150042590Y-143858396D01*
X149760326Y-143741479D01*
X149506295Y-143571741D01*
X149290259Y-143355705D01*
X149120521Y-143101674D01*
X149003604Y-142819410D01*
X148944000Y-142519760D01*
X148944000Y-142214240D01*
X149003604Y-141914590D01*
X149120521Y-141632326D01*
X149290259Y-141378295D01*
X149506295Y-141162259D01*
X149760326Y-140992521D01*
X150042590Y-140875604D01*
X150142473Y-140855736D01*
X150342238Y-140816000D01*
X150647762Y-140816000D01*
X150847527Y-140855736D01*
X150847527Y-140855736D01*
G37*
G36*
X171167527Y-140855736D02*
X171267410Y-140875604D01*
X171549674Y-140992521D01*
X171803705Y-141162259D01*
X172019741Y-141378295D01*
X172189479Y-141632326D01*
X172306396Y-141914590D01*
X172366000Y-142214240D01*
X172366000Y-142519760D01*
X172306396Y-142819410D01*
X172189479Y-143101674D01*
X172019741Y-143355705D01*
X171803705Y-143571741D01*
X171549674Y-143741479D01*
X171267410Y-143858396D01*
X171167527Y-143878264D01*
X170967762Y-143918000D01*
X170662238Y-143918000D01*
X170462473Y-143878264D01*
X170362590Y-143858396D01*
X170080326Y-143741479D01*
X169826295Y-143571741D01*
X169610259Y-143355705D01*
X169440521Y-143101674D01*
X169323604Y-142819410D01*
X169264000Y-142519760D01*
X169264000Y-142214240D01*
X169323604Y-141914590D01*
X169440521Y-141632326D01*
X169610259Y-141378295D01*
X169826295Y-141162259D01*
X170080326Y-140992521D01*
X170362590Y-140875604D01*
X170462473Y-140855736D01*
X170662238Y-140816000D01*
X170967762Y-140816000D01*
X171167527Y-140855736D01*
X171167527Y-140855736D01*
G37*
G36*
X187397527Y-140855736D02*
X187497410Y-140875604D01*
X187779674Y-140992521D01*
X188033705Y-141162259D01*
X188249741Y-141378295D01*
X188419479Y-141632326D01*
X188536396Y-141914590D01*
X188596000Y-142214240D01*
X188596000Y-142519760D01*
X188536396Y-142819410D01*
X188419479Y-143101674D01*
X188249741Y-143355705D01*
X188033705Y-143571741D01*
X187779674Y-143741479D01*
X187497410Y-143858396D01*
X187397527Y-143878264D01*
X187197762Y-143918000D01*
X186892238Y-143918000D01*
X186692473Y-143878264D01*
X186592590Y-143858396D01*
X186310326Y-143741479D01*
X186056295Y-143571741D01*
X185840259Y-143355705D01*
X185670521Y-143101674D01*
X185553604Y-142819410D01*
X185494000Y-142519760D01*
X185494000Y-142214240D01*
X185553604Y-141914590D01*
X185670521Y-141632326D01*
X185840259Y-141378295D01*
X186056295Y-141162259D01*
X186310326Y-140992521D01*
X186592590Y-140875604D01*
X186692473Y-140855736D01*
X186892238Y-140816000D01*
X187197762Y-140816000D01*
X187397527Y-140855736D01*
X187397527Y-140855736D01*
G37*
G36*
X167077527Y-140855736D02*
X167177410Y-140875604D01*
X167459674Y-140992521D01*
X167713705Y-141162259D01*
X167929741Y-141378295D01*
X168099479Y-141632326D01*
X168216396Y-141914590D01*
X168276000Y-142214240D01*
X168276000Y-142519760D01*
X168216396Y-142819410D01*
X168099479Y-143101674D01*
X167929741Y-143355705D01*
X167713705Y-143571741D01*
X167459674Y-143741479D01*
X167177410Y-143858396D01*
X167077527Y-143878264D01*
X166877762Y-143918000D01*
X166572238Y-143918000D01*
X166372473Y-143878264D01*
X166272590Y-143858396D01*
X165990326Y-143741479D01*
X165736295Y-143571741D01*
X165520259Y-143355705D01*
X165350521Y-143101674D01*
X165233604Y-142819410D01*
X165174000Y-142519760D01*
X165174000Y-142214240D01*
X165233604Y-141914590D01*
X165350521Y-141632326D01*
X165520259Y-141378295D01*
X165736295Y-141162259D01*
X165990326Y-140992521D01*
X166272590Y-140875604D01*
X166372473Y-140855736D01*
X166572238Y-140816000D01*
X166877762Y-140816000D01*
X167077527Y-140855736D01*
X167077527Y-140855736D01*
G37*
G36*
X146503527Y-140855736D02*
X146603410Y-140875604D01*
X146885674Y-140992521D01*
X147139705Y-141162259D01*
X147355741Y-141378295D01*
X147525479Y-141632326D01*
X147642396Y-141914590D01*
X147702000Y-142214240D01*
X147702000Y-142519760D01*
X147642396Y-142819410D01*
X147525479Y-143101674D01*
X147355741Y-143355705D01*
X147139705Y-143571741D01*
X146885674Y-143741479D01*
X146603410Y-143858396D01*
X146503527Y-143878264D01*
X146303762Y-143918000D01*
X145998238Y-143918000D01*
X145798473Y-143878264D01*
X145698590Y-143858396D01*
X145416326Y-143741479D01*
X145162295Y-143571741D01*
X144946259Y-143355705D01*
X144776521Y-143101674D01*
X144659604Y-142819410D01*
X144600000Y-142519760D01*
X144600000Y-142214240D01*
X144659604Y-141914590D01*
X144776521Y-141632326D01*
X144946259Y-141378295D01*
X145162295Y-141162259D01*
X145416326Y-140992521D01*
X145698590Y-140875604D01*
X145798473Y-140855736D01*
X145998238Y-140816000D01*
X146303762Y-140816000D01*
X146503527Y-140855736D01*
X146503527Y-140855736D01*
G37*
G36*
X146503527Y-134505736D02*
X146603410Y-134525604D01*
X146885674Y-134642521D01*
X147139705Y-134812259D01*
X147355741Y-135028295D01*
X147525479Y-135282326D01*
X147642396Y-135564590D01*
X147702000Y-135864240D01*
X147702000Y-136169760D01*
X147642396Y-136469410D01*
X147525479Y-136751674D01*
X147355741Y-137005705D01*
X147139705Y-137221741D01*
X146885674Y-137391479D01*
X146603410Y-137508396D01*
X146503527Y-137528264D01*
X146303762Y-137568000D01*
X145998238Y-137568000D01*
X145798473Y-137528264D01*
X145698590Y-137508396D01*
X145416326Y-137391479D01*
X145162295Y-137221741D01*
X144946259Y-137005705D01*
X144776521Y-136751674D01*
X144659604Y-136469410D01*
X144600000Y-136169760D01*
X144600000Y-135864240D01*
X144659604Y-135564590D01*
X144776521Y-135282326D01*
X144946259Y-135028295D01*
X145162295Y-134812259D01*
X145416326Y-134642521D01*
X145698590Y-134525604D01*
X145798473Y-134505736D01*
X145998238Y-134466000D01*
X146303762Y-134466000D01*
X146503527Y-134505736D01*
X146503527Y-134505736D01*
G37*
G36*
X130273527Y-134505736D02*
X130373410Y-134525604D01*
X130655674Y-134642521D01*
X130909705Y-134812259D01*
X131125741Y-135028295D01*
X131295479Y-135282326D01*
X131412396Y-135564590D01*
X131472000Y-135864240D01*
X131472000Y-136169760D01*
X131412396Y-136469410D01*
X131295479Y-136751674D01*
X131125741Y-137005705D01*
X130909705Y-137221741D01*
X130655674Y-137391479D01*
X130373410Y-137508396D01*
X130273527Y-137528264D01*
X130073762Y-137568000D01*
X129768238Y-137568000D01*
X129568473Y-137528264D01*
X129468590Y-137508396D01*
X129186326Y-137391479D01*
X128932295Y-137221741D01*
X128716259Y-137005705D01*
X128546521Y-136751674D01*
X128429604Y-136469410D01*
X128370000Y-136169760D01*
X128370000Y-135864240D01*
X128429604Y-135564590D01*
X128546521Y-135282326D01*
X128716259Y-135028295D01*
X128932295Y-134812259D01*
X129186326Y-134642521D01*
X129468590Y-134525604D01*
X129568473Y-134505736D01*
X129768238Y-134466000D01*
X130073762Y-134466000D01*
X130273527Y-134505736D01*
X130273527Y-134505736D01*
G37*
G36*
X167077527Y-134505736D02*
X167177410Y-134525604D01*
X167459674Y-134642521D01*
X167713705Y-134812259D01*
X167929741Y-135028295D01*
X168099479Y-135282326D01*
X168216396Y-135564590D01*
X168276000Y-135864240D01*
X168276000Y-136169760D01*
X168216396Y-136469410D01*
X168099479Y-136751674D01*
X167929741Y-137005705D01*
X167713705Y-137221741D01*
X167459674Y-137391479D01*
X167177410Y-137508396D01*
X167077527Y-137528264D01*
X166877762Y-137568000D01*
X166572238Y-137568000D01*
X166372473Y-137528264D01*
X166272590Y-137508396D01*
X165990326Y-137391479D01*
X165736295Y-137221741D01*
X165520259Y-137005705D01*
X165350521Y-136751674D01*
X165233604Y-136469410D01*
X165174000Y-136169760D01*
X165174000Y-135864240D01*
X165233604Y-135564590D01*
X165350521Y-135282326D01*
X165520259Y-135028295D01*
X165736295Y-134812259D01*
X165990326Y-134642521D01*
X166272590Y-134525604D01*
X166372473Y-134505736D01*
X166572238Y-134466000D01*
X166877762Y-134466000D01*
X167077527Y-134505736D01*
X167077527Y-134505736D01*
G37*
G36*
X150847527Y-134505736D02*
X150947410Y-134525604D01*
X151229674Y-134642521D01*
X151483705Y-134812259D01*
X151699741Y-135028295D01*
X151869479Y-135282326D01*
X151986396Y-135564590D01*
X152046000Y-135864240D01*
X152046000Y-136169760D01*
X151986396Y-136469410D01*
X151869479Y-136751674D01*
X151699741Y-137005705D01*
X151483705Y-137221741D01*
X151229674Y-137391479D01*
X150947410Y-137508396D01*
X150847527Y-137528264D01*
X150647762Y-137568000D01*
X150342238Y-137568000D01*
X150142473Y-137528264D01*
X150042590Y-137508396D01*
X149760326Y-137391479D01*
X149506295Y-137221741D01*
X149290259Y-137005705D01*
X149120521Y-136751674D01*
X149003604Y-136469410D01*
X148944000Y-136169760D01*
X148944000Y-135864240D01*
X149003604Y-135564590D01*
X149120521Y-135282326D01*
X149290259Y-135028295D01*
X149506295Y-134812259D01*
X149760326Y-134642521D01*
X150042590Y-134525604D01*
X150142473Y-134505736D01*
X150342238Y-134466000D01*
X150647762Y-134466000D01*
X150847527Y-134505736D01*
X150847527Y-134505736D01*
G37*
G36*
X187397527Y-134505736D02*
X187497410Y-134525604D01*
X187779674Y-134642521D01*
X188033705Y-134812259D01*
X188249741Y-135028295D01*
X188419479Y-135282326D01*
X188536396Y-135564590D01*
X188596000Y-135864240D01*
X188596000Y-136169760D01*
X188536396Y-136469410D01*
X188419479Y-136751674D01*
X188249741Y-137005705D01*
X188033705Y-137221741D01*
X187779674Y-137391479D01*
X187497410Y-137508396D01*
X187397527Y-137528264D01*
X187197762Y-137568000D01*
X186892238Y-137568000D01*
X186692473Y-137528264D01*
X186592590Y-137508396D01*
X186310326Y-137391479D01*
X186056295Y-137221741D01*
X185840259Y-137005705D01*
X185670521Y-136751674D01*
X185553604Y-136469410D01*
X185494000Y-136169760D01*
X185494000Y-135864240D01*
X185553604Y-135564590D01*
X185670521Y-135282326D01*
X185840259Y-135028295D01*
X186056295Y-134812259D01*
X186310326Y-134642521D01*
X186592590Y-134525604D01*
X186692473Y-134505736D01*
X186892238Y-134466000D01*
X187197762Y-134466000D01*
X187397527Y-134505736D01*
X187397527Y-134505736D01*
G37*
G36*
X171167527Y-134505736D02*
X171267410Y-134525604D01*
X171549674Y-134642521D01*
X171803705Y-134812259D01*
X172019741Y-135028295D01*
X172189479Y-135282326D01*
X172306396Y-135564590D01*
X172366000Y-135864240D01*
X172366000Y-136169760D01*
X172306396Y-136469410D01*
X172189479Y-136751674D01*
X172019741Y-137005705D01*
X171803705Y-137221741D01*
X171549674Y-137391479D01*
X171267410Y-137508396D01*
X171167527Y-137528264D01*
X170967762Y-137568000D01*
X170662238Y-137568000D01*
X170462473Y-137528264D01*
X170362590Y-137508396D01*
X170080326Y-137391479D01*
X169826295Y-137221741D01*
X169610259Y-137005705D01*
X169440521Y-136751674D01*
X169323604Y-136469410D01*
X169264000Y-136169760D01*
X169264000Y-135864240D01*
X169323604Y-135564590D01*
X169440521Y-135282326D01*
X169610259Y-135028295D01*
X169826295Y-134812259D01*
X170080326Y-134642521D01*
X170362590Y-134525604D01*
X170462473Y-134505736D01*
X170662238Y-134466000D01*
X170967762Y-134466000D01*
X171167527Y-134505736D01*
X171167527Y-134505736D01*
G37*
G36*
X146503527Y-128155736D02*
X146603410Y-128175604D01*
X146885674Y-128292521D01*
X147139705Y-128462259D01*
X147355741Y-128678295D01*
X147525479Y-128932326D01*
X147642396Y-129214590D01*
X147702000Y-129514240D01*
X147702000Y-129819760D01*
X147642396Y-130119410D01*
X147525479Y-130401674D01*
X147355741Y-130655705D01*
X147139705Y-130871741D01*
X146885674Y-131041479D01*
X146603410Y-131158396D01*
X146503527Y-131178264D01*
X146303762Y-131218000D01*
X145998238Y-131218000D01*
X145798473Y-131178264D01*
X145698590Y-131158396D01*
X145416326Y-131041479D01*
X145162295Y-130871741D01*
X144946259Y-130655705D01*
X144776521Y-130401674D01*
X144659604Y-130119410D01*
X144600000Y-129819760D01*
X144600000Y-129514240D01*
X144659604Y-129214590D01*
X144776521Y-128932326D01*
X144946259Y-128678295D01*
X145162295Y-128462259D01*
X145416326Y-128292521D01*
X145698590Y-128175604D01*
X145798473Y-128155736D01*
X145998238Y-128116000D01*
X146303762Y-128116000D01*
X146503527Y-128155736D01*
X146503527Y-128155736D01*
G37*
G36*
X152046000Y-131218000D02*
X148944000Y-131218000D01*
X148944000Y-128116000D01*
X152046000Y-128116000D01*
X152046000Y-131218000D01*
X152046000Y-131218000D01*
G37*
G36*
X167077527Y-128155736D02*
X167177410Y-128175604D01*
X167459674Y-128292521D01*
X167713705Y-128462259D01*
X167929741Y-128678295D01*
X168099479Y-128932326D01*
X168216396Y-129214590D01*
X168276000Y-129514240D01*
X168276000Y-129819760D01*
X168216396Y-130119410D01*
X168099479Y-130401674D01*
X167929741Y-130655705D01*
X167713705Y-130871741D01*
X167459674Y-131041479D01*
X167177410Y-131158396D01*
X167077527Y-131178264D01*
X166877762Y-131218000D01*
X166572238Y-131218000D01*
X166372473Y-131178264D01*
X166272590Y-131158396D01*
X165990326Y-131041479D01*
X165736295Y-130871741D01*
X165520259Y-130655705D01*
X165350521Y-130401674D01*
X165233604Y-130119410D01*
X165174000Y-129819760D01*
X165174000Y-129514240D01*
X165233604Y-129214590D01*
X165350521Y-128932326D01*
X165520259Y-128678295D01*
X165736295Y-128462259D01*
X165990326Y-128292521D01*
X166272590Y-128175604D01*
X166372473Y-128155736D01*
X166572238Y-128116000D01*
X166877762Y-128116000D01*
X167077527Y-128155736D01*
X167077527Y-128155736D01*
G37*
G36*
X131472000Y-131218000D02*
X128370000Y-131218000D01*
X128370000Y-128116000D01*
X131472000Y-128116000D01*
X131472000Y-131218000D01*
X131472000Y-131218000D01*
G37*
G36*
X187397527Y-128155736D02*
X187497410Y-128175604D01*
X187779674Y-128292521D01*
X188033705Y-128462259D01*
X188249741Y-128678295D01*
X188419479Y-128932326D01*
X188536396Y-129214590D01*
X188596000Y-129514240D01*
X188596000Y-129819760D01*
X188536396Y-130119410D01*
X188419479Y-130401674D01*
X188249741Y-130655705D01*
X188033705Y-130871741D01*
X187779674Y-131041479D01*
X187497410Y-131158396D01*
X187397527Y-131178264D01*
X187197762Y-131218000D01*
X186892238Y-131218000D01*
X186692473Y-131178264D01*
X186592590Y-131158396D01*
X186310326Y-131041479D01*
X186056295Y-130871741D01*
X185840259Y-130655705D01*
X185670521Y-130401674D01*
X185553604Y-130119410D01*
X185494000Y-129819760D01*
X185494000Y-129514240D01*
X185553604Y-129214590D01*
X185670521Y-128932326D01*
X185840259Y-128678295D01*
X186056295Y-128462259D01*
X186310326Y-128292521D01*
X186592590Y-128175604D01*
X186692473Y-128155736D01*
X186892238Y-128116000D01*
X187197762Y-128116000D01*
X187397527Y-128155736D01*
X187397527Y-128155736D01*
G37*
G36*
X172366000Y-131218000D02*
X169264000Y-131218000D01*
X169264000Y-128116000D01*
X172366000Y-128116000D01*
X172366000Y-131218000D01*
X172366000Y-131218000D01*
G37*
G36*
X167873643Y-122419781D02*
X168019415Y-122480162D01*
X168150611Y-122567824D01*
X168262176Y-122679389D01*
X168349838Y-122810585D01*
X168410219Y-122956357D01*
X168441000Y-123111107D01*
X168441000Y-123268893D01*
X168410219Y-123423643D01*
X168349838Y-123569415D01*
X168262176Y-123700611D01*
X168150611Y-123812176D01*
X168019415Y-123899838D01*
X167873643Y-123960219D01*
X167718893Y-123991000D01*
X167561107Y-123991000D01*
X167406357Y-123960219D01*
X167260585Y-123899838D01*
X167129389Y-123812176D01*
X167017824Y-123700611D01*
X166930162Y-123569415D01*
X166869781Y-123423643D01*
X166839000Y-123268893D01*
X166839000Y-123111107D01*
X166869781Y-122956357D01*
X166930162Y-122810585D01*
X167017824Y-122679389D01*
X167129389Y-122567824D01*
X167260585Y-122480162D01*
X167406357Y-122419781D01*
X167561107Y-122389000D01*
X167718893Y-122389000D01*
X167873643Y-122419781D01*
X167873643Y-122419781D01*
G37*
G36*
X174369591Y-120724585D02*
X174403569Y-120734893D01*
X174434887Y-120751633D01*
X174462339Y-120774161D01*
X174484867Y-120801613D01*
X174501607Y-120832931D01*
X174511915Y-120866909D01*
X174516000Y-120908390D01*
X174516000Y-121509610D01*
X174511915Y-121551091D01*
X174501607Y-121585069D01*
X174484867Y-121616387D01*
X174462339Y-121643839D01*
X174434887Y-121666367D01*
X174403569Y-121683107D01*
X174369591Y-121693415D01*
X174328110Y-121697500D01*
X173651890Y-121697500D01*
X173610409Y-121693415D01*
X173576431Y-121683107D01*
X173545113Y-121666367D01*
X173517661Y-121643839D01*
X173495133Y-121616387D01*
X173478393Y-121585069D01*
X173468085Y-121551091D01*
X173464000Y-121509610D01*
X173464000Y-120908390D01*
X173468085Y-120866909D01*
X173478393Y-120832931D01*
X173495133Y-120801613D01*
X173517661Y-120774161D01*
X173545113Y-120751633D01*
X173576431Y-120734893D01*
X173610409Y-120724585D01*
X173651890Y-120720500D01*
X174328110Y-120720500D01*
X174369591Y-120724585D01*
X174369591Y-120724585D01*
G37*
G36*
X181735591Y-120724585D02*
X181769569Y-120734893D01*
X181800887Y-120751633D01*
X181828339Y-120774161D01*
X181850867Y-120801613D01*
X181867607Y-120832931D01*
X181877915Y-120866909D01*
X181882000Y-120908390D01*
X181882000Y-121509610D01*
X181877915Y-121551091D01*
X181867607Y-121585069D01*
X181850867Y-121616387D01*
X181828339Y-121643839D01*
X181800887Y-121666367D01*
X181769569Y-121683107D01*
X181735591Y-121693415D01*
X181694110Y-121697500D01*
X181017890Y-121697500D01*
X180976409Y-121693415D01*
X180942431Y-121683107D01*
X180911113Y-121666367D01*
X180883661Y-121643839D01*
X180861133Y-121616387D01*
X180844393Y-121585069D01*
X180834085Y-121551091D01*
X180830000Y-121509610D01*
X180830000Y-120908390D01*
X180834085Y-120866909D01*
X180844393Y-120832931D01*
X180861133Y-120801613D01*
X180883661Y-120774161D01*
X180911113Y-120751633D01*
X180942431Y-120734893D01*
X180976409Y-120724585D01*
X181017890Y-120720500D01*
X181694110Y-120720500D01*
X181735591Y-120724585D01*
X181735591Y-120724585D01*
G37*
G36*
X147916091Y-120636085D02*
X147950069Y-120646393D01*
X147981387Y-120663133D01*
X148008839Y-120685661D01*
X148031367Y-120713113D01*
X148048107Y-120744431D01*
X148058415Y-120778409D01*
X148062500Y-120819890D01*
X148062500Y-121496110D01*
X148058415Y-121537591D01*
X148048107Y-121571569D01*
X148031367Y-121602887D01*
X148008839Y-121630339D01*
X147981387Y-121652867D01*
X147950069Y-121669607D01*
X147916091Y-121679915D01*
X147874610Y-121684000D01*
X147273390Y-121684000D01*
X147231909Y-121679915D01*
X147197931Y-121669607D01*
X147166613Y-121652867D01*
X147139161Y-121630339D01*
X147116633Y-121602887D01*
X147099893Y-121571569D01*
X147089585Y-121537591D01*
X147085500Y-121496110D01*
X147085500Y-120819890D01*
X147089585Y-120778409D01*
X147099893Y-120744431D01*
X147116633Y-120713113D01*
X147139161Y-120685661D01*
X147166613Y-120663133D01*
X147197931Y-120646393D01*
X147231909Y-120636085D01*
X147273390Y-120632000D01*
X147874610Y-120632000D01*
X147916091Y-120636085D01*
X147916091Y-120636085D01*
G37*
G36*
X149491091Y-120636085D02*
X149525069Y-120646393D01*
X149556387Y-120663133D01*
X149583839Y-120685661D01*
X149606367Y-120713113D01*
X149623107Y-120744431D01*
X149633415Y-120778409D01*
X149637500Y-120819890D01*
X149637500Y-121496110D01*
X149633415Y-121537591D01*
X149623107Y-121571569D01*
X149606367Y-121602887D01*
X149583839Y-121630339D01*
X149556387Y-121652867D01*
X149525069Y-121669607D01*
X149491091Y-121679915D01*
X149449610Y-121684000D01*
X148848390Y-121684000D01*
X148806909Y-121679915D01*
X148772931Y-121669607D01*
X148741613Y-121652867D01*
X148714161Y-121630339D01*
X148691633Y-121602887D01*
X148674893Y-121571569D01*
X148664585Y-121537591D01*
X148660500Y-121496110D01*
X148660500Y-120819890D01*
X148664585Y-120778409D01*
X148674893Y-120744431D01*
X148691633Y-120713113D01*
X148714161Y-120685661D01*
X148741613Y-120663133D01*
X148772931Y-120646393D01*
X148806909Y-120636085D01*
X148848390Y-120632000D01*
X149449610Y-120632000D01*
X149491091Y-120636085D01*
X149491091Y-120636085D01*
G37*
G36*
X151726091Y-120636085D02*
X151760069Y-120646393D01*
X151791387Y-120663133D01*
X151818839Y-120685661D01*
X151841367Y-120713113D01*
X151858107Y-120744431D01*
X151868415Y-120778409D01*
X151872500Y-120819890D01*
X151872500Y-121496110D01*
X151868415Y-121537591D01*
X151858107Y-121571569D01*
X151841367Y-121602887D01*
X151818839Y-121630339D01*
X151791387Y-121652867D01*
X151760069Y-121669607D01*
X151726091Y-121679915D01*
X151684610Y-121684000D01*
X151083390Y-121684000D01*
X151041909Y-121679915D01*
X151007931Y-121669607D01*
X150976613Y-121652867D01*
X150949161Y-121630339D01*
X150926633Y-121602887D01*
X150909893Y-121571569D01*
X150899585Y-121537591D01*
X150895500Y-121496110D01*
X150895500Y-120819890D01*
X150899585Y-120778409D01*
X150909893Y-120744431D01*
X150926633Y-120713113D01*
X150949161Y-120685661D01*
X150976613Y-120663133D01*
X151007931Y-120646393D01*
X151041909Y-120636085D01*
X151083390Y-120632000D01*
X151684610Y-120632000D01*
X151726091Y-120636085D01*
X151726091Y-120636085D01*
G37*
G36*
X177862591Y-120636085D02*
X177896569Y-120646393D01*
X177927887Y-120663133D01*
X177955339Y-120685661D01*
X177977867Y-120713113D01*
X177994607Y-120744431D01*
X178004915Y-120778409D01*
X178009000Y-120819890D01*
X178009000Y-121496110D01*
X178004915Y-121537591D01*
X177994607Y-121571569D01*
X177977867Y-121602887D01*
X177955339Y-121630339D01*
X177927887Y-121652867D01*
X177896569Y-121669607D01*
X177862591Y-121679915D01*
X177821110Y-121684000D01*
X177219890Y-121684000D01*
X177178409Y-121679915D01*
X177144431Y-121669607D01*
X177113113Y-121652867D01*
X177085661Y-121630339D01*
X177063133Y-121602887D01*
X177046393Y-121571569D01*
X177036085Y-121537591D01*
X177032000Y-121496110D01*
X177032000Y-120819890D01*
X177036085Y-120778409D01*
X177046393Y-120744431D01*
X177063133Y-120713113D01*
X177085661Y-120685661D01*
X177113113Y-120663133D01*
X177144431Y-120646393D01*
X177178409Y-120636085D01*
X177219890Y-120632000D01*
X177821110Y-120632000D01*
X177862591Y-120636085D01*
X177862591Y-120636085D01*
G37*
G36*
X185203091Y-120636085D02*
X185237069Y-120646393D01*
X185268387Y-120663133D01*
X185295839Y-120685661D01*
X185318367Y-120713113D01*
X185335107Y-120744431D01*
X185345415Y-120778409D01*
X185349500Y-120819890D01*
X185349500Y-121496110D01*
X185345415Y-121537591D01*
X185335107Y-121571569D01*
X185318367Y-121602887D01*
X185295839Y-121630339D01*
X185268387Y-121652867D01*
X185237069Y-121669607D01*
X185203091Y-121679915D01*
X185161610Y-121684000D01*
X184560390Y-121684000D01*
X184518909Y-121679915D01*
X184484931Y-121669607D01*
X184453613Y-121652867D01*
X184426161Y-121630339D01*
X184403633Y-121602887D01*
X184386893Y-121571569D01*
X184376585Y-121537591D01*
X184372500Y-121496110D01*
X184372500Y-120819890D01*
X184376585Y-120778409D01*
X184386893Y-120744431D01*
X184403633Y-120713113D01*
X184426161Y-120685661D01*
X184453613Y-120663133D01*
X184484931Y-120646393D01*
X184518909Y-120636085D01*
X184560390Y-120632000D01*
X185161610Y-120632000D01*
X185203091Y-120636085D01*
X185203091Y-120636085D01*
G37*
G36*
X186778091Y-120636085D02*
X186812069Y-120646393D01*
X186843387Y-120663133D01*
X186870839Y-120685661D01*
X186893367Y-120713113D01*
X186910107Y-120744431D01*
X186920415Y-120778409D01*
X186924500Y-120819890D01*
X186924500Y-121496110D01*
X186920415Y-121537591D01*
X186910107Y-121571569D01*
X186893367Y-121602887D01*
X186870839Y-121630339D01*
X186843387Y-121652867D01*
X186812069Y-121669607D01*
X186778091Y-121679915D01*
X186736610Y-121684000D01*
X186135390Y-121684000D01*
X186093909Y-121679915D01*
X186059931Y-121669607D01*
X186028613Y-121652867D01*
X186001161Y-121630339D01*
X185978633Y-121602887D01*
X185961893Y-121571569D01*
X185951585Y-121537591D01*
X185947500Y-121496110D01*
X185947500Y-120819890D01*
X185951585Y-120778409D01*
X185961893Y-120744431D01*
X185978633Y-120713113D01*
X186001161Y-120685661D01*
X186028613Y-120663133D01*
X186059931Y-120646393D01*
X186093909Y-120636085D01*
X186135390Y-120632000D01*
X186736610Y-120632000D01*
X186778091Y-120636085D01*
X186778091Y-120636085D01*
G37*
G36*
X153301091Y-120636085D02*
X153335069Y-120646393D01*
X153366387Y-120663133D01*
X153393839Y-120685661D01*
X153416367Y-120713113D01*
X153433107Y-120744431D01*
X153443415Y-120778409D01*
X153447500Y-120819890D01*
X153447500Y-121496110D01*
X153443415Y-121537591D01*
X153433107Y-121571569D01*
X153416367Y-121602887D01*
X153393839Y-121630339D01*
X153366387Y-121652867D01*
X153335069Y-121669607D01*
X153301091Y-121679915D01*
X153259610Y-121684000D01*
X152658390Y-121684000D01*
X152616909Y-121679915D01*
X152582931Y-121669607D01*
X152551613Y-121652867D01*
X152524161Y-121630339D01*
X152501633Y-121602887D01*
X152484893Y-121571569D01*
X152474585Y-121537591D01*
X152470500Y-121496110D01*
X152470500Y-120819890D01*
X152474585Y-120778409D01*
X152484893Y-120744431D01*
X152501633Y-120713113D01*
X152524161Y-120685661D01*
X152551613Y-120663133D01*
X152582931Y-120646393D01*
X152616909Y-120636085D01*
X152658390Y-120632000D01*
X153259610Y-120632000D01*
X153301091Y-120636085D01*
X153301091Y-120636085D01*
G37*
G36*
X179437591Y-120636085D02*
X179471569Y-120646393D01*
X179502887Y-120663133D01*
X179530339Y-120685661D01*
X179552867Y-120713113D01*
X179569607Y-120744431D01*
X179579915Y-120778409D01*
X179584000Y-120819890D01*
X179584000Y-121496110D01*
X179579915Y-121537591D01*
X179569607Y-121571569D01*
X179552867Y-121602887D01*
X179530339Y-121630339D01*
X179502887Y-121652867D01*
X179471569Y-121669607D01*
X179437591Y-121679915D01*
X179396110Y-121684000D01*
X178794890Y-121684000D01*
X178753409Y-121679915D01*
X178719431Y-121669607D01*
X178688113Y-121652867D01*
X178660661Y-121630339D01*
X178638133Y-121602887D01*
X178621393Y-121571569D01*
X178611085Y-121537591D01*
X178607000Y-121496110D01*
X178607000Y-120819890D01*
X178611085Y-120778409D01*
X178621393Y-120744431D01*
X178638133Y-120713113D01*
X178660661Y-120685661D01*
X178688113Y-120663133D01*
X178719431Y-120646393D01*
X178753409Y-120636085D01*
X178794890Y-120632000D01*
X179396110Y-120632000D01*
X179437591Y-120636085D01*
X179437591Y-120636085D01*
G37*
G36*
X176147591Y-120699085D02*
X176181569Y-120709393D01*
X176212887Y-120726133D01*
X176240339Y-120748661D01*
X176262867Y-120776113D01*
X176279607Y-120807431D01*
X176289915Y-120841409D01*
X176294000Y-120882890D01*
X176294000Y-121484110D01*
X176289915Y-121525591D01*
X176279607Y-121559569D01*
X176262867Y-121590887D01*
X176240339Y-121618339D01*
X176212887Y-121640867D01*
X176181569Y-121657607D01*
X176147591Y-121667915D01*
X176106110Y-121672000D01*
X175429890Y-121672000D01*
X175388409Y-121667915D01*
X175354431Y-121657607D01*
X175323113Y-121640867D01*
X175295661Y-121618339D01*
X175273133Y-121590887D01*
X175256393Y-121559569D01*
X175246085Y-121525591D01*
X175242000Y-121484110D01*
X175242000Y-120882890D01*
X175246085Y-120841409D01*
X175256393Y-120807431D01*
X175273133Y-120776113D01*
X175295661Y-120748661D01*
X175323113Y-120726133D01*
X175354431Y-120709393D01*
X175388409Y-120699085D01*
X175429890Y-120695000D01*
X176106110Y-120695000D01*
X176147591Y-120699085D01*
X176147591Y-120699085D01*
G37*
G36*
X183513591Y-120699085D02*
X183547569Y-120709393D01*
X183578887Y-120726133D01*
X183606339Y-120748661D01*
X183628867Y-120776113D01*
X183645607Y-120807431D01*
X183655915Y-120841409D01*
X183660000Y-120882890D01*
X183660000Y-121484110D01*
X183655915Y-121525591D01*
X183645607Y-121559569D01*
X183628867Y-121590887D01*
X183606339Y-121618339D01*
X183578887Y-121640867D01*
X183547569Y-121657607D01*
X183513591Y-121667915D01*
X183472110Y-121672000D01*
X182795890Y-121672000D01*
X182754409Y-121667915D01*
X182720431Y-121657607D01*
X182689113Y-121640867D01*
X182661661Y-121618339D01*
X182639133Y-121590887D01*
X182622393Y-121559569D01*
X182612085Y-121525591D01*
X182608000Y-121484110D01*
X182608000Y-120882890D01*
X182612085Y-120841409D01*
X182622393Y-120807431D01*
X182639133Y-120776113D01*
X182661661Y-120748661D01*
X182689113Y-120726133D01*
X182720431Y-120709393D01*
X182754409Y-120699085D01*
X182795890Y-120695000D01*
X183472110Y-120695000D01*
X183513591Y-120699085D01*
X183513591Y-120699085D01*
G37*
G36*
X170376466Y-120157565D02*
X170415137Y-120169296D01*
X170450779Y-120188348D01*
X170482017Y-120213983D01*
X170507652Y-120245221D01*
X170526704Y-120280863D01*
X170538435Y-120319534D01*
X170543000Y-120365888D01*
X170543000Y-121442112D01*
X170538435Y-121488466D01*
X170526704Y-121527137D01*
X170507652Y-121562779D01*
X170482017Y-121594017D01*
X170450779Y-121619652D01*
X170415137Y-121638704D01*
X170376466Y-121650435D01*
X170330112Y-121655000D01*
X169678888Y-121655000D01*
X169632534Y-121650435D01*
X169593863Y-121638704D01*
X169558221Y-121619652D01*
X169526983Y-121594017D01*
X169501348Y-121562779D01*
X169482296Y-121527137D01*
X169470565Y-121488466D01*
X169466000Y-121442112D01*
X169466000Y-120365888D01*
X169470565Y-120319534D01*
X169482296Y-120280863D01*
X169501348Y-120245221D01*
X169526983Y-120213983D01*
X169558221Y-120188348D01*
X169593863Y-120169296D01*
X169632534Y-120157565D01*
X169678888Y-120153000D01*
X170330112Y-120153000D01*
X170376466Y-120157565D01*
X170376466Y-120157565D01*
G37*
G36*
X172251466Y-120157565D02*
X172290137Y-120169296D01*
X172325779Y-120188348D01*
X172357017Y-120213983D01*
X172382652Y-120245221D01*
X172401704Y-120280863D01*
X172413435Y-120319534D01*
X172418000Y-120365888D01*
X172418000Y-121442112D01*
X172413435Y-121488466D01*
X172401704Y-121527137D01*
X172382652Y-121562779D01*
X172357017Y-121594017D01*
X172325779Y-121619652D01*
X172290137Y-121638704D01*
X172251466Y-121650435D01*
X172205112Y-121655000D01*
X171553888Y-121655000D01*
X171507534Y-121650435D01*
X171468863Y-121638704D01*
X171433221Y-121619652D01*
X171401983Y-121594017D01*
X171376348Y-121562779D01*
X171357296Y-121527137D01*
X171345565Y-121488466D01*
X171341000Y-121442112D01*
X171341000Y-120365888D01*
X171345565Y-120319534D01*
X171357296Y-120280863D01*
X171376348Y-120245221D01*
X171401983Y-120213983D01*
X171433221Y-120188348D01*
X171468863Y-120169296D01*
X171507534Y-120157565D01*
X171553888Y-120153000D01*
X172205112Y-120153000D01*
X172251466Y-120157565D01*
X172251466Y-120157565D01*
G37*
G36*
X166857643Y-119879781D02*
X167003415Y-119940162D01*
X167134611Y-120027824D01*
X167246176Y-120139389D01*
X167333838Y-120270585D01*
X167394219Y-120416357D01*
X167425000Y-120571107D01*
X167425000Y-120728893D01*
X167394219Y-120883643D01*
X167333838Y-121029415D01*
X167246176Y-121160611D01*
X167134611Y-121272176D01*
X167003415Y-121359838D01*
X166857643Y-121420219D01*
X166702893Y-121451000D01*
X166545107Y-121451000D01*
X166390357Y-121420219D01*
X166244585Y-121359838D01*
X166113389Y-121272176D01*
X166001824Y-121160611D01*
X165914162Y-121029415D01*
X165853781Y-120883643D01*
X165823000Y-120728893D01*
X165823000Y-120571107D01*
X165853781Y-120416357D01*
X165914162Y-120270585D01*
X166001824Y-120139389D01*
X166113389Y-120027824D01*
X166244585Y-119940162D01*
X166390357Y-119879781D01*
X166545107Y-119849000D01*
X166702893Y-119849000D01*
X166857643Y-119879781D01*
X166857643Y-119879781D01*
G37*
G36*
X136486091Y-120382085D02*
X136520069Y-120392393D01*
X136551387Y-120409133D01*
X136578839Y-120431661D01*
X136601367Y-120459113D01*
X136618107Y-120490431D01*
X136628415Y-120524409D01*
X136632500Y-120565890D01*
X136632500Y-121242110D01*
X136628415Y-121283591D01*
X136618107Y-121317569D01*
X136601367Y-121348887D01*
X136578839Y-121376339D01*
X136551387Y-121398867D01*
X136520069Y-121415607D01*
X136486091Y-121425915D01*
X136444610Y-121430000D01*
X135843390Y-121430000D01*
X135801909Y-121425915D01*
X135767931Y-121415607D01*
X135736613Y-121398867D01*
X135709161Y-121376339D01*
X135686633Y-121348887D01*
X135669893Y-121317569D01*
X135659585Y-121283591D01*
X135655500Y-121242110D01*
X135655500Y-120565890D01*
X135659585Y-120524409D01*
X135669893Y-120490431D01*
X135686633Y-120459113D01*
X135709161Y-120431661D01*
X135736613Y-120409133D01*
X135767931Y-120392393D01*
X135801909Y-120382085D01*
X135843390Y-120378000D01*
X136444610Y-120378000D01*
X136486091Y-120382085D01*
X136486091Y-120382085D01*
G37*
G36*
X142099591Y-120382085D02*
X142133569Y-120392393D01*
X142164887Y-120409133D01*
X142192339Y-120431661D01*
X142214867Y-120459113D01*
X142231607Y-120490431D01*
X142241915Y-120524409D01*
X142246000Y-120565890D01*
X142246000Y-121242110D01*
X142241915Y-121283591D01*
X142231607Y-121317569D01*
X142214867Y-121348887D01*
X142192339Y-121376339D01*
X142164887Y-121398867D01*
X142133569Y-121415607D01*
X142099591Y-121425915D01*
X142058110Y-121430000D01*
X141456890Y-121430000D01*
X141415409Y-121425915D01*
X141381431Y-121415607D01*
X141350113Y-121398867D01*
X141322661Y-121376339D01*
X141300133Y-121348887D01*
X141283393Y-121317569D01*
X141273085Y-121283591D01*
X141269000Y-121242110D01*
X141269000Y-120565890D01*
X141273085Y-120524409D01*
X141283393Y-120490431D01*
X141300133Y-120459113D01*
X141322661Y-120431661D01*
X141350113Y-120409133D01*
X141381431Y-120392393D01*
X141415409Y-120382085D01*
X141456890Y-120378000D01*
X142058110Y-120378000D01*
X142099591Y-120382085D01*
X142099591Y-120382085D01*
G37*
G36*
X134911091Y-120382085D02*
X134945069Y-120392393D01*
X134976387Y-120409133D01*
X135003839Y-120431661D01*
X135026367Y-120459113D01*
X135043107Y-120490431D01*
X135053415Y-120524409D01*
X135057500Y-120565890D01*
X135057500Y-121242110D01*
X135053415Y-121283591D01*
X135043107Y-121317569D01*
X135026367Y-121348887D01*
X135003839Y-121376339D01*
X134976387Y-121398867D01*
X134945069Y-121415607D01*
X134911091Y-121425915D01*
X134869610Y-121430000D01*
X134268390Y-121430000D01*
X134226909Y-121425915D01*
X134192931Y-121415607D01*
X134161613Y-121398867D01*
X134134161Y-121376339D01*
X134111633Y-121348887D01*
X134094893Y-121317569D01*
X134084585Y-121283591D01*
X134080500Y-121242110D01*
X134080500Y-120565890D01*
X134084585Y-120524409D01*
X134094893Y-120490431D01*
X134111633Y-120459113D01*
X134134161Y-120431661D01*
X134161613Y-120409133D01*
X134192931Y-120392393D01*
X134226909Y-120382085D01*
X134268390Y-120378000D01*
X134869610Y-120378000D01*
X134911091Y-120382085D01*
X134911091Y-120382085D01*
G37*
G36*
X140524591Y-120382085D02*
X140558569Y-120392393D01*
X140589887Y-120409133D01*
X140617339Y-120431661D01*
X140639867Y-120459113D01*
X140656607Y-120490431D01*
X140666915Y-120524409D01*
X140671000Y-120565890D01*
X140671000Y-121242110D01*
X140666915Y-121283591D01*
X140656607Y-121317569D01*
X140639867Y-121348887D01*
X140617339Y-121376339D01*
X140589887Y-121398867D01*
X140558569Y-121415607D01*
X140524591Y-121425915D01*
X140483110Y-121430000D01*
X139881890Y-121430000D01*
X139840409Y-121425915D01*
X139806431Y-121415607D01*
X139775113Y-121398867D01*
X139747661Y-121376339D01*
X139725133Y-121348887D01*
X139708393Y-121317569D01*
X139698085Y-121283591D01*
X139694000Y-121242110D01*
X139694000Y-120565890D01*
X139698085Y-120524409D01*
X139708393Y-120490431D01*
X139725133Y-120459113D01*
X139747661Y-120431661D01*
X139775113Y-120409133D01*
X139806431Y-120392393D01*
X139840409Y-120382085D01*
X139881890Y-120378000D01*
X140483110Y-120378000D01*
X140524591Y-120382085D01*
X140524591Y-120382085D01*
G37*
G36*
X181735591Y-119149585D02*
X181769569Y-119159893D01*
X181800887Y-119176633D01*
X181828339Y-119199161D01*
X181850867Y-119226613D01*
X181867607Y-119257931D01*
X181877915Y-119291909D01*
X181882000Y-119333390D01*
X181882000Y-119934610D01*
X181877915Y-119976091D01*
X181867607Y-120010069D01*
X181850867Y-120041387D01*
X181828339Y-120068839D01*
X181800887Y-120091367D01*
X181769569Y-120108107D01*
X181735591Y-120118415D01*
X181694110Y-120122500D01*
X181017890Y-120122500D01*
X180976409Y-120118415D01*
X180942431Y-120108107D01*
X180911113Y-120091367D01*
X180883661Y-120068839D01*
X180861133Y-120041387D01*
X180844393Y-120010069D01*
X180834085Y-119976091D01*
X180830000Y-119934610D01*
X180830000Y-119333390D01*
X180834085Y-119291909D01*
X180844393Y-119257931D01*
X180861133Y-119226613D01*
X180883661Y-119199161D01*
X180911113Y-119176633D01*
X180942431Y-119159893D01*
X180976409Y-119149585D01*
X181017890Y-119145500D01*
X181694110Y-119145500D01*
X181735591Y-119149585D01*
X181735591Y-119149585D01*
G37*
G36*
X174369591Y-119149585D02*
X174403569Y-119159893D01*
X174434887Y-119176633D01*
X174462339Y-119199161D01*
X174484867Y-119226613D01*
X174501607Y-119257931D01*
X174511915Y-119291909D01*
X174516000Y-119333390D01*
X174516000Y-119934610D01*
X174511915Y-119976091D01*
X174501607Y-120010069D01*
X174484867Y-120041387D01*
X174462339Y-120068839D01*
X174434887Y-120091367D01*
X174403569Y-120108107D01*
X174369591Y-120118415D01*
X174328110Y-120122500D01*
X173651890Y-120122500D01*
X173610409Y-120118415D01*
X173576431Y-120108107D01*
X173545113Y-120091367D01*
X173517661Y-120068839D01*
X173495133Y-120041387D01*
X173478393Y-120010069D01*
X173468085Y-119976091D01*
X173464000Y-119934610D01*
X173464000Y-119333390D01*
X173468085Y-119291909D01*
X173478393Y-119257931D01*
X173495133Y-119226613D01*
X173517661Y-119199161D01*
X173545113Y-119176633D01*
X173576431Y-119159893D01*
X173610409Y-119149585D01*
X173651890Y-119145500D01*
X174328110Y-119145500D01*
X174369591Y-119149585D01*
X174369591Y-119149585D01*
G37*
G36*
X183513591Y-119124085D02*
X183547569Y-119134393D01*
X183578887Y-119151133D01*
X183606339Y-119173661D01*
X183628867Y-119201113D01*
X183645607Y-119232431D01*
X183655915Y-119266409D01*
X183660000Y-119307890D01*
X183660000Y-119909110D01*
X183655915Y-119950591D01*
X183645607Y-119984569D01*
X183628867Y-120015887D01*
X183606339Y-120043339D01*
X183578887Y-120065867D01*
X183547569Y-120082607D01*
X183513591Y-120092915D01*
X183472110Y-120097000D01*
X182795890Y-120097000D01*
X182754409Y-120092915D01*
X182720431Y-120082607D01*
X182689113Y-120065867D01*
X182661661Y-120043339D01*
X182639133Y-120015887D01*
X182622393Y-119984569D01*
X182612085Y-119950591D01*
X182608000Y-119909110D01*
X182608000Y-119307890D01*
X182612085Y-119266409D01*
X182622393Y-119232431D01*
X182639133Y-119201113D01*
X182661661Y-119173661D01*
X182689113Y-119151133D01*
X182720431Y-119134393D01*
X182754409Y-119124085D01*
X182795890Y-119120000D01*
X183472110Y-119120000D01*
X183513591Y-119124085D01*
X183513591Y-119124085D01*
G37*
G36*
X176147591Y-119124085D02*
X176181569Y-119134393D01*
X176212887Y-119151133D01*
X176240339Y-119173661D01*
X176262867Y-119201113D01*
X176279607Y-119232431D01*
X176289915Y-119266409D01*
X176294000Y-119307890D01*
X176294000Y-119909110D01*
X176289915Y-119950591D01*
X176279607Y-119984569D01*
X176262867Y-120015887D01*
X176240339Y-120043339D01*
X176212887Y-120065867D01*
X176181569Y-120082607D01*
X176147591Y-120092915D01*
X176106110Y-120097000D01*
X175429890Y-120097000D01*
X175388409Y-120092915D01*
X175354431Y-120082607D01*
X175323113Y-120065867D01*
X175295661Y-120043339D01*
X175273133Y-120015887D01*
X175256393Y-119984569D01*
X175246085Y-119950591D01*
X175242000Y-119909110D01*
X175242000Y-119307890D01*
X175246085Y-119266409D01*
X175256393Y-119232431D01*
X175273133Y-119201113D01*
X175295661Y-119173661D01*
X175323113Y-119151133D01*
X175354431Y-119134393D01*
X175388409Y-119124085D01*
X175429890Y-119120000D01*
X176106110Y-119120000D01*
X176147591Y-119124085D01*
X176147591Y-119124085D01*
G37*
G36*
X149682466Y-118943065D02*
X149721137Y-118954796D01*
X149756779Y-118973848D01*
X149788017Y-118999483D01*
X149813652Y-119030721D01*
X149832704Y-119066363D01*
X149844435Y-119105034D01*
X149849000Y-119151388D01*
X149849000Y-119802612D01*
X149844435Y-119848966D01*
X149832704Y-119887637D01*
X149813652Y-119923279D01*
X149788017Y-119954517D01*
X149756779Y-119980152D01*
X149721137Y-119999204D01*
X149682466Y-120010935D01*
X149636112Y-120015500D01*
X148559888Y-120015500D01*
X148513534Y-120010935D01*
X148474863Y-119999204D01*
X148439221Y-119980152D01*
X148407983Y-119954517D01*
X148382348Y-119923279D01*
X148363296Y-119887637D01*
X148351565Y-119848966D01*
X148347000Y-119802612D01*
X148347000Y-119151388D01*
X148351565Y-119105034D01*
X148363296Y-119066363D01*
X148382348Y-119030721D01*
X148407983Y-118999483D01*
X148439221Y-118973848D01*
X148474863Y-118954796D01*
X148513534Y-118943065D01*
X148559888Y-118938500D01*
X149636112Y-118938500D01*
X149682466Y-118943065D01*
X149682466Y-118943065D01*
G37*
G36*
X151968466Y-118943065D02*
X152007137Y-118954796D01*
X152042779Y-118973848D01*
X152074017Y-118999483D01*
X152099652Y-119030721D01*
X152118704Y-119066363D01*
X152130435Y-119105034D01*
X152135000Y-119151388D01*
X152135000Y-119802612D01*
X152130435Y-119848966D01*
X152118704Y-119887637D01*
X152099652Y-119923279D01*
X152074017Y-119954517D01*
X152042779Y-119980152D01*
X152007137Y-119999204D01*
X151968466Y-120010935D01*
X151922112Y-120015500D01*
X150845888Y-120015500D01*
X150799534Y-120010935D01*
X150760863Y-119999204D01*
X150725221Y-119980152D01*
X150693983Y-119954517D01*
X150668348Y-119923279D01*
X150649296Y-119887637D01*
X150637565Y-119848966D01*
X150633000Y-119802612D01*
X150633000Y-119151388D01*
X150637565Y-119105034D01*
X150649296Y-119066363D01*
X150668348Y-119030721D01*
X150693983Y-118999483D01*
X150725221Y-118973848D01*
X150760863Y-118954796D01*
X150799534Y-118943065D01*
X150845888Y-118938500D01*
X151922112Y-118938500D01*
X151968466Y-118943065D01*
X151968466Y-118943065D01*
G37*
G36*
X170551966Y-118125565D02*
X170590637Y-118137296D01*
X170626279Y-118156348D01*
X170657517Y-118181983D01*
X170683152Y-118213221D01*
X170702204Y-118248863D01*
X170713935Y-118287534D01*
X170718500Y-118333888D01*
X170718500Y-119410112D01*
X170713935Y-119456466D01*
X170702204Y-119495137D01*
X170683152Y-119530779D01*
X170657517Y-119562017D01*
X170626279Y-119587652D01*
X170590637Y-119606704D01*
X170551966Y-119618435D01*
X170505612Y-119623000D01*
X169854388Y-119623000D01*
X169808034Y-119618435D01*
X169769363Y-119606704D01*
X169733721Y-119587652D01*
X169702483Y-119562017D01*
X169676848Y-119530779D01*
X169657796Y-119495137D01*
X169646065Y-119456466D01*
X169641500Y-119410112D01*
X169641500Y-118333888D01*
X169646065Y-118287534D01*
X169657796Y-118248863D01*
X169676848Y-118213221D01*
X169702483Y-118181983D01*
X169733721Y-118156348D01*
X169769363Y-118137296D01*
X169808034Y-118125565D01*
X169854388Y-118121000D01*
X170505612Y-118121000D01*
X170551966Y-118125565D01*
X170551966Y-118125565D01*
G37*
G36*
X172426966Y-118125565D02*
X172465637Y-118137296D01*
X172501279Y-118156348D01*
X172532517Y-118181983D01*
X172558152Y-118213221D01*
X172577204Y-118248863D01*
X172588935Y-118287534D01*
X172593500Y-118333888D01*
X172593500Y-119410112D01*
X172588935Y-119456466D01*
X172577204Y-119495137D01*
X172558152Y-119530779D01*
X172532517Y-119562017D01*
X172501279Y-119587652D01*
X172465637Y-119606704D01*
X172426966Y-119618435D01*
X172380612Y-119623000D01*
X171729388Y-119623000D01*
X171683034Y-119618435D01*
X171644363Y-119606704D01*
X171608721Y-119587652D01*
X171577483Y-119562017D01*
X171551848Y-119530779D01*
X171532796Y-119495137D01*
X171521065Y-119456466D01*
X171516500Y-119410112D01*
X171516500Y-118333888D01*
X171521065Y-118287534D01*
X171532796Y-118248863D01*
X171551848Y-118213221D01*
X171577483Y-118181983D01*
X171608721Y-118156348D01*
X171644363Y-118137296D01*
X171683034Y-118125565D01*
X171729388Y-118121000D01*
X172380612Y-118121000D01*
X172426966Y-118125565D01*
X172426966Y-118125565D01*
G37*
G36*
X141299133Y-117378310D02*
X141330424Y-117387802D01*
X141359261Y-117403216D01*
X141384539Y-117423961D01*
X141405284Y-117449239D01*
X141420698Y-117478076D01*
X141430190Y-117509367D01*
X141434000Y-117548050D01*
X141434000Y-119377950D01*
X141430190Y-119416633D01*
X141420698Y-119447924D01*
X141405284Y-119476761D01*
X141384539Y-119502039D01*
X141359261Y-119522784D01*
X141330424Y-119538198D01*
X141299133Y-119547690D01*
X141260450Y-119551500D01*
X139155550Y-119551500D01*
X139116867Y-119547690D01*
X139085576Y-119538198D01*
X139056739Y-119522784D01*
X139031461Y-119502039D01*
X139010716Y-119476761D01*
X138995302Y-119447924D01*
X138985810Y-119416633D01*
X138982000Y-119377950D01*
X138982000Y-117548050D01*
X138985810Y-117509367D01*
X138995302Y-117478076D01*
X139010716Y-117449239D01*
X139031461Y-117423961D01*
X139056739Y-117403216D01*
X139085576Y-117387802D01*
X139116867Y-117378310D01*
X139155550Y-117374500D01*
X141260450Y-117374500D01*
X141299133Y-117378310D01*
X141299133Y-117378310D01*
G37*
G36*
X137235133Y-117378310D02*
X137266424Y-117387802D01*
X137295261Y-117403216D01*
X137320539Y-117423961D01*
X137341284Y-117449239D01*
X137356698Y-117478076D01*
X137366190Y-117509367D01*
X137370000Y-117548050D01*
X137370000Y-119377950D01*
X137366190Y-119416633D01*
X137356698Y-119447924D01*
X137341284Y-119476761D01*
X137320539Y-119502039D01*
X137295261Y-119522784D01*
X137266424Y-119538198D01*
X137235133Y-119547690D01*
X137196450Y-119551500D01*
X135091550Y-119551500D01*
X135052867Y-119547690D01*
X135021576Y-119538198D01*
X134992739Y-119522784D01*
X134967461Y-119502039D01*
X134946716Y-119476761D01*
X134931302Y-119447924D01*
X134921810Y-119416633D01*
X134918000Y-119377950D01*
X134918000Y-117548050D01*
X134921810Y-117509367D01*
X134931302Y-117478076D01*
X134946716Y-117449239D01*
X134967461Y-117423961D01*
X134992739Y-117403216D01*
X135021576Y-117387802D01*
X135052867Y-117378310D01*
X135091550Y-117374500D01*
X137196450Y-117374500D01*
X137235133Y-117378310D01*
X137235133Y-117378310D01*
G37*
G36*
X167873643Y-117593781D02*
X168019415Y-117654162D01*
X168150611Y-117741824D01*
X168262176Y-117853389D01*
X168349838Y-117984585D01*
X168410219Y-118130357D01*
X168441000Y-118285107D01*
X168441000Y-118442893D01*
X168410219Y-118597643D01*
X168349838Y-118743415D01*
X168262176Y-118874611D01*
X168150611Y-118986176D01*
X168019415Y-119073838D01*
X167873643Y-119134219D01*
X167718893Y-119165000D01*
X167561107Y-119165000D01*
X167406357Y-119134219D01*
X167260585Y-119073838D01*
X167129389Y-118986176D01*
X167017824Y-118874611D01*
X166930162Y-118743415D01*
X166869781Y-118597643D01*
X166839000Y-118442893D01*
X166839000Y-118285107D01*
X166869781Y-118130357D01*
X166930162Y-117984585D01*
X167017824Y-117853389D01*
X167129389Y-117741824D01*
X167260585Y-117654162D01*
X167406357Y-117593781D01*
X167561107Y-117563000D01*
X167718893Y-117563000D01*
X167873643Y-117593781D01*
X167873643Y-117593781D01*
G37*
G36*
X143743643Y-117339781D02*
X143889415Y-117400162D01*
X144020611Y-117487824D01*
X144132176Y-117599389D01*
X144219838Y-117730585D01*
X144280219Y-117876357D01*
X144311000Y-118031107D01*
X144311000Y-118188893D01*
X144280219Y-118343643D01*
X144219838Y-118489415D01*
X144132176Y-118620611D01*
X144020611Y-118732176D01*
X143889415Y-118819838D01*
X143743643Y-118880219D01*
X143588893Y-118911000D01*
X143431107Y-118911000D01*
X143276357Y-118880219D01*
X143130585Y-118819838D01*
X142999389Y-118732176D01*
X142887824Y-118620611D01*
X142800162Y-118489415D01*
X142739781Y-118343643D01*
X142709000Y-118188893D01*
X142709000Y-118031107D01*
X142739781Y-117876357D01*
X142800162Y-117730585D01*
X142887824Y-117599389D01*
X142999389Y-117487824D01*
X143130585Y-117400162D01*
X143276357Y-117339781D01*
X143431107Y-117309000D01*
X143588893Y-117309000D01*
X143743643Y-117339781D01*
X143743643Y-117339781D01*
G37*
G36*
X154538643Y-117339781D02*
X154684415Y-117400162D01*
X154815611Y-117487824D01*
X154927176Y-117599389D01*
X155014838Y-117730585D01*
X155075219Y-117876357D01*
X155106000Y-118031107D01*
X155106000Y-118188893D01*
X155075219Y-118343643D01*
X155014838Y-118489415D01*
X154927176Y-118620611D01*
X154815611Y-118732176D01*
X154684415Y-118819838D01*
X154538643Y-118880219D01*
X154383893Y-118911000D01*
X154226107Y-118911000D01*
X154071357Y-118880219D01*
X153925585Y-118819838D01*
X153794389Y-118732176D01*
X153682824Y-118620611D01*
X153595162Y-118489415D01*
X153534781Y-118343643D01*
X153504000Y-118188893D01*
X153504000Y-118031107D01*
X153534781Y-117876357D01*
X153595162Y-117730585D01*
X153682824Y-117599389D01*
X153794389Y-117487824D01*
X153925585Y-117400162D01*
X154071357Y-117339781D01*
X154226107Y-117309000D01*
X154383893Y-117309000D01*
X154538643Y-117339781D01*
X154538643Y-117339781D01*
G37*
G36*
X149682466Y-117068065D02*
X149721137Y-117079796D01*
X149756779Y-117098848D01*
X149788017Y-117124483D01*
X149813652Y-117155721D01*
X149832704Y-117191363D01*
X149844435Y-117230034D01*
X149849000Y-117276388D01*
X149849000Y-117927612D01*
X149844435Y-117973966D01*
X149832704Y-118012637D01*
X149813652Y-118048279D01*
X149788017Y-118079517D01*
X149756779Y-118105152D01*
X149721137Y-118124204D01*
X149682466Y-118135935D01*
X149636112Y-118140500D01*
X148559888Y-118140500D01*
X148513534Y-118135935D01*
X148474863Y-118124204D01*
X148439221Y-118105152D01*
X148407983Y-118079517D01*
X148382348Y-118048279D01*
X148363296Y-118012637D01*
X148351565Y-117973966D01*
X148347000Y-117927612D01*
X148347000Y-117276388D01*
X148351565Y-117230034D01*
X148363296Y-117191363D01*
X148382348Y-117155721D01*
X148407983Y-117124483D01*
X148439221Y-117098848D01*
X148474863Y-117079796D01*
X148513534Y-117068065D01*
X148559888Y-117063500D01*
X149636112Y-117063500D01*
X149682466Y-117068065D01*
X149682466Y-117068065D01*
G37*
G36*
X151968466Y-117068065D02*
X152007137Y-117079796D01*
X152042779Y-117098848D01*
X152074017Y-117124483D01*
X152099652Y-117155721D01*
X152118704Y-117191363D01*
X152130435Y-117230034D01*
X152135000Y-117276388D01*
X152135000Y-117927612D01*
X152130435Y-117973966D01*
X152118704Y-118012637D01*
X152099652Y-118048279D01*
X152074017Y-118079517D01*
X152042779Y-118105152D01*
X152007137Y-118124204D01*
X151968466Y-118135935D01*
X151922112Y-118140500D01*
X150845888Y-118140500D01*
X150799534Y-118135935D01*
X150760863Y-118124204D01*
X150725221Y-118105152D01*
X150693983Y-118079517D01*
X150668348Y-118048279D01*
X150649296Y-118012637D01*
X150637565Y-117973966D01*
X150633000Y-117927612D01*
X150633000Y-117276388D01*
X150637565Y-117230034D01*
X150649296Y-117191363D01*
X150668348Y-117155721D01*
X150693983Y-117124483D01*
X150725221Y-117098848D01*
X150760863Y-117079796D01*
X150799534Y-117068065D01*
X150845888Y-117063500D01*
X151922112Y-117063500D01*
X151968466Y-117068065D01*
X151968466Y-117068065D01*
G37*
G36*
X143743643Y-114799781D02*
X143889415Y-114860162D01*
X144020611Y-114947824D01*
X144132176Y-115059389D01*
X144219838Y-115190585D01*
X144280219Y-115336357D01*
X144311000Y-115491107D01*
X144311000Y-115648893D01*
X144280219Y-115803643D01*
X144219838Y-115949415D01*
X144132176Y-116080611D01*
X144020611Y-116192176D01*
X143889415Y-116279838D01*
X143743643Y-116340219D01*
X143588893Y-116371000D01*
X143431107Y-116371000D01*
X143276357Y-116340219D01*
X143130585Y-116279838D01*
X142999389Y-116192176D01*
X142887824Y-116080611D01*
X142800162Y-115949415D01*
X142739781Y-115803643D01*
X142709000Y-115648893D01*
X142709000Y-115491107D01*
X142739781Y-115336357D01*
X142800162Y-115190585D01*
X142887824Y-115059389D01*
X142999389Y-114947824D01*
X143130585Y-114860162D01*
X143276357Y-114799781D01*
X143431107Y-114769000D01*
X143588893Y-114769000D01*
X143743643Y-114799781D01*
X143743643Y-114799781D01*
G37*
G36*
X153141643Y-114799781D02*
X153287415Y-114860162D01*
X153418611Y-114947824D01*
X153530176Y-115059389D01*
X153617838Y-115190585D01*
X153678219Y-115336357D01*
X153709000Y-115491107D01*
X153709000Y-115648893D01*
X153678219Y-115803643D01*
X153617838Y-115949415D01*
X153530176Y-116080611D01*
X153418611Y-116192176D01*
X153287415Y-116279838D01*
X153141643Y-116340219D01*
X152986893Y-116371000D01*
X152829107Y-116371000D01*
X152674357Y-116340219D01*
X152528585Y-116279838D01*
X152397389Y-116192176D01*
X152285824Y-116080611D01*
X152198162Y-115949415D01*
X152137781Y-115803643D01*
X152107000Y-115648893D01*
X152107000Y-115491107D01*
X152137781Y-115336357D01*
X152198162Y-115190585D01*
X152285824Y-115059389D01*
X152397389Y-114947824D01*
X152528585Y-114860162D01*
X152674357Y-114799781D01*
X152829107Y-114769000D01*
X152986893Y-114769000D01*
X153141643Y-114799781D01*
X153141643Y-114799781D01*
G37*
G36*
X159041000Y-116225000D02*
X157839000Y-116225000D01*
X157839000Y-107273000D01*
X159041000Y-107273000D01*
X159041000Y-116225000D01*
X159041000Y-116225000D01*
G37*
G36*
X164741000Y-116225000D02*
X163539000Y-116225000D01*
X163539000Y-107273000D01*
X164741000Y-107273000D01*
X164741000Y-116225000D01*
X164741000Y-116225000D01*
G37*
G36*
X176692000Y-116211000D02*
X174590000Y-116211000D01*
X174590000Y-111609000D01*
X176692000Y-111609000D01*
X176692000Y-116211000D01*
X176692000Y-116211000D01*
G37*
G36*
X150347643Y-114291781D02*
X150493415Y-114352162D01*
X150624611Y-114439824D01*
X150736176Y-114551389D01*
X150823838Y-114682585D01*
X150884219Y-114828357D01*
X150915000Y-114983107D01*
X150915000Y-115140893D01*
X150884219Y-115295643D01*
X150823838Y-115441415D01*
X150736176Y-115572611D01*
X150624611Y-115684176D01*
X150493415Y-115771838D01*
X150347643Y-115832219D01*
X150192893Y-115863000D01*
X150035107Y-115863000D01*
X149880357Y-115832219D01*
X149734585Y-115771838D01*
X149603389Y-115684176D01*
X149491824Y-115572611D01*
X149404162Y-115441415D01*
X149343781Y-115295643D01*
X149313000Y-115140893D01*
X149313000Y-114983107D01*
X149343781Y-114828357D01*
X149404162Y-114682585D01*
X149491824Y-114551389D01*
X149603389Y-114439824D01*
X149734585Y-114352162D01*
X149880357Y-114291781D01*
X150035107Y-114261000D01*
X150192893Y-114261000D01*
X150347643Y-114291781D01*
X150347643Y-114291781D01*
G37*
G36*
X124243091Y-114032085D02*
X124277069Y-114042393D01*
X124308387Y-114059133D01*
X124335839Y-114081661D01*
X124358367Y-114109113D01*
X124375107Y-114140431D01*
X124385415Y-114174409D01*
X124389500Y-114215890D01*
X124389500Y-114892110D01*
X124385415Y-114933591D01*
X124375107Y-114967569D01*
X124358367Y-114998887D01*
X124335839Y-115026339D01*
X124308387Y-115048867D01*
X124277069Y-115065607D01*
X124243091Y-115075915D01*
X124201610Y-115080000D01*
X123600390Y-115080000D01*
X123558909Y-115075915D01*
X123524931Y-115065607D01*
X123493613Y-115048867D01*
X123466161Y-115026339D01*
X123443633Y-114998887D01*
X123426893Y-114967569D01*
X123416585Y-114933591D01*
X123412500Y-114892110D01*
X123412500Y-114215890D01*
X123416585Y-114174409D01*
X123426893Y-114140431D01*
X123443633Y-114109113D01*
X123466161Y-114081661D01*
X123493613Y-114059133D01*
X123524931Y-114042393D01*
X123558909Y-114032085D01*
X123600390Y-114028000D01*
X124201610Y-114028000D01*
X124243091Y-114032085D01*
X124243091Y-114032085D01*
G37*
G36*
X129120091Y-114032085D02*
X129154069Y-114042393D01*
X129185387Y-114059133D01*
X129212839Y-114081661D01*
X129235367Y-114109113D01*
X129252107Y-114140431D01*
X129262415Y-114174409D01*
X129266500Y-114215890D01*
X129266500Y-114892110D01*
X129262415Y-114933591D01*
X129252107Y-114967569D01*
X129235367Y-114998887D01*
X129212839Y-115026339D01*
X129185387Y-115048867D01*
X129154069Y-115065607D01*
X129120091Y-115075915D01*
X129078610Y-115080000D01*
X128477390Y-115080000D01*
X128435909Y-115075915D01*
X128401931Y-115065607D01*
X128370613Y-115048867D01*
X128343161Y-115026339D01*
X128320633Y-114998887D01*
X128303893Y-114967569D01*
X128293585Y-114933591D01*
X128289500Y-114892110D01*
X128289500Y-114215890D01*
X128293585Y-114174409D01*
X128303893Y-114140431D01*
X128320633Y-114109113D01*
X128343161Y-114081661D01*
X128370613Y-114059133D01*
X128401931Y-114042393D01*
X128435909Y-114032085D01*
X128477390Y-114028000D01*
X129078610Y-114028000D01*
X129120091Y-114032085D01*
X129120091Y-114032085D01*
G37*
G36*
X125818091Y-114032085D02*
X125852069Y-114042393D01*
X125883387Y-114059133D01*
X125910839Y-114081661D01*
X125933367Y-114109113D01*
X125950107Y-114140431D01*
X125960415Y-114174409D01*
X125964500Y-114215890D01*
X125964500Y-114892110D01*
X125960415Y-114933591D01*
X125950107Y-114967569D01*
X125933367Y-114998887D01*
X125910839Y-115026339D01*
X125883387Y-115048867D01*
X125852069Y-115065607D01*
X125818091Y-115075915D01*
X125776610Y-115080000D01*
X125175390Y-115080000D01*
X125133909Y-115075915D01*
X125099931Y-115065607D01*
X125068613Y-115048867D01*
X125041161Y-115026339D01*
X125018633Y-114998887D01*
X125001893Y-114967569D01*
X124991585Y-114933591D01*
X124987500Y-114892110D01*
X124987500Y-114215890D01*
X124991585Y-114174409D01*
X125001893Y-114140431D01*
X125018633Y-114109113D01*
X125041161Y-114081661D01*
X125068613Y-114059133D01*
X125099931Y-114042393D01*
X125133909Y-114032085D01*
X125175390Y-114028000D01*
X125776610Y-114028000D01*
X125818091Y-114032085D01*
X125818091Y-114032085D01*
G37*
G36*
X127545091Y-114032085D02*
X127579069Y-114042393D01*
X127610387Y-114059133D01*
X127637839Y-114081661D01*
X127660367Y-114109113D01*
X127677107Y-114140431D01*
X127687415Y-114174409D01*
X127691500Y-114215890D01*
X127691500Y-114892110D01*
X127687415Y-114933591D01*
X127677107Y-114967569D01*
X127660367Y-114998887D01*
X127637839Y-115026339D01*
X127610387Y-115048867D01*
X127579069Y-115065607D01*
X127545091Y-115075915D01*
X127503610Y-115080000D01*
X126902390Y-115080000D01*
X126860909Y-115075915D01*
X126826931Y-115065607D01*
X126795613Y-115048867D01*
X126768161Y-115026339D01*
X126745633Y-114998887D01*
X126728893Y-114967569D01*
X126718585Y-114933591D01*
X126714500Y-114892110D01*
X126714500Y-114215890D01*
X126718585Y-114174409D01*
X126728893Y-114140431D01*
X126745633Y-114109113D01*
X126768161Y-114081661D01*
X126795613Y-114059133D01*
X126826931Y-114042393D01*
X126860909Y-114032085D01*
X126902390Y-114028000D01*
X127503610Y-114028000D01*
X127545091Y-114032085D01*
X127545091Y-114032085D01*
G37*
G36*
X141299133Y-112453310D02*
X141330424Y-112462802D01*
X141359261Y-112478216D01*
X141384539Y-112498961D01*
X141405284Y-112524239D01*
X141420698Y-112553076D01*
X141430190Y-112584367D01*
X141434000Y-112623050D01*
X141434000Y-114452950D01*
X141430190Y-114491633D01*
X141420698Y-114522924D01*
X141405284Y-114551761D01*
X141384539Y-114577039D01*
X141359261Y-114597784D01*
X141330424Y-114613198D01*
X141299133Y-114622690D01*
X141260450Y-114626500D01*
X139155550Y-114626500D01*
X139116867Y-114622690D01*
X139085576Y-114613198D01*
X139056739Y-114597784D01*
X139031461Y-114577039D01*
X139010716Y-114551761D01*
X138995302Y-114522924D01*
X138985810Y-114491633D01*
X138982000Y-114452950D01*
X138982000Y-112623050D01*
X138985810Y-112584367D01*
X138995302Y-112553076D01*
X139010716Y-112524239D01*
X139031461Y-112498961D01*
X139056739Y-112478216D01*
X139085576Y-112462802D01*
X139116867Y-112453310D01*
X139155550Y-112449500D01*
X141260450Y-112449500D01*
X141299133Y-112453310D01*
X141299133Y-112453310D01*
G37*
G36*
X137235133Y-112453310D02*
X137266424Y-112462802D01*
X137295261Y-112478216D01*
X137320539Y-112498961D01*
X137341284Y-112524239D01*
X137356698Y-112553076D01*
X137366190Y-112584367D01*
X137370000Y-112623050D01*
X137370000Y-114452950D01*
X137366190Y-114491633D01*
X137356698Y-114522924D01*
X137341284Y-114551761D01*
X137320539Y-114577039D01*
X137295261Y-114597784D01*
X137266424Y-114613198D01*
X137235133Y-114622690D01*
X137196450Y-114626500D01*
X135091550Y-114626500D01*
X135052867Y-114622690D01*
X135021576Y-114613198D01*
X134992739Y-114597784D01*
X134967461Y-114577039D01*
X134946716Y-114551761D01*
X134931302Y-114522924D01*
X134921810Y-114491633D01*
X134918000Y-114452950D01*
X134918000Y-112623050D01*
X134921810Y-112584367D01*
X134931302Y-112553076D01*
X134946716Y-112524239D01*
X134967461Y-112498961D01*
X134992739Y-112478216D01*
X135021576Y-112462802D01*
X135052867Y-112453310D01*
X135091550Y-112449500D01*
X137196450Y-112449500D01*
X137235133Y-112453310D01*
X137235133Y-112453310D01*
G37*
G36*
X132313643Y-112513781D02*
X132459415Y-112574162D01*
X132590611Y-112661824D01*
X132702176Y-112773389D01*
X132789838Y-112904585D01*
X132850219Y-113050357D01*
X132881000Y-113205107D01*
X132881000Y-113362893D01*
X132850219Y-113517643D01*
X132789838Y-113663415D01*
X132702176Y-113794611D01*
X132590611Y-113906176D01*
X132459415Y-113993838D01*
X132313643Y-114054219D01*
X132158893Y-114085000D01*
X132001107Y-114085000D01*
X131846357Y-114054219D01*
X131700585Y-113993838D01*
X131569389Y-113906176D01*
X131457824Y-113794611D01*
X131370162Y-113663415D01*
X131309781Y-113517643D01*
X131279000Y-113362893D01*
X131279000Y-113205107D01*
X131309781Y-113050357D01*
X131370162Y-112904585D01*
X131457824Y-112773389D01*
X131569389Y-112661824D01*
X131700585Y-112574162D01*
X131846357Y-112513781D01*
X132001107Y-112483000D01*
X132158893Y-112483000D01*
X132313643Y-112513781D01*
X132313643Y-112513781D01*
G37*
G36*
X143743643Y-112005781D02*
X143889415Y-112066162D01*
X144020611Y-112153824D01*
X144132176Y-112265389D01*
X144219838Y-112396585D01*
X144280219Y-112542357D01*
X144311000Y-112697107D01*
X144311000Y-112854893D01*
X144280219Y-113009643D01*
X144219838Y-113155415D01*
X144132176Y-113286611D01*
X144020611Y-113398176D01*
X143889415Y-113485838D01*
X143743643Y-113546219D01*
X143588893Y-113577000D01*
X143431107Y-113577000D01*
X143276357Y-113546219D01*
X143130585Y-113485838D01*
X142999389Y-113398176D01*
X142887824Y-113286611D01*
X142800162Y-113155415D01*
X142739781Y-113009643D01*
X142709000Y-112854893D01*
X142709000Y-112697107D01*
X142739781Y-112542357D01*
X142800162Y-112396585D01*
X142887824Y-112265389D01*
X142999389Y-112153824D01*
X143130585Y-112066162D01*
X143276357Y-112005781D01*
X143431107Y-111975000D01*
X143588893Y-111975000D01*
X143743643Y-112005781D01*
X143743643Y-112005781D01*
G37*
G36*
X171937643Y-111497781D02*
X172083415Y-111558162D01*
X172214611Y-111645824D01*
X172326176Y-111757389D01*
X172413838Y-111888585D01*
X172474219Y-112034357D01*
X172505000Y-112189107D01*
X172505000Y-112346893D01*
X172474219Y-112501643D01*
X172413838Y-112647415D01*
X172326176Y-112778611D01*
X172214611Y-112890176D01*
X172083415Y-112977838D01*
X171937643Y-113038219D01*
X171782893Y-113069000D01*
X171625107Y-113069000D01*
X171470357Y-113038219D01*
X171324585Y-112977838D01*
X171193389Y-112890176D01*
X171081824Y-112778611D01*
X170994162Y-112647415D01*
X170933781Y-112501643D01*
X170903000Y-112346893D01*
X170903000Y-112189107D01*
X170933781Y-112034357D01*
X170994162Y-111888585D01*
X171081824Y-111757389D01*
X171193389Y-111645824D01*
X171324585Y-111558162D01*
X171470357Y-111497781D01*
X171625107Y-111467000D01*
X171782893Y-111467000D01*
X171937643Y-111497781D01*
X171937643Y-111497781D01*
G37*
G36*
X125963643Y-111243781D02*
X126109415Y-111304162D01*
X126240611Y-111391824D01*
X126352176Y-111503389D01*
X126439838Y-111634585D01*
X126500219Y-111780357D01*
X126531000Y-111935107D01*
X126531000Y-112092893D01*
X126500219Y-112247643D01*
X126439838Y-112393415D01*
X126352176Y-112524611D01*
X126240611Y-112636176D01*
X126109415Y-112723838D01*
X125963643Y-112784219D01*
X125808893Y-112815000D01*
X125651107Y-112815000D01*
X125496357Y-112784219D01*
X125350585Y-112723838D01*
X125219389Y-112636176D01*
X125107824Y-112524611D01*
X125020162Y-112393415D01*
X124959781Y-112247643D01*
X124929000Y-112092893D01*
X124929000Y-111935107D01*
X124959781Y-111780357D01*
X125020162Y-111634585D01*
X125107824Y-111503389D01*
X125219389Y-111391824D01*
X125350585Y-111304162D01*
X125496357Y-111243781D01*
X125651107Y-111213000D01*
X125808893Y-111213000D01*
X125963643Y-111243781D01*
X125963643Y-111243781D01*
G37*
G36*
X179576591Y-111580585D02*
X179610569Y-111590893D01*
X179641887Y-111607633D01*
X179669339Y-111630161D01*
X179691867Y-111657613D01*
X179708607Y-111688931D01*
X179718915Y-111722909D01*
X179723000Y-111764390D01*
X179723000Y-112365610D01*
X179718915Y-112407091D01*
X179708607Y-112441069D01*
X179691867Y-112472387D01*
X179669339Y-112499839D01*
X179641887Y-112522367D01*
X179610569Y-112539107D01*
X179576591Y-112549415D01*
X179535110Y-112553500D01*
X178858890Y-112553500D01*
X178817409Y-112549415D01*
X178783431Y-112539107D01*
X178752113Y-112522367D01*
X178724661Y-112499839D01*
X178702133Y-112472387D01*
X178685393Y-112441069D01*
X178675085Y-112407091D01*
X178671000Y-112365610D01*
X178671000Y-111764390D01*
X178675085Y-111722909D01*
X178685393Y-111688931D01*
X178702133Y-111657613D01*
X178724661Y-111630161D01*
X178752113Y-111607633D01*
X178783431Y-111590893D01*
X178817409Y-111580585D01*
X178858890Y-111576500D01*
X179535110Y-111576500D01*
X179576591Y-111580585D01*
X179576591Y-111580585D01*
G37*
G36*
X169035591Y-111580585D02*
X169069569Y-111590893D01*
X169100887Y-111607633D01*
X169128339Y-111630161D01*
X169150867Y-111657613D01*
X169167607Y-111688931D01*
X169177915Y-111722909D01*
X169182000Y-111764390D01*
X169182000Y-112365610D01*
X169177915Y-112407091D01*
X169167607Y-112441069D01*
X169150867Y-112472387D01*
X169128339Y-112499839D01*
X169100887Y-112522367D01*
X169069569Y-112539107D01*
X169035591Y-112549415D01*
X168994110Y-112553500D01*
X168317890Y-112553500D01*
X168276409Y-112549415D01*
X168242431Y-112539107D01*
X168211113Y-112522367D01*
X168183661Y-112499839D01*
X168161133Y-112472387D01*
X168144393Y-112441069D01*
X168134085Y-112407091D01*
X168130000Y-112365610D01*
X168130000Y-111764390D01*
X168134085Y-111722909D01*
X168144393Y-111688931D01*
X168161133Y-111657613D01*
X168183661Y-111630161D01*
X168211113Y-111607633D01*
X168242431Y-111590893D01*
X168276409Y-111580585D01*
X168317890Y-111576500D01*
X168994110Y-111576500D01*
X169035591Y-111580585D01*
X169035591Y-111580585D01*
G37*
G36*
X130187091Y-110730085D02*
X130221069Y-110740393D01*
X130252387Y-110757133D01*
X130279839Y-110779661D01*
X130302367Y-110807113D01*
X130319107Y-110838431D01*
X130329415Y-110872409D01*
X130333500Y-110913890D01*
X130333500Y-111590110D01*
X130329415Y-111631591D01*
X130319107Y-111665569D01*
X130302367Y-111696887D01*
X130279839Y-111724339D01*
X130252387Y-111746867D01*
X130221069Y-111763607D01*
X130187091Y-111773915D01*
X130145610Y-111778000D01*
X129544390Y-111778000D01*
X129502909Y-111773915D01*
X129468931Y-111763607D01*
X129437613Y-111746867D01*
X129410161Y-111724339D01*
X129387633Y-111696887D01*
X129370893Y-111665569D01*
X129360585Y-111631591D01*
X129356500Y-111590110D01*
X129356500Y-110913890D01*
X129360585Y-110872409D01*
X129370893Y-110838431D01*
X129387633Y-110807113D01*
X129410161Y-110779661D01*
X129437613Y-110757133D01*
X129468931Y-110740393D01*
X129502909Y-110730085D01*
X129544390Y-110726000D01*
X130145610Y-110726000D01*
X130187091Y-110730085D01*
X130187091Y-110730085D01*
G37*
G36*
X128612091Y-110730085D02*
X128646069Y-110740393D01*
X128677387Y-110757133D01*
X128704839Y-110779661D01*
X128727367Y-110807113D01*
X128744107Y-110838431D01*
X128754415Y-110872409D01*
X128758500Y-110913890D01*
X128758500Y-111590110D01*
X128754415Y-111631591D01*
X128744107Y-111665569D01*
X128727367Y-111696887D01*
X128704839Y-111724339D01*
X128677387Y-111746867D01*
X128646069Y-111763607D01*
X128612091Y-111773915D01*
X128570610Y-111778000D01*
X127969390Y-111778000D01*
X127927909Y-111773915D01*
X127893931Y-111763607D01*
X127862613Y-111746867D01*
X127835161Y-111724339D01*
X127812633Y-111696887D01*
X127795893Y-111665569D01*
X127785585Y-111631591D01*
X127781500Y-111590110D01*
X127781500Y-110913890D01*
X127785585Y-110872409D01*
X127795893Y-110838431D01*
X127812633Y-110807113D01*
X127835161Y-110779661D01*
X127862613Y-110757133D01*
X127893931Y-110740393D01*
X127927909Y-110730085D01*
X127969390Y-110726000D01*
X128570610Y-110726000D01*
X128612091Y-110730085D01*
X128612091Y-110730085D01*
G37*
G36*
X179576591Y-110005585D02*
X179610569Y-110015893D01*
X179641887Y-110032633D01*
X179669339Y-110055161D01*
X179691867Y-110082613D01*
X179708607Y-110113931D01*
X179718915Y-110147909D01*
X179723000Y-110189390D01*
X179723000Y-110790610D01*
X179718915Y-110832091D01*
X179708607Y-110866069D01*
X179691867Y-110897387D01*
X179669339Y-110924839D01*
X179641887Y-110947367D01*
X179610569Y-110964107D01*
X179576591Y-110974415D01*
X179535110Y-110978500D01*
X178858890Y-110978500D01*
X178817409Y-110974415D01*
X178783431Y-110964107D01*
X178752113Y-110947367D01*
X178724661Y-110924839D01*
X178702133Y-110897387D01*
X178685393Y-110866069D01*
X178675085Y-110832091D01*
X178671000Y-110790610D01*
X178671000Y-110189390D01*
X178675085Y-110147909D01*
X178685393Y-110113931D01*
X178702133Y-110082613D01*
X178724661Y-110055161D01*
X178752113Y-110032633D01*
X178783431Y-110015893D01*
X178817409Y-110005585D01*
X178858890Y-110001500D01*
X179535110Y-110001500D01*
X179576591Y-110005585D01*
X179576591Y-110005585D01*
G37*
G36*
X169035591Y-110005585D02*
X169069569Y-110015893D01*
X169100887Y-110032633D01*
X169128339Y-110055161D01*
X169150867Y-110082613D01*
X169167607Y-110113931D01*
X169177915Y-110147909D01*
X169182000Y-110189390D01*
X169182000Y-110790610D01*
X169177915Y-110832091D01*
X169167607Y-110866069D01*
X169150867Y-110897387D01*
X169128339Y-110924839D01*
X169100887Y-110947367D01*
X169069569Y-110964107D01*
X169035591Y-110974415D01*
X168994110Y-110978500D01*
X168317890Y-110978500D01*
X168276409Y-110974415D01*
X168242431Y-110964107D01*
X168211113Y-110947367D01*
X168183661Y-110924839D01*
X168161133Y-110897387D01*
X168144393Y-110866069D01*
X168134085Y-110832091D01*
X168130000Y-110790610D01*
X168130000Y-110189390D01*
X168134085Y-110147909D01*
X168144393Y-110113931D01*
X168161133Y-110082613D01*
X168183661Y-110055161D01*
X168211113Y-110032633D01*
X168242431Y-110015893D01*
X168276409Y-110005585D01*
X168317890Y-110001500D01*
X168994110Y-110001500D01*
X169035591Y-110005585D01*
X169035591Y-110005585D01*
G37*
G36*
X170725091Y-109460085D02*
X170759069Y-109470393D01*
X170790387Y-109487133D01*
X170817839Y-109509661D01*
X170840367Y-109537113D01*
X170857107Y-109568431D01*
X170867415Y-109602409D01*
X170871500Y-109643890D01*
X170871500Y-110320110D01*
X170867415Y-110361591D01*
X170857107Y-110395569D01*
X170840367Y-110426887D01*
X170817839Y-110454339D01*
X170790387Y-110476867D01*
X170759069Y-110493607D01*
X170725091Y-110503915D01*
X170683610Y-110508000D01*
X170082390Y-110508000D01*
X170040909Y-110503915D01*
X170006931Y-110493607D01*
X169975613Y-110476867D01*
X169948161Y-110454339D01*
X169925633Y-110426887D01*
X169908893Y-110395569D01*
X169898585Y-110361591D01*
X169894500Y-110320110D01*
X169894500Y-109643890D01*
X169898585Y-109602409D01*
X169908893Y-109568431D01*
X169925633Y-109537113D01*
X169948161Y-109509661D01*
X169975613Y-109487133D01*
X170006931Y-109470393D01*
X170040909Y-109460085D01*
X170082390Y-109456000D01*
X170683610Y-109456000D01*
X170725091Y-109460085D01*
X170725091Y-109460085D01*
G37*
G36*
X172300091Y-109460085D02*
X172334069Y-109470393D01*
X172365387Y-109487133D01*
X172392839Y-109509661D01*
X172415367Y-109537113D01*
X172432107Y-109568431D01*
X172442415Y-109602409D01*
X172446500Y-109643890D01*
X172446500Y-110320110D01*
X172442415Y-110361591D01*
X172432107Y-110395569D01*
X172415367Y-110426887D01*
X172392839Y-110454339D01*
X172365387Y-110476867D01*
X172334069Y-110493607D01*
X172300091Y-110503915D01*
X172258610Y-110508000D01*
X171657390Y-110508000D01*
X171615909Y-110503915D01*
X171581931Y-110493607D01*
X171550613Y-110476867D01*
X171523161Y-110454339D01*
X171500633Y-110426887D01*
X171483893Y-110395569D01*
X171473585Y-110361591D01*
X171469500Y-110320110D01*
X171469500Y-109643890D01*
X171473585Y-109602409D01*
X171483893Y-109568431D01*
X171500633Y-109537113D01*
X171523161Y-109509661D01*
X171550613Y-109487133D01*
X171581931Y-109470393D01*
X171615909Y-109460085D01*
X171657390Y-109456000D01*
X172258610Y-109456000D01*
X172300091Y-109460085D01*
X172300091Y-109460085D01*
G37*
G36*
X130768113Y-108887617D02*
X130806784Y-108899348D01*
X130842426Y-108918400D01*
X130873664Y-108944035D01*
X130899299Y-108975273D01*
X130918351Y-109010915D01*
X130930082Y-109049586D01*
X130934647Y-109095940D01*
X130934647Y-109747164D01*
X130930082Y-109793518D01*
X130918351Y-109832189D01*
X130899299Y-109867831D01*
X130873664Y-109899069D01*
X130842426Y-109924704D01*
X130806784Y-109943756D01*
X130768113Y-109955487D01*
X130721759Y-109960052D01*
X129645535Y-109960052D01*
X129599181Y-109955487D01*
X129560510Y-109943756D01*
X129524868Y-109924704D01*
X129493630Y-109899069D01*
X129467995Y-109867831D01*
X129448943Y-109832189D01*
X129437212Y-109793518D01*
X129432647Y-109747164D01*
X129432647Y-109095940D01*
X129437212Y-109049586D01*
X129448943Y-109010915D01*
X129467995Y-108975273D01*
X129493630Y-108944035D01*
X129524868Y-108918400D01*
X129560510Y-108899348D01*
X129599181Y-108887617D01*
X129645535Y-108883052D01*
X130721759Y-108883052D01*
X130768113Y-108887617D01*
X130768113Y-108887617D01*
G37*
G36*
X128718147Y-109597552D02*
X127116147Y-109597552D01*
X127116147Y-108495552D01*
X128718147Y-108495552D01*
X128718147Y-109597552D01*
X128718147Y-109597552D01*
G37*
G36*
X179576591Y-108405585D02*
X179610569Y-108415893D01*
X179641887Y-108432633D01*
X179669339Y-108455161D01*
X179691867Y-108482613D01*
X179708607Y-108513931D01*
X179718915Y-108547909D01*
X179723000Y-108589390D01*
X179723000Y-109190610D01*
X179718915Y-109232091D01*
X179708607Y-109266069D01*
X179691867Y-109297387D01*
X179669339Y-109324839D01*
X179641887Y-109347367D01*
X179610569Y-109364107D01*
X179576591Y-109374415D01*
X179535110Y-109378500D01*
X178858890Y-109378500D01*
X178817409Y-109374415D01*
X178783431Y-109364107D01*
X178752113Y-109347367D01*
X178724661Y-109324839D01*
X178702133Y-109297387D01*
X178685393Y-109266069D01*
X178675085Y-109232091D01*
X178671000Y-109190610D01*
X178671000Y-108589390D01*
X178675085Y-108547909D01*
X178685393Y-108513931D01*
X178702133Y-108482613D01*
X178724661Y-108455161D01*
X178752113Y-108432633D01*
X178783431Y-108415893D01*
X178817409Y-108405585D01*
X178858890Y-108401500D01*
X179535110Y-108401500D01*
X179576591Y-108405585D01*
X179576591Y-108405585D01*
G37*
G36*
X170725091Y-107809085D02*
X170759069Y-107819393D01*
X170790387Y-107836133D01*
X170817839Y-107858661D01*
X170840367Y-107886113D01*
X170857107Y-107917431D01*
X170867415Y-107951409D01*
X170871500Y-107992890D01*
X170871500Y-108669110D01*
X170867415Y-108710591D01*
X170857107Y-108744569D01*
X170840367Y-108775887D01*
X170817839Y-108803339D01*
X170790387Y-108825867D01*
X170759069Y-108842607D01*
X170725091Y-108852915D01*
X170683610Y-108857000D01*
X170082390Y-108857000D01*
X170040909Y-108852915D01*
X170006931Y-108842607D01*
X169975613Y-108825867D01*
X169948161Y-108803339D01*
X169925633Y-108775887D01*
X169908893Y-108744569D01*
X169898585Y-108710591D01*
X169894500Y-108669110D01*
X169894500Y-107992890D01*
X169898585Y-107951409D01*
X169908893Y-107917431D01*
X169925633Y-107886113D01*
X169948161Y-107858661D01*
X169975613Y-107836133D01*
X170006931Y-107819393D01*
X170040909Y-107809085D01*
X170082390Y-107805000D01*
X170683610Y-107805000D01*
X170725091Y-107809085D01*
X170725091Y-107809085D01*
G37*
G36*
X172300091Y-107809085D02*
X172334069Y-107819393D01*
X172365387Y-107836133D01*
X172392839Y-107858661D01*
X172415367Y-107886113D01*
X172432107Y-107917431D01*
X172442415Y-107951409D01*
X172446500Y-107992890D01*
X172446500Y-108669110D01*
X172442415Y-108710591D01*
X172432107Y-108744569D01*
X172415367Y-108775887D01*
X172392839Y-108803339D01*
X172365387Y-108825867D01*
X172334069Y-108842607D01*
X172300091Y-108852915D01*
X172258610Y-108857000D01*
X171657390Y-108857000D01*
X171615909Y-108852915D01*
X171581931Y-108842607D01*
X171550613Y-108825867D01*
X171523161Y-108803339D01*
X171500633Y-108775887D01*
X171483893Y-108744569D01*
X171473585Y-108710591D01*
X171469500Y-108669110D01*
X171469500Y-107992890D01*
X171473585Y-107951409D01*
X171483893Y-107917431D01*
X171500633Y-107886113D01*
X171523161Y-107858661D01*
X171550613Y-107836133D01*
X171581931Y-107819393D01*
X171615909Y-107809085D01*
X171657390Y-107805000D01*
X172258610Y-107805000D01*
X172300091Y-107809085D01*
X172300091Y-107809085D01*
G37*
G36*
X124267213Y-106339998D02*
X124282759Y-106358940D01*
X124301701Y-106374486D01*
X124323312Y-106386037D01*
X124346761Y-106393150D01*
X124371147Y-106395552D01*
X125837347Y-106395552D01*
X125861733Y-106393150D01*
X125885182Y-106386037D01*
X125906793Y-106374486D01*
X125925735Y-106358940D01*
X125941281Y-106339998D01*
X125943671Y-106335526D01*
X125997143Y-106372956D01*
X126018499Y-106384973D01*
X126041788Y-106392593D01*
X126068826Y-106395552D01*
X126079791Y-106395552D01*
X126084162Y-106409962D01*
X126095713Y-106431573D01*
X126111259Y-106450515D01*
X126127963Y-106464530D01*
X126854288Y-106972958D01*
X126875641Y-106984973D01*
X126898930Y-106992593D01*
X126925968Y-106995552D01*
X128721647Y-106995552D01*
X128721647Y-108097552D01*
X126925968Y-108097552D01*
X126901582Y-108099954D01*
X126878133Y-108107067D01*
X126854288Y-108120147D01*
X126336478Y-108482613D01*
X126127964Y-108628573D01*
X126109364Y-108644525D01*
X126094232Y-108663800D01*
X126083152Y-108685656D01*
X126079823Y-108697552D01*
X126068826Y-108697552D01*
X126044440Y-108699954D01*
X126020991Y-108707067D01*
X125997143Y-108720148D01*
X125977120Y-108734164D01*
X125962347Y-108744505D01*
X125943671Y-108757578D01*
X125941281Y-108753106D01*
X125925735Y-108734164D01*
X125906793Y-108718618D01*
X125885182Y-108707067D01*
X125861733Y-108699954D01*
X125837347Y-108697552D01*
X124371147Y-108697552D01*
X124346761Y-108699954D01*
X124323312Y-108707067D01*
X124301701Y-108718618D01*
X124282759Y-108734164D01*
X124267213Y-108753106D01*
X124264597Y-108758001D01*
X124211372Y-108720431D01*
X124190065Y-108708330D01*
X124166805Y-108700619D01*
X124139287Y-108697552D01*
X124127912Y-108697552D01*
X124123132Y-108681795D01*
X124111581Y-108660184D01*
X124096035Y-108641242D01*
X124079732Y-108627509D01*
X123294147Y-108072979D01*
X123294147Y-107020125D01*
X124079732Y-106465595D01*
X124098270Y-106449570D01*
X124113325Y-106430236D01*
X124124319Y-106408336D01*
X124127842Y-106395552D01*
X124139287Y-106395552D01*
X124163673Y-106393150D01*
X124187122Y-106386037D01*
X124211372Y-106372673D01*
X124264597Y-106335103D01*
X124267213Y-106339998D01*
X124267213Y-106339998D01*
G37*
G36*
X141058091Y-107174085D02*
X141092069Y-107184393D01*
X141123387Y-107201133D01*
X141150839Y-107223661D01*
X141173367Y-107251113D01*
X141190107Y-107282431D01*
X141200415Y-107316409D01*
X141204500Y-107357890D01*
X141204500Y-108034110D01*
X141200415Y-108075591D01*
X141190107Y-108109569D01*
X141173367Y-108140887D01*
X141150839Y-108168339D01*
X141123387Y-108190867D01*
X141092069Y-108207607D01*
X141058091Y-108217915D01*
X141016610Y-108222000D01*
X140415390Y-108222000D01*
X140373909Y-108217915D01*
X140339931Y-108207607D01*
X140308613Y-108190867D01*
X140281161Y-108168339D01*
X140258633Y-108140887D01*
X140241893Y-108109569D01*
X140231585Y-108075591D01*
X140227500Y-108034110D01*
X140227500Y-107357890D01*
X140231585Y-107316409D01*
X140241893Y-107282431D01*
X140258633Y-107251113D01*
X140281161Y-107223661D01*
X140308613Y-107201133D01*
X140339931Y-107184393D01*
X140373909Y-107174085D01*
X140415390Y-107170000D01*
X141016610Y-107170000D01*
X141058091Y-107174085D01*
X141058091Y-107174085D01*
G37*
G36*
X139483091Y-107174085D02*
X139517069Y-107184393D01*
X139548387Y-107201133D01*
X139575839Y-107223661D01*
X139598367Y-107251113D01*
X139615107Y-107282431D01*
X139625415Y-107316409D01*
X139629500Y-107357890D01*
X139629500Y-108034110D01*
X139625415Y-108075591D01*
X139615107Y-108109569D01*
X139598367Y-108140887D01*
X139575839Y-108168339D01*
X139548387Y-108190867D01*
X139517069Y-108207607D01*
X139483091Y-108217915D01*
X139441610Y-108222000D01*
X138840390Y-108222000D01*
X138798909Y-108217915D01*
X138764931Y-108207607D01*
X138733613Y-108190867D01*
X138706161Y-108168339D01*
X138683633Y-108140887D01*
X138666893Y-108109569D01*
X138656585Y-108075591D01*
X138652500Y-108034110D01*
X138652500Y-107357890D01*
X138656585Y-107316409D01*
X138666893Y-107282431D01*
X138683633Y-107251113D01*
X138706161Y-107223661D01*
X138733613Y-107201133D01*
X138764931Y-107184393D01*
X138798909Y-107174085D01*
X138840390Y-107170000D01*
X139441610Y-107170000D01*
X139483091Y-107174085D01*
X139483091Y-107174085D01*
G37*
G36*
X130768113Y-107012617D02*
X130806784Y-107024348D01*
X130842426Y-107043400D01*
X130873664Y-107069035D01*
X130899299Y-107100273D01*
X130918351Y-107135915D01*
X130930082Y-107174586D01*
X130934647Y-107220940D01*
X130934647Y-107872164D01*
X130930082Y-107918518D01*
X130918351Y-107957189D01*
X130899299Y-107992831D01*
X130873664Y-108024069D01*
X130842426Y-108049704D01*
X130806784Y-108068756D01*
X130768113Y-108080487D01*
X130721759Y-108085052D01*
X129645535Y-108085052D01*
X129599181Y-108080487D01*
X129560510Y-108068756D01*
X129524868Y-108049704D01*
X129493630Y-108024069D01*
X129467995Y-107992831D01*
X129448943Y-107957189D01*
X129437212Y-107918518D01*
X129432647Y-107872164D01*
X129432647Y-107220940D01*
X129437212Y-107174586D01*
X129448943Y-107135915D01*
X129467995Y-107100273D01*
X129493630Y-107069035D01*
X129524868Y-107043400D01*
X129560510Y-107024348D01*
X129599181Y-107012617D01*
X129645535Y-107008052D01*
X130721759Y-107008052D01*
X130768113Y-107012617D01*
X130768113Y-107012617D01*
G37*
G36*
X179576591Y-106830585D02*
X179610569Y-106840893D01*
X179641887Y-106857633D01*
X179669339Y-106880161D01*
X179691867Y-106907613D01*
X179708607Y-106938931D01*
X179718915Y-106972909D01*
X179723000Y-107014390D01*
X179723000Y-107615610D01*
X179718915Y-107657091D01*
X179708607Y-107691069D01*
X179691867Y-107722387D01*
X179669339Y-107749839D01*
X179641887Y-107772367D01*
X179610569Y-107789107D01*
X179576591Y-107799415D01*
X179535110Y-107803500D01*
X178858890Y-107803500D01*
X178817409Y-107799415D01*
X178783431Y-107789107D01*
X178752113Y-107772367D01*
X178724661Y-107749839D01*
X178702133Y-107722387D01*
X178685393Y-107691069D01*
X178675085Y-107657091D01*
X178671000Y-107615610D01*
X178671000Y-107014390D01*
X178675085Y-106972909D01*
X178685393Y-106938931D01*
X178702133Y-106907613D01*
X178724661Y-106880161D01*
X178752113Y-106857633D01*
X178783431Y-106840893D01*
X178817409Y-106830585D01*
X178858890Y-106826500D01*
X179535110Y-106826500D01*
X179576591Y-106830585D01*
X179576591Y-106830585D01*
G37*
G36*
X176692000Y-107711000D02*
X174590000Y-107711000D01*
X174590000Y-103109000D01*
X176692000Y-103109000D01*
X176692000Y-107711000D01*
X176692000Y-107711000D01*
G37*
G36*
X128718147Y-106597552D02*
X127116147Y-106597552D01*
X127116147Y-105495552D01*
X128718147Y-105495552D01*
X128718147Y-106597552D01*
X128718147Y-106597552D01*
G37*
G36*
X156443643Y-104893781D02*
X156589415Y-104954162D01*
X156720611Y-105041824D01*
X156832176Y-105153389D01*
X156919838Y-105284585D01*
X156980219Y-105430357D01*
X157011000Y-105585107D01*
X157011000Y-105742893D01*
X156980219Y-105897643D01*
X156919838Y-106043415D01*
X156832176Y-106174611D01*
X156720611Y-106286176D01*
X156589415Y-106373838D01*
X156443643Y-106434219D01*
X156288893Y-106465000D01*
X156131107Y-106465000D01*
X155976357Y-106434219D01*
X155830585Y-106373838D01*
X155699389Y-106286176D01*
X155587824Y-106174611D01*
X155500162Y-106043415D01*
X155439781Y-105897643D01*
X155409000Y-105742893D01*
X155409000Y-105585107D01*
X155439781Y-105430357D01*
X155500162Y-105284585D01*
X155587824Y-105153389D01*
X155699389Y-105041824D01*
X155830585Y-104954162D01*
X155976357Y-104893781D01*
X156131107Y-104863000D01*
X156288893Y-104863000D01*
X156443643Y-104893781D01*
X156443643Y-104893781D01*
G37*
G36*
X171683643Y-104766781D02*
X171829415Y-104827162D01*
X171960611Y-104914824D01*
X172072176Y-105026389D01*
X172159838Y-105157585D01*
X172220219Y-105303357D01*
X172251000Y-105458107D01*
X172251000Y-105615893D01*
X172220219Y-105770643D01*
X172159838Y-105916415D01*
X172072176Y-106047611D01*
X171960611Y-106159176D01*
X171829415Y-106246838D01*
X171683643Y-106307219D01*
X171528893Y-106338000D01*
X171371107Y-106338000D01*
X171216357Y-106307219D01*
X171070585Y-106246838D01*
X170939389Y-106159176D01*
X170827824Y-106047611D01*
X170740162Y-105916415D01*
X170679781Y-105770643D01*
X170649000Y-105615893D01*
X170649000Y-105458107D01*
X170679781Y-105303357D01*
X170740162Y-105157585D01*
X170827824Y-105026389D01*
X170939389Y-104914824D01*
X171070585Y-104827162D01*
X171216357Y-104766781D01*
X171371107Y-104736000D01*
X171528893Y-104736000D01*
X171683643Y-104766781D01*
X171683643Y-104766781D01*
G37*
G36*
X139918647Y-106295552D02*
X138316647Y-106295552D01*
X138316647Y-105193552D01*
X139918647Y-105193552D01*
X139918647Y-106295552D01*
X139918647Y-106295552D01*
G37*
G36*
X142788647Y-103046126D02*
X142803967Y-103056940D01*
X142823422Y-103070673D01*
X142844729Y-103082774D01*
X142867989Y-103090485D01*
X142895507Y-103093552D01*
X142906882Y-103093552D01*
X142911662Y-103109309D01*
X142923213Y-103130920D01*
X142938759Y-103149862D01*
X142955062Y-103163595D01*
X143740647Y-103718125D01*
X143740647Y-104770979D01*
X142955062Y-105325509D01*
X142936524Y-105341534D01*
X142921469Y-105360868D01*
X142910475Y-105382768D01*
X142906952Y-105395552D01*
X142895507Y-105395552D01*
X142871121Y-105397954D01*
X142847672Y-105405067D01*
X142823422Y-105418431D01*
X142788647Y-105442978D01*
X142770197Y-105456001D01*
X142767581Y-105451106D01*
X142752035Y-105432164D01*
X142733093Y-105416618D01*
X142711482Y-105405067D01*
X142688033Y-105397954D01*
X142663647Y-105395552D01*
X141197447Y-105395552D01*
X141173061Y-105397954D01*
X141149612Y-105405067D01*
X141128001Y-105416618D01*
X141109059Y-105432164D01*
X141093513Y-105451106D01*
X141091123Y-105455578D01*
X141037651Y-105418148D01*
X141016295Y-105406131D01*
X140993006Y-105398511D01*
X140965968Y-105395552D01*
X140955003Y-105395552D01*
X140950632Y-105381142D01*
X140939081Y-105359531D01*
X140923535Y-105340589D01*
X140906830Y-105326573D01*
X140716800Y-105193552D01*
X140180506Y-104818146D01*
X140159153Y-104806131D01*
X140135864Y-104798511D01*
X140108826Y-104795552D01*
X138313147Y-104795552D01*
X138313147Y-103693552D01*
X140108826Y-103693552D01*
X140133212Y-103691150D01*
X140156661Y-103684037D01*
X140180506Y-103670957D01*
X140906831Y-103162530D01*
X140925430Y-103146579D01*
X140940562Y-103127304D01*
X140951642Y-103105448D01*
X140954971Y-103093552D01*
X140965968Y-103093552D01*
X140990354Y-103091150D01*
X141013803Y-103084037D01*
X141037651Y-103070956D01*
X141091123Y-103033526D01*
X141093513Y-103037998D01*
X141109059Y-103056940D01*
X141128001Y-103072486D01*
X141149612Y-103084037D01*
X141173061Y-103091150D01*
X141197447Y-103093552D01*
X142663647Y-103093552D01*
X142688033Y-103091150D01*
X142711482Y-103084037D01*
X142733093Y-103072486D01*
X142752035Y-103056940D01*
X142767581Y-103037998D01*
X142770197Y-103033103D01*
X142788647Y-103046126D01*
X142788647Y-103046126D01*
G37*
G36*
X137372113Y-103807617D02*
X137410784Y-103819348D01*
X137446426Y-103838400D01*
X137477664Y-103864035D01*
X137503299Y-103895273D01*
X137522351Y-103930915D01*
X137534082Y-103969586D01*
X137538647Y-104015940D01*
X137538647Y-104667164D01*
X137534082Y-104713518D01*
X137522351Y-104752189D01*
X137503299Y-104787831D01*
X137477664Y-104819069D01*
X137446426Y-104844704D01*
X137410784Y-104863756D01*
X137372113Y-104875487D01*
X137325759Y-104880052D01*
X136249535Y-104880052D01*
X136203181Y-104875487D01*
X136164510Y-104863756D01*
X136128868Y-104844704D01*
X136097630Y-104819069D01*
X136071995Y-104787831D01*
X136052943Y-104752189D01*
X136041212Y-104713518D01*
X136036647Y-104667164D01*
X136036647Y-104015940D01*
X136041212Y-103969586D01*
X136052943Y-103930915D01*
X136071995Y-103895273D01*
X136097630Y-103864035D01*
X136128868Y-103838400D01*
X136164510Y-103819348D01*
X136203181Y-103807617D01*
X136249535Y-103803052D01*
X137325759Y-103803052D01*
X137372113Y-103807617D01*
X137372113Y-103807617D01*
G37*
G36*
X150601643Y-103115781D02*
X150747415Y-103176162D01*
X150878611Y-103263824D01*
X150990176Y-103375389D01*
X151077838Y-103506585D01*
X151138219Y-103652357D01*
X151169000Y-103807107D01*
X151169000Y-103964893D01*
X151138219Y-104119643D01*
X151077838Y-104265415D01*
X150990176Y-104396611D01*
X150878611Y-104508176D01*
X150747415Y-104595838D01*
X150601643Y-104656219D01*
X150446893Y-104687000D01*
X150289107Y-104687000D01*
X150134357Y-104656219D01*
X149988585Y-104595838D01*
X149857389Y-104508176D01*
X149745824Y-104396611D01*
X149658162Y-104265415D01*
X149597781Y-104119643D01*
X149567000Y-103964893D01*
X149567000Y-103807107D01*
X149597781Y-103652357D01*
X149658162Y-103506585D01*
X149745824Y-103375389D01*
X149857389Y-103263824D01*
X149988585Y-103176162D01*
X150134357Y-103115781D01*
X150289107Y-103085000D01*
X150446893Y-103085000D01*
X150601643Y-103115781D01*
X150601643Y-103115781D01*
G37*
G36*
X158875591Y-103706585D02*
X158909569Y-103716893D01*
X158940887Y-103733633D01*
X158968339Y-103756161D01*
X158990867Y-103783613D01*
X159007607Y-103814931D01*
X159017915Y-103848909D01*
X159022000Y-103890390D01*
X159022000Y-104491610D01*
X159017915Y-104533091D01*
X159007607Y-104567069D01*
X158990867Y-104598387D01*
X158968339Y-104625839D01*
X158940887Y-104648367D01*
X158909569Y-104665107D01*
X158875591Y-104675415D01*
X158834110Y-104679500D01*
X158157890Y-104679500D01*
X158116409Y-104675415D01*
X158082431Y-104665107D01*
X158051113Y-104648367D01*
X158023661Y-104625839D01*
X158001133Y-104598387D01*
X157984393Y-104567069D01*
X157974085Y-104533091D01*
X157970000Y-104491610D01*
X157970000Y-103890390D01*
X157974085Y-103848909D01*
X157984393Y-103814931D01*
X158001133Y-103783613D01*
X158023661Y-103756161D01*
X158051113Y-103733633D01*
X158082431Y-103716893D01*
X158116409Y-103706585D01*
X158157890Y-103702500D01*
X158834110Y-103702500D01*
X158875591Y-103706585D01*
X158875591Y-103706585D01*
G37*
G36*
X126554591Y-103618085D02*
X126588569Y-103628393D01*
X126619887Y-103645133D01*
X126647339Y-103667661D01*
X126669867Y-103695113D01*
X126686607Y-103726431D01*
X126696915Y-103760409D01*
X126701000Y-103801890D01*
X126701000Y-104478110D01*
X126696915Y-104519591D01*
X126686607Y-104553569D01*
X126669867Y-104584887D01*
X126647339Y-104612339D01*
X126619887Y-104634867D01*
X126588569Y-104651607D01*
X126554591Y-104661915D01*
X126513110Y-104666000D01*
X125911890Y-104666000D01*
X125870409Y-104661915D01*
X125836431Y-104651607D01*
X125805113Y-104634867D01*
X125777661Y-104612339D01*
X125755133Y-104584887D01*
X125738393Y-104553569D01*
X125728085Y-104519591D01*
X125724000Y-104478110D01*
X125724000Y-103801890D01*
X125728085Y-103760409D01*
X125738393Y-103726431D01*
X125755133Y-103695113D01*
X125777661Y-103667661D01*
X125805113Y-103645133D01*
X125836431Y-103628393D01*
X125870409Y-103618085D01*
X125911890Y-103614000D01*
X126513110Y-103614000D01*
X126554591Y-103618085D01*
X126554591Y-103618085D01*
G37*
G36*
X128129591Y-103618085D02*
X128163569Y-103628393D01*
X128194887Y-103645133D01*
X128222339Y-103667661D01*
X128244867Y-103695113D01*
X128261607Y-103726431D01*
X128271915Y-103760409D01*
X128276000Y-103801890D01*
X128276000Y-104478110D01*
X128271915Y-104519591D01*
X128261607Y-104553569D01*
X128244867Y-104584887D01*
X128222339Y-104612339D01*
X128194887Y-104634867D01*
X128163569Y-104651607D01*
X128129591Y-104661915D01*
X128088110Y-104666000D01*
X127486890Y-104666000D01*
X127445409Y-104661915D01*
X127411431Y-104651607D01*
X127380113Y-104634867D01*
X127352661Y-104612339D01*
X127330133Y-104584887D01*
X127313393Y-104553569D01*
X127303085Y-104519591D01*
X127299000Y-104478110D01*
X127299000Y-103801890D01*
X127303085Y-103760409D01*
X127313393Y-103726431D01*
X127330133Y-103695113D01*
X127352661Y-103667661D01*
X127380113Y-103645133D01*
X127411431Y-103628393D01*
X127445409Y-103618085D01*
X127486890Y-103614000D01*
X128088110Y-103614000D01*
X128129591Y-103618085D01*
X128129591Y-103618085D01*
G37*
G36*
X170667643Y-102480781D02*
X170813415Y-102541162D01*
X170944611Y-102628824D01*
X171056176Y-102740389D01*
X171143838Y-102871585D01*
X171204219Y-103017357D01*
X171235000Y-103172107D01*
X171235000Y-103329893D01*
X171204219Y-103484643D01*
X171143838Y-103630415D01*
X171056176Y-103761611D01*
X170944611Y-103873176D01*
X170813415Y-103960838D01*
X170667643Y-104021219D01*
X170512893Y-104052000D01*
X170355107Y-104052000D01*
X170200357Y-104021219D01*
X170054585Y-103960838D01*
X169923389Y-103873176D01*
X169811824Y-103761611D01*
X169724162Y-103630415D01*
X169663781Y-103484643D01*
X169633000Y-103329893D01*
X169633000Y-103172107D01*
X169663781Y-103017357D01*
X169724162Y-102871585D01*
X169811824Y-102740389D01*
X169923389Y-102628824D01*
X170054585Y-102541162D01*
X170200357Y-102480781D01*
X170355107Y-102450000D01*
X170512893Y-102450000D01*
X170667643Y-102480781D01*
X170667643Y-102480781D01*
G37*
G36*
X139918647Y-103295552D02*
X138316647Y-103295552D01*
X138316647Y-102193552D01*
X139918647Y-102193552D01*
X139918647Y-103295552D01*
X139918647Y-103295552D01*
G37*
G36*
X158875591Y-102131585D02*
X158909569Y-102141893D01*
X158940887Y-102158633D01*
X158968339Y-102181161D01*
X158990867Y-102208613D01*
X159007607Y-102239931D01*
X159017915Y-102273909D01*
X159022000Y-102315390D01*
X159022000Y-102916610D01*
X159017915Y-102958091D01*
X159007607Y-102992069D01*
X158990867Y-103023387D01*
X158968339Y-103050839D01*
X158940887Y-103073367D01*
X158909569Y-103090107D01*
X158875591Y-103100415D01*
X158834110Y-103104500D01*
X158157890Y-103104500D01*
X158116409Y-103100415D01*
X158082431Y-103090107D01*
X158051113Y-103073367D01*
X158023661Y-103050839D01*
X158001133Y-103023387D01*
X157984393Y-102992069D01*
X157974085Y-102958091D01*
X157970000Y-102916610D01*
X157970000Y-102315390D01*
X157974085Y-102273909D01*
X157984393Y-102239931D01*
X158001133Y-102208613D01*
X158023661Y-102181161D01*
X158051113Y-102158633D01*
X158082431Y-102141893D01*
X158116409Y-102131585D01*
X158157890Y-102127500D01*
X158834110Y-102127500D01*
X158875591Y-102131585D01*
X158875591Y-102131585D01*
G37*
G36*
X137372113Y-101932617D02*
X137410784Y-101944348D01*
X137446426Y-101963400D01*
X137477664Y-101989035D01*
X137503299Y-102020273D01*
X137522351Y-102055915D01*
X137534082Y-102094586D01*
X137538647Y-102140940D01*
X137538647Y-102792164D01*
X137534082Y-102838518D01*
X137522351Y-102877189D01*
X137503299Y-102912831D01*
X137477664Y-102944069D01*
X137446426Y-102969704D01*
X137410784Y-102988756D01*
X137372113Y-103000487D01*
X137325759Y-103005052D01*
X136249535Y-103005052D01*
X136203181Y-103000487D01*
X136164510Y-102988756D01*
X136128868Y-102969704D01*
X136097630Y-102944069D01*
X136071995Y-102912831D01*
X136052943Y-102877189D01*
X136041212Y-102838518D01*
X136036647Y-102792164D01*
X136036647Y-102140940D01*
X136041212Y-102094586D01*
X136052943Y-102055915D01*
X136071995Y-102020273D01*
X136097630Y-101989035D01*
X136128868Y-101963400D01*
X136164510Y-101944348D01*
X136203181Y-101932617D01*
X136249535Y-101928052D01*
X137325759Y-101928052D01*
X137372113Y-101932617D01*
X137372113Y-101932617D01*
G37*
G36*
X122153643Y-101337781D02*
X122299415Y-101398162D01*
X122430611Y-101485824D01*
X122542176Y-101597389D01*
X122629838Y-101728585D01*
X122690219Y-101874357D01*
X122721000Y-102029107D01*
X122721000Y-102186893D01*
X122690219Y-102341643D01*
X122629838Y-102487415D01*
X122542176Y-102618611D01*
X122430611Y-102730176D01*
X122299415Y-102817838D01*
X122153643Y-102878219D01*
X121998893Y-102909000D01*
X121841107Y-102909000D01*
X121686357Y-102878219D01*
X121540585Y-102817838D01*
X121409389Y-102730176D01*
X121297824Y-102618611D01*
X121210162Y-102487415D01*
X121149781Y-102341643D01*
X121119000Y-102186893D01*
X121119000Y-102029107D01*
X121149781Y-101874357D01*
X121210162Y-101728585D01*
X121297824Y-101597389D01*
X121409389Y-101485824D01*
X121540585Y-101398162D01*
X121686357Y-101337781D01*
X121841107Y-101307000D01*
X121998893Y-101307000D01*
X122153643Y-101337781D01*
X122153643Y-101337781D01*
G37*
G36*
X161161591Y-101928585D02*
X161195569Y-101938893D01*
X161226887Y-101955633D01*
X161254339Y-101978161D01*
X161276867Y-102005613D01*
X161293607Y-102036931D01*
X161303915Y-102070909D01*
X161308000Y-102112390D01*
X161308000Y-102713610D01*
X161303915Y-102755091D01*
X161293607Y-102789069D01*
X161276867Y-102820387D01*
X161254339Y-102847839D01*
X161226887Y-102870367D01*
X161195569Y-102887107D01*
X161161591Y-102897415D01*
X161120110Y-102901500D01*
X160443890Y-102901500D01*
X160402409Y-102897415D01*
X160368431Y-102887107D01*
X160337113Y-102870367D01*
X160309661Y-102847839D01*
X160287133Y-102820387D01*
X160270393Y-102789069D01*
X160260085Y-102755091D01*
X160256000Y-102713610D01*
X160256000Y-102112390D01*
X160260085Y-102070909D01*
X160270393Y-102036931D01*
X160287133Y-102005613D01*
X160309661Y-101978161D01*
X160337113Y-101955633D01*
X160368431Y-101938893D01*
X160402409Y-101928585D01*
X160443890Y-101924500D01*
X161120110Y-101924500D01*
X161161591Y-101928585D01*
X161161591Y-101928585D01*
G37*
G36*
X172699643Y-100956781D02*
X172845415Y-101017162D01*
X172976611Y-101104824D01*
X173088176Y-101216389D01*
X173175838Y-101347585D01*
X173236219Y-101493357D01*
X173267000Y-101648107D01*
X173267000Y-101805893D01*
X173236219Y-101960643D01*
X173175838Y-102106415D01*
X173088176Y-102237611D01*
X172976611Y-102349176D01*
X172845415Y-102436838D01*
X172699643Y-102497219D01*
X172544893Y-102528000D01*
X172387107Y-102528000D01*
X172232357Y-102497219D01*
X172086585Y-102436838D01*
X171955389Y-102349176D01*
X171843824Y-102237611D01*
X171756162Y-102106415D01*
X171695781Y-101960643D01*
X171665000Y-101805893D01*
X171665000Y-101648107D01*
X171695781Y-101493357D01*
X171756162Y-101347585D01*
X171843824Y-101216389D01*
X171955389Y-101104824D01*
X172086585Y-101017162D01*
X172232357Y-100956781D01*
X172387107Y-100926000D01*
X172544893Y-100926000D01*
X172699643Y-100956781D01*
X172699643Y-100956781D01*
G37*
G36*
X162939591Y-101141085D02*
X162973569Y-101151393D01*
X163004887Y-101168133D01*
X163032339Y-101190661D01*
X163054867Y-101218113D01*
X163071607Y-101249431D01*
X163081915Y-101283409D01*
X163086000Y-101324890D01*
X163086000Y-101926110D01*
X163081915Y-101967591D01*
X163071607Y-102001569D01*
X163054867Y-102032887D01*
X163032339Y-102060339D01*
X163004887Y-102082867D01*
X162973569Y-102099607D01*
X162939591Y-102109915D01*
X162898110Y-102114000D01*
X162221890Y-102114000D01*
X162180409Y-102109915D01*
X162146431Y-102099607D01*
X162115113Y-102082867D01*
X162087661Y-102060339D01*
X162065133Y-102032887D01*
X162048393Y-102001569D01*
X162038085Y-101967591D01*
X162034000Y-101926110D01*
X162034000Y-101324890D01*
X162038085Y-101283409D01*
X162048393Y-101249431D01*
X162065133Y-101218113D01*
X162087661Y-101190661D01*
X162115113Y-101168133D01*
X162146431Y-101151393D01*
X162180409Y-101141085D01*
X162221890Y-101137000D01*
X162898110Y-101137000D01*
X162939591Y-101141085D01*
X162939591Y-101141085D01*
G37*
G36*
X158729643Y-99813781D02*
X158875415Y-99874162D01*
X159006611Y-99961824D01*
X159118176Y-100073389D01*
X159205838Y-100204585D01*
X159266219Y-100350357D01*
X159297000Y-100505107D01*
X159297000Y-100662893D01*
X159266219Y-100817643D01*
X159205838Y-100963415D01*
X159118176Y-101094611D01*
X159006611Y-101206176D01*
X158875415Y-101293838D01*
X158729643Y-101354219D01*
X158574893Y-101385000D01*
X158417107Y-101385000D01*
X158262357Y-101354219D01*
X158116585Y-101293838D01*
X157985389Y-101206176D01*
X157873824Y-101094611D01*
X157786162Y-100963415D01*
X157725781Y-100817643D01*
X157695000Y-100662893D01*
X157695000Y-100505107D01*
X157725781Y-100350357D01*
X157786162Y-100204585D01*
X157873824Y-100073389D01*
X157985389Y-99961824D01*
X158116585Y-99874162D01*
X158262357Y-99813781D01*
X158417107Y-99783000D01*
X158574893Y-99783000D01*
X158729643Y-99813781D01*
X158729643Y-99813781D01*
G37*
G36*
X155173643Y-99813781D02*
X155319415Y-99874162D01*
X155450611Y-99961824D01*
X155562176Y-100073389D01*
X155649838Y-100204585D01*
X155710219Y-100350357D01*
X155741000Y-100505107D01*
X155741000Y-100662893D01*
X155710219Y-100817643D01*
X155649838Y-100963415D01*
X155562176Y-101094611D01*
X155450611Y-101206176D01*
X155319415Y-101293838D01*
X155173643Y-101354219D01*
X155018893Y-101385000D01*
X154861107Y-101385000D01*
X154706357Y-101354219D01*
X154560585Y-101293838D01*
X154429389Y-101206176D01*
X154317824Y-101094611D01*
X154230162Y-100963415D01*
X154169781Y-100817643D01*
X154139000Y-100662893D01*
X154139000Y-100505107D01*
X154169781Y-100350357D01*
X154230162Y-100204585D01*
X154317824Y-100073389D01*
X154429389Y-99961824D01*
X154560585Y-99874162D01*
X154706357Y-99813781D01*
X154861107Y-99783000D01*
X155018893Y-99783000D01*
X155173643Y-99813781D01*
X155173643Y-99813781D01*
G37*
G36*
X141566091Y-100316085D02*
X141600069Y-100326393D01*
X141631387Y-100343133D01*
X141658839Y-100365661D01*
X141681367Y-100393113D01*
X141698107Y-100424431D01*
X141708415Y-100458409D01*
X141712500Y-100499890D01*
X141712500Y-101176110D01*
X141708415Y-101217591D01*
X141698107Y-101251569D01*
X141681367Y-101282887D01*
X141658839Y-101310339D01*
X141631387Y-101332867D01*
X141600069Y-101349607D01*
X141566091Y-101359915D01*
X141524610Y-101364000D01*
X140923390Y-101364000D01*
X140881909Y-101359915D01*
X140847931Y-101349607D01*
X140816613Y-101332867D01*
X140789161Y-101310339D01*
X140766633Y-101282887D01*
X140749893Y-101251569D01*
X140739585Y-101217591D01*
X140735500Y-101176110D01*
X140735500Y-100499890D01*
X140739585Y-100458409D01*
X140749893Y-100424431D01*
X140766633Y-100393113D01*
X140789161Y-100365661D01*
X140816613Y-100343133D01*
X140847931Y-100326393D01*
X140881909Y-100316085D01*
X140923390Y-100312000D01*
X141524610Y-100312000D01*
X141566091Y-100316085D01*
X141566091Y-100316085D01*
G37*
G36*
X139991091Y-100316085D02*
X140025069Y-100326393D01*
X140056387Y-100343133D01*
X140083839Y-100365661D01*
X140106367Y-100393113D01*
X140123107Y-100424431D01*
X140133415Y-100458409D01*
X140137500Y-100499890D01*
X140137500Y-101176110D01*
X140133415Y-101217591D01*
X140123107Y-101251569D01*
X140106367Y-101282887D01*
X140083839Y-101310339D01*
X140056387Y-101332867D01*
X140025069Y-101349607D01*
X139991091Y-101359915D01*
X139949610Y-101364000D01*
X139348390Y-101364000D01*
X139306909Y-101359915D01*
X139272931Y-101349607D01*
X139241613Y-101332867D01*
X139214161Y-101310339D01*
X139191633Y-101282887D01*
X139174893Y-101251569D01*
X139164585Y-101217591D01*
X139160500Y-101176110D01*
X139160500Y-100499890D01*
X139164585Y-100458409D01*
X139174893Y-100424431D01*
X139191633Y-100393113D01*
X139214161Y-100365661D01*
X139241613Y-100343133D01*
X139272931Y-100326393D01*
X139306909Y-100316085D01*
X139348390Y-100312000D01*
X139949610Y-100312000D01*
X139991091Y-100316085D01*
X139991091Y-100316085D01*
G37*
G36*
X161161591Y-100353585D02*
X161195569Y-100363893D01*
X161226887Y-100380633D01*
X161254339Y-100403161D01*
X161276867Y-100430613D01*
X161293607Y-100461931D01*
X161303915Y-100495909D01*
X161308000Y-100537390D01*
X161308000Y-101138610D01*
X161303915Y-101180091D01*
X161293607Y-101214069D01*
X161276867Y-101245387D01*
X161254339Y-101272839D01*
X161226887Y-101295367D01*
X161195569Y-101312107D01*
X161161591Y-101322415D01*
X161120110Y-101326500D01*
X160443890Y-101326500D01*
X160402409Y-101322415D01*
X160368431Y-101312107D01*
X160337113Y-101295367D01*
X160309661Y-101272839D01*
X160287133Y-101245387D01*
X160270393Y-101214069D01*
X160260085Y-101180091D01*
X160256000Y-101138610D01*
X160256000Y-100537390D01*
X160260085Y-100495909D01*
X160270393Y-100461931D01*
X160287133Y-100430613D01*
X160309661Y-100403161D01*
X160337113Y-100380633D01*
X160368431Y-100363893D01*
X160402409Y-100353585D01*
X160443890Y-100349500D01*
X161120110Y-100349500D01*
X161161591Y-100353585D01*
X161161591Y-100353585D01*
G37*
G36*
X134853643Y-99305781D02*
X134999415Y-99366162D01*
X135130611Y-99453824D01*
X135242176Y-99565389D01*
X135329838Y-99696585D01*
X135390219Y-99842357D01*
X135421000Y-99997107D01*
X135421000Y-100154893D01*
X135390219Y-100309643D01*
X135329838Y-100455415D01*
X135242176Y-100586611D01*
X135130611Y-100698176D01*
X134999415Y-100785838D01*
X134853643Y-100846219D01*
X134698893Y-100877000D01*
X134541107Y-100877000D01*
X134386357Y-100846219D01*
X134240585Y-100785838D01*
X134109389Y-100698176D01*
X133997824Y-100586611D01*
X133910162Y-100455415D01*
X133849781Y-100309643D01*
X133819000Y-100154893D01*
X133819000Y-99997107D01*
X133849781Y-99842357D01*
X133910162Y-99696585D01*
X133997824Y-99565389D01*
X134109389Y-99453824D01*
X134240585Y-99366162D01*
X134386357Y-99305781D01*
X134541107Y-99275000D01*
X134698893Y-99275000D01*
X134853643Y-99305781D01*
X134853643Y-99305781D01*
G37*
G36*
X137647643Y-99305781D02*
X137793415Y-99366162D01*
X137924611Y-99453824D01*
X138036176Y-99565389D01*
X138123838Y-99696585D01*
X138184219Y-99842357D01*
X138215000Y-99997107D01*
X138215000Y-100154893D01*
X138184219Y-100309643D01*
X138123838Y-100455415D01*
X138036176Y-100586611D01*
X137924611Y-100698176D01*
X137793415Y-100785838D01*
X137647643Y-100846219D01*
X137492893Y-100877000D01*
X137335107Y-100877000D01*
X137180357Y-100846219D01*
X137034585Y-100785838D01*
X136903389Y-100698176D01*
X136791824Y-100586611D01*
X136704162Y-100455415D01*
X136643781Y-100309643D01*
X136613000Y-100154893D01*
X136613000Y-99997107D01*
X136643781Y-99842357D01*
X136704162Y-99696585D01*
X136791824Y-99565389D01*
X136903389Y-99453824D01*
X137034585Y-99366162D01*
X137180357Y-99305781D01*
X137335107Y-99275000D01*
X137492893Y-99275000D01*
X137647643Y-99305781D01*
X137647643Y-99305781D01*
G37*
G36*
X162939591Y-99566085D02*
X162973569Y-99576393D01*
X163004887Y-99593133D01*
X163032339Y-99615661D01*
X163054867Y-99643113D01*
X163071607Y-99674431D01*
X163081915Y-99708409D01*
X163086000Y-99749890D01*
X163086000Y-100351110D01*
X163081915Y-100392591D01*
X163071607Y-100426569D01*
X163054867Y-100457887D01*
X163032339Y-100485339D01*
X163004887Y-100507867D01*
X162973569Y-100524607D01*
X162939591Y-100534915D01*
X162898110Y-100539000D01*
X162221890Y-100539000D01*
X162180409Y-100534915D01*
X162146431Y-100524607D01*
X162115113Y-100507867D01*
X162087661Y-100485339D01*
X162065133Y-100457887D01*
X162048393Y-100426569D01*
X162038085Y-100392591D01*
X162034000Y-100351110D01*
X162034000Y-99749890D01*
X162038085Y-99708409D01*
X162048393Y-99674431D01*
X162065133Y-99643113D01*
X162087661Y-99615661D01*
X162115113Y-99593133D01*
X162146431Y-99576393D01*
X162180409Y-99566085D01*
X162221890Y-99562000D01*
X162898110Y-99562000D01*
X162939591Y-99566085D01*
X162939591Y-99566085D01*
G37*
G36*
X171175643Y-98924781D02*
X171321415Y-98985162D01*
X171452611Y-99072824D01*
X171564176Y-99184389D01*
X171651838Y-99315585D01*
X171712219Y-99461357D01*
X171743000Y-99616107D01*
X171743000Y-99773893D01*
X171712219Y-99928643D01*
X171651838Y-100074415D01*
X171564176Y-100205611D01*
X171452611Y-100317176D01*
X171321415Y-100404838D01*
X171175643Y-100465219D01*
X171020893Y-100496000D01*
X170863107Y-100496000D01*
X170708357Y-100465219D01*
X170562585Y-100404838D01*
X170431389Y-100317176D01*
X170319824Y-100205611D01*
X170232162Y-100074415D01*
X170171781Y-99928643D01*
X170141000Y-99773893D01*
X170141000Y-99616107D01*
X170171781Y-99461357D01*
X170232162Y-99315585D01*
X170319824Y-99184389D01*
X170431389Y-99072824D01*
X170562585Y-98985162D01*
X170708357Y-98924781D01*
X170863107Y-98894000D01*
X171020893Y-98894000D01*
X171175643Y-98924781D01*
X171175643Y-98924781D01*
G37*
G36*
X176946000Y-100082000D02*
X174844000Y-100082000D01*
X174844000Y-95480000D01*
X176946000Y-95480000D01*
X176946000Y-100082000D01*
X176946000Y-100082000D01*
G37*
G36*
X156951643Y-97781781D02*
X157097415Y-97842162D01*
X157228611Y-97929824D01*
X157340176Y-98041389D01*
X157427838Y-98172585D01*
X157488219Y-98318357D01*
X157519000Y-98473107D01*
X157519000Y-98630893D01*
X157488219Y-98785643D01*
X157427838Y-98931415D01*
X157340176Y-99062611D01*
X157228611Y-99174176D01*
X157097415Y-99261838D01*
X156951643Y-99322219D01*
X156796893Y-99353000D01*
X156639107Y-99353000D01*
X156484357Y-99322219D01*
X156338585Y-99261838D01*
X156207389Y-99174176D01*
X156095824Y-99062611D01*
X156008162Y-98931415D01*
X155947781Y-98785643D01*
X155917000Y-98630893D01*
X155917000Y-98473107D01*
X155947781Y-98318357D01*
X156008162Y-98172585D01*
X156095824Y-98041389D01*
X156207389Y-97929824D01*
X156338585Y-97842162D01*
X156484357Y-97781781D01*
X156639107Y-97751000D01*
X156796893Y-97751000D01*
X156951643Y-97781781D01*
X156951643Y-97781781D01*
G37*
G36*
X160507643Y-97781781D02*
X160653415Y-97842162D01*
X160784611Y-97929824D01*
X160896176Y-98041389D01*
X160983838Y-98172585D01*
X161044219Y-98318357D01*
X161075000Y-98473107D01*
X161075000Y-98630893D01*
X161044219Y-98785643D01*
X160983838Y-98931415D01*
X160896176Y-99062611D01*
X160784611Y-99174176D01*
X160653415Y-99261838D01*
X160507643Y-99322219D01*
X160352893Y-99353000D01*
X160195107Y-99353000D01*
X160040357Y-99322219D01*
X159894585Y-99261838D01*
X159763389Y-99174176D01*
X159651824Y-99062611D01*
X159564162Y-98931415D01*
X159503781Y-98785643D01*
X159473000Y-98630893D01*
X159473000Y-98473107D01*
X159503781Y-98318357D01*
X159564162Y-98172585D01*
X159651824Y-98041389D01*
X159763389Y-97929824D01*
X159894585Y-97842162D01*
X160040357Y-97781781D01*
X160195107Y-97751000D01*
X160352893Y-97751000D01*
X160507643Y-97781781D01*
X160507643Y-97781781D01*
G37*
G36*
X153395643Y-97781781D02*
X153541415Y-97842162D01*
X153672611Y-97929824D01*
X153784176Y-98041389D01*
X153871838Y-98172585D01*
X153932219Y-98318357D01*
X153963000Y-98473107D01*
X153963000Y-98630893D01*
X153932219Y-98785643D01*
X153871838Y-98931415D01*
X153784176Y-99062611D01*
X153672611Y-99174176D01*
X153541415Y-99261838D01*
X153395643Y-99322219D01*
X153240893Y-99353000D01*
X153083107Y-99353000D01*
X152928357Y-99322219D01*
X152782585Y-99261838D01*
X152651389Y-99174176D01*
X152539824Y-99062611D01*
X152452162Y-98931415D01*
X152391781Y-98785643D01*
X152361000Y-98630893D01*
X152361000Y-98473107D01*
X152391781Y-98318357D01*
X152452162Y-98172585D01*
X152539824Y-98041389D01*
X152651389Y-97929824D01*
X152782585Y-97842162D01*
X152928357Y-97781781D01*
X153083107Y-97751000D01*
X153240893Y-97751000D01*
X153395643Y-97781781D01*
X153395643Y-97781781D01*
G37*
G36*
X128151000Y-99226000D02*
X125849000Y-99226000D01*
X125849000Y-97624000D01*
X128151000Y-97624000D01*
X128151000Y-99226000D01*
X128151000Y-99226000D01*
G37*
G36*
X164571643Y-97273781D02*
X164717415Y-97334162D01*
X164848611Y-97421824D01*
X164960176Y-97533389D01*
X165047838Y-97664585D01*
X165108219Y-97810357D01*
X165139000Y-97965107D01*
X165139000Y-98122893D01*
X165108219Y-98277643D01*
X165047838Y-98423415D01*
X164960176Y-98554611D01*
X164848611Y-98666176D01*
X164717415Y-98753838D01*
X164571643Y-98814219D01*
X164416893Y-98845000D01*
X164259107Y-98845000D01*
X164104357Y-98814219D01*
X163958585Y-98753838D01*
X163827389Y-98666176D01*
X163715824Y-98554611D01*
X163628162Y-98423415D01*
X163567781Y-98277643D01*
X163537000Y-98122893D01*
X163537000Y-97965107D01*
X163567781Y-97810357D01*
X163628162Y-97664585D01*
X163715824Y-97533389D01*
X163827389Y-97421824D01*
X163958585Y-97334162D01*
X164104357Y-97273781D01*
X164259107Y-97243000D01*
X164416893Y-97243000D01*
X164571643Y-97273781D01*
X164571643Y-97273781D01*
G37*
G36*
X169778643Y-97019781D02*
X169924415Y-97080162D01*
X170055611Y-97167824D01*
X170167176Y-97279389D01*
X170254838Y-97410585D01*
X170315219Y-97556357D01*
X170346000Y-97711107D01*
X170346000Y-97868893D01*
X170315219Y-98023643D01*
X170254838Y-98169415D01*
X170167176Y-98300611D01*
X170055611Y-98412176D01*
X169924415Y-98499838D01*
X169778643Y-98560219D01*
X169623893Y-98591000D01*
X169466107Y-98591000D01*
X169311357Y-98560219D01*
X169165585Y-98499838D01*
X169034389Y-98412176D01*
X168922824Y-98300611D01*
X168835162Y-98169415D01*
X168774781Y-98023643D01*
X168744000Y-97868893D01*
X168744000Y-97711107D01*
X168774781Y-97556357D01*
X168835162Y-97410585D01*
X168922824Y-97279389D01*
X169034389Y-97167824D01*
X169165585Y-97080162D01*
X169311357Y-97019781D01*
X169466107Y-96989000D01*
X169623893Y-96989000D01*
X169778643Y-97019781D01*
X169778643Y-97019781D01*
G37*
G36*
X135997448Y-96584288D02*
X136031426Y-96594596D01*
X136062744Y-96611336D01*
X136090196Y-96633864D01*
X136112724Y-96661316D01*
X136129464Y-96692634D01*
X136139772Y-96726612D01*
X136143857Y-96768093D01*
X136143857Y-97444313D01*
X136139772Y-97485794D01*
X136129464Y-97519772D01*
X136112724Y-97551090D01*
X136090196Y-97578542D01*
X136062744Y-97601070D01*
X136031426Y-97617810D01*
X135997448Y-97628118D01*
X135955967Y-97632203D01*
X135354747Y-97632203D01*
X135313266Y-97628118D01*
X135279288Y-97617810D01*
X135247970Y-97601070D01*
X135220518Y-97578542D01*
X135197990Y-97551090D01*
X135181250Y-97519772D01*
X135170942Y-97485794D01*
X135166857Y-97444313D01*
X135166857Y-96768093D01*
X135170942Y-96726612D01*
X135181250Y-96692634D01*
X135197990Y-96661316D01*
X135220518Y-96633864D01*
X135247970Y-96611336D01*
X135279288Y-96594596D01*
X135313266Y-96584288D01*
X135354747Y-96580203D01*
X135955967Y-96580203D01*
X135997448Y-96584288D01*
X135997448Y-96584288D01*
G37*
G36*
X137572448Y-96584288D02*
X137606426Y-96594596D01*
X137637744Y-96611336D01*
X137665196Y-96633864D01*
X137687724Y-96661316D01*
X137704464Y-96692634D01*
X137714772Y-96726612D01*
X137718857Y-96768093D01*
X137718857Y-97444313D01*
X137714772Y-97485794D01*
X137704464Y-97519772D01*
X137687724Y-97551090D01*
X137665196Y-97578542D01*
X137637744Y-97601070D01*
X137606426Y-97617810D01*
X137572448Y-97628118D01*
X137530967Y-97632203D01*
X136929747Y-97632203D01*
X136888266Y-97628118D01*
X136854288Y-97617810D01*
X136822970Y-97601070D01*
X136795518Y-97578542D01*
X136772990Y-97551090D01*
X136756250Y-97519772D01*
X136745942Y-97485794D01*
X136741857Y-97444313D01*
X136741857Y-96768093D01*
X136745942Y-96726612D01*
X136756250Y-96692634D01*
X136772990Y-96661316D01*
X136795518Y-96633864D01*
X136822970Y-96611336D01*
X136854288Y-96594596D01*
X136888266Y-96584288D01*
X136929747Y-96580203D01*
X137530967Y-96580203D01*
X137572448Y-96584288D01*
X137572448Y-96584288D01*
G37*
G36*
X140874448Y-96584288D02*
X140908426Y-96594596D01*
X140939744Y-96611336D01*
X140967196Y-96633864D01*
X140989724Y-96661316D01*
X141006464Y-96692634D01*
X141016772Y-96726612D01*
X141020857Y-96768093D01*
X141020857Y-97444313D01*
X141016772Y-97485794D01*
X141006464Y-97519772D01*
X140989724Y-97551090D01*
X140967196Y-97578542D01*
X140939744Y-97601070D01*
X140908426Y-97617810D01*
X140874448Y-97628118D01*
X140832967Y-97632203D01*
X140231747Y-97632203D01*
X140190266Y-97628118D01*
X140156288Y-97617810D01*
X140124970Y-97601070D01*
X140097518Y-97578542D01*
X140074990Y-97551090D01*
X140058250Y-97519772D01*
X140047942Y-97485794D01*
X140043857Y-97444313D01*
X140043857Y-96768093D01*
X140047942Y-96726612D01*
X140058250Y-96692634D01*
X140074990Y-96661316D01*
X140097518Y-96633864D01*
X140124970Y-96611336D01*
X140156288Y-96594596D01*
X140190266Y-96584288D01*
X140231747Y-96580203D01*
X140832967Y-96580203D01*
X140874448Y-96584288D01*
X140874448Y-96584288D01*
G37*
G36*
X139299448Y-96584288D02*
X139333426Y-96594596D01*
X139364744Y-96611336D01*
X139392196Y-96633864D01*
X139414724Y-96661316D01*
X139431464Y-96692634D01*
X139441772Y-96726612D01*
X139445857Y-96768093D01*
X139445857Y-97444313D01*
X139441772Y-97485794D01*
X139431464Y-97519772D01*
X139414724Y-97551090D01*
X139392196Y-97578542D01*
X139364744Y-97601070D01*
X139333426Y-97617810D01*
X139299448Y-97628118D01*
X139257967Y-97632203D01*
X138656747Y-97632203D01*
X138615266Y-97628118D01*
X138581288Y-97617810D01*
X138549970Y-97601070D01*
X138522518Y-97578542D01*
X138499990Y-97551090D01*
X138483250Y-97519772D01*
X138472942Y-97485794D01*
X138468857Y-97444313D01*
X138468857Y-96768093D01*
X138472942Y-96726612D01*
X138483250Y-96692634D01*
X138499990Y-96661316D01*
X138522518Y-96633864D01*
X138549970Y-96611336D01*
X138581288Y-96594596D01*
X138615266Y-96584288D01*
X138656747Y-96580203D01*
X139257967Y-96580203D01*
X139299448Y-96584288D01*
X139299448Y-96584288D01*
G37*
G36*
X162285643Y-95749781D02*
X162431415Y-95810162D01*
X162562611Y-95897824D01*
X162674176Y-96009389D01*
X162761838Y-96140585D01*
X162822219Y-96286357D01*
X162853000Y-96441107D01*
X162853000Y-96598893D01*
X162822219Y-96753643D01*
X162761838Y-96899415D01*
X162674176Y-97030611D01*
X162562611Y-97142176D01*
X162431415Y-97229838D01*
X162285643Y-97290219D01*
X162130893Y-97321000D01*
X161973107Y-97321000D01*
X161818357Y-97290219D01*
X161672585Y-97229838D01*
X161541389Y-97142176D01*
X161429824Y-97030611D01*
X161342162Y-96899415D01*
X161281781Y-96753643D01*
X161251000Y-96598893D01*
X161251000Y-96441107D01*
X161281781Y-96286357D01*
X161342162Y-96140585D01*
X161429824Y-96009389D01*
X161541389Y-95897824D01*
X161672585Y-95810162D01*
X161818357Y-95749781D01*
X161973107Y-95719000D01*
X162130893Y-95719000D01*
X162285643Y-95749781D01*
X162285643Y-95749781D01*
G37*
G36*
X172591591Y-95451585D02*
X172625569Y-95461893D01*
X172656887Y-95478633D01*
X172684339Y-95501161D01*
X172706867Y-95528613D01*
X172723607Y-95559931D01*
X172733915Y-95593909D01*
X172738000Y-95635390D01*
X172738000Y-96236610D01*
X172733915Y-96278091D01*
X172723607Y-96312069D01*
X172706867Y-96343387D01*
X172684339Y-96370839D01*
X172656887Y-96393367D01*
X172625569Y-96410107D01*
X172591591Y-96420415D01*
X172550110Y-96424500D01*
X171873890Y-96424500D01*
X171832409Y-96420415D01*
X171798431Y-96410107D01*
X171767113Y-96393367D01*
X171739661Y-96370839D01*
X171717133Y-96343387D01*
X171700393Y-96312069D01*
X171690085Y-96278091D01*
X171686000Y-96236610D01*
X171686000Y-95635390D01*
X171690085Y-95593909D01*
X171700393Y-95559931D01*
X171717133Y-95528613D01*
X171739661Y-95501161D01*
X171767113Y-95478633D01*
X171798431Y-95461893D01*
X171832409Y-95451585D01*
X171873890Y-95447500D01*
X172550110Y-95447500D01*
X172591591Y-95451585D01*
X172591591Y-95451585D01*
G37*
G36*
X169143643Y-93971781D02*
X169289415Y-94032162D01*
X169420611Y-94119824D01*
X169532176Y-94231389D01*
X169619838Y-94362585D01*
X169680219Y-94508357D01*
X169711000Y-94663107D01*
X169711000Y-94820893D01*
X169680219Y-94975643D01*
X169619838Y-95121415D01*
X169532176Y-95252611D01*
X169420611Y-95364176D01*
X169289415Y-95451838D01*
X169143643Y-95512219D01*
X168988893Y-95543000D01*
X168831107Y-95543000D01*
X168676357Y-95512219D01*
X168530585Y-95451838D01*
X168399389Y-95364176D01*
X168287824Y-95252611D01*
X168200162Y-95121415D01*
X168139781Y-94975643D01*
X168109000Y-94820893D01*
X168109000Y-94663107D01*
X168139781Y-94508357D01*
X168200162Y-94362585D01*
X168287824Y-94231389D01*
X168399389Y-94119824D01*
X168530585Y-94032162D01*
X168676357Y-93971781D01*
X168831107Y-93941000D01*
X168988893Y-93941000D01*
X169143643Y-93971781D01*
X169143643Y-93971781D01*
G37*
G36*
X172591591Y-93876585D02*
X172625569Y-93886893D01*
X172656887Y-93903633D01*
X172684339Y-93926161D01*
X172706867Y-93953613D01*
X172723607Y-93984931D01*
X172733915Y-94018909D01*
X172738000Y-94060390D01*
X172738000Y-94661610D01*
X172733915Y-94703091D01*
X172723607Y-94737069D01*
X172706867Y-94768387D01*
X172684339Y-94795839D01*
X172656887Y-94818367D01*
X172625569Y-94835107D01*
X172591591Y-94845415D01*
X172550110Y-94849500D01*
X171873890Y-94849500D01*
X171832409Y-94845415D01*
X171798431Y-94835107D01*
X171767113Y-94818367D01*
X171739661Y-94795839D01*
X171717133Y-94768387D01*
X171700393Y-94737069D01*
X171690085Y-94703091D01*
X171686000Y-94661610D01*
X171686000Y-94060390D01*
X171690085Y-94018909D01*
X171700393Y-93984931D01*
X171717133Y-93953613D01*
X171739661Y-93926161D01*
X171767113Y-93903633D01*
X171798431Y-93886893D01*
X171832409Y-93876585D01*
X171873890Y-93872500D01*
X172550110Y-93872500D01*
X172591591Y-93876585D01*
X172591591Y-93876585D01*
G37*
G36*
X165156000Y-93313000D02*
X157304000Y-93313000D01*
X157304000Y-92211000D01*
X165156000Y-92211000D01*
X165156000Y-93313000D01*
X165156000Y-93313000D01*
G37*
G36*
X128151000Y-92826000D02*
X125849000Y-92826000D01*
X125849000Y-91224000D01*
X128151000Y-91224000D01*
X128151000Y-92826000D01*
X128151000Y-92826000D01*
G37*
G36*
X172591591Y-91768585D02*
X172625569Y-91778893D01*
X172656887Y-91795633D01*
X172684339Y-91818161D01*
X172706867Y-91845613D01*
X172723607Y-91876931D01*
X172733915Y-91910909D01*
X172738000Y-91952390D01*
X172738000Y-92553610D01*
X172733915Y-92595091D01*
X172723607Y-92629069D01*
X172706867Y-92660387D01*
X172684339Y-92687839D01*
X172656887Y-92710367D01*
X172625569Y-92727107D01*
X172591591Y-92737415D01*
X172550110Y-92741500D01*
X171873890Y-92741500D01*
X171832409Y-92737415D01*
X171798431Y-92727107D01*
X171767113Y-92710367D01*
X171739661Y-92687839D01*
X171717133Y-92660387D01*
X171700393Y-92629069D01*
X171690085Y-92595091D01*
X171686000Y-92553610D01*
X171686000Y-91952390D01*
X171690085Y-91910909D01*
X171700393Y-91876931D01*
X171717133Y-91845613D01*
X171739661Y-91818161D01*
X171767113Y-91795633D01*
X171798431Y-91778893D01*
X171832409Y-91768585D01*
X171873890Y-91764500D01*
X172550110Y-91764500D01*
X172591591Y-91768585D01*
X172591591Y-91768585D01*
G37*
G36*
X122788643Y-90034781D02*
X122934415Y-90095162D01*
X123065611Y-90182824D01*
X123177176Y-90294389D01*
X123264838Y-90425585D01*
X123325219Y-90571357D01*
X123356000Y-90726107D01*
X123356000Y-90883893D01*
X123325219Y-91038643D01*
X123264838Y-91184415D01*
X123177176Y-91315611D01*
X123065611Y-91427176D01*
X122934415Y-91514838D01*
X122788643Y-91575219D01*
X122633893Y-91606000D01*
X122476107Y-91606000D01*
X122321357Y-91575219D01*
X122175585Y-91514838D01*
X122044389Y-91427176D01*
X121932824Y-91315611D01*
X121845162Y-91184415D01*
X121784781Y-91038643D01*
X121754000Y-90883893D01*
X121754000Y-90726107D01*
X121784781Y-90571357D01*
X121845162Y-90425585D01*
X121932824Y-90294389D01*
X122044389Y-90182824D01*
X122175585Y-90095162D01*
X122321357Y-90034781D01*
X122476107Y-90004000D01*
X122633893Y-90004000D01*
X122788643Y-90034781D01*
X122788643Y-90034781D01*
G37*
G36*
X176946000Y-91582000D02*
X174844000Y-91582000D01*
X174844000Y-86980000D01*
X176946000Y-86980000D01*
X176946000Y-91582000D01*
X176946000Y-91582000D01*
G37*
G36*
X170827091Y-90156085D02*
X170861069Y-90166393D01*
X170892387Y-90183133D01*
X170919839Y-90205661D01*
X170942367Y-90233113D01*
X170959107Y-90264431D01*
X170969415Y-90298409D01*
X170973500Y-90339890D01*
X170973500Y-91016110D01*
X170969415Y-91057591D01*
X170959107Y-91091569D01*
X170942367Y-91122887D01*
X170919839Y-91150339D01*
X170892387Y-91172867D01*
X170861069Y-91189607D01*
X170827091Y-91199915D01*
X170785610Y-91204000D01*
X170184390Y-91204000D01*
X170142909Y-91199915D01*
X170108931Y-91189607D01*
X170077613Y-91172867D01*
X170050161Y-91150339D01*
X170027633Y-91122887D01*
X170010893Y-91091569D01*
X170000585Y-91057591D01*
X169996500Y-91016110D01*
X169996500Y-90339890D01*
X170000585Y-90298409D01*
X170010893Y-90264431D01*
X170027633Y-90233113D01*
X170050161Y-90205661D01*
X170077613Y-90183133D01*
X170108931Y-90166393D01*
X170142909Y-90156085D01*
X170184390Y-90152000D01*
X170785610Y-90152000D01*
X170827091Y-90156085D01*
X170827091Y-90156085D01*
G37*
G36*
X169252091Y-90156085D02*
X169286069Y-90166393D01*
X169317387Y-90183133D01*
X169344839Y-90205661D01*
X169367367Y-90233113D01*
X169384107Y-90264431D01*
X169394415Y-90298409D01*
X169398500Y-90339890D01*
X169398500Y-91016110D01*
X169394415Y-91057591D01*
X169384107Y-91091569D01*
X169367367Y-91122887D01*
X169344839Y-91150339D01*
X169317387Y-91172867D01*
X169286069Y-91189607D01*
X169252091Y-91199915D01*
X169210610Y-91204000D01*
X168609390Y-91204000D01*
X168567909Y-91199915D01*
X168533931Y-91189607D01*
X168502613Y-91172867D01*
X168475161Y-91150339D01*
X168452633Y-91122887D01*
X168435893Y-91091569D01*
X168425585Y-91057591D01*
X168421500Y-91016110D01*
X168421500Y-90339890D01*
X168425585Y-90298409D01*
X168435893Y-90264431D01*
X168452633Y-90233113D01*
X168475161Y-90205661D01*
X168502613Y-90183133D01*
X168533931Y-90166393D01*
X168567909Y-90156085D01*
X168609390Y-90152000D01*
X169210610Y-90152000D01*
X169252091Y-90156085D01*
X169252091Y-90156085D01*
G37*
G36*
X172591591Y-90193585D02*
X172625569Y-90203893D01*
X172656887Y-90220633D01*
X172684339Y-90243161D01*
X172706867Y-90270613D01*
X172723607Y-90301931D01*
X172733915Y-90335909D01*
X172738000Y-90377390D01*
X172738000Y-90978610D01*
X172733915Y-91020091D01*
X172723607Y-91054069D01*
X172706867Y-91085387D01*
X172684339Y-91112839D01*
X172656887Y-91135367D01*
X172625569Y-91152107D01*
X172591591Y-91162415D01*
X172550110Y-91166500D01*
X171873890Y-91166500D01*
X171832409Y-91162415D01*
X171798431Y-91152107D01*
X171767113Y-91135367D01*
X171739661Y-91112839D01*
X171717133Y-91085387D01*
X171700393Y-91054069D01*
X171690085Y-91020091D01*
X171686000Y-90978610D01*
X171686000Y-90377390D01*
X171690085Y-90335909D01*
X171700393Y-90301931D01*
X171717133Y-90270613D01*
X171739661Y-90243161D01*
X171767113Y-90220633D01*
X171798431Y-90203893D01*
X171832409Y-90193585D01*
X171873890Y-90189500D01*
X172550110Y-90189500D01*
X172591591Y-90193585D01*
X172591591Y-90193585D01*
G37*
G36*
X156081000Y-90988000D02*
X154979000Y-90988000D01*
X154979000Y-83136000D01*
X156081000Y-83136000D01*
X156081000Y-90988000D01*
X156081000Y-90988000D01*
G37*
G36*
X167481000Y-90988000D02*
X166379000Y-90988000D01*
X166379000Y-83136000D01*
X167481000Y-83136000D01*
X167481000Y-90988000D01*
X167481000Y-90988000D01*
G37*
G36*
X170801591Y-88505085D02*
X170835569Y-88515393D01*
X170866887Y-88532133D01*
X170894339Y-88554661D01*
X170916867Y-88582113D01*
X170933607Y-88613431D01*
X170943915Y-88647409D01*
X170948000Y-88688890D01*
X170948000Y-89365110D01*
X170943915Y-89406591D01*
X170933607Y-89440569D01*
X170916867Y-89471887D01*
X170894339Y-89499339D01*
X170866887Y-89521867D01*
X170835569Y-89538607D01*
X170801591Y-89548915D01*
X170760110Y-89553000D01*
X170158890Y-89553000D01*
X170117409Y-89548915D01*
X170083431Y-89538607D01*
X170052113Y-89521867D01*
X170024661Y-89499339D01*
X170002133Y-89471887D01*
X169985393Y-89440569D01*
X169975085Y-89406591D01*
X169971000Y-89365110D01*
X169971000Y-88688890D01*
X169975085Y-88647409D01*
X169985393Y-88613431D01*
X170002133Y-88582113D01*
X170024661Y-88554661D01*
X170052113Y-88532133D01*
X170083431Y-88515393D01*
X170117409Y-88505085D01*
X170158890Y-88501000D01*
X170760110Y-88501000D01*
X170801591Y-88505085D01*
X170801591Y-88505085D01*
G37*
G36*
X169226591Y-88505085D02*
X169260569Y-88515393D01*
X169291887Y-88532133D01*
X169319339Y-88554661D01*
X169341867Y-88582113D01*
X169358607Y-88613431D01*
X169368915Y-88647409D01*
X169373000Y-88688890D01*
X169373000Y-89365110D01*
X169368915Y-89406591D01*
X169358607Y-89440569D01*
X169341867Y-89471887D01*
X169319339Y-89499339D01*
X169291887Y-89521867D01*
X169260569Y-89538607D01*
X169226591Y-89548915D01*
X169185110Y-89553000D01*
X168583890Y-89553000D01*
X168542409Y-89548915D01*
X168508431Y-89538607D01*
X168477113Y-89521867D01*
X168449661Y-89499339D01*
X168427133Y-89471887D01*
X168410393Y-89440569D01*
X168400085Y-89406591D01*
X168396000Y-89365110D01*
X168396000Y-88688890D01*
X168400085Y-88647409D01*
X168410393Y-88613431D01*
X168427133Y-88582113D01*
X168449661Y-88554661D01*
X168477113Y-88532133D01*
X168508431Y-88515393D01*
X168542409Y-88505085D01*
X168583890Y-88501000D01*
X169185110Y-88501000D01*
X169226591Y-88505085D01*
X169226591Y-88505085D01*
G37*
G36*
X172591591Y-88568085D02*
X172625569Y-88578393D01*
X172656887Y-88595133D01*
X172684339Y-88617661D01*
X172706867Y-88645113D01*
X172723607Y-88676431D01*
X172733915Y-88710409D01*
X172738000Y-88751890D01*
X172738000Y-89353110D01*
X172733915Y-89394591D01*
X172723607Y-89428569D01*
X172706867Y-89459887D01*
X172684339Y-89487339D01*
X172656887Y-89509867D01*
X172625569Y-89526607D01*
X172591591Y-89536915D01*
X172550110Y-89541000D01*
X171873890Y-89541000D01*
X171832409Y-89536915D01*
X171798431Y-89526607D01*
X171767113Y-89509867D01*
X171739661Y-89487339D01*
X171717133Y-89459887D01*
X171700393Y-89428569D01*
X171690085Y-89394591D01*
X171686000Y-89353110D01*
X171686000Y-88751890D01*
X171690085Y-88710409D01*
X171700393Y-88676431D01*
X171717133Y-88645113D01*
X171739661Y-88617661D01*
X171767113Y-88595133D01*
X171798431Y-88578393D01*
X171832409Y-88568085D01*
X171873890Y-88564000D01*
X172550110Y-88564000D01*
X172591591Y-88568085D01*
X172591591Y-88568085D01*
G37*
G36*
X123187084Y-88482332D02*
X123187686Y-88494584D01*
X123190233Y-88520446D01*
X123187686Y-88546308D01*
X123187084Y-88558560D01*
X123187084Y-88631853D01*
X123178127Y-88648611D01*
X123173997Y-88660154D01*
X123162638Y-88697599D01*
X123140439Y-88770779D01*
X123120410Y-88808250D01*
X123079989Y-88883872D01*
X122998637Y-88982999D01*
X122899510Y-89064351D01*
X122899508Y-89064352D01*
X122786417Y-89124801D01*
X122749498Y-89136000D01*
X122663702Y-89162026D01*
X122599939Y-89168306D01*
X122568058Y-89171446D01*
X121804110Y-89171446D01*
X121772229Y-89168306D01*
X121708466Y-89162026D01*
X121622670Y-89136000D01*
X121585751Y-89124801D01*
X121472660Y-89064352D01*
X121472658Y-89064351D01*
X121373531Y-88982999D01*
X121292179Y-88883872D01*
X121251758Y-88808250D01*
X121231729Y-88770779D01*
X121209530Y-88697599D01*
X121198172Y-88660157D01*
X121188796Y-88637522D01*
X121185084Y-88631966D01*
X121185084Y-88558560D01*
X121184482Y-88546308D01*
X121181935Y-88520446D01*
X121184482Y-88494584D01*
X121185084Y-88482332D01*
X121185084Y-87269446D01*
X123187084Y-87269446D01*
X123187084Y-88482332D01*
X123187084Y-88482332D01*
G37*
G36*
X127379591Y-87577585D02*
X127413569Y-87587893D01*
X127444887Y-87604633D01*
X127472339Y-87627161D01*
X127494867Y-87654613D01*
X127511607Y-87685931D01*
X127521915Y-87719909D01*
X127526000Y-87761390D01*
X127526000Y-88362610D01*
X127521915Y-88404091D01*
X127511607Y-88438069D01*
X127494867Y-88469387D01*
X127472339Y-88496839D01*
X127444887Y-88519367D01*
X127413569Y-88536107D01*
X127379591Y-88546415D01*
X127338110Y-88550500D01*
X126661890Y-88550500D01*
X126620409Y-88546415D01*
X126586431Y-88536107D01*
X126555113Y-88519367D01*
X126527661Y-88496839D01*
X126505133Y-88469387D01*
X126488393Y-88438069D01*
X126478085Y-88404091D01*
X126474000Y-88362610D01*
X126474000Y-87761390D01*
X126478085Y-87719909D01*
X126488393Y-87685931D01*
X126505133Y-87654613D01*
X126527661Y-87627161D01*
X126555113Y-87604633D01*
X126586431Y-87587893D01*
X126620409Y-87577585D01*
X126661890Y-87573500D01*
X127338110Y-87573500D01*
X127379591Y-87577585D01*
X127379591Y-87577585D01*
G37*
G36*
X125112433Y-81774266D02*
X125112436Y-81774267D01*
X125112435Y-81774267D01*
X125253658Y-81832763D01*
X125357541Y-81902176D01*
X125380758Y-81917689D01*
X125488841Y-82025772D01*
X125488843Y-82025775D01*
X125573767Y-82152872D01*
X125619011Y-82262103D01*
X125632264Y-82294097D01*
X125662084Y-82444015D01*
X125662084Y-82596877D01*
X125632264Y-82746795D01*
X125632263Y-82746797D01*
X125573767Y-82888020D01*
X125573766Y-82888021D01*
X125488841Y-83015120D01*
X125380758Y-83123203D01*
X125380755Y-83123205D01*
X125253658Y-83208129D01*
X125203362Y-83228962D01*
X125181753Y-83240513D01*
X125162811Y-83256058D01*
X125147266Y-83275000D01*
X125135715Y-83296611D01*
X125128602Y-83320060D01*
X125126200Y-83344446D01*
X125128602Y-83368833D01*
X125135715Y-83392282D01*
X125147267Y-83413893D01*
X125162812Y-83432835D01*
X125181754Y-83448380D01*
X125203365Y-83459931D01*
X125226814Y-83467044D01*
X125251200Y-83469446D01*
X125612084Y-83469446D01*
X125612084Y-86571446D01*
X125251200Y-86571446D01*
X125226814Y-86573848D01*
X125203365Y-86580961D01*
X125181754Y-86592512D01*
X125162812Y-86608058D01*
X125147266Y-86627000D01*
X125135715Y-86648611D01*
X125128602Y-86672060D01*
X125126200Y-86696446D01*
X125128602Y-86720832D01*
X125135715Y-86744281D01*
X125147266Y-86765892D01*
X125162812Y-86784834D01*
X125181754Y-86800380D01*
X125203362Y-86811930D01*
X125253658Y-86832763D01*
X125253659Y-86832764D01*
X125380758Y-86917689D01*
X125488841Y-87025772D01*
X125488843Y-87025775D01*
X125573767Y-87152872D01*
X125607060Y-87233250D01*
X125632264Y-87294097D01*
X125662084Y-87444015D01*
X125662084Y-87596877D01*
X125632264Y-87746795D01*
X125622900Y-87769401D01*
X125573767Y-87888020D01*
X125534085Y-87947408D01*
X125488841Y-88015120D01*
X125380758Y-88123203D01*
X125380755Y-88123205D01*
X125253658Y-88208129D01*
X125144427Y-88253373D01*
X125112433Y-88266626D01*
X124962515Y-88296446D01*
X124809653Y-88296446D01*
X124659735Y-88266626D01*
X124627741Y-88253373D01*
X124518510Y-88208129D01*
X124391413Y-88123205D01*
X124391410Y-88123203D01*
X124283327Y-88015120D01*
X124238083Y-87947408D01*
X124198401Y-87888020D01*
X124149268Y-87769401D01*
X124139904Y-87746795D01*
X124110084Y-87596877D01*
X124110084Y-87444015D01*
X124139904Y-87294097D01*
X124165108Y-87233250D01*
X124198401Y-87152872D01*
X124283325Y-87025775D01*
X124283327Y-87025772D01*
X124391410Y-86917689D01*
X124518509Y-86832764D01*
X124518510Y-86832763D01*
X124568806Y-86811930D01*
X124590415Y-86800379D01*
X124609357Y-86784834D01*
X124624902Y-86765892D01*
X124636453Y-86744281D01*
X124643566Y-86720832D01*
X124645968Y-86696446D01*
X124643566Y-86672059D01*
X124636453Y-86648610D01*
X124624901Y-86626999D01*
X124609356Y-86608057D01*
X124590414Y-86592512D01*
X124568803Y-86580961D01*
X124545354Y-86573848D01*
X124520968Y-86571446D01*
X124160084Y-86571446D01*
X124160084Y-83469446D01*
X124520968Y-83469446D01*
X124545354Y-83467044D01*
X124568803Y-83459931D01*
X124590414Y-83448380D01*
X124609356Y-83432834D01*
X124624902Y-83413892D01*
X124636453Y-83392281D01*
X124643566Y-83368832D01*
X124645968Y-83344446D01*
X124643566Y-83320060D01*
X124636453Y-83296611D01*
X124624902Y-83275000D01*
X124609356Y-83256058D01*
X124590414Y-83240512D01*
X124568806Y-83228962D01*
X124518510Y-83208129D01*
X124391413Y-83123205D01*
X124391410Y-83123203D01*
X124283327Y-83015120D01*
X124198402Y-82888021D01*
X124198401Y-82888020D01*
X124139905Y-82746797D01*
X124139904Y-82746795D01*
X124110084Y-82596877D01*
X124110084Y-82444015D01*
X124139904Y-82294097D01*
X124153157Y-82262103D01*
X124198401Y-82152872D01*
X124283325Y-82025775D01*
X124283327Y-82025772D01*
X124391410Y-81917689D01*
X124414627Y-81902176D01*
X124518510Y-81832763D01*
X124659733Y-81774267D01*
X124659732Y-81774267D01*
X124659735Y-81774266D01*
X124809653Y-81744446D01*
X124962515Y-81744446D01*
X125112433Y-81774266D01*
X125112433Y-81774266D01*
G37*
G36*
X172591591Y-86993085D02*
X172625569Y-87003393D01*
X172656887Y-87020133D01*
X172684339Y-87042661D01*
X172706867Y-87070113D01*
X172723607Y-87101431D01*
X172733915Y-87135409D01*
X172738000Y-87176890D01*
X172738000Y-87778110D01*
X172733915Y-87819591D01*
X172723607Y-87853569D01*
X172706867Y-87884887D01*
X172684339Y-87912339D01*
X172656887Y-87934867D01*
X172625569Y-87951607D01*
X172591591Y-87961915D01*
X172550110Y-87966000D01*
X171873890Y-87966000D01*
X171832409Y-87961915D01*
X171798431Y-87951607D01*
X171767113Y-87934867D01*
X171739661Y-87912339D01*
X171717133Y-87884887D01*
X171700393Y-87853569D01*
X171690085Y-87819591D01*
X171686000Y-87778110D01*
X171686000Y-87176890D01*
X171690085Y-87135409D01*
X171700393Y-87101431D01*
X171717133Y-87070113D01*
X171739661Y-87042661D01*
X171767113Y-87020133D01*
X171798431Y-87003393D01*
X171832409Y-86993085D01*
X171873890Y-86989000D01*
X172550110Y-86989000D01*
X172591591Y-86993085D01*
X172591591Y-86993085D01*
G37*
G36*
X132821643Y-85843781D02*
X132967415Y-85904162D01*
X133098611Y-85991824D01*
X133210176Y-86103389D01*
X133297838Y-86234585D01*
X133358219Y-86380357D01*
X133389000Y-86535107D01*
X133389000Y-86692893D01*
X133358219Y-86847643D01*
X133297838Y-86993415D01*
X133210176Y-87124611D01*
X133098611Y-87236176D01*
X132967415Y-87323838D01*
X132821643Y-87384219D01*
X132666893Y-87415000D01*
X132509107Y-87415000D01*
X132354357Y-87384219D01*
X132208585Y-87323838D01*
X132077389Y-87236176D01*
X131965824Y-87124611D01*
X131878162Y-86993415D01*
X131817781Y-86847643D01*
X131787000Y-86692893D01*
X131787000Y-86535107D01*
X131817781Y-86380357D01*
X131878162Y-86234585D01*
X131965824Y-86103389D01*
X132077389Y-85991824D01*
X132208585Y-85904162D01*
X132354357Y-85843781D01*
X132509107Y-85813000D01*
X132666893Y-85813000D01*
X132821643Y-85843781D01*
X132821643Y-85843781D01*
G37*
G36*
X127379591Y-86002585D02*
X127413569Y-86012893D01*
X127444887Y-86029633D01*
X127472339Y-86052161D01*
X127494867Y-86079613D01*
X127511607Y-86110931D01*
X127521915Y-86144909D01*
X127526000Y-86186390D01*
X127526000Y-86787610D01*
X127521915Y-86829091D01*
X127511607Y-86863069D01*
X127494867Y-86894387D01*
X127472339Y-86921839D01*
X127444887Y-86944367D01*
X127413569Y-86961107D01*
X127379591Y-86971415D01*
X127338110Y-86975500D01*
X126661890Y-86975500D01*
X126620409Y-86971415D01*
X126586431Y-86961107D01*
X126555113Y-86944367D01*
X126527661Y-86921839D01*
X126505133Y-86894387D01*
X126488393Y-86863069D01*
X126478085Y-86829091D01*
X126474000Y-86787610D01*
X126474000Y-86186390D01*
X126478085Y-86144909D01*
X126488393Y-86110931D01*
X126505133Y-86079613D01*
X126527661Y-86052161D01*
X126555113Y-86029633D01*
X126586431Y-86012893D01*
X126620409Y-86002585D01*
X126661890Y-85998500D01*
X127338110Y-85998500D01*
X127379591Y-86002585D01*
X127379591Y-86002585D01*
G37*
G36*
X123187084Y-86821446D02*
X121185084Y-86821446D01*
X121185084Y-85219446D01*
X123187084Y-85219446D01*
X123187084Y-86821446D01*
X123187084Y-86821446D01*
G37*
G36*
X130923591Y-85330085D02*
X130957569Y-85340393D01*
X130988887Y-85357133D01*
X131016339Y-85379661D01*
X131038867Y-85407113D01*
X131055607Y-85438431D01*
X131065915Y-85472409D01*
X131070000Y-85513890D01*
X131070000Y-86190110D01*
X131065915Y-86231591D01*
X131055607Y-86265569D01*
X131038867Y-86296887D01*
X131016339Y-86324339D01*
X130988887Y-86346867D01*
X130957569Y-86363607D01*
X130923591Y-86373915D01*
X130882110Y-86378000D01*
X130280890Y-86378000D01*
X130239409Y-86373915D01*
X130205431Y-86363607D01*
X130174113Y-86346867D01*
X130146661Y-86324339D01*
X130124133Y-86296887D01*
X130107393Y-86265569D01*
X130097085Y-86231591D01*
X130093000Y-86190110D01*
X130093000Y-85513890D01*
X130097085Y-85472409D01*
X130107393Y-85438431D01*
X130124133Y-85407113D01*
X130146661Y-85379661D01*
X130174113Y-85357133D01*
X130205431Y-85340393D01*
X130239409Y-85330085D01*
X130280890Y-85326000D01*
X130882110Y-85326000D01*
X130923591Y-85330085D01*
X130923591Y-85330085D01*
G37*
G36*
X129348591Y-85330085D02*
X129382569Y-85340393D01*
X129413887Y-85357133D01*
X129441339Y-85379661D01*
X129463867Y-85407113D01*
X129480607Y-85438431D01*
X129490915Y-85472409D01*
X129495000Y-85513890D01*
X129495000Y-86190110D01*
X129490915Y-86231591D01*
X129480607Y-86265569D01*
X129463867Y-86296887D01*
X129441339Y-86324339D01*
X129413887Y-86346867D01*
X129382569Y-86363607D01*
X129348591Y-86373915D01*
X129307110Y-86378000D01*
X128705890Y-86378000D01*
X128664409Y-86373915D01*
X128630431Y-86363607D01*
X128599113Y-86346867D01*
X128571661Y-86324339D01*
X128549133Y-86296887D01*
X128532393Y-86265569D01*
X128522085Y-86231591D01*
X128518000Y-86190110D01*
X128518000Y-85513890D01*
X128522085Y-85472409D01*
X128532393Y-85438431D01*
X128549133Y-85407113D01*
X128571661Y-85379661D01*
X128599113Y-85357133D01*
X128630431Y-85340393D01*
X128664409Y-85330085D01*
X128705890Y-85326000D01*
X129307110Y-85326000D01*
X129348591Y-85330085D01*
X129348591Y-85330085D01*
G37*
G36*
X170667643Y-84573781D02*
X170813415Y-84634162D01*
X170944611Y-84721824D01*
X171056176Y-84833389D01*
X171143838Y-84964585D01*
X171204219Y-85110357D01*
X171235000Y-85265107D01*
X171235000Y-85422893D01*
X171204219Y-85577643D01*
X171143838Y-85723415D01*
X171056176Y-85854611D01*
X170944611Y-85966176D01*
X170813415Y-86053838D01*
X170667643Y-86114219D01*
X170512893Y-86145000D01*
X170355107Y-86145000D01*
X170200357Y-86114219D01*
X170054585Y-86053838D01*
X169923389Y-85966176D01*
X169811824Y-85854611D01*
X169724162Y-85723415D01*
X169663781Y-85577643D01*
X169633000Y-85422893D01*
X169633000Y-85265107D01*
X169663781Y-85110357D01*
X169724162Y-84964585D01*
X169811824Y-84833389D01*
X169923389Y-84721824D01*
X170054585Y-84634162D01*
X170200357Y-84573781D01*
X170355107Y-84543000D01*
X170512893Y-84543000D01*
X170667643Y-84573781D01*
X170667643Y-84573781D01*
G37*
G36*
X173207643Y-84573781D02*
X173353415Y-84634162D01*
X173484611Y-84721824D01*
X173596176Y-84833389D01*
X173683838Y-84964585D01*
X173744219Y-85110357D01*
X173775000Y-85265107D01*
X173775000Y-85422893D01*
X173744219Y-85577643D01*
X173683838Y-85723415D01*
X173596176Y-85854611D01*
X173484611Y-85966176D01*
X173353415Y-86053838D01*
X173207643Y-86114219D01*
X173052893Y-86145000D01*
X172895107Y-86145000D01*
X172740357Y-86114219D01*
X172594585Y-86053838D01*
X172463389Y-85966176D01*
X172351824Y-85854611D01*
X172264162Y-85723415D01*
X172203781Y-85577643D01*
X172173000Y-85422893D01*
X172173000Y-85265107D01*
X172203781Y-85110357D01*
X172264162Y-84964585D01*
X172351824Y-84833389D01*
X172463389Y-84721824D01*
X172594585Y-84634162D01*
X172740357Y-84573781D01*
X172895107Y-84543000D01*
X173052893Y-84543000D01*
X173207643Y-84573781D01*
X173207643Y-84573781D01*
G37*
G36*
X175620643Y-84573781D02*
X175766415Y-84634162D01*
X175897611Y-84721824D01*
X176009176Y-84833389D01*
X176096838Y-84964585D01*
X176157219Y-85110357D01*
X176188000Y-85265107D01*
X176188000Y-85422893D01*
X176157219Y-85577643D01*
X176096838Y-85723415D01*
X176009176Y-85854611D01*
X175897611Y-85966176D01*
X175766415Y-86053838D01*
X175620643Y-86114219D01*
X175465893Y-86145000D01*
X175308107Y-86145000D01*
X175153357Y-86114219D01*
X175007585Y-86053838D01*
X174876389Y-85966176D01*
X174764824Y-85854611D01*
X174677162Y-85723415D01*
X174616781Y-85577643D01*
X174586000Y-85422893D01*
X174586000Y-85265107D01*
X174616781Y-85110357D01*
X174677162Y-84964585D01*
X174764824Y-84833389D01*
X174876389Y-84721824D01*
X175007585Y-84634162D01*
X175153357Y-84573781D01*
X175308107Y-84543000D01*
X175465893Y-84543000D01*
X175620643Y-84573781D01*
X175620643Y-84573781D01*
G37*
G36*
X123187084Y-84821446D02*
X121185084Y-84821446D01*
X121185084Y-83219446D01*
X123187084Y-83219446D01*
X123187084Y-84821446D01*
X123187084Y-84821446D01*
G37*
G36*
X130898091Y-83552085D02*
X130932069Y-83562393D01*
X130963387Y-83579133D01*
X130990839Y-83601661D01*
X131013367Y-83629113D01*
X131030107Y-83660431D01*
X131040415Y-83694409D01*
X131044500Y-83735890D01*
X131044500Y-84412110D01*
X131040415Y-84453591D01*
X131030107Y-84487569D01*
X131013367Y-84518887D01*
X130990839Y-84546339D01*
X130963387Y-84568867D01*
X130932069Y-84585607D01*
X130898091Y-84595915D01*
X130856610Y-84600000D01*
X130255390Y-84600000D01*
X130213909Y-84595915D01*
X130179931Y-84585607D01*
X130148613Y-84568867D01*
X130121161Y-84546339D01*
X130098633Y-84518887D01*
X130081893Y-84487569D01*
X130071585Y-84453591D01*
X130067500Y-84412110D01*
X130067500Y-83735890D01*
X130071585Y-83694409D01*
X130081893Y-83660431D01*
X130098633Y-83629113D01*
X130121161Y-83601661D01*
X130148613Y-83579133D01*
X130179931Y-83562393D01*
X130213909Y-83552085D01*
X130255390Y-83548000D01*
X130856610Y-83548000D01*
X130898091Y-83552085D01*
X130898091Y-83552085D01*
G37*
G36*
X129323091Y-83552085D02*
X129357069Y-83562393D01*
X129388387Y-83579133D01*
X129415839Y-83601661D01*
X129438367Y-83629113D01*
X129455107Y-83660431D01*
X129465415Y-83694409D01*
X129469500Y-83735890D01*
X129469500Y-84412110D01*
X129465415Y-84453591D01*
X129455107Y-84487569D01*
X129438367Y-84518887D01*
X129415839Y-84546339D01*
X129388387Y-84568867D01*
X129357069Y-84585607D01*
X129323091Y-84595915D01*
X129281610Y-84600000D01*
X128680390Y-84600000D01*
X128638909Y-84595915D01*
X128604931Y-84585607D01*
X128573613Y-84568867D01*
X128546161Y-84546339D01*
X128523633Y-84518887D01*
X128506893Y-84487569D01*
X128496585Y-84453591D01*
X128492500Y-84412110D01*
X128492500Y-83735890D01*
X128496585Y-83694409D01*
X128506893Y-83660431D01*
X128523633Y-83629113D01*
X128546161Y-83601661D01*
X128573613Y-83579133D01*
X128604931Y-83562393D01*
X128638909Y-83552085D01*
X128680390Y-83548000D01*
X129281610Y-83548000D01*
X129323091Y-83552085D01*
X129323091Y-83552085D01*
G37*
G36*
X132821643Y-82541781D02*
X132967415Y-82602162D01*
X133098611Y-82689824D01*
X133210176Y-82801389D01*
X133297838Y-82932585D01*
X133358219Y-83078357D01*
X133389000Y-83233107D01*
X133389000Y-83390893D01*
X133358219Y-83545643D01*
X133297838Y-83691415D01*
X133210176Y-83822611D01*
X133098611Y-83934176D01*
X132967415Y-84021838D01*
X132821643Y-84082219D01*
X132666893Y-84113000D01*
X132509107Y-84113000D01*
X132354357Y-84082219D01*
X132208585Y-84021838D01*
X132077389Y-83934176D01*
X131965824Y-83822611D01*
X131878162Y-83691415D01*
X131817781Y-83545643D01*
X131787000Y-83390893D01*
X131787000Y-83233107D01*
X131817781Y-83078357D01*
X131878162Y-82932585D01*
X131965824Y-82801389D01*
X132077389Y-82689824D01*
X132208585Y-82602162D01*
X132354357Y-82541781D01*
X132509107Y-82511000D01*
X132666893Y-82511000D01*
X132821643Y-82541781D01*
X132821643Y-82541781D01*
G37*
G36*
X169397643Y-82414781D02*
X169543415Y-82475162D01*
X169674611Y-82562824D01*
X169786176Y-82674389D01*
X169873838Y-82805585D01*
X169934219Y-82951357D01*
X169965000Y-83106107D01*
X169965000Y-83263893D01*
X169934219Y-83418643D01*
X169873838Y-83564415D01*
X169786176Y-83695611D01*
X169674611Y-83807176D01*
X169543415Y-83894838D01*
X169397643Y-83955219D01*
X169242893Y-83986000D01*
X169085107Y-83986000D01*
X168930357Y-83955219D01*
X168784585Y-83894838D01*
X168653389Y-83807176D01*
X168541824Y-83695611D01*
X168454162Y-83564415D01*
X168393781Y-83418643D01*
X168363000Y-83263893D01*
X168363000Y-83106107D01*
X168393781Y-82951357D01*
X168454162Y-82805585D01*
X168541824Y-82674389D01*
X168653389Y-82562824D01*
X168784585Y-82475162D01*
X168930357Y-82414781D01*
X169085107Y-82384000D01*
X169242893Y-82384000D01*
X169397643Y-82414781D01*
X169397643Y-82414781D01*
G37*
G36*
X174477643Y-82414781D02*
X174623415Y-82475162D01*
X174754611Y-82562824D01*
X174866176Y-82674389D01*
X174953838Y-82805585D01*
X175014219Y-82951357D01*
X175045000Y-83106107D01*
X175045000Y-83263893D01*
X175014219Y-83418643D01*
X174953838Y-83564415D01*
X174866176Y-83695611D01*
X174754611Y-83807176D01*
X174623415Y-83894838D01*
X174477643Y-83955219D01*
X174322893Y-83986000D01*
X174165107Y-83986000D01*
X174010357Y-83955219D01*
X173864585Y-83894838D01*
X173733389Y-83807176D01*
X173621824Y-83695611D01*
X173534162Y-83564415D01*
X173473781Y-83418643D01*
X173443000Y-83263893D01*
X173443000Y-83106107D01*
X173473781Y-82951357D01*
X173534162Y-82805585D01*
X173621824Y-82674389D01*
X173733389Y-82562824D01*
X173864585Y-82475162D01*
X174010357Y-82414781D01*
X174165107Y-82384000D01*
X174322893Y-82384000D01*
X174477643Y-82414781D01*
X174477643Y-82414781D01*
G37*
G36*
X171937643Y-82414781D02*
X172083415Y-82475162D01*
X172214611Y-82562824D01*
X172326176Y-82674389D01*
X172413838Y-82805585D01*
X172474219Y-82951357D01*
X172505000Y-83106107D01*
X172505000Y-83263893D01*
X172474219Y-83418643D01*
X172413838Y-83564415D01*
X172326176Y-83695611D01*
X172214611Y-83807176D01*
X172083415Y-83894838D01*
X171937643Y-83955219D01*
X171782893Y-83986000D01*
X171625107Y-83986000D01*
X171470357Y-83955219D01*
X171324585Y-83894838D01*
X171193389Y-83807176D01*
X171081824Y-83695611D01*
X170994162Y-83564415D01*
X170933781Y-83418643D01*
X170903000Y-83263893D01*
X170903000Y-83106107D01*
X170933781Y-82951357D01*
X170994162Y-82805585D01*
X171081824Y-82674389D01*
X171193389Y-82562824D01*
X171324585Y-82475162D01*
X171470357Y-82414781D01*
X171625107Y-82384000D01*
X171782893Y-82384000D01*
X171937643Y-82414781D01*
X171937643Y-82414781D01*
G37*
G36*
X122599939Y-80872586D02*
X122663702Y-80878866D01*
X122745511Y-80903683D01*
X122786417Y-80916091D01*
X122886575Y-80969627D01*
X122899510Y-80976541D01*
X122998637Y-81057893D01*
X123079989Y-81157020D01*
X123079990Y-81157022D01*
X123140439Y-81270113D01*
X123140439Y-81270114D01*
X123167370Y-81358892D01*
X123173994Y-81380731D01*
X123183372Y-81403370D01*
X123187084Y-81408926D01*
X123187084Y-81482332D01*
X123187686Y-81494584D01*
X123190233Y-81520446D01*
X123187686Y-81546308D01*
X123187084Y-81558560D01*
X123187084Y-82771446D01*
X121185084Y-82771446D01*
X121185084Y-81558560D01*
X121184482Y-81546308D01*
X121181935Y-81520446D01*
X121184482Y-81494584D01*
X121185084Y-81482332D01*
X121185084Y-81409039D01*
X121194041Y-81392281D01*
X121198174Y-81380731D01*
X121204799Y-81358892D01*
X121231729Y-81270114D01*
X121231729Y-81270113D01*
X121292178Y-81157022D01*
X121292179Y-81157020D01*
X121373531Y-81057893D01*
X121472658Y-80976541D01*
X121485593Y-80969627D01*
X121585751Y-80916091D01*
X121626657Y-80903683D01*
X121708466Y-80878866D01*
X121772229Y-80872586D01*
X121804110Y-80869446D01*
X122568058Y-80869446D01*
X122599939Y-80872586D01*
X122599939Y-80872586D01*
G37*
G36*
X127995643Y-80509781D02*
X128141415Y-80570162D01*
X128272611Y-80657824D01*
X128384176Y-80769389D01*
X128471838Y-80900585D01*
X128532219Y-81046357D01*
X128563000Y-81201107D01*
X128563000Y-81358893D01*
X128532219Y-81513643D01*
X128471838Y-81659415D01*
X128384176Y-81790611D01*
X128272611Y-81902176D01*
X128141415Y-81989838D01*
X127995643Y-82050219D01*
X127840893Y-82081000D01*
X127683107Y-82081000D01*
X127528357Y-82050219D01*
X127382585Y-81989838D01*
X127251389Y-81902176D01*
X127139824Y-81790611D01*
X127052162Y-81659415D01*
X126991781Y-81513643D01*
X126961000Y-81358893D01*
X126961000Y-81201107D01*
X126991781Y-81046357D01*
X127052162Y-80900585D01*
X127139824Y-80769389D01*
X127251389Y-80657824D01*
X127382585Y-80570162D01*
X127528357Y-80509781D01*
X127683107Y-80479000D01*
X127840893Y-80479000D01*
X127995643Y-80509781D01*
X127995643Y-80509781D01*
G37*
G36*
X165156000Y-81913000D02*
X157304000Y-81913000D01*
X157304000Y-80811000D01*
X165156000Y-80811000D01*
X165156000Y-81913000D01*
X165156000Y-81913000D01*
G37*
G36*
X152144591Y-76147585D02*
X152178569Y-76157893D01*
X152209887Y-76174633D01*
X152237339Y-76197161D01*
X152259867Y-76224613D01*
X152276607Y-76255931D01*
X152286915Y-76289909D01*
X152291000Y-76331390D01*
X152291000Y-76932610D01*
X152286915Y-76974091D01*
X152276607Y-77008069D01*
X152259867Y-77039387D01*
X152237339Y-77066839D01*
X152209887Y-77089367D01*
X152178569Y-77106107D01*
X152144591Y-77116415D01*
X152103110Y-77120500D01*
X151426890Y-77120500D01*
X151385409Y-77116415D01*
X151351431Y-77106107D01*
X151320113Y-77089367D01*
X151292661Y-77066839D01*
X151270133Y-77039387D01*
X151253393Y-77008069D01*
X151243085Y-76974091D01*
X151239000Y-76932610D01*
X151239000Y-76331390D01*
X151243085Y-76289909D01*
X151253393Y-76255931D01*
X151270133Y-76224613D01*
X151292661Y-76197161D01*
X151320113Y-76174633D01*
X151351431Y-76157893D01*
X151385409Y-76147585D01*
X151426890Y-76143500D01*
X152103110Y-76143500D01*
X152144591Y-76147585D01*
X152144591Y-76147585D01*
G37*
G36*
X162304591Y-76147585D02*
X162338569Y-76157893D01*
X162369887Y-76174633D01*
X162397339Y-76197161D01*
X162419867Y-76224613D01*
X162436607Y-76255931D01*
X162446915Y-76289909D01*
X162451000Y-76331390D01*
X162451000Y-76932610D01*
X162446915Y-76974091D01*
X162436607Y-77008069D01*
X162419867Y-77039387D01*
X162397339Y-77066839D01*
X162369887Y-77089367D01*
X162338569Y-77106107D01*
X162304591Y-77116415D01*
X162263110Y-77120500D01*
X161586890Y-77120500D01*
X161545409Y-77116415D01*
X161511431Y-77106107D01*
X161480113Y-77089367D01*
X161452661Y-77066839D01*
X161430133Y-77039387D01*
X161413393Y-77008069D01*
X161403085Y-76974091D01*
X161399000Y-76932610D01*
X161399000Y-76331390D01*
X161403085Y-76289909D01*
X161413393Y-76255931D01*
X161430133Y-76224613D01*
X161452661Y-76197161D01*
X161480113Y-76174633D01*
X161511431Y-76157893D01*
X161545409Y-76147585D01*
X161586890Y-76143500D01*
X162263110Y-76143500D01*
X162304591Y-76147585D01*
X162304591Y-76147585D01*
G37*
G36*
X160272591Y-76147585D02*
X160306569Y-76157893D01*
X160337887Y-76174633D01*
X160365339Y-76197161D01*
X160387867Y-76224613D01*
X160404607Y-76255931D01*
X160414915Y-76289909D01*
X160419000Y-76331390D01*
X160419000Y-76932610D01*
X160414915Y-76974091D01*
X160404607Y-77008069D01*
X160387867Y-77039387D01*
X160365339Y-77066839D01*
X160337887Y-77089367D01*
X160306569Y-77106107D01*
X160272591Y-77116415D01*
X160231110Y-77120500D01*
X159554890Y-77120500D01*
X159513409Y-77116415D01*
X159479431Y-77106107D01*
X159448113Y-77089367D01*
X159420661Y-77066839D01*
X159398133Y-77039387D01*
X159381393Y-77008069D01*
X159371085Y-76974091D01*
X159367000Y-76932610D01*
X159367000Y-76331390D01*
X159371085Y-76289909D01*
X159381393Y-76255931D01*
X159398133Y-76224613D01*
X159420661Y-76197161D01*
X159448113Y-76174633D01*
X159479431Y-76157893D01*
X159513409Y-76147585D01*
X159554890Y-76143500D01*
X160231110Y-76143500D01*
X160272591Y-76147585D01*
X160272591Y-76147585D01*
G37*
G36*
X158240591Y-76147585D02*
X158274569Y-76157893D01*
X158305887Y-76174633D01*
X158333339Y-76197161D01*
X158355867Y-76224613D01*
X158372607Y-76255931D01*
X158382915Y-76289909D01*
X158387000Y-76331390D01*
X158387000Y-76932610D01*
X158382915Y-76974091D01*
X158372607Y-77008069D01*
X158355867Y-77039387D01*
X158333339Y-77066839D01*
X158305887Y-77089367D01*
X158274569Y-77106107D01*
X158240591Y-77116415D01*
X158199110Y-77120500D01*
X157522890Y-77120500D01*
X157481409Y-77116415D01*
X157447431Y-77106107D01*
X157416113Y-77089367D01*
X157388661Y-77066839D01*
X157366133Y-77039387D01*
X157349393Y-77008069D01*
X157339085Y-76974091D01*
X157335000Y-76932610D01*
X157335000Y-76331390D01*
X157339085Y-76289909D01*
X157349393Y-76255931D01*
X157366133Y-76224613D01*
X157388661Y-76197161D01*
X157416113Y-76174633D01*
X157447431Y-76157893D01*
X157481409Y-76147585D01*
X157522890Y-76143500D01*
X158199110Y-76143500D01*
X158240591Y-76147585D01*
X158240591Y-76147585D01*
G37*
G36*
X156208591Y-76147585D02*
X156242569Y-76157893D01*
X156273887Y-76174633D01*
X156301339Y-76197161D01*
X156323867Y-76224613D01*
X156340607Y-76255931D01*
X156350915Y-76289909D01*
X156355000Y-76331390D01*
X156355000Y-76932610D01*
X156350915Y-76974091D01*
X156340607Y-77008069D01*
X156323867Y-77039387D01*
X156301339Y-77066839D01*
X156273887Y-77089367D01*
X156242569Y-77106107D01*
X156208591Y-77116415D01*
X156167110Y-77120500D01*
X155490890Y-77120500D01*
X155449409Y-77116415D01*
X155415431Y-77106107D01*
X155384113Y-77089367D01*
X155356661Y-77066839D01*
X155334133Y-77039387D01*
X155317393Y-77008069D01*
X155307085Y-76974091D01*
X155303000Y-76932610D01*
X155303000Y-76331390D01*
X155307085Y-76289909D01*
X155317393Y-76255931D01*
X155334133Y-76224613D01*
X155356661Y-76197161D01*
X155384113Y-76174633D01*
X155415431Y-76157893D01*
X155449409Y-76147585D01*
X155490890Y-76143500D01*
X156167110Y-76143500D01*
X156208591Y-76147585D01*
X156208591Y-76147585D01*
G37*
G36*
X154176591Y-76147585D02*
X154210569Y-76157893D01*
X154241887Y-76174633D01*
X154269339Y-76197161D01*
X154291867Y-76224613D01*
X154308607Y-76255931D01*
X154318915Y-76289909D01*
X154323000Y-76331390D01*
X154323000Y-76932610D01*
X154318915Y-76974091D01*
X154308607Y-77008069D01*
X154291867Y-77039387D01*
X154269339Y-77066839D01*
X154241887Y-77089367D01*
X154210569Y-77106107D01*
X154176591Y-77116415D01*
X154135110Y-77120500D01*
X153458890Y-77120500D01*
X153417409Y-77116415D01*
X153383431Y-77106107D01*
X153352113Y-77089367D01*
X153324661Y-77066839D01*
X153302133Y-77039387D01*
X153285393Y-77008069D01*
X153275085Y-76974091D01*
X153271000Y-76932610D01*
X153271000Y-76331390D01*
X153275085Y-76289909D01*
X153285393Y-76255931D01*
X153302133Y-76224613D01*
X153324661Y-76197161D01*
X153352113Y-76174633D01*
X153383431Y-76157893D01*
X153417409Y-76147585D01*
X153458890Y-76143500D01*
X154135110Y-76143500D01*
X154176591Y-76147585D01*
X154176591Y-76147585D01*
G37*
G36*
X150112591Y-76147585D02*
X150146569Y-76157893D01*
X150177887Y-76174633D01*
X150205339Y-76197161D01*
X150227867Y-76224613D01*
X150244607Y-76255931D01*
X150254915Y-76289909D01*
X150259000Y-76331390D01*
X150259000Y-76932610D01*
X150254915Y-76974091D01*
X150244607Y-77008069D01*
X150227867Y-77039387D01*
X150205339Y-77066839D01*
X150177887Y-77089367D01*
X150146569Y-77106107D01*
X150112591Y-77116415D01*
X150071110Y-77120500D01*
X149394890Y-77120500D01*
X149353409Y-77116415D01*
X149319431Y-77106107D01*
X149288113Y-77089367D01*
X149260661Y-77066839D01*
X149238133Y-77039387D01*
X149221393Y-77008069D01*
X149211085Y-76974091D01*
X149207000Y-76932610D01*
X149207000Y-76331390D01*
X149211085Y-76289909D01*
X149221393Y-76255931D01*
X149238133Y-76224613D01*
X149260661Y-76197161D01*
X149288113Y-76174633D01*
X149319431Y-76157893D01*
X149353409Y-76147585D01*
X149394890Y-76143500D01*
X150071110Y-76143500D01*
X150112591Y-76147585D01*
X150112591Y-76147585D01*
G37*
G36*
X148063745Y-76147585D02*
X148097723Y-76157893D01*
X148129041Y-76174633D01*
X148156493Y-76197161D01*
X148179021Y-76224613D01*
X148195761Y-76255931D01*
X148206069Y-76289909D01*
X148210154Y-76331390D01*
X148210154Y-76932610D01*
X148206069Y-76974091D01*
X148195761Y-77008069D01*
X148179021Y-77039387D01*
X148156493Y-77066839D01*
X148129041Y-77089367D01*
X148097723Y-77106107D01*
X148063745Y-77116415D01*
X148022264Y-77120500D01*
X147346044Y-77120500D01*
X147304563Y-77116415D01*
X147270585Y-77106107D01*
X147239267Y-77089367D01*
X147211815Y-77066839D01*
X147189287Y-77039387D01*
X147172547Y-77008069D01*
X147162239Y-76974091D01*
X147158154Y-76932610D01*
X147158154Y-76331390D01*
X147162239Y-76289909D01*
X147172547Y-76255931D01*
X147189287Y-76224613D01*
X147211815Y-76197161D01*
X147239267Y-76174633D01*
X147270585Y-76157893D01*
X147304563Y-76147585D01*
X147346044Y-76143500D01*
X148022264Y-76143500D01*
X148063745Y-76147585D01*
X148063745Y-76147585D01*
G37*
G36*
X124327256Y-72813298D02*
X124433579Y-72834447D01*
X124734042Y-72958903D01*
X125000852Y-73137180D01*
X125004454Y-73139587D01*
X125234413Y-73369546D01*
X125234415Y-73369549D01*
X125415097Y-73639958D01*
X125533956Y-73926908D01*
X125539553Y-73940422D01*
X125603000Y-74259389D01*
X125603000Y-74584611D01*
X125577082Y-74714909D01*
X125539553Y-74903579D01*
X125415097Y-75204042D01*
X125319274Y-75347451D01*
X125234413Y-75474454D01*
X125004454Y-75704413D01*
X125004451Y-75704415D01*
X124734042Y-75885097D01*
X124433579Y-76009553D01*
X124327256Y-76030702D01*
X124114611Y-76073000D01*
X123789389Y-76073000D01*
X123576744Y-76030702D01*
X123470421Y-76009553D01*
X123169958Y-75885097D01*
X122899549Y-75704415D01*
X122899546Y-75704413D01*
X122669587Y-75474454D01*
X122584726Y-75347451D01*
X122488903Y-75204042D01*
X122364447Y-74903579D01*
X122326918Y-74714909D01*
X122301000Y-74584611D01*
X122301000Y-74259389D01*
X122364447Y-73940422D01*
X122370045Y-73926908D01*
X122488903Y-73639958D01*
X122669585Y-73369549D01*
X122669587Y-73369546D01*
X122899546Y-73139587D01*
X122903148Y-73137180D01*
X123169958Y-72958903D01*
X123470421Y-72834447D01*
X123576744Y-72813298D01*
X123789389Y-72771000D01*
X124114611Y-72771000D01*
X124327256Y-72813298D01*
X124327256Y-72813298D01*
G37*
G36*
X193415256Y-72686298D02*
X193521579Y-72707447D01*
X193822042Y-72831903D01*
X193825849Y-72834447D01*
X194092454Y-73012587D01*
X194322413Y-73242546D01*
X194322415Y-73242549D01*
X194503097Y-73512958D01*
X194627553Y-73813421D01*
X194631867Y-73835108D01*
X194691000Y-74132389D01*
X194691000Y-74457611D01*
X194652808Y-74649613D01*
X194629837Y-74765099D01*
X194627553Y-74776578D01*
X194503098Y-75077040D01*
X194322413Y-75347454D01*
X194092454Y-75577413D01*
X194092451Y-75577415D01*
X193822042Y-75758097D01*
X193521579Y-75882553D01*
X193508789Y-75885097D01*
X193202611Y-75946000D01*
X192877389Y-75946000D01*
X192571211Y-75885097D01*
X192558421Y-75882553D01*
X192257958Y-75758097D01*
X191987549Y-75577415D01*
X191987546Y-75577413D01*
X191757587Y-75347454D01*
X191576902Y-75077040D01*
X191452447Y-74776578D01*
X191450164Y-74765099D01*
X191427192Y-74649613D01*
X191389000Y-74457611D01*
X191389000Y-74132389D01*
X191448133Y-73835108D01*
X191452447Y-73813421D01*
X191576903Y-73512958D01*
X191757585Y-73242549D01*
X191757587Y-73242546D01*
X191987546Y-73012587D01*
X192254151Y-72834447D01*
X192257958Y-72831903D01*
X192558421Y-72707447D01*
X192664744Y-72686298D01*
X192877389Y-72644000D01*
X193202611Y-72644000D01*
X193415256Y-72686298D01*
X193415256Y-72686298D01*
G37*
G36*
X154176591Y-74572585D02*
X154210569Y-74582893D01*
X154241887Y-74599633D01*
X154269339Y-74622161D01*
X154291867Y-74649613D01*
X154308607Y-74680931D01*
X154318915Y-74714909D01*
X154323000Y-74756390D01*
X154323000Y-75357610D01*
X154318915Y-75399091D01*
X154308607Y-75433069D01*
X154291867Y-75464387D01*
X154269339Y-75491839D01*
X154241887Y-75514367D01*
X154210569Y-75531107D01*
X154176591Y-75541415D01*
X154135110Y-75545500D01*
X153458890Y-75545500D01*
X153417409Y-75541415D01*
X153383431Y-75531107D01*
X153352113Y-75514367D01*
X153324661Y-75491839D01*
X153302133Y-75464387D01*
X153285393Y-75433069D01*
X153275085Y-75399091D01*
X153271000Y-75357610D01*
X153271000Y-74756390D01*
X153275085Y-74714909D01*
X153285393Y-74680931D01*
X153302133Y-74649613D01*
X153324661Y-74622161D01*
X153352113Y-74599633D01*
X153383431Y-74582893D01*
X153417409Y-74572585D01*
X153458890Y-74568500D01*
X154135110Y-74568500D01*
X154176591Y-74572585D01*
X154176591Y-74572585D01*
G37*
G36*
X156208591Y-74572585D02*
X156242569Y-74582893D01*
X156273887Y-74599633D01*
X156301339Y-74622161D01*
X156323867Y-74649613D01*
X156340607Y-74680931D01*
X156350915Y-74714909D01*
X156355000Y-74756390D01*
X156355000Y-75357610D01*
X156350915Y-75399091D01*
X156340607Y-75433069D01*
X156323867Y-75464387D01*
X156301339Y-75491839D01*
X156273887Y-75514367D01*
X156242569Y-75531107D01*
X156208591Y-75541415D01*
X156167110Y-75545500D01*
X155490890Y-75545500D01*
X155449409Y-75541415D01*
X155415431Y-75531107D01*
X155384113Y-75514367D01*
X155356661Y-75491839D01*
X155334133Y-75464387D01*
X155317393Y-75433069D01*
X155307085Y-75399091D01*
X155303000Y-75357610D01*
X155303000Y-74756390D01*
X155307085Y-74714909D01*
X155317393Y-74680931D01*
X155334133Y-74649613D01*
X155356661Y-74622161D01*
X155384113Y-74599633D01*
X155415431Y-74582893D01*
X155449409Y-74572585D01*
X155490890Y-74568500D01*
X156167110Y-74568500D01*
X156208591Y-74572585D01*
X156208591Y-74572585D01*
G37*
G36*
X150112591Y-74572585D02*
X150146569Y-74582893D01*
X150177887Y-74599633D01*
X150205339Y-74622161D01*
X150227867Y-74649613D01*
X150244607Y-74680931D01*
X150254915Y-74714909D01*
X150259000Y-74756390D01*
X150259000Y-75357610D01*
X150254915Y-75399091D01*
X150244607Y-75433069D01*
X150227867Y-75464387D01*
X150205339Y-75491839D01*
X150177887Y-75514367D01*
X150146569Y-75531107D01*
X150112591Y-75541415D01*
X150071110Y-75545500D01*
X149394890Y-75545500D01*
X149353409Y-75541415D01*
X149319431Y-75531107D01*
X149288113Y-75514367D01*
X149260661Y-75491839D01*
X149238133Y-75464387D01*
X149221393Y-75433069D01*
X149211085Y-75399091D01*
X149207000Y-75357610D01*
X149207000Y-74756390D01*
X149211085Y-74714909D01*
X149221393Y-74680931D01*
X149238133Y-74649613D01*
X149260661Y-74622161D01*
X149288113Y-74599633D01*
X149319431Y-74582893D01*
X149353409Y-74572585D01*
X149394890Y-74568500D01*
X150071110Y-74568500D01*
X150112591Y-74572585D01*
X150112591Y-74572585D01*
G37*
G36*
X158240591Y-74572585D02*
X158274569Y-74582893D01*
X158305887Y-74599633D01*
X158333339Y-74622161D01*
X158355867Y-74649613D01*
X158372607Y-74680931D01*
X158382915Y-74714909D01*
X158387000Y-74756390D01*
X158387000Y-75357610D01*
X158382915Y-75399091D01*
X158372607Y-75433069D01*
X158355867Y-75464387D01*
X158333339Y-75491839D01*
X158305887Y-75514367D01*
X158274569Y-75531107D01*
X158240591Y-75541415D01*
X158199110Y-75545500D01*
X157522890Y-75545500D01*
X157481409Y-75541415D01*
X157447431Y-75531107D01*
X157416113Y-75514367D01*
X157388661Y-75491839D01*
X157366133Y-75464387D01*
X157349393Y-75433069D01*
X157339085Y-75399091D01*
X157335000Y-75357610D01*
X157335000Y-74756390D01*
X157339085Y-74714909D01*
X157349393Y-74680931D01*
X157366133Y-74649613D01*
X157388661Y-74622161D01*
X157416113Y-74599633D01*
X157447431Y-74582893D01*
X157481409Y-74572585D01*
X157522890Y-74568500D01*
X158199110Y-74568500D01*
X158240591Y-74572585D01*
X158240591Y-74572585D01*
G37*
G36*
X162304591Y-74572585D02*
X162338569Y-74582893D01*
X162369887Y-74599633D01*
X162397339Y-74622161D01*
X162419867Y-74649613D01*
X162436607Y-74680931D01*
X162446915Y-74714909D01*
X162451000Y-74756390D01*
X162451000Y-75357610D01*
X162446915Y-75399091D01*
X162436607Y-75433069D01*
X162419867Y-75464387D01*
X162397339Y-75491839D01*
X162369887Y-75514367D01*
X162338569Y-75531107D01*
X162304591Y-75541415D01*
X162263110Y-75545500D01*
X161586890Y-75545500D01*
X161545409Y-75541415D01*
X161511431Y-75531107D01*
X161480113Y-75514367D01*
X161452661Y-75491839D01*
X161430133Y-75464387D01*
X161413393Y-75433069D01*
X161403085Y-75399091D01*
X161399000Y-75357610D01*
X161399000Y-74756390D01*
X161403085Y-74714909D01*
X161413393Y-74680931D01*
X161430133Y-74649613D01*
X161452661Y-74622161D01*
X161480113Y-74599633D01*
X161511431Y-74582893D01*
X161545409Y-74572585D01*
X161586890Y-74568500D01*
X162263110Y-74568500D01*
X162304591Y-74572585D01*
X162304591Y-74572585D01*
G37*
G36*
X160272591Y-74572585D02*
X160306569Y-74582893D01*
X160337887Y-74599633D01*
X160365339Y-74622161D01*
X160387867Y-74649613D01*
X160404607Y-74680931D01*
X160414915Y-74714909D01*
X160419000Y-74756390D01*
X160419000Y-75357610D01*
X160414915Y-75399091D01*
X160404607Y-75433069D01*
X160387867Y-75464387D01*
X160365339Y-75491839D01*
X160337887Y-75514367D01*
X160306569Y-75531107D01*
X160272591Y-75541415D01*
X160231110Y-75545500D01*
X159554890Y-75545500D01*
X159513409Y-75541415D01*
X159479431Y-75531107D01*
X159448113Y-75514367D01*
X159420661Y-75491839D01*
X159398133Y-75464387D01*
X159381393Y-75433069D01*
X159371085Y-75399091D01*
X159367000Y-75357610D01*
X159367000Y-74756390D01*
X159371085Y-74714909D01*
X159381393Y-74680931D01*
X159398133Y-74649613D01*
X159420661Y-74622161D01*
X159448113Y-74599633D01*
X159479431Y-74582893D01*
X159513409Y-74572585D01*
X159554890Y-74568500D01*
X160231110Y-74568500D01*
X160272591Y-74572585D01*
X160272591Y-74572585D01*
G37*
G36*
X152144591Y-74572585D02*
X152178569Y-74582893D01*
X152209887Y-74599633D01*
X152237339Y-74622161D01*
X152259867Y-74649613D01*
X152276607Y-74680931D01*
X152286915Y-74714909D01*
X152291000Y-74756390D01*
X152291000Y-75357610D01*
X152286915Y-75399091D01*
X152276607Y-75433069D01*
X152259867Y-75464387D01*
X152237339Y-75491839D01*
X152209887Y-75514367D01*
X152178569Y-75531107D01*
X152144591Y-75541415D01*
X152103110Y-75545500D01*
X151426890Y-75545500D01*
X151385409Y-75541415D01*
X151351431Y-75531107D01*
X151320113Y-75514367D01*
X151292661Y-75491839D01*
X151270133Y-75464387D01*
X151253393Y-75433069D01*
X151243085Y-75399091D01*
X151239000Y-75357610D01*
X151239000Y-74756390D01*
X151243085Y-74714909D01*
X151253393Y-74680931D01*
X151270133Y-74649613D01*
X151292661Y-74622161D01*
X151320113Y-74599633D01*
X151351431Y-74582893D01*
X151385409Y-74572585D01*
X151426890Y-74568500D01*
X152103110Y-74568500D01*
X152144591Y-74572585D01*
X152144591Y-74572585D01*
G37*
G36*
X148063745Y-74572585D02*
X148097723Y-74582893D01*
X148129041Y-74599633D01*
X148156493Y-74622161D01*
X148179021Y-74649613D01*
X148195761Y-74680931D01*
X148206069Y-74714909D01*
X148210154Y-74756390D01*
X148210154Y-75357610D01*
X148206069Y-75399091D01*
X148195761Y-75433069D01*
X148179021Y-75464387D01*
X148156493Y-75491839D01*
X148129041Y-75514367D01*
X148097723Y-75531107D01*
X148063745Y-75541415D01*
X148022264Y-75545500D01*
X147346044Y-75545500D01*
X147304563Y-75541415D01*
X147270585Y-75531107D01*
X147239267Y-75514367D01*
X147211815Y-75491839D01*
X147189287Y-75464387D01*
X147172547Y-75433069D01*
X147162239Y-75399091D01*
X147158154Y-75357610D01*
X147158154Y-74756390D01*
X147162239Y-74714909D01*
X147172547Y-74680931D01*
X147189287Y-74649613D01*
X147211815Y-74622161D01*
X147239267Y-74599633D01*
X147270585Y-74582893D01*
X147304563Y-74572585D01*
X147346044Y-74568500D01*
X148022264Y-74568500D01*
X148063745Y-74572585D01*
X148063745Y-74572585D01*
G37*
G36*
X144759643Y-73143781D02*
X144905415Y-73204162D01*
X145036611Y-73291824D01*
X145148176Y-73403389D01*
X145235838Y-73534585D01*
X145296219Y-73680357D01*
X145327000Y-73835107D01*
X145327000Y-73992893D01*
X145296219Y-74147643D01*
X145235838Y-74293415D01*
X145148176Y-74424611D01*
X145036611Y-74536176D01*
X144905415Y-74623838D01*
X144759643Y-74684219D01*
X144604893Y-74715000D01*
X144447107Y-74715000D01*
X144292357Y-74684219D01*
X144146585Y-74623838D01*
X144015389Y-74536176D01*
X143903824Y-74424611D01*
X143816162Y-74293415D01*
X143755781Y-74147643D01*
X143725000Y-73992893D01*
X143725000Y-73835107D01*
X143755781Y-73680357D01*
X143816162Y-73534585D01*
X143903824Y-73403389D01*
X144015389Y-73291824D01*
X144146585Y-73204162D01*
X144292357Y-73143781D01*
X144447107Y-73113000D01*
X144604893Y-73113000D01*
X144759643Y-73143781D01*
X144759643Y-73143781D01*
G37*
G36*
X150112591Y-72972585D02*
X150146569Y-72982893D01*
X150177887Y-72999633D01*
X150205339Y-73022161D01*
X150227867Y-73049613D01*
X150244607Y-73080931D01*
X150254915Y-73114909D01*
X150259000Y-73156390D01*
X150259000Y-73757610D01*
X150254915Y-73799091D01*
X150244607Y-73833069D01*
X150227867Y-73864387D01*
X150205339Y-73891839D01*
X150177887Y-73914367D01*
X150146569Y-73931107D01*
X150112591Y-73941415D01*
X150071110Y-73945500D01*
X149394890Y-73945500D01*
X149353409Y-73941415D01*
X149319431Y-73931107D01*
X149288113Y-73914367D01*
X149260661Y-73891839D01*
X149238133Y-73864387D01*
X149221393Y-73833069D01*
X149211085Y-73799091D01*
X149207000Y-73757610D01*
X149207000Y-73156390D01*
X149211085Y-73114909D01*
X149221393Y-73080931D01*
X149238133Y-73049613D01*
X149260661Y-73022161D01*
X149288113Y-72999633D01*
X149319431Y-72982893D01*
X149353409Y-72972585D01*
X149394890Y-72968500D01*
X150071110Y-72968500D01*
X150112591Y-72972585D01*
X150112591Y-72972585D01*
G37*
G36*
X158240591Y-72972585D02*
X158274569Y-72982893D01*
X158305887Y-72999633D01*
X158333339Y-73022161D01*
X158355867Y-73049613D01*
X158372607Y-73080931D01*
X158382915Y-73114909D01*
X158387000Y-73156390D01*
X158387000Y-73757610D01*
X158382915Y-73799091D01*
X158372607Y-73833069D01*
X158355867Y-73864387D01*
X158333339Y-73891839D01*
X158305887Y-73914367D01*
X158274569Y-73931107D01*
X158240591Y-73941415D01*
X158199110Y-73945500D01*
X157522890Y-73945500D01*
X157481409Y-73941415D01*
X157447431Y-73931107D01*
X157416113Y-73914367D01*
X157388661Y-73891839D01*
X157366133Y-73864387D01*
X157349393Y-73833069D01*
X157339085Y-73799091D01*
X157335000Y-73757610D01*
X157335000Y-73156390D01*
X157339085Y-73114909D01*
X157349393Y-73080931D01*
X157366133Y-73049613D01*
X157388661Y-73022161D01*
X157416113Y-72999633D01*
X157447431Y-72982893D01*
X157481409Y-72972585D01*
X157522890Y-72968500D01*
X158199110Y-72968500D01*
X158240591Y-72972585D01*
X158240591Y-72972585D01*
G37*
G36*
X156208591Y-72972585D02*
X156242569Y-72982893D01*
X156273887Y-72999633D01*
X156301339Y-73022161D01*
X156323867Y-73049613D01*
X156340607Y-73080931D01*
X156350915Y-73114909D01*
X156355000Y-73156390D01*
X156355000Y-73757610D01*
X156350915Y-73799091D01*
X156340607Y-73833069D01*
X156323867Y-73864387D01*
X156301339Y-73891839D01*
X156273887Y-73914367D01*
X156242569Y-73931107D01*
X156208591Y-73941415D01*
X156167110Y-73945500D01*
X155490890Y-73945500D01*
X155449409Y-73941415D01*
X155415431Y-73931107D01*
X155384113Y-73914367D01*
X155356661Y-73891839D01*
X155334133Y-73864387D01*
X155317393Y-73833069D01*
X155307085Y-73799091D01*
X155303000Y-73757610D01*
X155303000Y-73156390D01*
X155307085Y-73114909D01*
X155317393Y-73080931D01*
X155334133Y-73049613D01*
X155356661Y-73022161D01*
X155384113Y-72999633D01*
X155415431Y-72982893D01*
X155449409Y-72972585D01*
X155490890Y-72968500D01*
X156167110Y-72968500D01*
X156208591Y-72972585D01*
X156208591Y-72972585D01*
G37*
G36*
X152144591Y-72972585D02*
X152178569Y-72982893D01*
X152209887Y-72999633D01*
X152237339Y-73022161D01*
X152259867Y-73049613D01*
X152276607Y-73080931D01*
X152286915Y-73114909D01*
X152291000Y-73156390D01*
X152291000Y-73757610D01*
X152286915Y-73799091D01*
X152276607Y-73833069D01*
X152259867Y-73864387D01*
X152237339Y-73891839D01*
X152209887Y-73914367D01*
X152178569Y-73931107D01*
X152144591Y-73941415D01*
X152103110Y-73945500D01*
X151426890Y-73945500D01*
X151385409Y-73941415D01*
X151351431Y-73931107D01*
X151320113Y-73914367D01*
X151292661Y-73891839D01*
X151270133Y-73864387D01*
X151253393Y-73833069D01*
X151243085Y-73799091D01*
X151239000Y-73757610D01*
X151239000Y-73156390D01*
X151243085Y-73114909D01*
X151253393Y-73080931D01*
X151270133Y-73049613D01*
X151292661Y-73022161D01*
X151320113Y-72999633D01*
X151351431Y-72982893D01*
X151385409Y-72972585D01*
X151426890Y-72968500D01*
X152103110Y-72968500D01*
X152144591Y-72972585D01*
X152144591Y-72972585D01*
G37*
G36*
X154176591Y-72972585D02*
X154210569Y-72982893D01*
X154241887Y-72999633D01*
X154269339Y-73022161D01*
X154291867Y-73049613D01*
X154308607Y-73080931D01*
X154318915Y-73114909D01*
X154323000Y-73156390D01*
X154323000Y-73757610D01*
X154318915Y-73799091D01*
X154308607Y-73833069D01*
X154291867Y-73864387D01*
X154269339Y-73891839D01*
X154241887Y-73914367D01*
X154210569Y-73931107D01*
X154176591Y-73941415D01*
X154135110Y-73945500D01*
X153458890Y-73945500D01*
X153417409Y-73941415D01*
X153383431Y-73931107D01*
X153352113Y-73914367D01*
X153324661Y-73891839D01*
X153302133Y-73864387D01*
X153285393Y-73833069D01*
X153275085Y-73799091D01*
X153271000Y-73757610D01*
X153271000Y-73156390D01*
X153275085Y-73114909D01*
X153285393Y-73080931D01*
X153302133Y-73049613D01*
X153324661Y-73022161D01*
X153352113Y-72999633D01*
X153383431Y-72982893D01*
X153417409Y-72972585D01*
X153458890Y-72968500D01*
X154135110Y-72968500D01*
X154176591Y-72972585D01*
X154176591Y-72972585D01*
G37*
G36*
X162304591Y-72972585D02*
X162338569Y-72982893D01*
X162369887Y-72999633D01*
X162397339Y-73022161D01*
X162419867Y-73049613D01*
X162436607Y-73080931D01*
X162446915Y-73114909D01*
X162451000Y-73156390D01*
X162451000Y-73757610D01*
X162446915Y-73799091D01*
X162436607Y-73833069D01*
X162419867Y-73864387D01*
X162397339Y-73891839D01*
X162369887Y-73914367D01*
X162338569Y-73931107D01*
X162304591Y-73941415D01*
X162263110Y-73945500D01*
X161586890Y-73945500D01*
X161545409Y-73941415D01*
X161511431Y-73931107D01*
X161480113Y-73914367D01*
X161452661Y-73891839D01*
X161430133Y-73864387D01*
X161413393Y-73833069D01*
X161403085Y-73799091D01*
X161399000Y-73757610D01*
X161399000Y-73156390D01*
X161403085Y-73114909D01*
X161413393Y-73080931D01*
X161430133Y-73049613D01*
X161452661Y-73022161D01*
X161480113Y-72999633D01*
X161511431Y-72982893D01*
X161545409Y-72972585D01*
X161586890Y-72968500D01*
X162263110Y-72968500D01*
X162304591Y-72972585D01*
X162304591Y-72972585D01*
G37*
G36*
X160272591Y-72972585D02*
X160306569Y-72982893D01*
X160337887Y-72999633D01*
X160365339Y-73022161D01*
X160387867Y-73049613D01*
X160404607Y-73080931D01*
X160414915Y-73114909D01*
X160419000Y-73156390D01*
X160419000Y-73757610D01*
X160414915Y-73799091D01*
X160404607Y-73833069D01*
X160387867Y-73864387D01*
X160365339Y-73891839D01*
X160337887Y-73914367D01*
X160306569Y-73931107D01*
X160272591Y-73941415D01*
X160231110Y-73945500D01*
X159554890Y-73945500D01*
X159513409Y-73941415D01*
X159479431Y-73931107D01*
X159448113Y-73914367D01*
X159420661Y-73891839D01*
X159398133Y-73864387D01*
X159381393Y-73833069D01*
X159371085Y-73799091D01*
X159367000Y-73757610D01*
X159367000Y-73156390D01*
X159371085Y-73114909D01*
X159381393Y-73080931D01*
X159398133Y-73049613D01*
X159420661Y-73022161D01*
X159448113Y-72999633D01*
X159479431Y-72982893D01*
X159513409Y-72972585D01*
X159554890Y-72968500D01*
X160231110Y-72968500D01*
X160272591Y-72972585D01*
X160272591Y-72972585D01*
G37*
G36*
X148063745Y-72972585D02*
X148097723Y-72982893D01*
X148129041Y-72999633D01*
X148156493Y-73022161D01*
X148179021Y-73049613D01*
X148195761Y-73080931D01*
X148206069Y-73114909D01*
X148210154Y-73156390D01*
X148210154Y-73757610D01*
X148206069Y-73799091D01*
X148195761Y-73833069D01*
X148179021Y-73864387D01*
X148156493Y-73891839D01*
X148129041Y-73914367D01*
X148097723Y-73931107D01*
X148063745Y-73941415D01*
X148022264Y-73945500D01*
X147346044Y-73945500D01*
X147304563Y-73941415D01*
X147270585Y-73931107D01*
X147239267Y-73914367D01*
X147211815Y-73891839D01*
X147189287Y-73864387D01*
X147172547Y-73833069D01*
X147162239Y-73799091D01*
X147158154Y-73757610D01*
X147158154Y-73156390D01*
X147162239Y-73114909D01*
X147172547Y-73080931D01*
X147189287Y-73049613D01*
X147211815Y-73022161D01*
X147239267Y-72999633D01*
X147270585Y-72982893D01*
X147304563Y-72972585D01*
X147346044Y-72968500D01*
X148022264Y-72968500D01*
X148063745Y-72972585D01*
X148063745Y-72972585D01*
G37*
G36*
X150112591Y-71397585D02*
X150146569Y-71407893D01*
X150177887Y-71424633D01*
X150205339Y-71447161D01*
X150227867Y-71474613D01*
X150244607Y-71505931D01*
X150254915Y-71539909D01*
X150259000Y-71581390D01*
X150259000Y-72182610D01*
X150254915Y-72224091D01*
X150244607Y-72258069D01*
X150227867Y-72289387D01*
X150205339Y-72316839D01*
X150177887Y-72339367D01*
X150146569Y-72356107D01*
X150112591Y-72366415D01*
X150071110Y-72370500D01*
X149394890Y-72370500D01*
X149353409Y-72366415D01*
X149319431Y-72356107D01*
X149288113Y-72339367D01*
X149260661Y-72316839D01*
X149238133Y-72289387D01*
X149221393Y-72258069D01*
X149211085Y-72224091D01*
X149207000Y-72182610D01*
X149207000Y-71581390D01*
X149211085Y-71539909D01*
X149221393Y-71505931D01*
X149238133Y-71474613D01*
X149260661Y-71447161D01*
X149288113Y-71424633D01*
X149319431Y-71407893D01*
X149353409Y-71397585D01*
X149394890Y-71393500D01*
X150071110Y-71393500D01*
X150112591Y-71397585D01*
X150112591Y-71397585D01*
G37*
G36*
X162304591Y-71397585D02*
X162338569Y-71407893D01*
X162369887Y-71424633D01*
X162397339Y-71447161D01*
X162419867Y-71474613D01*
X162436607Y-71505931D01*
X162446915Y-71539909D01*
X162451000Y-71581390D01*
X162451000Y-72182610D01*
X162446915Y-72224091D01*
X162436607Y-72258069D01*
X162419867Y-72289387D01*
X162397339Y-72316839D01*
X162369887Y-72339367D01*
X162338569Y-72356107D01*
X162304591Y-72366415D01*
X162263110Y-72370500D01*
X161586890Y-72370500D01*
X161545409Y-72366415D01*
X161511431Y-72356107D01*
X161480113Y-72339367D01*
X161452661Y-72316839D01*
X161430133Y-72289387D01*
X161413393Y-72258069D01*
X161403085Y-72224091D01*
X161399000Y-72182610D01*
X161399000Y-71581390D01*
X161403085Y-71539909D01*
X161413393Y-71505931D01*
X161430133Y-71474613D01*
X161452661Y-71447161D01*
X161480113Y-71424633D01*
X161511431Y-71407893D01*
X161545409Y-71397585D01*
X161586890Y-71393500D01*
X162263110Y-71393500D01*
X162304591Y-71397585D01*
X162304591Y-71397585D01*
G37*
G36*
X148063745Y-71397585D02*
X148097723Y-71407893D01*
X148129041Y-71424633D01*
X148156493Y-71447161D01*
X148179021Y-71474613D01*
X148195761Y-71505931D01*
X148206069Y-71539909D01*
X148210154Y-71581390D01*
X148210154Y-72182610D01*
X148206069Y-72224091D01*
X148195761Y-72258069D01*
X148179021Y-72289387D01*
X148156493Y-72316839D01*
X148129041Y-72339367D01*
X148097723Y-72356107D01*
X148063745Y-72366415D01*
X148022264Y-72370500D01*
X147346044Y-72370500D01*
X147304563Y-72366415D01*
X147270585Y-72356107D01*
X147239267Y-72339367D01*
X147211815Y-72316839D01*
X147189287Y-72289387D01*
X147172547Y-72258069D01*
X147162239Y-72224091D01*
X147158154Y-72182610D01*
X147158154Y-71581390D01*
X147162239Y-71539909D01*
X147172547Y-71505931D01*
X147189287Y-71474613D01*
X147211815Y-71447161D01*
X147239267Y-71424633D01*
X147270585Y-71407893D01*
X147304563Y-71397585D01*
X147346044Y-71393500D01*
X148022264Y-71393500D01*
X148063745Y-71397585D01*
X148063745Y-71397585D01*
G37*
G36*
X158240591Y-71397585D02*
X158274569Y-71407893D01*
X158305887Y-71424633D01*
X158333339Y-71447161D01*
X158355867Y-71474613D01*
X158372607Y-71505931D01*
X158382915Y-71539909D01*
X158387000Y-71581390D01*
X158387000Y-72182610D01*
X158382915Y-72224091D01*
X158372607Y-72258069D01*
X158355867Y-72289387D01*
X158333339Y-72316839D01*
X158305887Y-72339367D01*
X158274569Y-72356107D01*
X158240591Y-72366415D01*
X158199110Y-72370500D01*
X157522890Y-72370500D01*
X157481409Y-72366415D01*
X157447431Y-72356107D01*
X157416113Y-72339367D01*
X157388661Y-72316839D01*
X157366133Y-72289387D01*
X157349393Y-72258069D01*
X157339085Y-72224091D01*
X157335000Y-72182610D01*
X157335000Y-71581390D01*
X157339085Y-71539909D01*
X157349393Y-71505931D01*
X157366133Y-71474613D01*
X157388661Y-71447161D01*
X157416113Y-71424633D01*
X157447431Y-71407893D01*
X157481409Y-71397585D01*
X157522890Y-71393500D01*
X158199110Y-71393500D01*
X158240591Y-71397585D01*
X158240591Y-71397585D01*
G37*
G36*
X160272591Y-71397585D02*
X160306569Y-71407893D01*
X160337887Y-71424633D01*
X160365339Y-71447161D01*
X160387867Y-71474613D01*
X160404607Y-71505931D01*
X160414915Y-71539909D01*
X160419000Y-71581390D01*
X160419000Y-72182610D01*
X160414915Y-72224091D01*
X160404607Y-72258069D01*
X160387867Y-72289387D01*
X160365339Y-72316839D01*
X160337887Y-72339367D01*
X160306569Y-72356107D01*
X160272591Y-72366415D01*
X160231110Y-72370500D01*
X159554890Y-72370500D01*
X159513409Y-72366415D01*
X159479431Y-72356107D01*
X159448113Y-72339367D01*
X159420661Y-72316839D01*
X159398133Y-72289387D01*
X159381393Y-72258069D01*
X159371085Y-72224091D01*
X159367000Y-72182610D01*
X159367000Y-71581390D01*
X159371085Y-71539909D01*
X159381393Y-71505931D01*
X159398133Y-71474613D01*
X159420661Y-71447161D01*
X159448113Y-71424633D01*
X159479431Y-71407893D01*
X159513409Y-71397585D01*
X159554890Y-71393500D01*
X160231110Y-71393500D01*
X160272591Y-71397585D01*
X160272591Y-71397585D01*
G37*
G36*
X152144591Y-71397585D02*
X152178569Y-71407893D01*
X152209887Y-71424633D01*
X152237339Y-71447161D01*
X152259867Y-71474613D01*
X152276607Y-71505931D01*
X152286915Y-71539909D01*
X152291000Y-71581390D01*
X152291000Y-72182610D01*
X152286915Y-72224091D01*
X152276607Y-72258069D01*
X152259867Y-72289387D01*
X152237339Y-72316839D01*
X152209887Y-72339367D01*
X152178569Y-72356107D01*
X152144591Y-72366415D01*
X152103110Y-72370500D01*
X151426890Y-72370500D01*
X151385409Y-72366415D01*
X151351431Y-72356107D01*
X151320113Y-72339367D01*
X151292661Y-72316839D01*
X151270133Y-72289387D01*
X151253393Y-72258069D01*
X151243085Y-72224091D01*
X151239000Y-72182610D01*
X151239000Y-71581390D01*
X151243085Y-71539909D01*
X151253393Y-71505931D01*
X151270133Y-71474613D01*
X151292661Y-71447161D01*
X151320113Y-71424633D01*
X151351431Y-71407893D01*
X151385409Y-71397585D01*
X151426890Y-71393500D01*
X152103110Y-71393500D01*
X152144591Y-71397585D01*
X152144591Y-71397585D01*
G37*
G36*
X154176591Y-71397585D02*
X154210569Y-71407893D01*
X154241887Y-71424633D01*
X154269339Y-71447161D01*
X154291867Y-71474613D01*
X154308607Y-71505931D01*
X154318915Y-71539909D01*
X154323000Y-71581390D01*
X154323000Y-72182610D01*
X154318915Y-72224091D01*
X154308607Y-72258069D01*
X154291867Y-72289387D01*
X154269339Y-72316839D01*
X154241887Y-72339367D01*
X154210569Y-72356107D01*
X154176591Y-72366415D01*
X154135110Y-72370500D01*
X153458890Y-72370500D01*
X153417409Y-72366415D01*
X153383431Y-72356107D01*
X153352113Y-72339367D01*
X153324661Y-72316839D01*
X153302133Y-72289387D01*
X153285393Y-72258069D01*
X153275085Y-72224091D01*
X153271000Y-72182610D01*
X153271000Y-71581390D01*
X153275085Y-71539909D01*
X153285393Y-71505931D01*
X153302133Y-71474613D01*
X153324661Y-71447161D01*
X153352113Y-71424633D01*
X153383431Y-71407893D01*
X153417409Y-71397585D01*
X153458890Y-71393500D01*
X154135110Y-71393500D01*
X154176591Y-71397585D01*
X154176591Y-71397585D01*
G37*
G36*
X156208591Y-71397585D02*
X156242569Y-71407893D01*
X156273887Y-71424633D01*
X156301339Y-71447161D01*
X156323867Y-71474613D01*
X156340607Y-71505931D01*
X156350915Y-71539909D01*
X156355000Y-71581390D01*
X156355000Y-72182610D01*
X156350915Y-72224091D01*
X156340607Y-72258069D01*
X156323867Y-72289387D01*
X156301339Y-72316839D01*
X156273887Y-72339367D01*
X156242569Y-72356107D01*
X156208591Y-72366415D01*
X156167110Y-72370500D01*
X155490890Y-72370500D01*
X155449409Y-72366415D01*
X155415431Y-72356107D01*
X155384113Y-72339367D01*
X155356661Y-72316839D01*
X155334133Y-72289387D01*
X155317393Y-72258069D01*
X155307085Y-72224091D01*
X155303000Y-72182610D01*
X155303000Y-71581390D01*
X155307085Y-71539909D01*
X155317393Y-71505931D01*
X155334133Y-71474613D01*
X155356661Y-71447161D01*
X155384113Y-71424633D01*
X155415431Y-71407893D01*
X155449409Y-71397585D01*
X155490890Y-71393500D01*
X156167110Y-71393500D01*
X156208591Y-71397585D01*
X156208591Y-71397585D01*
G37*
M02*
