G04 #@! TF.GenerationSoftware,KiCad,Pcbnew,(5.0.2)-1*
G04 #@! TF.CreationDate,2019-02-01T15:19:08+01:00*
G04 #@! TF.ProjectId,hac,6861632e-6b69-4636-9164-5f7063625858,rev?*
G04 #@! TF.SameCoordinates,Original*
G04 #@! TF.FileFunction,Paste,Bot*
G04 #@! TF.FilePolarity,Positive*
%FSLAX46Y46*%
G04 Gerber Fmt 4.6, Leading zero omitted, Abs format (unit mm)*
G04 Created by KiCad (PCBNEW (5.0.2)-1) date 2/1/2019 3:19:08 PM*
%MOMM*%
%LPD*%
G01*
G04 APERTURE LIST*
%ADD10C,0.100000*%
%ADD11C,0.875000*%
%ADD12C,0.975000*%
%ADD13C,1.350000*%
G04 APERTURE END LIST*
D10*
G04 #@! TO.C,C30*
G36*
X158964691Y-111921053D02*
X158985926Y-111924203D01*
X159006750Y-111929419D01*
X159026962Y-111936651D01*
X159046368Y-111945830D01*
X159064781Y-111956866D01*
X159082024Y-111969654D01*
X159097930Y-111984070D01*
X159112346Y-111999976D01*
X159125134Y-112017219D01*
X159136170Y-112035632D01*
X159145349Y-112055038D01*
X159152581Y-112075250D01*
X159157797Y-112096074D01*
X159160947Y-112117309D01*
X159162000Y-112138750D01*
X159162000Y-112651250D01*
X159160947Y-112672691D01*
X159157797Y-112693926D01*
X159152581Y-112714750D01*
X159145349Y-112734962D01*
X159136170Y-112754368D01*
X159125134Y-112772781D01*
X159112346Y-112790024D01*
X159097930Y-112805930D01*
X159082024Y-112820346D01*
X159064781Y-112833134D01*
X159046368Y-112844170D01*
X159026962Y-112853349D01*
X159006750Y-112860581D01*
X158985926Y-112865797D01*
X158964691Y-112868947D01*
X158943250Y-112870000D01*
X158505750Y-112870000D01*
X158484309Y-112868947D01*
X158463074Y-112865797D01*
X158442250Y-112860581D01*
X158422038Y-112853349D01*
X158402632Y-112844170D01*
X158384219Y-112833134D01*
X158366976Y-112820346D01*
X158351070Y-112805930D01*
X158336654Y-112790024D01*
X158323866Y-112772781D01*
X158312830Y-112754368D01*
X158303651Y-112734962D01*
X158296419Y-112714750D01*
X158291203Y-112693926D01*
X158288053Y-112672691D01*
X158287000Y-112651250D01*
X158287000Y-112138750D01*
X158288053Y-112117309D01*
X158291203Y-112096074D01*
X158296419Y-112075250D01*
X158303651Y-112055038D01*
X158312830Y-112035632D01*
X158323866Y-112017219D01*
X158336654Y-111999976D01*
X158351070Y-111984070D01*
X158366976Y-111969654D01*
X158384219Y-111956866D01*
X158402632Y-111945830D01*
X158422038Y-111936651D01*
X158442250Y-111929419D01*
X158463074Y-111924203D01*
X158484309Y-111921053D01*
X158505750Y-111920000D01*
X158943250Y-111920000D01*
X158964691Y-111921053D01*
X158964691Y-111921053D01*
G37*
D11*
X158724500Y-112395000D03*
D10*
G36*
X160539691Y-111921053D02*
X160560926Y-111924203D01*
X160581750Y-111929419D01*
X160601962Y-111936651D01*
X160621368Y-111945830D01*
X160639781Y-111956866D01*
X160657024Y-111969654D01*
X160672930Y-111984070D01*
X160687346Y-111999976D01*
X160700134Y-112017219D01*
X160711170Y-112035632D01*
X160720349Y-112055038D01*
X160727581Y-112075250D01*
X160732797Y-112096074D01*
X160735947Y-112117309D01*
X160737000Y-112138750D01*
X160737000Y-112651250D01*
X160735947Y-112672691D01*
X160732797Y-112693926D01*
X160727581Y-112714750D01*
X160720349Y-112734962D01*
X160711170Y-112754368D01*
X160700134Y-112772781D01*
X160687346Y-112790024D01*
X160672930Y-112805930D01*
X160657024Y-112820346D01*
X160639781Y-112833134D01*
X160621368Y-112844170D01*
X160601962Y-112853349D01*
X160581750Y-112860581D01*
X160560926Y-112865797D01*
X160539691Y-112868947D01*
X160518250Y-112870000D01*
X160080750Y-112870000D01*
X160059309Y-112868947D01*
X160038074Y-112865797D01*
X160017250Y-112860581D01*
X159997038Y-112853349D01*
X159977632Y-112844170D01*
X159959219Y-112833134D01*
X159941976Y-112820346D01*
X159926070Y-112805930D01*
X159911654Y-112790024D01*
X159898866Y-112772781D01*
X159887830Y-112754368D01*
X159878651Y-112734962D01*
X159871419Y-112714750D01*
X159866203Y-112693926D01*
X159863053Y-112672691D01*
X159862000Y-112651250D01*
X159862000Y-112138750D01*
X159863053Y-112117309D01*
X159866203Y-112096074D01*
X159871419Y-112075250D01*
X159878651Y-112055038D01*
X159887830Y-112035632D01*
X159898866Y-112017219D01*
X159911654Y-111999976D01*
X159926070Y-111984070D01*
X159941976Y-111969654D01*
X159959219Y-111956866D01*
X159977632Y-111945830D01*
X159997038Y-111936651D01*
X160017250Y-111929419D01*
X160038074Y-111924203D01*
X160059309Y-111921053D01*
X160080750Y-111920000D01*
X160518250Y-111920000D01*
X160539691Y-111921053D01*
X160539691Y-111921053D01*
G37*
D11*
X160299500Y-112395000D03*
G04 #@! TD*
D10*
G04 #@! TO.C,R31*
G36*
X157376691Y-116073553D02*
X157397926Y-116076703D01*
X157418750Y-116081919D01*
X157438962Y-116089151D01*
X157458368Y-116098330D01*
X157476781Y-116109366D01*
X157494024Y-116122154D01*
X157509930Y-116136570D01*
X157524346Y-116152476D01*
X157537134Y-116169719D01*
X157548170Y-116188132D01*
X157557349Y-116207538D01*
X157564581Y-116227750D01*
X157569797Y-116248574D01*
X157572947Y-116269809D01*
X157574000Y-116291250D01*
X157574000Y-116728750D01*
X157572947Y-116750191D01*
X157569797Y-116771426D01*
X157564581Y-116792250D01*
X157557349Y-116812462D01*
X157548170Y-116831868D01*
X157537134Y-116850281D01*
X157524346Y-116867524D01*
X157509930Y-116883430D01*
X157494024Y-116897846D01*
X157476781Y-116910634D01*
X157458368Y-116921670D01*
X157438962Y-116930849D01*
X157418750Y-116938081D01*
X157397926Y-116943297D01*
X157376691Y-116946447D01*
X157355250Y-116947500D01*
X156842750Y-116947500D01*
X156821309Y-116946447D01*
X156800074Y-116943297D01*
X156779250Y-116938081D01*
X156759038Y-116930849D01*
X156739632Y-116921670D01*
X156721219Y-116910634D01*
X156703976Y-116897846D01*
X156688070Y-116883430D01*
X156673654Y-116867524D01*
X156660866Y-116850281D01*
X156649830Y-116831868D01*
X156640651Y-116812462D01*
X156633419Y-116792250D01*
X156628203Y-116771426D01*
X156625053Y-116750191D01*
X156624000Y-116728750D01*
X156624000Y-116291250D01*
X156625053Y-116269809D01*
X156628203Y-116248574D01*
X156633419Y-116227750D01*
X156640651Y-116207538D01*
X156649830Y-116188132D01*
X156660866Y-116169719D01*
X156673654Y-116152476D01*
X156688070Y-116136570D01*
X156703976Y-116122154D01*
X156721219Y-116109366D01*
X156739632Y-116098330D01*
X156759038Y-116089151D01*
X156779250Y-116081919D01*
X156800074Y-116076703D01*
X156821309Y-116073553D01*
X156842750Y-116072500D01*
X157355250Y-116072500D01*
X157376691Y-116073553D01*
X157376691Y-116073553D01*
G37*
D11*
X157099000Y-116510000D03*
D10*
G36*
X157376691Y-114498553D02*
X157397926Y-114501703D01*
X157418750Y-114506919D01*
X157438962Y-114514151D01*
X157458368Y-114523330D01*
X157476781Y-114534366D01*
X157494024Y-114547154D01*
X157509930Y-114561570D01*
X157524346Y-114577476D01*
X157537134Y-114594719D01*
X157548170Y-114613132D01*
X157557349Y-114632538D01*
X157564581Y-114652750D01*
X157569797Y-114673574D01*
X157572947Y-114694809D01*
X157574000Y-114716250D01*
X157574000Y-115153750D01*
X157572947Y-115175191D01*
X157569797Y-115196426D01*
X157564581Y-115217250D01*
X157557349Y-115237462D01*
X157548170Y-115256868D01*
X157537134Y-115275281D01*
X157524346Y-115292524D01*
X157509930Y-115308430D01*
X157494024Y-115322846D01*
X157476781Y-115335634D01*
X157458368Y-115346670D01*
X157438962Y-115355849D01*
X157418750Y-115363081D01*
X157397926Y-115368297D01*
X157376691Y-115371447D01*
X157355250Y-115372500D01*
X156842750Y-115372500D01*
X156821309Y-115371447D01*
X156800074Y-115368297D01*
X156779250Y-115363081D01*
X156759038Y-115355849D01*
X156739632Y-115346670D01*
X156721219Y-115335634D01*
X156703976Y-115322846D01*
X156688070Y-115308430D01*
X156673654Y-115292524D01*
X156660866Y-115275281D01*
X156649830Y-115256868D01*
X156640651Y-115237462D01*
X156633419Y-115217250D01*
X156628203Y-115196426D01*
X156625053Y-115175191D01*
X156624000Y-115153750D01*
X156624000Y-114716250D01*
X156625053Y-114694809D01*
X156628203Y-114673574D01*
X156633419Y-114652750D01*
X156640651Y-114632538D01*
X156649830Y-114613132D01*
X156660866Y-114594719D01*
X156673654Y-114577476D01*
X156688070Y-114561570D01*
X156703976Y-114547154D01*
X156721219Y-114534366D01*
X156739632Y-114523330D01*
X156759038Y-114514151D01*
X156779250Y-114506919D01*
X156800074Y-114501703D01*
X156821309Y-114498553D01*
X156842750Y-114497500D01*
X157355250Y-114497500D01*
X157376691Y-114498553D01*
X157376691Y-114498553D01*
G37*
D11*
X157099000Y-114935000D03*
G04 #@! TD*
D10*
G04 #@! TO.C,C13*
G36*
X164361691Y-82647053D02*
X164382926Y-82650203D01*
X164403750Y-82655419D01*
X164423962Y-82662651D01*
X164443368Y-82671830D01*
X164461781Y-82682866D01*
X164479024Y-82695654D01*
X164494930Y-82710070D01*
X164509346Y-82725976D01*
X164522134Y-82743219D01*
X164533170Y-82761632D01*
X164542349Y-82781038D01*
X164549581Y-82801250D01*
X164554797Y-82822074D01*
X164557947Y-82843309D01*
X164559000Y-82864750D01*
X164559000Y-83302250D01*
X164557947Y-83323691D01*
X164554797Y-83344926D01*
X164549581Y-83365750D01*
X164542349Y-83385962D01*
X164533170Y-83405368D01*
X164522134Y-83423781D01*
X164509346Y-83441024D01*
X164494930Y-83456930D01*
X164479024Y-83471346D01*
X164461781Y-83484134D01*
X164443368Y-83495170D01*
X164423962Y-83504349D01*
X164403750Y-83511581D01*
X164382926Y-83516797D01*
X164361691Y-83519947D01*
X164340250Y-83521000D01*
X163827750Y-83521000D01*
X163806309Y-83519947D01*
X163785074Y-83516797D01*
X163764250Y-83511581D01*
X163744038Y-83504349D01*
X163724632Y-83495170D01*
X163706219Y-83484134D01*
X163688976Y-83471346D01*
X163673070Y-83456930D01*
X163658654Y-83441024D01*
X163645866Y-83423781D01*
X163634830Y-83405368D01*
X163625651Y-83385962D01*
X163618419Y-83365750D01*
X163613203Y-83344926D01*
X163610053Y-83323691D01*
X163609000Y-83302250D01*
X163609000Y-82864750D01*
X163610053Y-82843309D01*
X163613203Y-82822074D01*
X163618419Y-82801250D01*
X163625651Y-82781038D01*
X163634830Y-82761632D01*
X163645866Y-82743219D01*
X163658654Y-82725976D01*
X163673070Y-82710070D01*
X163688976Y-82695654D01*
X163706219Y-82682866D01*
X163724632Y-82671830D01*
X163744038Y-82662651D01*
X163764250Y-82655419D01*
X163785074Y-82650203D01*
X163806309Y-82647053D01*
X163827750Y-82646000D01*
X164340250Y-82646000D01*
X164361691Y-82647053D01*
X164361691Y-82647053D01*
G37*
D11*
X164084000Y-83083500D03*
D10*
G36*
X164361691Y-81072053D02*
X164382926Y-81075203D01*
X164403750Y-81080419D01*
X164423962Y-81087651D01*
X164443368Y-81096830D01*
X164461781Y-81107866D01*
X164479024Y-81120654D01*
X164494930Y-81135070D01*
X164509346Y-81150976D01*
X164522134Y-81168219D01*
X164533170Y-81186632D01*
X164542349Y-81206038D01*
X164549581Y-81226250D01*
X164554797Y-81247074D01*
X164557947Y-81268309D01*
X164559000Y-81289750D01*
X164559000Y-81727250D01*
X164557947Y-81748691D01*
X164554797Y-81769926D01*
X164549581Y-81790750D01*
X164542349Y-81810962D01*
X164533170Y-81830368D01*
X164522134Y-81848781D01*
X164509346Y-81866024D01*
X164494930Y-81881930D01*
X164479024Y-81896346D01*
X164461781Y-81909134D01*
X164443368Y-81920170D01*
X164423962Y-81929349D01*
X164403750Y-81936581D01*
X164382926Y-81941797D01*
X164361691Y-81944947D01*
X164340250Y-81946000D01*
X163827750Y-81946000D01*
X163806309Y-81944947D01*
X163785074Y-81941797D01*
X163764250Y-81936581D01*
X163744038Y-81929349D01*
X163724632Y-81920170D01*
X163706219Y-81909134D01*
X163688976Y-81896346D01*
X163673070Y-81881930D01*
X163658654Y-81866024D01*
X163645866Y-81848781D01*
X163634830Y-81830368D01*
X163625651Y-81810962D01*
X163618419Y-81790750D01*
X163613203Y-81769926D01*
X163610053Y-81748691D01*
X163609000Y-81727250D01*
X163609000Y-81289750D01*
X163610053Y-81268309D01*
X163613203Y-81247074D01*
X163618419Y-81226250D01*
X163625651Y-81206038D01*
X163634830Y-81186632D01*
X163645866Y-81168219D01*
X163658654Y-81150976D01*
X163673070Y-81135070D01*
X163688976Y-81120654D01*
X163706219Y-81107866D01*
X163724632Y-81096830D01*
X163744038Y-81087651D01*
X163764250Y-81080419D01*
X163785074Y-81075203D01*
X163806309Y-81072053D01*
X163827750Y-81071000D01*
X164340250Y-81071000D01*
X164361691Y-81072053D01*
X164361691Y-81072053D01*
G37*
D11*
X164084000Y-81508500D03*
G04 #@! TD*
D10*
G04 #@! TO.C,C12*
G36*
X164361691Y-90698553D02*
X164382926Y-90701703D01*
X164403750Y-90706919D01*
X164423962Y-90714151D01*
X164443368Y-90723330D01*
X164461781Y-90734366D01*
X164479024Y-90747154D01*
X164494930Y-90761570D01*
X164509346Y-90777476D01*
X164522134Y-90794719D01*
X164533170Y-90813132D01*
X164542349Y-90832538D01*
X164549581Y-90852750D01*
X164554797Y-90873574D01*
X164557947Y-90894809D01*
X164559000Y-90916250D01*
X164559000Y-91353750D01*
X164557947Y-91375191D01*
X164554797Y-91396426D01*
X164549581Y-91417250D01*
X164542349Y-91437462D01*
X164533170Y-91456868D01*
X164522134Y-91475281D01*
X164509346Y-91492524D01*
X164494930Y-91508430D01*
X164479024Y-91522846D01*
X164461781Y-91535634D01*
X164443368Y-91546670D01*
X164423962Y-91555849D01*
X164403750Y-91563081D01*
X164382926Y-91568297D01*
X164361691Y-91571447D01*
X164340250Y-91572500D01*
X163827750Y-91572500D01*
X163806309Y-91571447D01*
X163785074Y-91568297D01*
X163764250Y-91563081D01*
X163744038Y-91555849D01*
X163724632Y-91546670D01*
X163706219Y-91535634D01*
X163688976Y-91522846D01*
X163673070Y-91508430D01*
X163658654Y-91492524D01*
X163645866Y-91475281D01*
X163634830Y-91456868D01*
X163625651Y-91437462D01*
X163618419Y-91417250D01*
X163613203Y-91396426D01*
X163610053Y-91375191D01*
X163609000Y-91353750D01*
X163609000Y-90916250D01*
X163610053Y-90894809D01*
X163613203Y-90873574D01*
X163618419Y-90852750D01*
X163625651Y-90832538D01*
X163634830Y-90813132D01*
X163645866Y-90794719D01*
X163658654Y-90777476D01*
X163673070Y-90761570D01*
X163688976Y-90747154D01*
X163706219Y-90734366D01*
X163724632Y-90723330D01*
X163744038Y-90714151D01*
X163764250Y-90706919D01*
X163785074Y-90701703D01*
X163806309Y-90698553D01*
X163827750Y-90697500D01*
X164340250Y-90697500D01*
X164361691Y-90698553D01*
X164361691Y-90698553D01*
G37*
D11*
X164084000Y-91135000D03*
D10*
G36*
X164361691Y-92273553D02*
X164382926Y-92276703D01*
X164403750Y-92281919D01*
X164423962Y-92289151D01*
X164443368Y-92298330D01*
X164461781Y-92309366D01*
X164479024Y-92322154D01*
X164494930Y-92336570D01*
X164509346Y-92352476D01*
X164522134Y-92369719D01*
X164533170Y-92388132D01*
X164542349Y-92407538D01*
X164549581Y-92427750D01*
X164554797Y-92448574D01*
X164557947Y-92469809D01*
X164559000Y-92491250D01*
X164559000Y-92928750D01*
X164557947Y-92950191D01*
X164554797Y-92971426D01*
X164549581Y-92992250D01*
X164542349Y-93012462D01*
X164533170Y-93031868D01*
X164522134Y-93050281D01*
X164509346Y-93067524D01*
X164494930Y-93083430D01*
X164479024Y-93097846D01*
X164461781Y-93110634D01*
X164443368Y-93121670D01*
X164423962Y-93130849D01*
X164403750Y-93138081D01*
X164382926Y-93143297D01*
X164361691Y-93146447D01*
X164340250Y-93147500D01*
X163827750Y-93147500D01*
X163806309Y-93146447D01*
X163785074Y-93143297D01*
X163764250Y-93138081D01*
X163744038Y-93130849D01*
X163724632Y-93121670D01*
X163706219Y-93110634D01*
X163688976Y-93097846D01*
X163673070Y-93083430D01*
X163658654Y-93067524D01*
X163645866Y-93050281D01*
X163634830Y-93031868D01*
X163625651Y-93012462D01*
X163618419Y-92992250D01*
X163613203Y-92971426D01*
X163610053Y-92950191D01*
X163609000Y-92928750D01*
X163609000Y-92491250D01*
X163610053Y-92469809D01*
X163613203Y-92448574D01*
X163618419Y-92427750D01*
X163625651Y-92407538D01*
X163634830Y-92388132D01*
X163645866Y-92369719D01*
X163658654Y-92352476D01*
X163673070Y-92336570D01*
X163688976Y-92322154D01*
X163706219Y-92309366D01*
X163724632Y-92298330D01*
X163744038Y-92289151D01*
X163764250Y-92281919D01*
X163785074Y-92276703D01*
X163806309Y-92273553D01*
X163827750Y-92272500D01*
X164340250Y-92272500D01*
X164361691Y-92273553D01*
X164361691Y-92273553D01*
G37*
D11*
X164084000Y-92710000D03*
G04 #@! TD*
D10*
G04 #@! TO.C,C9*
G36*
X156233691Y-80970553D02*
X156254926Y-80973703D01*
X156275750Y-80978919D01*
X156295962Y-80986151D01*
X156315368Y-80995330D01*
X156333781Y-81006366D01*
X156351024Y-81019154D01*
X156366930Y-81033570D01*
X156381346Y-81049476D01*
X156394134Y-81066719D01*
X156405170Y-81085132D01*
X156414349Y-81104538D01*
X156421581Y-81124750D01*
X156426797Y-81145574D01*
X156429947Y-81166809D01*
X156431000Y-81188250D01*
X156431000Y-81625750D01*
X156429947Y-81647191D01*
X156426797Y-81668426D01*
X156421581Y-81689250D01*
X156414349Y-81709462D01*
X156405170Y-81728868D01*
X156394134Y-81747281D01*
X156381346Y-81764524D01*
X156366930Y-81780430D01*
X156351024Y-81794846D01*
X156333781Y-81807634D01*
X156315368Y-81818670D01*
X156295962Y-81827849D01*
X156275750Y-81835081D01*
X156254926Y-81840297D01*
X156233691Y-81843447D01*
X156212250Y-81844500D01*
X155699750Y-81844500D01*
X155678309Y-81843447D01*
X155657074Y-81840297D01*
X155636250Y-81835081D01*
X155616038Y-81827849D01*
X155596632Y-81818670D01*
X155578219Y-81807634D01*
X155560976Y-81794846D01*
X155545070Y-81780430D01*
X155530654Y-81764524D01*
X155517866Y-81747281D01*
X155506830Y-81728868D01*
X155497651Y-81709462D01*
X155490419Y-81689250D01*
X155485203Y-81668426D01*
X155482053Y-81647191D01*
X155481000Y-81625750D01*
X155481000Y-81188250D01*
X155482053Y-81166809D01*
X155485203Y-81145574D01*
X155490419Y-81124750D01*
X155497651Y-81104538D01*
X155506830Y-81085132D01*
X155517866Y-81066719D01*
X155530654Y-81049476D01*
X155545070Y-81033570D01*
X155560976Y-81019154D01*
X155578219Y-81006366D01*
X155596632Y-80995330D01*
X155616038Y-80986151D01*
X155636250Y-80978919D01*
X155657074Y-80973703D01*
X155678309Y-80970553D01*
X155699750Y-80969500D01*
X156212250Y-80969500D01*
X156233691Y-80970553D01*
X156233691Y-80970553D01*
G37*
D11*
X155956000Y-81407000D03*
D10*
G36*
X156233691Y-82545553D02*
X156254926Y-82548703D01*
X156275750Y-82553919D01*
X156295962Y-82561151D01*
X156315368Y-82570330D01*
X156333781Y-82581366D01*
X156351024Y-82594154D01*
X156366930Y-82608570D01*
X156381346Y-82624476D01*
X156394134Y-82641719D01*
X156405170Y-82660132D01*
X156414349Y-82679538D01*
X156421581Y-82699750D01*
X156426797Y-82720574D01*
X156429947Y-82741809D01*
X156431000Y-82763250D01*
X156431000Y-83200750D01*
X156429947Y-83222191D01*
X156426797Y-83243426D01*
X156421581Y-83264250D01*
X156414349Y-83284462D01*
X156405170Y-83303868D01*
X156394134Y-83322281D01*
X156381346Y-83339524D01*
X156366930Y-83355430D01*
X156351024Y-83369846D01*
X156333781Y-83382634D01*
X156315368Y-83393670D01*
X156295962Y-83402849D01*
X156275750Y-83410081D01*
X156254926Y-83415297D01*
X156233691Y-83418447D01*
X156212250Y-83419500D01*
X155699750Y-83419500D01*
X155678309Y-83418447D01*
X155657074Y-83415297D01*
X155636250Y-83410081D01*
X155616038Y-83402849D01*
X155596632Y-83393670D01*
X155578219Y-83382634D01*
X155560976Y-83369846D01*
X155545070Y-83355430D01*
X155530654Y-83339524D01*
X155517866Y-83322281D01*
X155506830Y-83303868D01*
X155497651Y-83284462D01*
X155490419Y-83264250D01*
X155485203Y-83243426D01*
X155482053Y-83222191D01*
X155481000Y-83200750D01*
X155481000Y-82763250D01*
X155482053Y-82741809D01*
X155485203Y-82720574D01*
X155490419Y-82699750D01*
X155497651Y-82679538D01*
X155506830Y-82660132D01*
X155517866Y-82641719D01*
X155530654Y-82624476D01*
X155545070Y-82608570D01*
X155560976Y-82594154D01*
X155578219Y-82581366D01*
X155596632Y-82570330D01*
X155616038Y-82561151D01*
X155636250Y-82553919D01*
X155657074Y-82548703D01*
X155678309Y-82545553D01*
X155699750Y-82544500D01*
X156212250Y-82544500D01*
X156233691Y-82545553D01*
X156233691Y-82545553D01*
G37*
D11*
X155956000Y-82982000D03*
G04 #@! TD*
D10*
G04 #@! TO.C,C14*
G36*
X167169191Y-84362053D02*
X167190426Y-84365203D01*
X167211250Y-84370419D01*
X167231462Y-84377651D01*
X167250868Y-84386830D01*
X167269281Y-84397866D01*
X167286524Y-84410654D01*
X167302430Y-84425070D01*
X167316846Y-84440976D01*
X167329634Y-84458219D01*
X167340670Y-84476632D01*
X167349849Y-84496038D01*
X167357081Y-84516250D01*
X167362297Y-84537074D01*
X167365447Y-84558309D01*
X167366500Y-84579750D01*
X167366500Y-85092250D01*
X167365447Y-85113691D01*
X167362297Y-85134926D01*
X167357081Y-85155750D01*
X167349849Y-85175962D01*
X167340670Y-85195368D01*
X167329634Y-85213781D01*
X167316846Y-85231024D01*
X167302430Y-85246930D01*
X167286524Y-85261346D01*
X167269281Y-85274134D01*
X167250868Y-85285170D01*
X167231462Y-85294349D01*
X167211250Y-85301581D01*
X167190426Y-85306797D01*
X167169191Y-85309947D01*
X167147750Y-85311000D01*
X166710250Y-85311000D01*
X166688809Y-85309947D01*
X166667574Y-85306797D01*
X166646750Y-85301581D01*
X166626538Y-85294349D01*
X166607132Y-85285170D01*
X166588719Y-85274134D01*
X166571476Y-85261346D01*
X166555570Y-85246930D01*
X166541154Y-85231024D01*
X166528366Y-85213781D01*
X166517330Y-85195368D01*
X166508151Y-85175962D01*
X166500919Y-85155750D01*
X166495703Y-85134926D01*
X166492553Y-85113691D01*
X166491500Y-85092250D01*
X166491500Y-84579750D01*
X166492553Y-84558309D01*
X166495703Y-84537074D01*
X166500919Y-84516250D01*
X166508151Y-84496038D01*
X166517330Y-84476632D01*
X166528366Y-84458219D01*
X166541154Y-84440976D01*
X166555570Y-84425070D01*
X166571476Y-84410654D01*
X166588719Y-84397866D01*
X166607132Y-84386830D01*
X166626538Y-84377651D01*
X166646750Y-84370419D01*
X166667574Y-84365203D01*
X166688809Y-84362053D01*
X166710250Y-84361000D01*
X167147750Y-84361000D01*
X167169191Y-84362053D01*
X167169191Y-84362053D01*
G37*
D11*
X166929000Y-84836000D03*
D10*
G36*
X165594191Y-84362053D02*
X165615426Y-84365203D01*
X165636250Y-84370419D01*
X165656462Y-84377651D01*
X165675868Y-84386830D01*
X165694281Y-84397866D01*
X165711524Y-84410654D01*
X165727430Y-84425070D01*
X165741846Y-84440976D01*
X165754634Y-84458219D01*
X165765670Y-84476632D01*
X165774849Y-84496038D01*
X165782081Y-84516250D01*
X165787297Y-84537074D01*
X165790447Y-84558309D01*
X165791500Y-84579750D01*
X165791500Y-85092250D01*
X165790447Y-85113691D01*
X165787297Y-85134926D01*
X165782081Y-85155750D01*
X165774849Y-85175962D01*
X165765670Y-85195368D01*
X165754634Y-85213781D01*
X165741846Y-85231024D01*
X165727430Y-85246930D01*
X165711524Y-85261346D01*
X165694281Y-85274134D01*
X165675868Y-85285170D01*
X165656462Y-85294349D01*
X165636250Y-85301581D01*
X165615426Y-85306797D01*
X165594191Y-85309947D01*
X165572750Y-85311000D01*
X165135250Y-85311000D01*
X165113809Y-85309947D01*
X165092574Y-85306797D01*
X165071750Y-85301581D01*
X165051538Y-85294349D01*
X165032132Y-85285170D01*
X165013719Y-85274134D01*
X164996476Y-85261346D01*
X164980570Y-85246930D01*
X164966154Y-85231024D01*
X164953366Y-85213781D01*
X164942330Y-85195368D01*
X164933151Y-85175962D01*
X164925919Y-85155750D01*
X164920703Y-85134926D01*
X164917553Y-85113691D01*
X164916500Y-85092250D01*
X164916500Y-84579750D01*
X164917553Y-84558309D01*
X164920703Y-84537074D01*
X164925919Y-84516250D01*
X164933151Y-84496038D01*
X164942330Y-84476632D01*
X164953366Y-84458219D01*
X164966154Y-84440976D01*
X164980570Y-84425070D01*
X164996476Y-84410654D01*
X165013719Y-84397866D01*
X165032132Y-84386830D01*
X165051538Y-84377651D01*
X165071750Y-84370419D01*
X165092574Y-84365203D01*
X165113809Y-84362053D01*
X165135250Y-84361000D01*
X165572750Y-84361000D01*
X165594191Y-84362053D01*
X165594191Y-84362053D01*
G37*
D11*
X165354000Y-84836000D03*
G04 #@! TD*
D10*
G04 #@! TO.C,C15*
G36*
X166051191Y-90204053D02*
X166072426Y-90207203D01*
X166093250Y-90212419D01*
X166113462Y-90219651D01*
X166132868Y-90228830D01*
X166151281Y-90239866D01*
X166168524Y-90252654D01*
X166184430Y-90267070D01*
X166198846Y-90282976D01*
X166211634Y-90300219D01*
X166222670Y-90318632D01*
X166231849Y-90338038D01*
X166239081Y-90358250D01*
X166244297Y-90379074D01*
X166247447Y-90400309D01*
X166248500Y-90421750D01*
X166248500Y-90934250D01*
X166247447Y-90955691D01*
X166244297Y-90976926D01*
X166239081Y-90997750D01*
X166231849Y-91017962D01*
X166222670Y-91037368D01*
X166211634Y-91055781D01*
X166198846Y-91073024D01*
X166184430Y-91088930D01*
X166168524Y-91103346D01*
X166151281Y-91116134D01*
X166132868Y-91127170D01*
X166113462Y-91136349D01*
X166093250Y-91143581D01*
X166072426Y-91148797D01*
X166051191Y-91151947D01*
X166029750Y-91153000D01*
X165592250Y-91153000D01*
X165570809Y-91151947D01*
X165549574Y-91148797D01*
X165528750Y-91143581D01*
X165508538Y-91136349D01*
X165489132Y-91127170D01*
X165470719Y-91116134D01*
X165453476Y-91103346D01*
X165437570Y-91088930D01*
X165423154Y-91073024D01*
X165410366Y-91055781D01*
X165399330Y-91037368D01*
X165390151Y-91017962D01*
X165382919Y-90997750D01*
X165377703Y-90976926D01*
X165374553Y-90955691D01*
X165373500Y-90934250D01*
X165373500Y-90421750D01*
X165374553Y-90400309D01*
X165377703Y-90379074D01*
X165382919Y-90358250D01*
X165390151Y-90338038D01*
X165399330Y-90318632D01*
X165410366Y-90300219D01*
X165423154Y-90282976D01*
X165437570Y-90267070D01*
X165453476Y-90252654D01*
X165470719Y-90239866D01*
X165489132Y-90228830D01*
X165508538Y-90219651D01*
X165528750Y-90212419D01*
X165549574Y-90207203D01*
X165570809Y-90204053D01*
X165592250Y-90203000D01*
X166029750Y-90203000D01*
X166051191Y-90204053D01*
X166051191Y-90204053D01*
G37*
D11*
X165811000Y-90678000D03*
D10*
G36*
X167626191Y-90204053D02*
X167647426Y-90207203D01*
X167668250Y-90212419D01*
X167688462Y-90219651D01*
X167707868Y-90228830D01*
X167726281Y-90239866D01*
X167743524Y-90252654D01*
X167759430Y-90267070D01*
X167773846Y-90282976D01*
X167786634Y-90300219D01*
X167797670Y-90318632D01*
X167806849Y-90338038D01*
X167814081Y-90358250D01*
X167819297Y-90379074D01*
X167822447Y-90400309D01*
X167823500Y-90421750D01*
X167823500Y-90934250D01*
X167822447Y-90955691D01*
X167819297Y-90976926D01*
X167814081Y-90997750D01*
X167806849Y-91017962D01*
X167797670Y-91037368D01*
X167786634Y-91055781D01*
X167773846Y-91073024D01*
X167759430Y-91088930D01*
X167743524Y-91103346D01*
X167726281Y-91116134D01*
X167707868Y-91127170D01*
X167688462Y-91136349D01*
X167668250Y-91143581D01*
X167647426Y-91148797D01*
X167626191Y-91151947D01*
X167604750Y-91153000D01*
X167167250Y-91153000D01*
X167145809Y-91151947D01*
X167124574Y-91148797D01*
X167103750Y-91143581D01*
X167083538Y-91136349D01*
X167064132Y-91127170D01*
X167045719Y-91116134D01*
X167028476Y-91103346D01*
X167012570Y-91088930D01*
X166998154Y-91073024D01*
X166985366Y-91055781D01*
X166974330Y-91037368D01*
X166965151Y-91017962D01*
X166957919Y-90997750D01*
X166952703Y-90976926D01*
X166949553Y-90955691D01*
X166948500Y-90934250D01*
X166948500Y-90421750D01*
X166949553Y-90400309D01*
X166952703Y-90379074D01*
X166957919Y-90358250D01*
X166965151Y-90338038D01*
X166974330Y-90318632D01*
X166985366Y-90300219D01*
X166998154Y-90282976D01*
X167012570Y-90267070D01*
X167028476Y-90252654D01*
X167045719Y-90239866D01*
X167064132Y-90228830D01*
X167083538Y-90219651D01*
X167103750Y-90212419D01*
X167124574Y-90207203D01*
X167145809Y-90204053D01*
X167167250Y-90203000D01*
X167604750Y-90203000D01*
X167626191Y-90204053D01*
X167626191Y-90204053D01*
G37*
D11*
X167386000Y-90678000D03*
G04 #@! TD*
D10*
G04 #@! TO.C,C18*
G36*
X158736191Y-106968053D02*
X158757426Y-106971203D01*
X158778250Y-106976419D01*
X158798462Y-106983651D01*
X158817868Y-106992830D01*
X158836281Y-107003866D01*
X158853524Y-107016654D01*
X158869430Y-107031070D01*
X158883846Y-107046976D01*
X158896634Y-107064219D01*
X158907670Y-107082632D01*
X158916849Y-107102038D01*
X158924081Y-107122250D01*
X158929297Y-107143074D01*
X158932447Y-107164309D01*
X158933500Y-107185750D01*
X158933500Y-107698250D01*
X158932447Y-107719691D01*
X158929297Y-107740926D01*
X158924081Y-107761750D01*
X158916849Y-107781962D01*
X158907670Y-107801368D01*
X158896634Y-107819781D01*
X158883846Y-107837024D01*
X158869430Y-107852930D01*
X158853524Y-107867346D01*
X158836281Y-107880134D01*
X158817868Y-107891170D01*
X158798462Y-107900349D01*
X158778250Y-107907581D01*
X158757426Y-107912797D01*
X158736191Y-107915947D01*
X158714750Y-107917000D01*
X158277250Y-107917000D01*
X158255809Y-107915947D01*
X158234574Y-107912797D01*
X158213750Y-107907581D01*
X158193538Y-107900349D01*
X158174132Y-107891170D01*
X158155719Y-107880134D01*
X158138476Y-107867346D01*
X158122570Y-107852930D01*
X158108154Y-107837024D01*
X158095366Y-107819781D01*
X158084330Y-107801368D01*
X158075151Y-107781962D01*
X158067919Y-107761750D01*
X158062703Y-107740926D01*
X158059553Y-107719691D01*
X158058500Y-107698250D01*
X158058500Y-107185750D01*
X158059553Y-107164309D01*
X158062703Y-107143074D01*
X158067919Y-107122250D01*
X158075151Y-107102038D01*
X158084330Y-107082632D01*
X158095366Y-107064219D01*
X158108154Y-107046976D01*
X158122570Y-107031070D01*
X158138476Y-107016654D01*
X158155719Y-107003866D01*
X158174132Y-106992830D01*
X158193538Y-106983651D01*
X158213750Y-106976419D01*
X158234574Y-106971203D01*
X158255809Y-106968053D01*
X158277250Y-106967000D01*
X158714750Y-106967000D01*
X158736191Y-106968053D01*
X158736191Y-106968053D01*
G37*
D11*
X158496000Y-107442000D03*
D10*
G36*
X160311191Y-106968053D02*
X160332426Y-106971203D01*
X160353250Y-106976419D01*
X160373462Y-106983651D01*
X160392868Y-106992830D01*
X160411281Y-107003866D01*
X160428524Y-107016654D01*
X160444430Y-107031070D01*
X160458846Y-107046976D01*
X160471634Y-107064219D01*
X160482670Y-107082632D01*
X160491849Y-107102038D01*
X160499081Y-107122250D01*
X160504297Y-107143074D01*
X160507447Y-107164309D01*
X160508500Y-107185750D01*
X160508500Y-107698250D01*
X160507447Y-107719691D01*
X160504297Y-107740926D01*
X160499081Y-107761750D01*
X160491849Y-107781962D01*
X160482670Y-107801368D01*
X160471634Y-107819781D01*
X160458846Y-107837024D01*
X160444430Y-107852930D01*
X160428524Y-107867346D01*
X160411281Y-107880134D01*
X160392868Y-107891170D01*
X160373462Y-107900349D01*
X160353250Y-107907581D01*
X160332426Y-107912797D01*
X160311191Y-107915947D01*
X160289750Y-107917000D01*
X159852250Y-107917000D01*
X159830809Y-107915947D01*
X159809574Y-107912797D01*
X159788750Y-107907581D01*
X159768538Y-107900349D01*
X159749132Y-107891170D01*
X159730719Y-107880134D01*
X159713476Y-107867346D01*
X159697570Y-107852930D01*
X159683154Y-107837024D01*
X159670366Y-107819781D01*
X159659330Y-107801368D01*
X159650151Y-107781962D01*
X159642919Y-107761750D01*
X159637703Y-107740926D01*
X159634553Y-107719691D01*
X159633500Y-107698250D01*
X159633500Y-107185750D01*
X159634553Y-107164309D01*
X159637703Y-107143074D01*
X159642919Y-107122250D01*
X159650151Y-107102038D01*
X159659330Y-107082632D01*
X159670366Y-107064219D01*
X159683154Y-107046976D01*
X159697570Y-107031070D01*
X159713476Y-107016654D01*
X159730719Y-107003866D01*
X159749132Y-106992830D01*
X159768538Y-106983651D01*
X159788750Y-106976419D01*
X159809574Y-106971203D01*
X159830809Y-106968053D01*
X159852250Y-106967000D01*
X160289750Y-106967000D01*
X160311191Y-106968053D01*
X160311191Y-106968053D01*
G37*
D11*
X160071000Y-107442000D03*
G04 #@! TD*
D10*
G04 #@! TO.C,C19*
G36*
X162800191Y-107730053D02*
X162821426Y-107733203D01*
X162842250Y-107738419D01*
X162862462Y-107745651D01*
X162881868Y-107754830D01*
X162900281Y-107765866D01*
X162917524Y-107778654D01*
X162933430Y-107793070D01*
X162947846Y-107808976D01*
X162960634Y-107826219D01*
X162971670Y-107844632D01*
X162980849Y-107864038D01*
X162988081Y-107884250D01*
X162993297Y-107905074D01*
X162996447Y-107926309D01*
X162997500Y-107947750D01*
X162997500Y-108460250D01*
X162996447Y-108481691D01*
X162993297Y-108502926D01*
X162988081Y-108523750D01*
X162980849Y-108543962D01*
X162971670Y-108563368D01*
X162960634Y-108581781D01*
X162947846Y-108599024D01*
X162933430Y-108614930D01*
X162917524Y-108629346D01*
X162900281Y-108642134D01*
X162881868Y-108653170D01*
X162862462Y-108662349D01*
X162842250Y-108669581D01*
X162821426Y-108674797D01*
X162800191Y-108677947D01*
X162778750Y-108679000D01*
X162341250Y-108679000D01*
X162319809Y-108677947D01*
X162298574Y-108674797D01*
X162277750Y-108669581D01*
X162257538Y-108662349D01*
X162238132Y-108653170D01*
X162219719Y-108642134D01*
X162202476Y-108629346D01*
X162186570Y-108614930D01*
X162172154Y-108599024D01*
X162159366Y-108581781D01*
X162148330Y-108563368D01*
X162139151Y-108543962D01*
X162131919Y-108523750D01*
X162126703Y-108502926D01*
X162123553Y-108481691D01*
X162122500Y-108460250D01*
X162122500Y-107947750D01*
X162123553Y-107926309D01*
X162126703Y-107905074D01*
X162131919Y-107884250D01*
X162139151Y-107864038D01*
X162148330Y-107844632D01*
X162159366Y-107826219D01*
X162172154Y-107808976D01*
X162186570Y-107793070D01*
X162202476Y-107778654D01*
X162219719Y-107765866D01*
X162238132Y-107754830D01*
X162257538Y-107745651D01*
X162277750Y-107738419D01*
X162298574Y-107733203D01*
X162319809Y-107730053D01*
X162341250Y-107729000D01*
X162778750Y-107729000D01*
X162800191Y-107730053D01*
X162800191Y-107730053D01*
G37*
D11*
X162560000Y-108204000D03*
D10*
G36*
X164375191Y-107730053D02*
X164396426Y-107733203D01*
X164417250Y-107738419D01*
X164437462Y-107745651D01*
X164456868Y-107754830D01*
X164475281Y-107765866D01*
X164492524Y-107778654D01*
X164508430Y-107793070D01*
X164522846Y-107808976D01*
X164535634Y-107826219D01*
X164546670Y-107844632D01*
X164555849Y-107864038D01*
X164563081Y-107884250D01*
X164568297Y-107905074D01*
X164571447Y-107926309D01*
X164572500Y-107947750D01*
X164572500Y-108460250D01*
X164571447Y-108481691D01*
X164568297Y-108502926D01*
X164563081Y-108523750D01*
X164555849Y-108543962D01*
X164546670Y-108563368D01*
X164535634Y-108581781D01*
X164522846Y-108599024D01*
X164508430Y-108614930D01*
X164492524Y-108629346D01*
X164475281Y-108642134D01*
X164456868Y-108653170D01*
X164437462Y-108662349D01*
X164417250Y-108669581D01*
X164396426Y-108674797D01*
X164375191Y-108677947D01*
X164353750Y-108679000D01*
X163916250Y-108679000D01*
X163894809Y-108677947D01*
X163873574Y-108674797D01*
X163852750Y-108669581D01*
X163832538Y-108662349D01*
X163813132Y-108653170D01*
X163794719Y-108642134D01*
X163777476Y-108629346D01*
X163761570Y-108614930D01*
X163747154Y-108599024D01*
X163734366Y-108581781D01*
X163723330Y-108563368D01*
X163714151Y-108543962D01*
X163706919Y-108523750D01*
X163701703Y-108502926D01*
X163698553Y-108481691D01*
X163697500Y-108460250D01*
X163697500Y-107947750D01*
X163698553Y-107926309D01*
X163701703Y-107905074D01*
X163706919Y-107884250D01*
X163714151Y-107864038D01*
X163723330Y-107844632D01*
X163734366Y-107826219D01*
X163747154Y-107808976D01*
X163761570Y-107793070D01*
X163777476Y-107778654D01*
X163794719Y-107765866D01*
X163813132Y-107754830D01*
X163832538Y-107745651D01*
X163852750Y-107738419D01*
X163873574Y-107733203D01*
X163894809Y-107730053D01*
X163916250Y-107729000D01*
X164353750Y-107729000D01*
X164375191Y-107730053D01*
X164375191Y-107730053D01*
G37*
D11*
X164135000Y-108204000D03*
G04 #@! TD*
D10*
G04 #@! TO.C,C22*
G36*
X159244191Y-115731053D02*
X159265426Y-115734203D01*
X159286250Y-115739419D01*
X159306462Y-115746651D01*
X159325868Y-115755830D01*
X159344281Y-115766866D01*
X159361524Y-115779654D01*
X159377430Y-115794070D01*
X159391846Y-115809976D01*
X159404634Y-115827219D01*
X159415670Y-115845632D01*
X159424849Y-115865038D01*
X159432081Y-115885250D01*
X159437297Y-115906074D01*
X159440447Y-115927309D01*
X159441500Y-115948750D01*
X159441500Y-116461250D01*
X159440447Y-116482691D01*
X159437297Y-116503926D01*
X159432081Y-116524750D01*
X159424849Y-116544962D01*
X159415670Y-116564368D01*
X159404634Y-116582781D01*
X159391846Y-116600024D01*
X159377430Y-116615930D01*
X159361524Y-116630346D01*
X159344281Y-116643134D01*
X159325868Y-116654170D01*
X159306462Y-116663349D01*
X159286250Y-116670581D01*
X159265426Y-116675797D01*
X159244191Y-116678947D01*
X159222750Y-116680000D01*
X158785250Y-116680000D01*
X158763809Y-116678947D01*
X158742574Y-116675797D01*
X158721750Y-116670581D01*
X158701538Y-116663349D01*
X158682132Y-116654170D01*
X158663719Y-116643134D01*
X158646476Y-116630346D01*
X158630570Y-116615930D01*
X158616154Y-116600024D01*
X158603366Y-116582781D01*
X158592330Y-116564368D01*
X158583151Y-116544962D01*
X158575919Y-116524750D01*
X158570703Y-116503926D01*
X158567553Y-116482691D01*
X158566500Y-116461250D01*
X158566500Y-115948750D01*
X158567553Y-115927309D01*
X158570703Y-115906074D01*
X158575919Y-115885250D01*
X158583151Y-115865038D01*
X158592330Y-115845632D01*
X158603366Y-115827219D01*
X158616154Y-115809976D01*
X158630570Y-115794070D01*
X158646476Y-115779654D01*
X158663719Y-115766866D01*
X158682132Y-115755830D01*
X158701538Y-115746651D01*
X158721750Y-115739419D01*
X158742574Y-115734203D01*
X158763809Y-115731053D01*
X158785250Y-115730000D01*
X159222750Y-115730000D01*
X159244191Y-115731053D01*
X159244191Y-115731053D01*
G37*
D11*
X159004000Y-116205000D03*
D10*
G36*
X160819191Y-115731053D02*
X160840426Y-115734203D01*
X160861250Y-115739419D01*
X160881462Y-115746651D01*
X160900868Y-115755830D01*
X160919281Y-115766866D01*
X160936524Y-115779654D01*
X160952430Y-115794070D01*
X160966846Y-115809976D01*
X160979634Y-115827219D01*
X160990670Y-115845632D01*
X160999849Y-115865038D01*
X161007081Y-115885250D01*
X161012297Y-115906074D01*
X161015447Y-115927309D01*
X161016500Y-115948750D01*
X161016500Y-116461250D01*
X161015447Y-116482691D01*
X161012297Y-116503926D01*
X161007081Y-116524750D01*
X160999849Y-116544962D01*
X160990670Y-116564368D01*
X160979634Y-116582781D01*
X160966846Y-116600024D01*
X160952430Y-116615930D01*
X160936524Y-116630346D01*
X160919281Y-116643134D01*
X160900868Y-116654170D01*
X160881462Y-116663349D01*
X160861250Y-116670581D01*
X160840426Y-116675797D01*
X160819191Y-116678947D01*
X160797750Y-116680000D01*
X160360250Y-116680000D01*
X160338809Y-116678947D01*
X160317574Y-116675797D01*
X160296750Y-116670581D01*
X160276538Y-116663349D01*
X160257132Y-116654170D01*
X160238719Y-116643134D01*
X160221476Y-116630346D01*
X160205570Y-116615930D01*
X160191154Y-116600024D01*
X160178366Y-116582781D01*
X160167330Y-116564368D01*
X160158151Y-116544962D01*
X160150919Y-116524750D01*
X160145703Y-116503926D01*
X160142553Y-116482691D01*
X160141500Y-116461250D01*
X160141500Y-115948750D01*
X160142553Y-115927309D01*
X160145703Y-115906074D01*
X160150919Y-115885250D01*
X160158151Y-115865038D01*
X160167330Y-115845632D01*
X160178366Y-115827219D01*
X160191154Y-115809976D01*
X160205570Y-115794070D01*
X160221476Y-115779654D01*
X160238719Y-115766866D01*
X160257132Y-115755830D01*
X160276538Y-115746651D01*
X160296750Y-115739419D01*
X160317574Y-115734203D01*
X160338809Y-115731053D01*
X160360250Y-115730000D01*
X160797750Y-115730000D01*
X160819191Y-115731053D01*
X160819191Y-115731053D01*
G37*
D11*
X160579000Y-116205000D03*
G04 #@! TD*
D10*
G04 #@! TO.C,C23*
G36*
X162800191Y-116112053D02*
X162821426Y-116115203D01*
X162842250Y-116120419D01*
X162862462Y-116127651D01*
X162881868Y-116136830D01*
X162900281Y-116147866D01*
X162917524Y-116160654D01*
X162933430Y-116175070D01*
X162947846Y-116190976D01*
X162960634Y-116208219D01*
X162971670Y-116226632D01*
X162980849Y-116246038D01*
X162988081Y-116266250D01*
X162993297Y-116287074D01*
X162996447Y-116308309D01*
X162997500Y-116329750D01*
X162997500Y-116842250D01*
X162996447Y-116863691D01*
X162993297Y-116884926D01*
X162988081Y-116905750D01*
X162980849Y-116925962D01*
X162971670Y-116945368D01*
X162960634Y-116963781D01*
X162947846Y-116981024D01*
X162933430Y-116996930D01*
X162917524Y-117011346D01*
X162900281Y-117024134D01*
X162881868Y-117035170D01*
X162862462Y-117044349D01*
X162842250Y-117051581D01*
X162821426Y-117056797D01*
X162800191Y-117059947D01*
X162778750Y-117061000D01*
X162341250Y-117061000D01*
X162319809Y-117059947D01*
X162298574Y-117056797D01*
X162277750Y-117051581D01*
X162257538Y-117044349D01*
X162238132Y-117035170D01*
X162219719Y-117024134D01*
X162202476Y-117011346D01*
X162186570Y-116996930D01*
X162172154Y-116981024D01*
X162159366Y-116963781D01*
X162148330Y-116945368D01*
X162139151Y-116925962D01*
X162131919Y-116905750D01*
X162126703Y-116884926D01*
X162123553Y-116863691D01*
X162122500Y-116842250D01*
X162122500Y-116329750D01*
X162123553Y-116308309D01*
X162126703Y-116287074D01*
X162131919Y-116266250D01*
X162139151Y-116246038D01*
X162148330Y-116226632D01*
X162159366Y-116208219D01*
X162172154Y-116190976D01*
X162186570Y-116175070D01*
X162202476Y-116160654D01*
X162219719Y-116147866D01*
X162238132Y-116136830D01*
X162257538Y-116127651D01*
X162277750Y-116120419D01*
X162298574Y-116115203D01*
X162319809Y-116112053D01*
X162341250Y-116111000D01*
X162778750Y-116111000D01*
X162800191Y-116112053D01*
X162800191Y-116112053D01*
G37*
D11*
X162560000Y-116586000D03*
D10*
G36*
X164375191Y-116112053D02*
X164396426Y-116115203D01*
X164417250Y-116120419D01*
X164437462Y-116127651D01*
X164456868Y-116136830D01*
X164475281Y-116147866D01*
X164492524Y-116160654D01*
X164508430Y-116175070D01*
X164522846Y-116190976D01*
X164535634Y-116208219D01*
X164546670Y-116226632D01*
X164555849Y-116246038D01*
X164563081Y-116266250D01*
X164568297Y-116287074D01*
X164571447Y-116308309D01*
X164572500Y-116329750D01*
X164572500Y-116842250D01*
X164571447Y-116863691D01*
X164568297Y-116884926D01*
X164563081Y-116905750D01*
X164555849Y-116925962D01*
X164546670Y-116945368D01*
X164535634Y-116963781D01*
X164522846Y-116981024D01*
X164508430Y-116996930D01*
X164492524Y-117011346D01*
X164475281Y-117024134D01*
X164456868Y-117035170D01*
X164437462Y-117044349D01*
X164417250Y-117051581D01*
X164396426Y-117056797D01*
X164375191Y-117059947D01*
X164353750Y-117061000D01*
X163916250Y-117061000D01*
X163894809Y-117059947D01*
X163873574Y-117056797D01*
X163852750Y-117051581D01*
X163832538Y-117044349D01*
X163813132Y-117035170D01*
X163794719Y-117024134D01*
X163777476Y-117011346D01*
X163761570Y-116996930D01*
X163747154Y-116981024D01*
X163734366Y-116963781D01*
X163723330Y-116945368D01*
X163714151Y-116925962D01*
X163706919Y-116905750D01*
X163701703Y-116884926D01*
X163698553Y-116863691D01*
X163697500Y-116842250D01*
X163697500Y-116329750D01*
X163698553Y-116308309D01*
X163701703Y-116287074D01*
X163706919Y-116266250D01*
X163714151Y-116246038D01*
X163723330Y-116226632D01*
X163734366Y-116208219D01*
X163747154Y-116190976D01*
X163761570Y-116175070D01*
X163777476Y-116160654D01*
X163794719Y-116147866D01*
X163813132Y-116136830D01*
X163832538Y-116127651D01*
X163852750Y-116120419D01*
X163873574Y-116115203D01*
X163894809Y-116112053D01*
X163916250Y-116111000D01*
X164353750Y-116111000D01*
X164375191Y-116112053D01*
X164375191Y-116112053D01*
G37*
D11*
X164135000Y-116586000D03*
G04 #@! TD*
D10*
G04 #@! TO.C,C27*
G36*
X155891191Y-90458053D02*
X155912426Y-90461203D01*
X155933250Y-90466419D01*
X155953462Y-90473651D01*
X155972868Y-90482830D01*
X155991281Y-90493866D01*
X156008524Y-90506654D01*
X156024430Y-90521070D01*
X156038846Y-90536976D01*
X156051634Y-90554219D01*
X156062670Y-90572632D01*
X156071849Y-90592038D01*
X156079081Y-90612250D01*
X156084297Y-90633074D01*
X156087447Y-90654309D01*
X156088500Y-90675750D01*
X156088500Y-91188250D01*
X156087447Y-91209691D01*
X156084297Y-91230926D01*
X156079081Y-91251750D01*
X156071849Y-91271962D01*
X156062670Y-91291368D01*
X156051634Y-91309781D01*
X156038846Y-91327024D01*
X156024430Y-91342930D01*
X156008524Y-91357346D01*
X155991281Y-91370134D01*
X155972868Y-91381170D01*
X155953462Y-91390349D01*
X155933250Y-91397581D01*
X155912426Y-91402797D01*
X155891191Y-91405947D01*
X155869750Y-91407000D01*
X155432250Y-91407000D01*
X155410809Y-91405947D01*
X155389574Y-91402797D01*
X155368750Y-91397581D01*
X155348538Y-91390349D01*
X155329132Y-91381170D01*
X155310719Y-91370134D01*
X155293476Y-91357346D01*
X155277570Y-91342930D01*
X155263154Y-91327024D01*
X155250366Y-91309781D01*
X155239330Y-91291368D01*
X155230151Y-91271962D01*
X155222919Y-91251750D01*
X155217703Y-91230926D01*
X155214553Y-91209691D01*
X155213500Y-91188250D01*
X155213500Y-90675750D01*
X155214553Y-90654309D01*
X155217703Y-90633074D01*
X155222919Y-90612250D01*
X155230151Y-90592038D01*
X155239330Y-90572632D01*
X155250366Y-90554219D01*
X155263154Y-90536976D01*
X155277570Y-90521070D01*
X155293476Y-90506654D01*
X155310719Y-90493866D01*
X155329132Y-90482830D01*
X155348538Y-90473651D01*
X155368750Y-90466419D01*
X155389574Y-90461203D01*
X155410809Y-90458053D01*
X155432250Y-90457000D01*
X155869750Y-90457000D01*
X155891191Y-90458053D01*
X155891191Y-90458053D01*
G37*
D11*
X155651000Y-90932000D03*
D10*
G36*
X157466191Y-90458053D02*
X157487426Y-90461203D01*
X157508250Y-90466419D01*
X157528462Y-90473651D01*
X157547868Y-90482830D01*
X157566281Y-90493866D01*
X157583524Y-90506654D01*
X157599430Y-90521070D01*
X157613846Y-90536976D01*
X157626634Y-90554219D01*
X157637670Y-90572632D01*
X157646849Y-90592038D01*
X157654081Y-90612250D01*
X157659297Y-90633074D01*
X157662447Y-90654309D01*
X157663500Y-90675750D01*
X157663500Y-91188250D01*
X157662447Y-91209691D01*
X157659297Y-91230926D01*
X157654081Y-91251750D01*
X157646849Y-91271962D01*
X157637670Y-91291368D01*
X157626634Y-91309781D01*
X157613846Y-91327024D01*
X157599430Y-91342930D01*
X157583524Y-91357346D01*
X157566281Y-91370134D01*
X157547868Y-91381170D01*
X157528462Y-91390349D01*
X157508250Y-91397581D01*
X157487426Y-91402797D01*
X157466191Y-91405947D01*
X157444750Y-91407000D01*
X157007250Y-91407000D01*
X156985809Y-91405947D01*
X156964574Y-91402797D01*
X156943750Y-91397581D01*
X156923538Y-91390349D01*
X156904132Y-91381170D01*
X156885719Y-91370134D01*
X156868476Y-91357346D01*
X156852570Y-91342930D01*
X156838154Y-91327024D01*
X156825366Y-91309781D01*
X156814330Y-91291368D01*
X156805151Y-91271962D01*
X156797919Y-91251750D01*
X156792703Y-91230926D01*
X156789553Y-91209691D01*
X156788500Y-91188250D01*
X156788500Y-90675750D01*
X156789553Y-90654309D01*
X156792703Y-90633074D01*
X156797919Y-90612250D01*
X156805151Y-90592038D01*
X156814330Y-90572632D01*
X156825366Y-90554219D01*
X156838154Y-90536976D01*
X156852570Y-90521070D01*
X156868476Y-90506654D01*
X156885719Y-90493866D01*
X156904132Y-90482830D01*
X156923538Y-90473651D01*
X156943750Y-90466419D01*
X156964574Y-90461203D01*
X156985809Y-90458053D01*
X157007250Y-90457000D01*
X157444750Y-90457000D01*
X157466191Y-90458053D01*
X157466191Y-90458053D01*
G37*
D11*
X157226000Y-90932000D03*
G04 #@! TD*
D10*
G04 #@! TO.C,C8*
G36*
X155715642Y-88455174D02*
X155739303Y-88458684D01*
X155762507Y-88464496D01*
X155785029Y-88472554D01*
X155806653Y-88482782D01*
X155827170Y-88495079D01*
X155846383Y-88509329D01*
X155864107Y-88525393D01*
X155880171Y-88543117D01*
X155894421Y-88562330D01*
X155906718Y-88582847D01*
X155916946Y-88604471D01*
X155925004Y-88626993D01*
X155930816Y-88650197D01*
X155934326Y-88673858D01*
X155935500Y-88697750D01*
X155935500Y-89610250D01*
X155934326Y-89634142D01*
X155930816Y-89657803D01*
X155925004Y-89681007D01*
X155916946Y-89703529D01*
X155906718Y-89725153D01*
X155894421Y-89745670D01*
X155880171Y-89764883D01*
X155864107Y-89782607D01*
X155846383Y-89798671D01*
X155827170Y-89812921D01*
X155806653Y-89825218D01*
X155785029Y-89835446D01*
X155762507Y-89843504D01*
X155739303Y-89849316D01*
X155715642Y-89852826D01*
X155691750Y-89854000D01*
X155204250Y-89854000D01*
X155180358Y-89852826D01*
X155156697Y-89849316D01*
X155133493Y-89843504D01*
X155110971Y-89835446D01*
X155089347Y-89825218D01*
X155068830Y-89812921D01*
X155049617Y-89798671D01*
X155031893Y-89782607D01*
X155015829Y-89764883D01*
X155001579Y-89745670D01*
X154989282Y-89725153D01*
X154979054Y-89703529D01*
X154970996Y-89681007D01*
X154965184Y-89657803D01*
X154961674Y-89634142D01*
X154960500Y-89610250D01*
X154960500Y-88697750D01*
X154961674Y-88673858D01*
X154965184Y-88650197D01*
X154970996Y-88626993D01*
X154979054Y-88604471D01*
X154989282Y-88582847D01*
X155001579Y-88562330D01*
X155015829Y-88543117D01*
X155031893Y-88525393D01*
X155049617Y-88509329D01*
X155068830Y-88495079D01*
X155089347Y-88482782D01*
X155110971Y-88472554D01*
X155133493Y-88464496D01*
X155156697Y-88458684D01*
X155180358Y-88455174D01*
X155204250Y-88454000D01*
X155691750Y-88454000D01*
X155715642Y-88455174D01*
X155715642Y-88455174D01*
G37*
D12*
X155448000Y-89154000D03*
D10*
G36*
X157590642Y-88455174D02*
X157614303Y-88458684D01*
X157637507Y-88464496D01*
X157660029Y-88472554D01*
X157681653Y-88482782D01*
X157702170Y-88495079D01*
X157721383Y-88509329D01*
X157739107Y-88525393D01*
X157755171Y-88543117D01*
X157769421Y-88562330D01*
X157781718Y-88582847D01*
X157791946Y-88604471D01*
X157800004Y-88626993D01*
X157805816Y-88650197D01*
X157809326Y-88673858D01*
X157810500Y-88697750D01*
X157810500Y-89610250D01*
X157809326Y-89634142D01*
X157805816Y-89657803D01*
X157800004Y-89681007D01*
X157791946Y-89703529D01*
X157781718Y-89725153D01*
X157769421Y-89745670D01*
X157755171Y-89764883D01*
X157739107Y-89782607D01*
X157721383Y-89798671D01*
X157702170Y-89812921D01*
X157681653Y-89825218D01*
X157660029Y-89835446D01*
X157637507Y-89843504D01*
X157614303Y-89849316D01*
X157590642Y-89852826D01*
X157566750Y-89854000D01*
X157079250Y-89854000D01*
X157055358Y-89852826D01*
X157031697Y-89849316D01*
X157008493Y-89843504D01*
X156985971Y-89835446D01*
X156964347Y-89825218D01*
X156943830Y-89812921D01*
X156924617Y-89798671D01*
X156906893Y-89782607D01*
X156890829Y-89764883D01*
X156876579Y-89745670D01*
X156864282Y-89725153D01*
X156854054Y-89703529D01*
X156845996Y-89681007D01*
X156840184Y-89657803D01*
X156836674Y-89634142D01*
X156835500Y-89610250D01*
X156835500Y-88697750D01*
X156836674Y-88673858D01*
X156840184Y-88650197D01*
X156845996Y-88626993D01*
X156854054Y-88604471D01*
X156864282Y-88582847D01*
X156876579Y-88562330D01*
X156890829Y-88543117D01*
X156906893Y-88525393D01*
X156924617Y-88509329D01*
X156943830Y-88495079D01*
X156964347Y-88482782D01*
X156985971Y-88472554D01*
X157008493Y-88464496D01*
X157031697Y-88458684D01*
X157055358Y-88455174D01*
X157079250Y-88454000D01*
X157566750Y-88454000D01*
X157590642Y-88455174D01*
X157590642Y-88455174D01*
G37*
D12*
X157323000Y-89154000D03*
G04 #@! TD*
D10*
G04 #@! TO.C,C7*
G36*
X158214142Y-81174674D02*
X158237803Y-81178184D01*
X158261007Y-81183996D01*
X158283529Y-81192054D01*
X158305153Y-81202282D01*
X158325670Y-81214579D01*
X158344883Y-81228829D01*
X158362607Y-81244893D01*
X158378671Y-81262617D01*
X158392921Y-81281830D01*
X158405218Y-81302347D01*
X158415446Y-81323971D01*
X158423504Y-81346493D01*
X158429316Y-81369697D01*
X158432826Y-81393358D01*
X158434000Y-81417250D01*
X158434000Y-81904750D01*
X158432826Y-81928642D01*
X158429316Y-81952303D01*
X158423504Y-81975507D01*
X158415446Y-81998029D01*
X158405218Y-82019653D01*
X158392921Y-82040170D01*
X158378671Y-82059383D01*
X158362607Y-82077107D01*
X158344883Y-82093171D01*
X158325670Y-82107421D01*
X158305153Y-82119718D01*
X158283529Y-82129946D01*
X158261007Y-82138004D01*
X158237803Y-82143816D01*
X158214142Y-82147326D01*
X158190250Y-82148500D01*
X157277750Y-82148500D01*
X157253858Y-82147326D01*
X157230197Y-82143816D01*
X157206993Y-82138004D01*
X157184471Y-82129946D01*
X157162847Y-82119718D01*
X157142330Y-82107421D01*
X157123117Y-82093171D01*
X157105393Y-82077107D01*
X157089329Y-82059383D01*
X157075079Y-82040170D01*
X157062782Y-82019653D01*
X157052554Y-81998029D01*
X157044496Y-81975507D01*
X157038684Y-81952303D01*
X157035174Y-81928642D01*
X157034000Y-81904750D01*
X157034000Y-81417250D01*
X157035174Y-81393358D01*
X157038684Y-81369697D01*
X157044496Y-81346493D01*
X157052554Y-81323971D01*
X157062782Y-81302347D01*
X157075079Y-81281830D01*
X157089329Y-81262617D01*
X157105393Y-81244893D01*
X157123117Y-81228829D01*
X157142330Y-81214579D01*
X157162847Y-81202282D01*
X157184471Y-81192054D01*
X157206993Y-81183996D01*
X157230197Y-81178184D01*
X157253858Y-81174674D01*
X157277750Y-81173500D01*
X158190250Y-81173500D01*
X158214142Y-81174674D01*
X158214142Y-81174674D01*
G37*
D12*
X157734000Y-81661000D03*
D10*
G36*
X158214142Y-83049674D02*
X158237803Y-83053184D01*
X158261007Y-83058996D01*
X158283529Y-83067054D01*
X158305153Y-83077282D01*
X158325670Y-83089579D01*
X158344883Y-83103829D01*
X158362607Y-83119893D01*
X158378671Y-83137617D01*
X158392921Y-83156830D01*
X158405218Y-83177347D01*
X158415446Y-83198971D01*
X158423504Y-83221493D01*
X158429316Y-83244697D01*
X158432826Y-83268358D01*
X158434000Y-83292250D01*
X158434000Y-83779750D01*
X158432826Y-83803642D01*
X158429316Y-83827303D01*
X158423504Y-83850507D01*
X158415446Y-83873029D01*
X158405218Y-83894653D01*
X158392921Y-83915170D01*
X158378671Y-83934383D01*
X158362607Y-83952107D01*
X158344883Y-83968171D01*
X158325670Y-83982421D01*
X158305153Y-83994718D01*
X158283529Y-84004946D01*
X158261007Y-84013004D01*
X158237803Y-84018816D01*
X158214142Y-84022326D01*
X158190250Y-84023500D01*
X157277750Y-84023500D01*
X157253858Y-84022326D01*
X157230197Y-84018816D01*
X157206993Y-84013004D01*
X157184471Y-84004946D01*
X157162847Y-83994718D01*
X157142330Y-83982421D01*
X157123117Y-83968171D01*
X157105393Y-83952107D01*
X157089329Y-83934383D01*
X157075079Y-83915170D01*
X157062782Y-83894653D01*
X157052554Y-83873029D01*
X157044496Y-83850507D01*
X157038684Y-83827303D01*
X157035174Y-83803642D01*
X157034000Y-83779750D01*
X157034000Y-83292250D01*
X157035174Y-83268358D01*
X157038684Y-83244697D01*
X157044496Y-83221493D01*
X157052554Y-83198971D01*
X157062782Y-83177347D01*
X157075079Y-83156830D01*
X157089329Y-83137617D01*
X157105393Y-83119893D01*
X157123117Y-83103829D01*
X157142330Y-83089579D01*
X157162847Y-83077282D01*
X157184471Y-83067054D01*
X157206993Y-83058996D01*
X157230197Y-83053184D01*
X157253858Y-83049674D01*
X157277750Y-83048500D01*
X158190250Y-83048500D01*
X158214142Y-83049674D01*
X158214142Y-83049674D01*
G37*
D12*
X157734000Y-83536000D03*
G04 #@! TD*
D10*
G04 #@! TO.C,C26*
G36*
X164304505Y-113626204D02*
X164328773Y-113629804D01*
X164352572Y-113635765D01*
X164375671Y-113644030D01*
X164397850Y-113654520D01*
X164418893Y-113667132D01*
X164438599Y-113681747D01*
X164456777Y-113698223D01*
X164473253Y-113716401D01*
X164487868Y-113736107D01*
X164500480Y-113757150D01*
X164510970Y-113779329D01*
X164519235Y-113802428D01*
X164525196Y-113826227D01*
X164528796Y-113850495D01*
X164530000Y-113874999D01*
X164530000Y-114725001D01*
X164528796Y-114749505D01*
X164525196Y-114773773D01*
X164519235Y-114797572D01*
X164510970Y-114820671D01*
X164500480Y-114842850D01*
X164487868Y-114863893D01*
X164473253Y-114883599D01*
X164456777Y-114901777D01*
X164438599Y-114918253D01*
X164418893Y-114932868D01*
X164397850Y-114945480D01*
X164375671Y-114955970D01*
X164352572Y-114964235D01*
X164328773Y-114970196D01*
X164304505Y-114973796D01*
X164280001Y-114975000D01*
X163379999Y-114975000D01*
X163355495Y-114973796D01*
X163331227Y-114970196D01*
X163307428Y-114964235D01*
X163284329Y-114955970D01*
X163262150Y-114945480D01*
X163241107Y-114932868D01*
X163221401Y-114918253D01*
X163203223Y-114901777D01*
X163186747Y-114883599D01*
X163172132Y-114863893D01*
X163159520Y-114842850D01*
X163149030Y-114820671D01*
X163140765Y-114797572D01*
X163134804Y-114773773D01*
X163131204Y-114749505D01*
X163130000Y-114725001D01*
X163130000Y-113874999D01*
X163131204Y-113850495D01*
X163134804Y-113826227D01*
X163140765Y-113802428D01*
X163149030Y-113779329D01*
X163159520Y-113757150D01*
X163172132Y-113736107D01*
X163186747Y-113716401D01*
X163203223Y-113698223D01*
X163221401Y-113681747D01*
X163241107Y-113667132D01*
X163262150Y-113654520D01*
X163284329Y-113644030D01*
X163307428Y-113635765D01*
X163331227Y-113629804D01*
X163355495Y-113626204D01*
X163379999Y-113625000D01*
X164280001Y-113625000D01*
X164304505Y-113626204D01*
X164304505Y-113626204D01*
G37*
D13*
X163830000Y-114300000D03*
D10*
G36*
X161604505Y-113626204D02*
X161628773Y-113629804D01*
X161652572Y-113635765D01*
X161675671Y-113644030D01*
X161697850Y-113654520D01*
X161718893Y-113667132D01*
X161738599Y-113681747D01*
X161756777Y-113698223D01*
X161773253Y-113716401D01*
X161787868Y-113736107D01*
X161800480Y-113757150D01*
X161810970Y-113779329D01*
X161819235Y-113802428D01*
X161825196Y-113826227D01*
X161828796Y-113850495D01*
X161830000Y-113874999D01*
X161830000Y-114725001D01*
X161828796Y-114749505D01*
X161825196Y-114773773D01*
X161819235Y-114797572D01*
X161810970Y-114820671D01*
X161800480Y-114842850D01*
X161787868Y-114863893D01*
X161773253Y-114883599D01*
X161756777Y-114901777D01*
X161738599Y-114918253D01*
X161718893Y-114932868D01*
X161697850Y-114945480D01*
X161675671Y-114955970D01*
X161652572Y-114964235D01*
X161628773Y-114970196D01*
X161604505Y-114973796D01*
X161580001Y-114975000D01*
X160679999Y-114975000D01*
X160655495Y-114973796D01*
X160631227Y-114970196D01*
X160607428Y-114964235D01*
X160584329Y-114955970D01*
X160562150Y-114945480D01*
X160541107Y-114932868D01*
X160521401Y-114918253D01*
X160503223Y-114901777D01*
X160486747Y-114883599D01*
X160472132Y-114863893D01*
X160459520Y-114842850D01*
X160449030Y-114820671D01*
X160440765Y-114797572D01*
X160434804Y-114773773D01*
X160431204Y-114749505D01*
X160430000Y-114725001D01*
X160430000Y-113874999D01*
X160431204Y-113850495D01*
X160434804Y-113826227D01*
X160440765Y-113802428D01*
X160449030Y-113779329D01*
X160459520Y-113757150D01*
X160472132Y-113736107D01*
X160486747Y-113716401D01*
X160503223Y-113698223D01*
X160521401Y-113681747D01*
X160541107Y-113667132D01*
X160562150Y-113654520D01*
X160584329Y-113644030D01*
X160607428Y-113635765D01*
X160631227Y-113629804D01*
X160655495Y-113626204D01*
X160679999Y-113625000D01*
X161580001Y-113625000D01*
X161604505Y-113626204D01*
X161604505Y-113626204D01*
G37*
D13*
X161130000Y-114300000D03*
G04 #@! TD*
D10*
G04 #@! TO.C,L5*
G36*
X155491642Y-112458174D02*
X155515303Y-112461684D01*
X155538507Y-112467496D01*
X155561029Y-112475554D01*
X155582653Y-112485782D01*
X155603170Y-112498079D01*
X155622383Y-112512329D01*
X155640107Y-112528393D01*
X155656171Y-112546117D01*
X155670421Y-112565330D01*
X155682718Y-112585847D01*
X155692946Y-112607471D01*
X155701004Y-112629993D01*
X155706816Y-112653197D01*
X155710326Y-112676858D01*
X155711500Y-112700750D01*
X155711500Y-113613250D01*
X155710326Y-113637142D01*
X155706816Y-113660803D01*
X155701004Y-113684007D01*
X155692946Y-113706529D01*
X155682718Y-113728153D01*
X155670421Y-113748670D01*
X155656171Y-113767883D01*
X155640107Y-113785607D01*
X155622383Y-113801671D01*
X155603170Y-113815921D01*
X155582653Y-113828218D01*
X155561029Y-113838446D01*
X155538507Y-113846504D01*
X155515303Y-113852316D01*
X155491642Y-113855826D01*
X155467750Y-113857000D01*
X154980250Y-113857000D01*
X154956358Y-113855826D01*
X154932697Y-113852316D01*
X154909493Y-113846504D01*
X154886971Y-113838446D01*
X154865347Y-113828218D01*
X154844830Y-113815921D01*
X154825617Y-113801671D01*
X154807893Y-113785607D01*
X154791829Y-113767883D01*
X154777579Y-113748670D01*
X154765282Y-113728153D01*
X154755054Y-113706529D01*
X154746996Y-113684007D01*
X154741184Y-113660803D01*
X154737674Y-113637142D01*
X154736500Y-113613250D01*
X154736500Y-112700750D01*
X154737674Y-112676858D01*
X154741184Y-112653197D01*
X154746996Y-112629993D01*
X154755054Y-112607471D01*
X154765282Y-112585847D01*
X154777579Y-112565330D01*
X154791829Y-112546117D01*
X154807893Y-112528393D01*
X154825617Y-112512329D01*
X154844830Y-112498079D01*
X154865347Y-112485782D01*
X154886971Y-112475554D01*
X154909493Y-112467496D01*
X154932697Y-112461684D01*
X154956358Y-112458174D01*
X154980250Y-112457000D01*
X155467750Y-112457000D01*
X155491642Y-112458174D01*
X155491642Y-112458174D01*
G37*
D12*
X155224000Y-113157000D03*
D10*
G36*
X157366642Y-112458174D02*
X157390303Y-112461684D01*
X157413507Y-112467496D01*
X157436029Y-112475554D01*
X157457653Y-112485782D01*
X157478170Y-112498079D01*
X157497383Y-112512329D01*
X157515107Y-112528393D01*
X157531171Y-112546117D01*
X157545421Y-112565330D01*
X157557718Y-112585847D01*
X157567946Y-112607471D01*
X157576004Y-112629993D01*
X157581816Y-112653197D01*
X157585326Y-112676858D01*
X157586500Y-112700750D01*
X157586500Y-113613250D01*
X157585326Y-113637142D01*
X157581816Y-113660803D01*
X157576004Y-113684007D01*
X157567946Y-113706529D01*
X157557718Y-113728153D01*
X157545421Y-113748670D01*
X157531171Y-113767883D01*
X157515107Y-113785607D01*
X157497383Y-113801671D01*
X157478170Y-113815921D01*
X157457653Y-113828218D01*
X157436029Y-113838446D01*
X157413507Y-113846504D01*
X157390303Y-113852316D01*
X157366642Y-113855826D01*
X157342750Y-113857000D01*
X156855250Y-113857000D01*
X156831358Y-113855826D01*
X156807697Y-113852316D01*
X156784493Y-113846504D01*
X156761971Y-113838446D01*
X156740347Y-113828218D01*
X156719830Y-113815921D01*
X156700617Y-113801671D01*
X156682893Y-113785607D01*
X156666829Y-113767883D01*
X156652579Y-113748670D01*
X156640282Y-113728153D01*
X156630054Y-113706529D01*
X156621996Y-113684007D01*
X156616184Y-113660803D01*
X156612674Y-113637142D01*
X156611500Y-113613250D01*
X156611500Y-112700750D01*
X156612674Y-112676858D01*
X156616184Y-112653197D01*
X156621996Y-112629993D01*
X156630054Y-112607471D01*
X156640282Y-112585847D01*
X156652579Y-112565330D01*
X156666829Y-112546117D01*
X156682893Y-112528393D01*
X156700617Y-112512329D01*
X156719830Y-112498079D01*
X156740347Y-112485782D01*
X156761971Y-112475554D01*
X156784493Y-112467496D01*
X156807697Y-112461684D01*
X156831358Y-112458174D01*
X156855250Y-112457000D01*
X157342750Y-112457000D01*
X157366642Y-112458174D01*
X157366642Y-112458174D01*
G37*
D12*
X157099000Y-113157000D03*
G04 #@! TD*
D10*
G04 #@! TO.C,L1*
G36*
X157452142Y-92096674D02*
X157475803Y-92100184D01*
X157499007Y-92105996D01*
X157521529Y-92114054D01*
X157543153Y-92124282D01*
X157563670Y-92136579D01*
X157582883Y-92150829D01*
X157600607Y-92166893D01*
X157616671Y-92184617D01*
X157630921Y-92203830D01*
X157643218Y-92224347D01*
X157653446Y-92245971D01*
X157661504Y-92268493D01*
X157667316Y-92291697D01*
X157670826Y-92315358D01*
X157672000Y-92339250D01*
X157672000Y-92826750D01*
X157670826Y-92850642D01*
X157667316Y-92874303D01*
X157661504Y-92897507D01*
X157653446Y-92920029D01*
X157643218Y-92941653D01*
X157630921Y-92962170D01*
X157616671Y-92981383D01*
X157600607Y-92999107D01*
X157582883Y-93015171D01*
X157563670Y-93029421D01*
X157543153Y-93041718D01*
X157521529Y-93051946D01*
X157499007Y-93060004D01*
X157475803Y-93065816D01*
X157452142Y-93069326D01*
X157428250Y-93070500D01*
X156515750Y-93070500D01*
X156491858Y-93069326D01*
X156468197Y-93065816D01*
X156444993Y-93060004D01*
X156422471Y-93051946D01*
X156400847Y-93041718D01*
X156380330Y-93029421D01*
X156361117Y-93015171D01*
X156343393Y-92999107D01*
X156327329Y-92981383D01*
X156313079Y-92962170D01*
X156300782Y-92941653D01*
X156290554Y-92920029D01*
X156282496Y-92897507D01*
X156276684Y-92874303D01*
X156273174Y-92850642D01*
X156272000Y-92826750D01*
X156272000Y-92339250D01*
X156273174Y-92315358D01*
X156276684Y-92291697D01*
X156282496Y-92268493D01*
X156290554Y-92245971D01*
X156300782Y-92224347D01*
X156313079Y-92203830D01*
X156327329Y-92184617D01*
X156343393Y-92166893D01*
X156361117Y-92150829D01*
X156380330Y-92136579D01*
X156400847Y-92124282D01*
X156422471Y-92114054D01*
X156444993Y-92105996D01*
X156468197Y-92100184D01*
X156491858Y-92096674D01*
X156515750Y-92095500D01*
X157428250Y-92095500D01*
X157452142Y-92096674D01*
X157452142Y-92096674D01*
G37*
D12*
X156972000Y-92583000D03*
D10*
G36*
X157452142Y-93971674D02*
X157475803Y-93975184D01*
X157499007Y-93980996D01*
X157521529Y-93989054D01*
X157543153Y-93999282D01*
X157563670Y-94011579D01*
X157582883Y-94025829D01*
X157600607Y-94041893D01*
X157616671Y-94059617D01*
X157630921Y-94078830D01*
X157643218Y-94099347D01*
X157653446Y-94120971D01*
X157661504Y-94143493D01*
X157667316Y-94166697D01*
X157670826Y-94190358D01*
X157672000Y-94214250D01*
X157672000Y-94701750D01*
X157670826Y-94725642D01*
X157667316Y-94749303D01*
X157661504Y-94772507D01*
X157653446Y-94795029D01*
X157643218Y-94816653D01*
X157630921Y-94837170D01*
X157616671Y-94856383D01*
X157600607Y-94874107D01*
X157582883Y-94890171D01*
X157563670Y-94904421D01*
X157543153Y-94916718D01*
X157521529Y-94926946D01*
X157499007Y-94935004D01*
X157475803Y-94940816D01*
X157452142Y-94944326D01*
X157428250Y-94945500D01*
X156515750Y-94945500D01*
X156491858Y-94944326D01*
X156468197Y-94940816D01*
X156444993Y-94935004D01*
X156422471Y-94926946D01*
X156400847Y-94916718D01*
X156380330Y-94904421D01*
X156361117Y-94890171D01*
X156343393Y-94874107D01*
X156327329Y-94856383D01*
X156313079Y-94837170D01*
X156300782Y-94816653D01*
X156290554Y-94795029D01*
X156282496Y-94772507D01*
X156276684Y-94749303D01*
X156273174Y-94725642D01*
X156272000Y-94701750D01*
X156272000Y-94214250D01*
X156273174Y-94190358D01*
X156276684Y-94166697D01*
X156282496Y-94143493D01*
X156290554Y-94120971D01*
X156300782Y-94099347D01*
X156313079Y-94078830D01*
X156327329Y-94059617D01*
X156343393Y-94041893D01*
X156361117Y-94025829D01*
X156380330Y-94011579D01*
X156400847Y-93999282D01*
X156422471Y-93989054D01*
X156444993Y-93980996D01*
X156468197Y-93975184D01*
X156491858Y-93971674D01*
X156515750Y-93970500D01*
X157428250Y-93970500D01*
X157452142Y-93971674D01*
X157452142Y-93971674D01*
G37*
D12*
X156972000Y-94458000D03*
G04 #@! TD*
D10*
G04 #@! TO.C,L2*
G36*
X168161642Y-107505174D02*
X168185303Y-107508684D01*
X168208507Y-107514496D01*
X168231029Y-107522554D01*
X168252653Y-107532782D01*
X168273170Y-107545079D01*
X168292383Y-107559329D01*
X168310107Y-107575393D01*
X168326171Y-107593117D01*
X168340421Y-107612330D01*
X168352718Y-107632847D01*
X168362946Y-107654471D01*
X168371004Y-107676993D01*
X168376816Y-107700197D01*
X168380326Y-107723858D01*
X168381500Y-107747750D01*
X168381500Y-108660250D01*
X168380326Y-108684142D01*
X168376816Y-108707803D01*
X168371004Y-108731007D01*
X168362946Y-108753529D01*
X168352718Y-108775153D01*
X168340421Y-108795670D01*
X168326171Y-108814883D01*
X168310107Y-108832607D01*
X168292383Y-108848671D01*
X168273170Y-108862921D01*
X168252653Y-108875218D01*
X168231029Y-108885446D01*
X168208507Y-108893504D01*
X168185303Y-108899316D01*
X168161642Y-108902826D01*
X168137750Y-108904000D01*
X167650250Y-108904000D01*
X167626358Y-108902826D01*
X167602697Y-108899316D01*
X167579493Y-108893504D01*
X167556971Y-108885446D01*
X167535347Y-108875218D01*
X167514830Y-108862921D01*
X167495617Y-108848671D01*
X167477893Y-108832607D01*
X167461829Y-108814883D01*
X167447579Y-108795670D01*
X167435282Y-108775153D01*
X167425054Y-108753529D01*
X167416996Y-108731007D01*
X167411184Y-108707803D01*
X167407674Y-108684142D01*
X167406500Y-108660250D01*
X167406500Y-107747750D01*
X167407674Y-107723858D01*
X167411184Y-107700197D01*
X167416996Y-107676993D01*
X167425054Y-107654471D01*
X167435282Y-107632847D01*
X167447579Y-107612330D01*
X167461829Y-107593117D01*
X167477893Y-107575393D01*
X167495617Y-107559329D01*
X167514830Y-107545079D01*
X167535347Y-107532782D01*
X167556971Y-107522554D01*
X167579493Y-107514496D01*
X167602697Y-107508684D01*
X167626358Y-107505174D01*
X167650250Y-107504000D01*
X168137750Y-107504000D01*
X168161642Y-107505174D01*
X168161642Y-107505174D01*
G37*
D12*
X167894000Y-108204000D03*
D10*
G36*
X166286642Y-107505174D02*
X166310303Y-107508684D01*
X166333507Y-107514496D01*
X166356029Y-107522554D01*
X166377653Y-107532782D01*
X166398170Y-107545079D01*
X166417383Y-107559329D01*
X166435107Y-107575393D01*
X166451171Y-107593117D01*
X166465421Y-107612330D01*
X166477718Y-107632847D01*
X166487946Y-107654471D01*
X166496004Y-107676993D01*
X166501816Y-107700197D01*
X166505326Y-107723858D01*
X166506500Y-107747750D01*
X166506500Y-108660250D01*
X166505326Y-108684142D01*
X166501816Y-108707803D01*
X166496004Y-108731007D01*
X166487946Y-108753529D01*
X166477718Y-108775153D01*
X166465421Y-108795670D01*
X166451171Y-108814883D01*
X166435107Y-108832607D01*
X166417383Y-108848671D01*
X166398170Y-108862921D01*
X166377653Y-108875218D01*
X166356029Y-108885446D01*
X166333507Y-108893504D01*
X166310303Y-108899316D01*
X166286642Y-108902826D01*
X166262750Y-108904000D01*
X165775250Y-108904000D01*
X165751358Y-108902826D01*
X165727697Y-108899316D01*
X165704493Y-108893504D01*
X165681971Y-108885446D01*
X165660347Y-108875218D01*
X165639830Y-108862921D01*
X165620617Y-108848671D01*
X165602893Y-108832607D01*
X165586829Y-108814883D01*
X165572579Y-108795670D01*
X165560282Y-108775153D01*
X165550054Y-108753529D01*
X165541996Y-108731007D01*
X165536184Y-108707803D01*
X165532674Y-108684142D01*
X165531500Y-108660250D01*
X165531500Y-107747750D01*
X165532674Y-107723858D01*
X165536184Y-107700197D01*
X165541996Y-107676993D01*
X165550054Y-107654471D01*
X165560282Y-107632847D01*
X165572579Y-107612330D01*
X165586829Y-107593117D01*
X165602893Y-107575393D01*
X165620617Y-107559329D01*
X165639830Y-107545079D01*
X165660347Y-107532782D01*
X165681971Y-107522554D01*
X165704493Y-107514496D01*
X165727697Y-107508684D01*
X165751358Y-107505174D01*
X165775250Y-107504000D01*
X166262750Y-107504000D01*
X166286642Y-107505174D01*
X166286642Y-107505174D01*
G37*
D12*
X166019000Y-108204000D03*
G04 #@! TD*
M02*
