G04 #@! TF.GenerationSoftware,KiCad,Pcbnew,(5.0.2)-1*
G04 #@! TF.CreationDate,2019-02-01T15:19:08+01:00*
G04 #@! TF.ProjectId,hac,6861632e-6b69-4636-9164-5f7063625858,rev?*
G04 #@! TF.SameCoordinates,Original*
G04 #@! TF.FileFunction,Legend,Bot*
G04 #@! TF.FilePolarity,Positive*
%FSLAX46Y46*%
G04 Gerber Fmt 4.6, Leading zero omitted, Abs format (unit mm)*
G04 Created by KiCad (PCBNEW (5.0.2)-1) date 2/1/2019 3:19:08 PM*
%MOMM*%
%LPD*%
G01*
G04 APERTURE LIST*
%ADD10C,0.120000*%
%ADD11C,0.150000*%
G04 APERTURE END LIST*
D10*
G04 #@! TO.C,C30*
X159349221Y-112905000D02*
X159674779Y-112905000D01*
X159349221Y-111885000D02*
X159674779Y-111885000D01*
G04 #@! TO.C,R31*
X157609000Y-115885279D02*
X157609000Y-115559721D01*
X156589000Y-115885279D02*
X156589000Y-115559721D01*
G04 #@! TO.C,C13*
X164594000Y-82133221D02*
X164594000Y-82458779D01*
X163574000Y-82133221D02*
X163574000Y-82458779D01*
G04 #@! TO.C,C12*
X163574000Y-92085279D02*
X163574000Y-91759721D01*
X164594000Y-92085279D02*
X164594000Y-91759721D01*
G04 #@! TO.C,C9*
X155446000Y-82031721D02*
X155446000Y-82357279D01*
X156466000Y-82031721D02*
X156466000Y-82357279D01*
G04 #@! TO.C,C14*
X166304279Y-84326000D02*
X165978721Y-84326000D01*
X166304279Y-85346000D02*
X165978721Y-85346000D01*
G04 #@! TO.C,C15*
X166761279Y-91188000D02*
X166435721Y-91188000D01*
X166761279Y-90168000D02*
X166435721Y-90168000D01*
G04 #@! TO.C,C18*
X159120721Y-107952000D02*
X159446279Y-107952000D01*
X159120721Y-106932000D02*
X159446279Y-106932000D01*
G04 #@! TO.C,C19*
X163510279Y-108714000D02*
X163184721Y-108714000D01*
X163510279Y-107694000D02*
X163184721Y-107694000D01*
G04 #@! TO.C,C22*
X159628721Y-116715000D02*
X159954279Y-116715000D01*
X159628721Y-115695000D02*
X159954279Y-115695000D01*
G04 #@! TO.C,C23*
X163510279Y-117096000D02*
X163184721Y-117096000D01*
X163510279Y-116076000D02*
X163184721Y-116076000D01*
G04 #@! TO.C,C27*
X156275721Y-91442000D02*
X156601279Y-91442000D01*
X156275721Y-90422000D02*
X156601279Y-90422000D01*
G04 #@! TO.C,C8*
X156126922Y-89864000D02*
X156644078Y-89864000D01*
X156126922Y-88444000D02*
X156644078Y-88444000D01*
G04 #@! TO.C,C7*
X157024000Y-82339922D02*
X157024000Y-82857078D01*
X158444000Y-82339922D02*
X158444000Y-82857078D01*
G04 #@! TO.C,C26*
X160880000Y-113365000D02*
X164790000Y-113365000D01*
X164790000Y-113365000D02*
X164790000Y-115235000D01*
X164790000Y-115235000D02*
X160880000Y-115235000D01*
G04 #@! TO.C,L5*
X155902922Y-113867000D02*
X156420078Y-113867000D01*
X155902922Y-112447000D02*
X156420078Y-112447000D01*
G04 #@! TO.C,L1*
X156262000Y-93779078D02*
X156262000Y-93261922D01*
X157682000Y-93779078D02*
X157682000Y-93261922D01*
G04 #@! TO.C,L2*
X167215078Y-107494000D02*
X166697922Y-107494000D01*
X167215078Y-108914000D02*
X166697922Y-108914000D01*
G04 #@! TO.C,C30*
D11*
X160154857Y-111355142D02*
X160202476Y-111402761D01*
X160345333Y-111450380D01*
X160440571Y-111450380D01*
X160583428Y-111402761D01*
X160678666Y-111307523D01*
X160726285Y-111212285D01*
X160773904Y-111021809D01*
X160773904Y-110878952D01*
X160726285Y-110688476D01*
X160678666Y-110593238D01*
X160583428Y-110498000D01*
X160440571Y-110450380D01*
X160345333Y-110450380D01*
X160202476Y-110498000D01*
X160154857Y-110545619D01*
X159821523Y-110450380D02*
X159202476Y-110450380D01*
X159535809Y-110831333D01*
X159392952Y-110831333D01*
X159297714Y-110878952D01*
X159250095Y-110926571D01*
X159202476Y-111021809D01*
X159202476Y-111259904D01*
X159250095Y-111355142D01*
X159297714Y-111402761D01*
X159392952Y-111450380D01*
X159678666Y-111450380D01*
X159773904Y-111402761D01*
X159821523Y-111355142D01*
X158583428Y-110450380D02*
X158488190Y-110450380D01*
X158392952Y-110498000D01*
X158345333Y-110545619D01*
X158297714Y-110640857D01*
X158250095Y-110831333D01*
X158250095Y-111069428D01*
X158297714Y-111259904D01*
X158345333Y-111355142D01*
X158392952Y-111402761D01*
X158488190Y-111450380D01*
X158583428Y-111450380D01*
X158678666Y-111402761D01*
X158726285Y-111355142D01*
X158773904Y-111259904D01*
X158821523Y-111069428D01*
X158821523Y-110831333D01*
X158773904Y-110640857D01*
X158726285Y-110545619D01*
X158678666Y-110498000D01*
X158583428Y-110450380D01*
G04 #@! TO.C,R31*
X156027380Y-116578142D02*
X155551190Y-116244809D01*
X156027380Y-116006714D02*
X155027380Y-116006714D01*
X155027380Y-116387666D01*
X155075000Y-116482904D01*
X155122619Y-116530523D01*
X155217857Y-116578142D01*
X155360714Y-116578142D01*
X155455952Y-116530523D01*
X155503571Y-116482904D01*
X155551190Y-116387666D01*
X155551190Y-116006714D01*
X155027380Y-116911476D02*
X155027380Y-117530523D01*
X155408333Y-117197190D01*
X155408333Y-117340047D01*
X155455952Y-117435285D01*
X155503571Y-117482904D01*
X155598809Y-117530523D01*
X155836904Y-117530523D01*
X155932142Y-117482904D01*
X155979761Y-117435285D01*
X156027380Y-117340047D01*
X156027380Y-117054333D01*
X155979761Y-116959095D01*
X155932142Y-116911476D01*
X156027380Y-118482904D02*
X156027380Y-117911476D01*
X156027380Y-118197190D02*
X155027380Y-118197190D01*
X155170238Y-118101952D01*
X155265476Y-118006714D01*
X155313095Y-117911476D01*
G04 #@! TO.C,C13*
X163011142Y-81653142D02*
X163058761Y-81605523D01*
X163106380Y-81462666D01*
X163106380Y-81367428D01*
X163058761Y-81224571D01*
X162963523Y-81129333D01*
X162868285Y-81081714D01*
X162677809Y-81034095D01*
X162534952Y-81034095D01*
X162344476Y-81081714D01*
X162249238Y-81129333D01*
X162154000Y-81224571D01*
X162106380Y-81367428D01*
X162106380Y-81462666D01*
X162154000Y-81605523D01*
X162201619Y-81653142D01*
X163106380Y-82605523D02*
X163106380Y-82034095D01*
X163106380Y-82319809D02*
X162106380Y-82319809D01*
X162249238Y-82224571D01*
X162344476Y-82129333D01*
X162392095Y-82034095D01*
X162106380Y-82938857D02*
X162106380Y-83557904D01*
X162487333Y-83224571D01*
X162487333Y-83367428D01*
X162534952Y-83462666D01*
X162582571Y-83510285D01*
X162677809Y-83557904D01*
X162915904Y-83557904D01*
X163011142Y-83510285D01*
X163058761Y-83462666D01*
X163106380Y-83367428D01*
X163106380Y-83081714D01*
X163058761Y-82986476D01*
X163011142Y-82938857D01*
G04 #@! TO.C,C12*
X163044142Y-91305142D02*
X163091761Y-91257523D01*
X163139380Y-91114666D01*
X163139380Y-91019428D01*
X163091761Y-90876571D01*
X162996523Y-90781333D01*
X162901285Y-90733714D01*
X162710809Y-90686095D01*
X162567952Y-90686095D01*
X162377476Y-90733714D01*
X162282238Y-90781333D01*
X162187000Y-90876571D01*
X162139380Y-91019428D01*
X162139380Y-91114666D01*
X162187000Y-91257523D01*
X162234619Y-91305142D01*
X163139380Y-92257523D02*
X163139380Y-91686095D01*
X163139380Y-91971809D02*
X162139380Y-91971809D01*
X162282238Y-91876571D01*
X162377476Y-91781333D01*
X162425095Y-91686095D01*
X162234619Y-92638476D02*
X162187000Y-92686095D01*
X162139380Y-92781333D01*
X162139380Y-93019428D01*
X162187000Y-93114666D01*
X162234619Y-93162285D01*
X162329857Y-93209904D01*
X162425095Y-93209904D01*
X162567952Y-93162285D01*
X163139380Y-92590857D01*
X163139380Y-93209904D01*
G04 #@! TO.C,C9*
X154916142Y-82002333D02*
X154963761Y-81954714D01*
X155011380Y-81811857D01*
X155011380Y-81716619D01*
X154963761Y-81573761D01*
X154868523Y-81478523D01*
X154773285Y-81430904D01*
X154582809Y-81383285D01*
X154439952Y-81383285D01*
X154249476Y-81430904D01*
X154154238Y-81478523D01*
X154059000Y-81573761D01*
X154011380Y-81716619D01*
X154011380Y-81811857D01*
X154059000Y-81954714D01*
X154106619Y-82002333D01*
X155011380Y-82478523D02*
X155011380Y-82669000D01*
X154963761Y-82764238D01*
X154916142Y-82811857D01*
X154773285Y-82907095D01*
X154582809Y-82954714D01*
X154201857Y-82954714D01*
X154106619Y-82907095D01*
X154059000Y-82859476D01*
X154011380Y-82764238D01*
X154011380Y-82573761D01*
X154059000Y-82478523D01*
X154106619Y-82430904D01*
X154201857Y-82383285D01*
X154439952Y-82383285D01*
X154535190Y-82430904D01*
X154582809Y-82478523D01*
X154630428Y-82573761D01*
X154630428Y-82764238D01*
X154582809Y-82859476D01*
X154535190Y-82907095D01*
X154439952Y-82954714D01*
G04 #@! TO.C,C14*
X167012857Y-83796142D02*
X167060476Y-83843761D01*
X167203333Y-83891380D01*
X167298571Y-83891380D01*
X167441428Y-83843761D01*
X167536666Y-83748523D01*
X167584285Y-83653285D01*
X167631904Y-83462809D01*
X167631904Y-83319952D01*
X167584285Y-83129476D01*
X167536666Y-83034238D01*
X167441428Y-82939000D01*
X167298571Y-82891380D01*
X167203333Y-82891380D01*
X167060476Y-82939000D01*
X167012857Y-82986619D01*
X166060476Y-83891380D02*
X166631904Y-83891380D01*
X166346190Y-83891380D02*
X166346190Y-82891380D01*
X166441428Y-83034238D01*
X166536666Y-83129476D01*
X166631904Y-83177095D01*
X165203333Y-83224714D02*
X165203333Y-83891380D01*
X165441428Y-82843761D02*
X165679523Y-83558047D01*
X165060476Y-83558047D01*
G04 #@! TO.C,C15*
X167241357Y-89605142D02*
X167288976Y-89652761D01*
X167431833Y-89700380D01*
X167527071Y-89700380D01*
X167669928Y-89652761D01*
X167765166Y-89557523D01*
X167812785Y-89462285D01*
X167860404Y-89271809D01*
X167860404Y-89128952D01*
X167812785Y-88938476D01*
X167765166Y-88843238D01*
X167669928Y-88748000D01*
X167527071Y-88700380D01*
X167431833Y-88700380D01*
X167288976Y-88748000D01*
X167241357Y-88795619D01*
X166288976Y-89700380D02*
X166860404Y-89700380D01*
X166574690Y-89700380D02*
X166574690Y-88700380D01*
X166669928Y-88843238D01*
X166765166Y-88938476D01*
X166860404Y-88986095D01*
X165384214Y-88700380D02*
X165860404Y-88700380D01*
X165908023Y-89176571D01*
X165860404Y-89128952D01*
X165765166Y-89081333D01*
X165527071Y-89081333D01*
X165431833Y-89128952D01*
X165384214Y-89176571D01*
X165336595Y-89271809D01*
X165336595Y-89509904D01*
X165384214Y-89605142D01*
X165431833Y-89652761D01*
X165527071Y-89700380D01*
X165765166Y-89700380D01*
X165860404Y-89652761D01*
X165908023Y-89605142D01*
G04 #@! TO.C,C18*
X159926357Y-109229142D02*
X159973976Y-109276761D01*
X160116833Y-109324380D01*
X160212071Y-109324380D01*
X160354928Y-109276761D01*
X160450166Y-109181523D01*
X160497785Y-109086285D01*
X160545404Y-108895809D01*
X160545404Y-108752952D01*
X160497785Y-108562476D01*
X160450166Y-108467238D01*
X160354928Y-108372000D01*
X160212071Y-108324380D01*
X160116833Y-108324380D01*
X159973976Y-108372000D01*
X159926357Y-108419619D01*
X158973976Y-109324380D02*
X159545404Y-109324380D01*
X159259690Y-109324380D02*
X159259690Y-108324380D01*
X159354928Y-108467238D01*
X159450166Y-108562476D01*
X159545404Y-108610095D01*
X158402547Y-108752952D02*
X158497785Y-108705333D01*
X158545404Y-108657714D01*
X158593023Y-108562476D01*
X158593023Y-108514857D01*
X158545404Y-108419619D01*
X158497785Y-108372000D01*
X158402547Y-108324380D01*
X158212071Y-108324380D01*
X158116833Y-108372000D01*
X158069214Y-108419619D01*
X158021595Y-108514857D01*
X158021595Y-108562476D01*
X158069214Y-108657714D01*
X158116833Y-108705333D01*
X158212071Y-108752952D01*
X158402547Y-108752952D01*
X158497785Y-108800571D01*
X158545404Y-108848190D01*
X158593023Y-108943428D01*
X158593023Y-109133904D01*
X158545404Y-109229142D01*
X158497785Y-109276761D01*
X158402547Y-109324380D01*
X158212071Y-109324380D01*
X158116833Y-109276761D01*
X158069214Y-109229142D01*
X158021595Y-109133904D01*
X158021595Y-108943428D01*
X158069214Y-108848190D01*
X158116833Y-108800571D01*
X158212071Y-108752952D01*
G04 #@! TO.C,C19*
X163990357Y-107131142D02*
X164037976Y-107178761D01*
X164180833Y-107226380D01*
X164276071Y-107226380D01*
X164418928Y-107178761D01*
X164514166Y-107083523D01*
X164561785Y-106988285D01*
X164609404Y-106797809D01*
X164609404Y-106654952D01*
X164561785Y-106464476D01*
X164514166Y-106369238D01*
X164418928Y-106274000D01*
X164276071Y-106226380D01*
X164180833Y-106226380D01*
X164037976Y-106274000D01*
X163990357Y-106321619D01*
X163037976Y-107226380D02*
X163609404Y-107226380D01*
X163323690Y-107226380D02*
X163323690Y-106226380D01*
X163418928Y-106369238D01*
X163514166Y-106464476D01*
X163609404Y-106512095D01*
X162561785Y-107226380D02*
X162371309Y-107226380D01*
X162276071Y-107178761D01*
X162228452Y-107131142D01*
X162133214Y-106988285D01*
X162085595Y-106797809D01*
X162085595Y-106416857D01*
X162133214Y-106321619D01*
X162180833Y-106274000D01*
X162276071Y-106226380D01*
X162466547Y-106226380D01*
X162561785Y-106274000D01*
X162609404Y-106321619D01*
X162657023Y-106416857D01*
X162657023Y-106654952D01*
X162609404Y-106750190D01*
X162561785Y-106797809D01*
X162466547Y-106845428D01*
X162276071Y-106845428D01*
X162180833Y-106797809D01*
X162133214Y-106750190D01*
X162085595Y-106654952D01*
G04 #@! TO.C,C22*
X160434357Y-118213142D02*
X160481976Y-118260761D01*
X160624833Y-118308380D01*
X160720071Y-118308380D01*
X160862928Y-118260761D01*
X160958166Y-118165523D01*
X161005785Y-118070285D01*
X161053404Y-117879809D01*
X161053404Y-117736952D01*
X161005785Y-117546476D01*
X160958166Y-117451238D01*
X160862928Y-117356000D01*
X160720071Y-117308380D01*
X160624833Y-117308380D01*
X160481976Y-117356000D01*
X160434357Y-117403619D01*
X160053404Y-117403619D02*
X160005785Y-117356000D01*
X159910547Y-117308380D01*
X159672452Y-117308380D01*
X159577214Y-117356000D01*
X159529595Y-117403619D01*
X159481976Y-117498857D01*
X159481976Y-117594095D01*
X159529595Y-117736952D01*
X160101023Y-118308380D01*
X159481976Y-118308380D01*
X159101023Y-117403619D02*
X159053404Y-117356000D01*
X158958166Y-117308380D01*
X158720071Y-117308380D01*
X158624833Y-117356000D01*
X158577214Y-117403619D01*
X158529595Y-117498857D01*
X158529595Y-117594095D01*
X158577214Y-117736952D01*
X159148642Y-118308380D01*
X158529595Y-118308380D01*
G04 #@! TO.C,C23*
X164599857Y-118594142D02*
X164647476Y-118641761D01*
X164790333Y-118689380D01*
X164885571Y-118689380D01*
X165028428Y-118641761D01*
X165123666Y-118546523D01*
X165171285Y-118451285D01*
X165218904Y-118260809D01*
X165218904Y-118117952D01*
X165171285Y-117927476D01*
X165123666Y-117832238D01*
X165028428Y-117737000D01*
X164885571Y-117689380D01*
X164790333Y-117689380D01*
X164647476Y-117737000D01*
X164599857Y-117784619D01*
X164218904Y-117784619D02*
X164171285Y-117737000D01*
X164076047Y-117689380D01*
X163837952Y-117689380D01*
X163742714Y-117737000D01*
X163695095Y-117784619D01*
X163647476Y-117879857D01*
X163647476Y-117975095D01*
X163695095Y-118117952D01*
X164266523Y-118689380D01*
X163647476Y-118689380D01*
X163314142Y-117689380D02*
X162695095Y-117689380D01*
X163028428Y-118070333D01*
X162885571Y-118070333D01*
X162790333Y-118117952D01*
X162742714Y-118165571D01*
X162695095Y-118260809D01*
X162695095Y-118498904D01*
X162742714Y-118594142D01*
X162790333Y-118641761D01*
X162885571Y-118689380D01*
X163171285Y-118689380D01*
X163266523Y-118641761D01*
X163314142Y-118594142D01*
G04 #@! TO.C,C27*
X154058857Y-91416142D02*
X154106476Y-91463761D01*
X154249333Y-91511380D01*
X154344571Y-91511380D01*
X154487428Y-91463761D01*
X154582666Y-91368523D01*
X154630285Y-91273285D01*
X154677904Y-91082809D01*
X154677904Y-90939952D01*
X154630285Y-90749476D01*
X154582666Y-90654238D01*
X154487428Y-90559000D01*
X154344571Y-90511380D01*
X154249333Y-90511380D01*
X154106476Y-90559000D01*
X154058857Y-90606619D01*
X153677904Y-90606619D02*
X153630285Y-90559000D01*
X153535047Y-90511380D01*
X153296952Y-90511380D01*
X153201714Y-90559000D01*
X153154095Y-90606619D01*
X153106476Y-90701857D01*
X153106476Y-90797095D01*
X153154095Y-90939952D01*
X153725523Y-91511380D01*
X153106476Y-91511380D01*
X152773142Y-90511380D02*
X152106476Y-90511380D01*
X152535047Y-91511380D01*
G04 #@! TO.C,C8*
X153836666Y-89511142D02*
X153884285Y-89558761D01*
X154027142Y-89606380D01*
X154122380Y-89606380D01*
X154265238Y-89558761D01*
X154360476Y-89463523D01*
X154408095Y-89368285D01*
X154455714Y-89177809D01*
X154455714Y-89034952D01*
X154408095Y-88844476D01*
X154360476Y-88749238D01*
X154265238Y-88654000D01*
X154122380Y-88606380D01*
X154027142Y-88606380D01*
X153884285Y-88654000D01*
X153836666Y-88701619D01*
X153265238Y-89034952D02*
X153360476Y-88987333D01*
X153408095Y-88939714D01*
X153455714Y-88844476D01*
X153455714Y-88796857D01*
X153408095Y-88701619D01*
X153360476Y-88654000D01*
X153265238Y-88606380D01*
X153074761Y-88606380D01*
X152979523Y-88654000D01*
X152931904Y-88701619D01*
X152884285Y-88796857D01*
X152884285Y-88844476D01*
X152931904Y-88939714D01*
X152979523Y-88987333D01*
X153074761Y-89034952D01*
X153265238Y-89034952D01*
X153360476Y-89082571D01*
X153408095Y-89130190D01*
X153455714Y-89225428D01*
X153455714Y-89415904D01*
X153408095Y-89511142D01*
X153360476Y-89558761D01*
X153265238Y-89606380D01*
X153074761Y-89606380D01*
X152979523Y-89558761D01*
X152931904Y-89511142D01*
X152884285Y-89415904D01*
X152884285Y-89225428D01*
X152931904Y-89130190D01*
X152979523Y-89082571D01*
X153074761Y-89034952D01*
G04 #@! TO.C,C7*
X159742142Y-82256333D02*
X159789761Y-82208714D01*
X159837380Y-82065857D01*
X159837380Y-81970619D01*
X159789761Y-81827761D01*
X159694523Y-81732523D01*
X159599285Y-81684904D01*
X159408809Y-81637285D01*
X159265952Y-81637285D01*
X159075476Y-81684904D01*
X158980238Y-81732523D01*
X158885000Y-81827761D01*
X158837380Y-81970619D01*
X158837380Y-82065857D01*
X158885000Y-82208714D01*
X158932619Y-82256333D01*
X158837380Y-82589666D02*
X158837380Y-83256333D01*
X159837380Y-82827761D01*
G04 #@! TO.C,C26*
X163837857Y-112907142D02*
X163885476Y-112954761D01*
X164028333Y-113002380D01*
X164123571Y-113002380D01*
X164266428Y-112954761D01*
X164361666Y-112859523D01*
X164409285Y-112764285D01*
X164456904Y-112573809D01*
X164456904Y-112430952D01*
X164409285Y-112240476D01*
X164361666Y-112145238D01*
X164266428Y-112050000D01*
X164123571Y-112002380D01*
X164028333Y-112002380D01*
X163885476Y-112050000D01*
X163837857Y-112097619D01*
X163456904Y-112097619D02*
X163409285Y-112050000D01*
X163314047Y-112002380D01*
X163075952Y-112002380D01*
X162980714Y-112050000D01*
X162933095Y-112097619D01*
X162885476Y-112192857D01*
X162885476Y-112288095D01*
X162933095Y-112430952D01*
X163504523Y-113002380D01*
X162885476Y-113002380D01*
X162028333Y-112002380D02*
X162218809Y-112002380D01*
X162314047Y-112050000D01*
X162361666Y-112097619D01*
X162456904Y-112240476D01*
X162504523Y-112430952D01*
X162504523Y-112811904D01*
X162456904Y-112907142D01*
X162409285Y-112954761D01*
X162314047Y-113002380D01*
X162123571Y-113002380D01*
X162028333Y-112954761D01*
X161980714Y-112907142D01*
X161933095Y-112811904D01*
X161933095Y-112573809D01*
X161980714Y-112478571D01*
X162028333Y-112430952D01*
X162123571Y-112383333D01*
X162314047Y-112383333D01*
X162409285Y-112430952D01*
X162456904Y-112478571D01*
X162504523Y-112573809D01*
G04 #@! TO.C,L5*
X153709666Y-113609380D02*
X154185857Y-113609380D01*
X154185857Y-112609380D01*
X152900142Y-112609380D02*
X153376333Y-112609380D01*
X153423952Y-113085571D01*
X153376333Y-113037952D01*
X153281095Y-112990333D01*
X153043000Y-112990333D01*
X152947761Y-113037952D01*
X152900142Y-113085571D01*
X152852523Y-113180809D01*
X152852523Y-113418904D01*
X152900142Y-113514142D01*
X152947761Y-113561761D01*
X153043000Y-113609380D01*
X153281095Y-113609380D01*
X153376333Y-113561761D01*
X153423952Y-113514142D01*
G04 #@! TO.C,L1*
X159074380Y-93353833D02*
X159074380Y-92877642D01*
X158074380Y-92877642D01*
X159074380Y-94210976D02*
X159074380Y-93639547D01*
X159074380Y-93925261D02*
X158074380Y-93925261D01*
X158217238Y-93830023D01*
X158312476Y-93734785D01*
X158360095Y-93639547D01*
G04 #@! TO.C,L2*
X167123166Y-107006380D02*
X167599357Y-107006380D01*
X167599357Y-106006380D01*
X166837452Y-106101619D02*
X166789833Y-106054000D01*
X166694595Y-106006380D01*
X166456500Y-106006380D01*
X166361261Y-106054000D01*
X166313642Y-106101619D01*
X166266023Y-106196857D01*
X166266023Y-106292095D01*
X166313642Y-106434952D01*
X166885071Y-107006380D01*
X166266023Y-107006380D01*
G04 #@! TD*
M02*
