G04 #@! TF.GenerationSoftware,KiCad,Pcbnew,(5.0.2)-1*
G04 #@! TF.CreationDate,2019-02-01T15:19:08+01:00*
G04 #@! TF.ProjectId,hac,6861632e-6b69-4636-9164-5f7063625858,rev?*
G04 #@! TF.SameCoordinates,Original*
G04 #@! TF.FileFunction,Copper,L2,Bot*
G04 #@! TF.FilePolarity,Positive*
%FSLAX46Y46*%
G04 Gerber Fmt 4.6, Leading zero omitted, Abs format (unit mm)*
G04 Created by KiCad (PCBNEW (5.0.2)-1) date 2/1/2019 3:19:08 PM*
%MOMM*%
%LPD*%
G01*
G04 APERTURE LIST*
G04 #@! TA.AperFunction,Conductor*
%ADD10C,0.100000*%
G04 #@! TD*
G04 #@! TA.AperFunction,SMDPad,CuDef*
%ADD11C,0.875000*%
G04 #@! TD*
G04 #@! TA.AperFunction,ComponentPad*
%ADD12R,3.000000X3.000000*%
G04 #@! TD*
G04 #@! TA.AperFunction,ComponentPad*
%ADD13C,3.000000*%
G04 #@! TD*
G04 #@! TA.AperFunction,SMDPad,CuDef*
%ADD14C,0.975000*%
G04 #@! TD*
G04 #@! TA.AperFunction,SMDPad,CuDef*
%ADD15C,1.350000*%
G04 #@! TD*
G04 #@! TA.AperFunction,ComponentPad*
%ADD16C,1.450000*%
G04 #@! TD*
G04 #@! TA.AperFunction,ComponentPad*
%ADD17O,1.900000X1.200000*%
G04 #@! TD*
G04 #@! TA.AperFunction,ViaPad*
%ADD18C,0.800000*%
G04 #@! TD*
G04 #@! TA.AperFunction,Conductor*
%ADD19C,0.250000*%
G04 #@! TD*
G04 #@! TA.AperFunction,Conductor*
%ADD20C,0.254000*%
G04 #@! TD*
G04 APERTURE END LIST*
D10*
G04 #@! TO.N,Net-(C30-Pad1)*
G04 #@! TO.C,C30*
G36*
X158964691Y-111921053D02*
X158985926Y-111924203D01*
X159006750Y-111929419D01*
X159026962Y-111936651D01*
X159046368Y-111945830D01*
X159064781Y-111956866D01*
X159082024Y-111969654D01*
X159097930Y-111984070D01*
X159112346Y-111999976D01*
X159125134Y-112017219D01*
X159136170Y-112035632D01*
X159145349Y-112055038D01*
X159152581Y-112075250D01*
X159157797Y-112096074D01*
X159160947Y-112117309D01*
X159162000Y-112138750D01*
X159162000Y-112651250D01*
X159160947Y-112672691D01*
X159157797Y-112693926D01*
X159152581Y-112714750D01*
X159145349Y-112734962D01*
X159136170Y-112754368D01*
X159125134Y-112772781D01*
X159112346Y-112790024D01*
X159097930Y-112805930D01*
X159082024Y-112820346D01*
X159064781Y-112833134D01*
X159046368Y-112844170D01*
X159026962Y-112853349D01*
X159006750Y-112860581D01*
X158985926Y-112865797D01*
X158964691Y-112868947D01*
X158943250Y-112870000D01*
X158505750Y-112870000D01*
X158484309Y-112868947D01*
X158463074Y-112865797D01*
X158442250Y-112860581D01*
X158422038Y-112853349D01*
X158402632Y-112844170D01*
X158384219Y-112833134D01*
X158366976Y-112820346D01*
X158351070Y-112805930D01*
X158336654Y-112790024D01*
X158323866Y-112772781D01*
X158312830Y-112754368D01*
X158303651Y-112734962D01*
X158296419Y-112714750D01*
X158291203Y-112693926D01*
X158288053Y-112672691D01*
X158287000Y-112651250D01*
X158287000Y-112138750D01*
X158288053Y-112117309D01*
X158291203Y-112096074D01*
X158296419Y-112075250D01*
X158303651Y-112055038D01*
X158312830Y-112035632D01*
X158323866Y-112017219D01*
X158336654Y-111999976D01*
X158351070Y-111984070D01*
X158366976Y-111969654D01*
X158384219Y-111956866D01*
X158402632Y-111945830D01*
X158422038Y-111936651D01*
X158442250Y-111929419D01*
X158463074Y-111924203D01*
X158484309Y-111921053D01*
X158505750Y-111920000D01*
X158943250Y-111920000D01*
X158964691Y-111921053D01*
X158964691Y-111921053D01*
G37*
D11*
G04 #@! TD*
G04 #@! TO.P,C30,1*
G04 #@! TO.N,Net-(C30-Pad1)*
X158724500Y-112395000D03*
D10*
G04 #@! TO.N,GNDA*
G04 #@! TO.C,C30*
G36*
X160539691Y-111921053D02*
X160560926Y-111924203D01*
X160581750Y-111929419D01*
X160601962Y-111936651D01*
X160621368Y-111945830D01*
X160639781Y-111956866D01*
X160657024Y-111969654D01*
X160672930Y-111984070D01*
X160687346Y-111999976D01*
X160700134Y-112017219D01*
X160711170Y-112035632D01*
X160720349Y-112055038D01*
X160727581Y-112075250D01*
X160732797Y-112096074D01*
X160735947Y-112117309D01*
X160737000Y-112138750D01*
X160737000Y-112651250D01*
X160735947Y-112672691D01*
X160732797Y-112693926D01*
X160727581Y-112714750D01*
X160720349Y-112734962D01*
X160711170Y-112754368D01*
X160700134Y-112772781D01*
X160687346Y-112790024D01*
X160672930Y-112805930D01*
X160657024Y-112820346D01*
X160639781Y-112833134D01*
X160621368Y-112844170D01*
X160601962Y-112853349D01*
X160581750Y-112860581D01*
X160560926Y-112865797D01*
X160539691Y-112868947D01*
X160518250Y-112870000D01*
X160080750Y-112870000D01*
X160059309Y-112868947D01*
X160038074Y-112865797D01*
X160017250Y-112860581D01*
X159997038Y-112853349D01*
X159977632Y-112844170D01*
X159959219Y-112833134D01*
X159941976Y-112820346D01*
X159926070Y-112805930D01*
X159911654Y-112790024D01*
X159898866Y-112772781D01*
X159887830Y-112754368D01*
X159878651Y-112734962D01*
X159871419Y-112714750D01*
X159866203Y-112693926D01*
X159863053Y-112672691D01*
X159862000Y-112651250D01*
X159862000Y-112138750D01*
X159863053Y-112117309D01*
X159866203Y-112096074D01*
X159871419Y-112075250D01*
X159878651Y-112055038D01*
X159887830Y-112035632D01*
X159898866Y-112017219D01*
X159911654Y-111999976D01*
X159926070Y-111984070D01*
X159941976Y-111969654D01*
X159959219Y-111956866D01*
X159977632Y-111945830D01*
X159997038Y-111936651D01*
X160017250Y-111929419D01*
X160038074Y-111924203D01*
X160059309Y-111921053D01*
X160080750Y-111920000D01*
X160518250Y-111920000D01*
X160539691Y-111921053D01*
X160539691Y-111921053D01*
G37*
D11*
G04 #@! TD*
G04 #@! TO.P,C30,2*
G04 #@! TO.N,GNDA*
X160299500Y-112395000D03*
D12*
G04 #@! TO.P,J1,S*
G04 #@! TO.N,GNDA*
X170815000Y-129667000D03*
D13*
G04 #@! TO.P,J1,T*
G04 #@! TO.N,Net-(J1-PadT)*
X170815000Y-142367000D03*
G04 #@! TO.P,J1,R*
G04 #@! TO.N,Net-(J1-PadR)*
X170815000Y-136017000D03*
G04 #@! TO.P,J1,SN*
G04 #@! TO.N,Net-(J1-PadSN)*
X187045000Y-129667000D03*
G04 #@! TO.P,J1,TN*
G04 #@! TO.N,Net-(J1-PadTN)*
X187045000Y-142367000D03*
G04 #@! TO.P,J1,RN*
G04 #@! TO.N,Net-(J1-PadRN)*
X187045000Y-136017000D03*
G04 #@! TD*
G04 #@! TO.P,J4,RN*
G04 #@! TO.N,Net-(J4-PadRN)*
X146151000Y-136017000D03*
G04 #@! TO.P,J4,TN*
G04 #@! TO.N,Net-(J4-PadTN)*
X146151000Y-142367000D03*
G04 #@! TO.P,J4,SN*
G04 #@! TO.N,Net-(J4-PadSN)*
X146151000Y-129667000D03*
G04 #@! TO.P,J4,R*
G04 #@! TO.N,Net-(C28-Pad2)*
X129921000Y-136017000D03*
G04 #@! TO.P,J4,T*
G04 #@! TO.N,Net-(C29-Pad2)*
X129921000Y-142367000D03*
D12*
G04 #@! TO.P,J4,S*
G04 #@! TO.N,GNDA*
X129921000Y-129667000D03*
G04 #@! TD*
D10*
G04 #@! TO.N,Net-(C22-Pad1)*
G04 #@! TO.C,R31*
G36*
X157376691Y-116073553D02*
X157397926Y-116076703D01*
X157418750Y-116081919D01*
X157438962Y-116089151D01*
X157458368Y-116098330D01*
X157476781Y-116109366D01*
X157494024Y-116122154D01*
X157509930Y-116136570D01*
X157524346Y-116152476D01*
X157537134Y-116169719D01*
X157548170Y-116188132D01*
X157557349Y-116207538D01*
X157564581Y-116227750D01*
X157569797Y-116248574D01*
X157572947Y-116269809D01*
X157574000Y-116291250D01*
X157574000Y-116728750D01*
X157572947Y-116750191D01*
X157569797Y-116771426D01*
X157564581Y-116792250D01*
X157557349Y-116812462D01*
X157548170Y-116831868D01*
X157537134Y-116850281D01*
X157524346Y-116867524D01*
X157509930Y-116883430D01*
X157494024Y-116897846D01*
X157476781Y-116910634D01*
X157458368Y-116921670D01*
X157438962Y-116930849D01*
X157418750Y-116938081D01*
X157397926Y-116943297D01*
X157376691Y-116946447D01*
X157355250Y-116947500D01*
X156842750Y-116947500D01*
X156821309Y-116946447D01*
X156800074Y-116943297D01*
X156779250Y-116938081D01*
X156759038Y-116930849D01*
X156739632Y-116921670D01*
X156721219Y-116910634D01*
X156703976Y-116897846D01*
X156688070Y-116883430D01*
X156673654Y-116867524D01*
X156660866Y-116850281D01*
X156649830Y-116831868D01*
X156640651Y-116812462D01*
X156633419Y-116792250D01*
X156628203Y-116771426D01*
X156625053Y-116750191D01*
X156624000Y-116728750D01*
X156624000Y-116291250D01*
X156625053Y-116269809D01*
X156628203Y-116248574D01*
X156633419Y-116227750D01*
X156640651Y-116207538D01*
X156649830Y-116188132D01*
X156660866Y-116169719D01*
X156673654Y-116152476D01*
X156688070Y-116136570D01*
X156703976Y-116122154D01*
X156721219Y-116109366D01*
X156739632Y-116098330D01*
X156759038Y-116089151D01*
X156779250Y-116081919D01*
X156800074Y-116076703D01*
X156821309Y-116073553D01*
X156842750Y-116072500D01*
X157355250Y-116072500D01*
X157376691Y-116073553D01*
X157376691Y-116073553D01*
G37*
D11*
G04 #@! TD*
G04 #@! TO.P,R31,1*
G04 #@! TO.N,Net-(C22-Pad1)*
X157099000Y-116510000D03*
D10*
G04 #@! TO.N,Net-(C30-Pad1)*
G04 #@! TO.C,R31*
G36*
X157376691Y-114498553D02*
X157397926Y-114501703D01*
X157418750Y-114506919D01*
X157438962Y-114514151D01*
X157458368Y-114523330D01*
X157476781Y-114534366D01*
X157494024Y-114547154D01*
X157509930Y-114561570D01*
X157524346Y-114577476D01*
X157537134Y-114594719D01*
X157548170Y-114613132D01*
X157557349Y-114632538D01*
X157564581Y-114652750D01*
X157569797Y-114673574D01*
X157572947Y-114694809D01*
X157574000Y-114716250D01*
X157574000Y-115153750D01*
X157572947Y-115175191D01*
X157569797Y-115196426D01*
X157564581Y-115217250D01*
X157557349Y-115237462D01*
X157548170Y-115256868D01*
X157537134Y-115275281D01*
X157524346Y-115292524D01*
X157509930Y-115308430D01*
X157494024Y-115322846D01*
X157476781Y-115335634D01*
X157458368Y-115346670D01*
X157438962Y-115355849D01*
X157418750Y-115363081D01*
X157397926Y-115368297D01*
X157376691Y-115371447D01*
X157355250Y-115372500D01*
X156842750Y-115372500D01*
X156821309Y-115371447D01*
X156800074Y-115368297D01*
X156779250Y-115363081D01*
X156759038Y-115355849D01*
X156739632Y-115346670D01*
X156721219Y-115335634D01*
X156703976Y-115322846D01*
X156688070Y-115308430D01*
X156673654Y-115292524D01*
X156660866Y-115275281D01*
X156649830Y-115256868D01*
X156640651Y-115237462D01*
X156633419Y-115217250D01*
X156628203Y-115196426D01*
X156625053Y-115175191D01*
X156624000Y-115153750D01*
X156624000Y-114716250D01*
X156625053Y-114694809D01*
X156628203Y-114673574D01*
X156633419Y-114652750D01*
X156640651Y-114632538D01*
X156649830Y-114613132D01*
X156660866Y-114594719D01*
X156673654Y-114577476D01*
X156688070Y-114561570D01*
X156703976Y-114547154D01*
X156721219Y-114534366D01*
X156739632Y-114523330D01*
X156759038Y-114514151D01*
X156779250Y-114506919D01*
X156800074Y-114501703D01*
X156821309Y-114498553D01*
X156842750Y-114497500D01*
X157355250Y-114497500D01*
X157376691Y-114498553D01*
X157376691Y-114498553D01*
G37*
D11*
G04 #@! TD*
G04 #@! TO.P,R31,2*
G04 #@! TO.N,Net-(C30-Pad1)*
X157099000Y-114935000D03*
D13*
G04 #@! TO.P,J2,RN*
G04 #@! TO.N,Net-(J2-PadRN)*
X166725000Y-136017000D03*
G04 #@! TO.P,J2,TN*
G04 #@! TO.N,Net-(J2-PadTN)*
X166725000Y-142367000D03*
G04 #@! TO.P,J2,SN*
G04 #@! TO.N,Net-(J2-PadSN)*
X166725000Y-129667000D03*
G04 #@! TO.P,J2,R*
G04 #@! TO.N,Net-(C10-Pad1)*
X150495000Y-136017000D03*
G04 #@! TO.P,J2,T*
G04 #@! TO.N,Net-(C11-Pad1)*
X150495000Y-142367000D03*
D12*
G04 #@! TO.P,J2,S*
G04 #@! TO.N,GNDA*
X150495000Y-129667000D03*
G04 #@! TD*
D10*
G04 #@! TO.N,GNDD*
G04 #@! TO.C,C13*
G36*
X164361691Y-82647053D02*
X164382926Y-82650203D01*
X164403750Y-82655419D01*
X164423962Y-82662651D01*
X164443368Y-82671830D01*
X164461781Y-82682866D01*
X164479024Y-82695654D01*
X164494930Y-82710070D01*
X164509346Y-82725976D01*
X164522134Y-82743219D01*
X164533170Y-82761632D01*
X164542349Y-82781038D01*
X164549581Y-82801250D01*
X164554797Y-82822074D01*
X164557947Y-82843309D01*
X164559000Y-82864750D01*
X164559000Y-83302250D01*
X164557947Y-83323691D01*
X164554797Y-83344926D01*
X164549581Y-83365750D01*
X164542349Y-83385962D01*
X164533170Y-83405368D01*
X164522134Y-83423781D01*
X164509346Y-83441024D01*
X164494930Y-83456930D01*
X164479024Y-83471346D01*
X164461781Y-83484134D01*
X164443368Y-83495170D01*
X164423962Y-83504349D01*
X164403750Y-83511581D01*
X164382926Y-83516797D01*
X164361691Y-83519947D01*
X164340250Y-83521000D01*
X163827750Y-83521000D01*
X163806309Y-83519947D01*
X163785074Y-83516797D01*
X163764250Y-83511581D01*
X163744038Y-83504349D01*
X163724632Y-83495170D01*
X163706219Y-83484134D01*
X163688976Y-83471346D01*
X163673070Y-83456930D01*
X163658654Y-83441024D01*
X163645866Y-83423781D01*
X163634830Y-83405368D01*
X163625651Y-83385962D01*
X163618419Y-83365750D01*
X163613203Y-83344926D01*
X163610053Y-83323691D01*
X163609000Y-83302250D01*
X163609000Y-82864750D01*
X163610053Y-82843309D01*
X163613203Y-82822074D01*
X163618419Y-82801250D01*
X163625651Y-82781038D01*
X163634830Y-82761632D01*
X163645866Y-82743219D01*
X163658654Y-82725976D01*
X163673070Y-82710070D01*
X163688976Y-82695654D01*
X163706219Y-82682866D01*
X163724632Y-82671830D01*
X163744038Y-82662651D01*
X163764250Y-82655419D01*
X163785074Y-82650203D01*
X163806309Y-82647053D01*
X163827750Y-82646000D01*
X164340250Y-82646000D01*
X164361691Y-82647053D01*
X164361691Y-82647053D01*
G37*
D11*
G04 #@! TD*
G04 #@! TO.P,C13,2*
G04 #@! TO.N,GNDD*
X164084000Y-83083500D03*
D10*
G04 #@! TO.N,/3V3_STM*
G04 #@! TO.C,C13*
G36*
X164361691Y-81072053D02*
X164382926Y-81075203D01*
X164403750Y-81080419D01*
X164423962Y-81087651D01*
X164443368Y-81096830D01*
X164461781Y-81107866D01*
X164479024Y-81120654D01*
X164494930Y-81135070D01*
X164509346Y-81150976D01*
X164522134Y-81168219D01*
X164533170Y-81186632D01*
X164542349Y-81206038D01*
X164549581Y-81226250D01*
X164554797Y-81247074D01*
X164557947Y-81268309D01*
X164559000Y-81289750D01*
X164559000Y-81727250D01*
X164557947Y-81748691D01*
X164554797Y-81769926D01*
X164549581Y-81790750D01*
X164542349Y-81810962D01*
X164533170Y-81830368D01*
X164522134Y-81848781D01*
X164509346Y-81866024D01*
X164494930Y-81881930D01*
X164479024Y-81896346D01*
X164461781Y-81909134D01*
X164443368Y-81920170D01*
X164423962Y-81929349D01*
X164403750Y-81936581D01*
X164382926Y-81941797D01*
X164361691Y-81944947D01*
X164340250Y-81946000D01*
X163827750Y-81946000D01*
X163806309Y-81944947D01*
X163785074Y-81941797D01*
X163764250Y-81936581D01*
X163744038Y-81929349D01*
X163724632Y-81920170D01*
X163706219Y-81909134D01*
X163688976Y-81896346D01*
X163673070Y-81881930D01*
X163658654Y-81866024D01*
X163645866Y-81848781D01*
X163634830Y-81830368D01*
X163625651Y-81810962D01*
X163618419Y-81790750D01*
X163613203Y-81769926D01*
X163610053Y-81748691D01*
X163609000Y-81727250D01*
X163609000Y-81289750D01*
X163610053Y-81268309D01*
X163613203Y-81247074D01*
X163618419Y-81226250D01*
X163625651Y-81206038D01*
X163634830Y-81186632D01*
X163645866Y-81168219D01*
X163658654Y-81150976D01*
X163673070Y-81135070D01*
X163688976Y-81120654D01*
X163706219Y-81107866D01*
X163724632Y-81096830D01*
X163744038Y-81087651D01*
X163764250Y-81080419D01*
X163785074Y-81075203D01*
X163806309Y-81072053D01*
X163827750Y-81071000D01*
X164340250Y-81071000D01*
X164361691Y-81072053D01*
X164361691Y-81072053D01*
G37*
D11*
G04 #@! TD*
G04 #@! TO.P,C13,1*
G04 #@! TO.N,/3V3_STM*
X164084000Y-81508500D03*
D10*
G04 #@! TO.N,GNDD*
G04 #@! TO.C,C12*
G36*
X164361691Y-90698553D02*
X164382926Y-90701703D01*
X164403750Y-90706919D01*
X164423962Y-90714151D01*
X164443368Y-90723330D01*
X164461781Y-90734366D01*
X164479024Y-90747154D01*
X164494930Y-90761570D01*
X164509346Y-90777476D01*
X164522134Y-90794719D01*
X164533170Y-90813132D01*
X164542349Y-90832538D01*
X164549581Y-90852750D01*
X164554797Y-90873574D01*
X164557947Y-90894809D01*
X164559000Y-90916250D01*
X164559000Y-91353750D01*
X164557947Y-91375191D01*
X164554797Y-91396426D01*
X164549581Y-91417250D01*
X164542349Y-91437462D01*
X164533170Y-91456868D01*
X164522134Y-91475281D01*
X164509346Y-91492524D01*
X164494930Y-91508430D01*
X164479024Y-91522846D01*
X164461781Y-91535634D01*
X164443368Y-91546670D01*
X164423962Y-91555849D01*
X164403750Y-91563081D01*
X164382926Y-91568297D01*
X164361691Y-91571447D01*
X164340250Y-91572500D01*
X163827750Y-91572500D01*
X163806309Y-91571447D01*
X163785074Y-91568297D01*
X163764250Y-91563081D01*
X163744038Y-91555849D01*
X163724632Y-91546670D01*
X163706219Y-91535634D01*
X163688976Y-91522846D01*
X163673070Y-91508430D01*
X163658654Y-91492524D01*
X163645866Y-91475281D01*
X163634830Y-91456868D01*
X163625651Y-91437462D01*
X163618419Y-91417250D01*
X163613203Y-91396426D01*
X163610053Y-91375191D01*
X163609000Y-91353750D01*
X163609000Y-90916250D01*
X163610053Y-90894809D01*
X163613203Y-90873574D01*
X163618419Y-90852750D01*
X163625651Y-90832538D01*
X163634830Y-90813132D01*
X163645866Y-90794719D01*
X163658654Y-90777476D01*
X163673070Y-90761570D01*
X163688976Y-90747154D01*
X163706219Y-90734366D01*
X163724632Y-90723330D01*
X163744038Y-90714151D01*
X163764250Y-90706919D01*
X163785074Y-90701703D01*
X163806309Y-90698553D01*
X163827750Y-90697500D01*
X164340250Y-90697500D01*
X164361691Y-90698553D01*
X164361691Y-90698553D01*
G37*
D11*
G04 #@! TD*
G04 #@! TO.P,C12,2*
G04 #@! TO.N,GNDD*
X164084000Y-91135000D03*
D10*
G04 #@! TO.N,/3V3_STM*
G04 #@! TO.C,C12*
G36*
X164361691Y-92273553D02*
X164382926Y-92276703D01*
X164403750Y-92281919D01*
X164423962Y-92289151D01*
X164443368Y-92298330D01*
X164461781Y-92309366D01*
X164479024Y-92322154D01*
X164494930Y-92336570D01*
X164509346Y-92352476D01*
X164522134Y-92369719D01*
X164533170Y-92388132D01*
X164542349Y-92407538D01*
X164549581Y-92427750D01*
X164554797Y-92448574D01*
X164557947Y-92469809D01*
X164559000Y-92491250D01*
X164559000Y-92928750D01*
X164557947Y-92950191D01*
X164554797Y-92971426D01*
X164549581Y-92992250D01*
X164542349Y-93012462D01*
X164533170Y-93031868D01*
X164522134Y-93050281D01*
X164509346Y-93067524D01*
X164494930Y-93083430D01*
X164479024Y-93097846D01*
X164461781Y-93110634D01*
X164443368Y-93121670D01*
X164423962Y-93130849D01*
X164403750Y-93138081D01*
X164382926Y-93143297D01*
X164361691Y-93146447D01*
X164340250Y-93147500D01*
X163827750Y-93147500D01*
X163806309Y-93146447D01*
X163785074Y-93143297D01*
X163764250Y-93138081D01*
X163744038Y-93130849D01*
X163724632Y-93121670D01*
X163706219Y-93110634D01*
X163688976Y-93097846D01*
X163673070Y-93083430D01*
X163658654Y-93067524D01*
X163645866Y-93050281D01*
X163634830Y-93031868D01*
X163625651Y-93012462D01*
X163618419Y-92992250D01*
X163613203Y-92971426D01*
X163610053Y-92950191D01*
X163609000Y-92928750D01*
X163609000Y-92491250D01*
X163610053Y-92469809D01*
X163613203Y-92448574D01*
X163618419Y-92427750D01*
X163625651Y-92407538D01*
X163634830Y-92388132D01*
X163645866Y-92369719D01*
X163658654Y-92352476D01*
X163673070Y-92336570D01*
X163688976Y-92322154D01*
X163706219Y-92309366D01*
X163724632Y-92298330D01*
X163744038Y-92289151D01*
X163764250Y-92281919D01*
X163785074Y-92276703D01*
X163806309Y-92273553D01*
X163827750Y-92272500D01*
X164340250Y-92272500D01*
X164361691Y-92273553D01*
X164361691Y-92273553D01*
G37*
D11*
G04 #@! TD*
G04 #@! TO.P,C12,1*
G04 #@! TO.N,/3V3_STM*
X164084000Y-92710000D03*
D10*
G04 #@! TO.N,/3V3_STM*
G04 #@! TO.C,C9*
G36*
X156233691Y-80970553D02*
X156254926Y-80973703D01*
X156275750Y-80978919D01*
X156295962Y-80986151D01*
X156315368Y-80995330D01*
X156333781Y-81006366D01*
X156351024Y-81019154D01*
X156366930Y-81033570D01*
X156381346Y-81049476D01*
X156394134Y-81066719D01*
X156405170Y-81085132D01*
X156414349Y-81104538D01*
X156421581Y-81124750D01*
X156426797Y-81145574D01*
X156429947Y-81166809D01*
X156431000Y-81188250D01*
X156431000Y-81625750D01*
X156429947Y-81647191D01*
X156426797Y-81668426D01*
X156421581Y-81689250D01*
X156414349Y-81709462D01*
X156405170Y-81728868D01*
X156394134Y-81747281D01*
X156381346Y-81764524D01*
X156366930Y-81780430D01*
X156351024Y-81794846D01*
X156333781Y-81807634D01*
X156315368Y-81818670D01*
X156295962Y-81827849D01*
X156275750Y-81835081D01*
X156254926Y-81840297D01*
X156233691Y-81843447D01*
X156212250Y-81844500D01*
X155699750Y-81844500D01*
X155678309Y-81843447D01*
X155657074Y-81840297D01*
X155636250Y-81835081D01*
X155616038Y-81827849D01*
X155596632Y-81818670D01*
X155578219Y-81807634D01*
X155560976Y-81794846D01*
X155545070Y-81780430D01*
X155530654Y-81764524D01*
X155517866Y-81747281D01*
X155506830Y-81728868D01*
X155497651Y-81709462D01*
X155490419Y-81689250D01*
X155485203Y-81668426D01*
X155482053Y-81647191D01*
X155481000Y-81625750D01*
X155481000Y-81188250D01*
X155482053Y-81166809D01*
X155485203Y-81145574D01*
X155490419Y-81124750D01*
X155497651Y-81104538D01*
X155506830Y-81085132D01*
X155517866Y-81066719D01*
X155530654Y-81049476D01*
X155545070Y-81033570D01*
X155560976Y-81019154D01*
X155578219Y-81006366D01*
X155596632Y-80995330D01*
X155616038Y-80986151D01*
X155636250Y-80978919D01*
X155657074Y-80973703D01*
X155678309Y-80970553D01*
X155699750Y-80969500D01*
X156212250Y-80969500D01*
X156233691Y-80970553D01*
X156233691Y-80970553D01*
G37*
D11*
G04 #@! TD*
G04 #@! TO.P,C9,1*
G04 #@! TO.N,/3V3_STM*
X155956000Y-81407000D03*
D10*
G04 #@! TO.N,GNDD*
G04 #@! TO.C,C9*
G36*
X156233691Y-82545553D02*
X156254926Y-82548703D01*
X156275750Y-82553919D01*
X156295962Y-82561151D01*
X156315368Y-82570330D01*
X156333781Y-82581366D01*
X156351024Y-82594154D01*
X156366930Y-82608570D01*
X156381346Y-82624476D01*
X156394134Y-82641719D01*
X156405170Y-82660132D01*
X156414349Y-82679538D01*
X156421581Y-82699750D01*
X156426797Y-82720574D01*
X156429947Y-82741809D01*
X156431000Y-82763250D01*
X156431000Y-83200750D01*
X156429947Y-83222191D01*
X156426797Y-83243426D01*
X156421581Y-83264250D01*
X156414349Y-83284462D01*
X156405170Y-83303868D01*
X156394134Y-83322281D01*
X156381346Y-83339524D01*
X156366930Y-83355430D01*
X156351024Y-83369846D01*
X156333781Y-83382634D01*
X156315368Y-83393670D01*
X156295962Y-83402849D01*
X156275750Y-83410081D01*
X156254926Y-83415297D01*
X156233691Y-83418447D01*
X156212250Y-83419500D01*
X155699750Y-83419500D01*
X155678309Y-83418447D01*
X155657074Y-83415297D01*
X155636250Y-83410081D01*
X155616038Y-83402849D01*
X155596632Y-83393670D01*
X155578219Y-83382634D01*
X155560976Y-83369846D01*
X155545070Y-83355430D01*
X155530654Y-83339524D01*
X155517866Y-83322281D01*
X155506830Y-83303868D01*
X155497651Y-83284462D01*
X155490419Y-83264250D01*
X155485203Y-83243426D01*
X155482053Y-83222191D01*
X155481000Y-83200750D01*
X155481000Y-82763250D01*
X155482053Y-82741809D01*
X155485203Y-82720574D01*
X155490419Y-82699750D01*
X155497651Y-82679538D01*
X155506830Y-82660132D01*
X155517866Y-82641719D01*
X155530654Y-82624476D01*
X155545070Y-82608570D01*
X155560976Y-82594154D01*
X155578219Y-82581366D01*
X155596632Y-82570330D01*
X155616038Y-82561151D01*
X155636250Y-82553919D01*
X155657074Y-82548703D01*
X155678309Y-82545553D01*
X155699750Y-82544500D01*
X156212250Y-82544500D01*
X156233691Y-82545553D01*
X156233691Y-82545553D01*
G37*
D11*
G04 #@! TD*
G04 #@! TO.P,C9,2*
G04 #@! TO.N,GNDD*
X155956000Y-82982000D03*
D10*
G04 #@! TO.N,/3V3_STM*
G04 #@! TO.C,C14*
G36*
X167169191Y-84362053D02*
X167190426Y-84365203D01*
X167211250Y-84370419D01*
X167231462Y-84377651D01*
X167250868Y-84386830D01*
X167269281Y-84397866D01*
X167286524Y-84410654D01*
X167302430Y-84425070D01*
X167316846Y-84440976D01*
X167329634Y-84458219D01*
X167340670Y-84476632D01*
X167349849Y-84496038D01*
X167357081Y-84516250D01*
X167362297Y-84537074D01*
X167365447Y-84558309D01*
X167366500Y-84579750D01*
X167366500Y-85092250D01*
X167365447Y-85113691D01*
X167362297Y-85134926D01*
X167357081Y-85155750D01*
X167349849Y-85175962D01*
X167340670Y-85195368D01*
X167329634Y-85213781D01*
X167316846Y-85231024D01*
X167302430Y-85246930D01*
X167286524Y-85261346D01*
X167269281Y-85274134D01*
X167250868Y-85285170D01*
X167231462Y-85294349D01*
X167211250Y-85301581D01*
X167190426Y-85306797D01*
X167169191Y-85309947D01*
X167147750Y-85311000D01*
X166710250Y-85311000D01*
X166688809Y-85309947D01*
X166667574Y-85306797D01*
X166646750Y-85301581D01*
X166626538Y-85294349D01*
X166607132Y-85285170D01*
X166588719Y-85274134D01*
X166571476Y-85261346D01*
X166555570Y-85246930D01*
X166541154Y-85231024D01*
X166528366Y-85213781D01*
X166517330Y-85195368D01*
X166508151Y-85175962D01*
X166500919Y-85155750D01*
X166495703Y-85134926D01*
X166492553Y-85113691D01*
X166491500Y-85092250D01*
X166491500Y-84579750D01*
X166492553Y-84558309D01*
X166495703Y-84537074D01*
X166500919Y-84516250D01*
X166508151Y-84496038D01*
X166517330Y-84476632D01*
X166528366Y-84458219D01*
X166541154Y-84440976D01*
X166555570Y-84425070D01*
X166571476Y-84410654D01*
X166588719Y-84397866D01*
X166607132Y-84386830D01*
X166626538Y-84377651D01*
X166646750Y-84370419D01*
X166667574Y-84365203D01*
X166688809Y-84362053D01*
X166710250Y-84361000D01*
X167147750Y-84361000D01*
X167169191Y-84362053D01*
X167169191Y-84362053D01*
G37*
D11*
G04 #@! TD*
G04 #@! TO.P,C14,1*
G04 #@! TO.N,/3V3_STM*
X166929000Y-84836000D03*
D10*
G04 #@! TO.N,GNDD*
G04 #@! TO.C,C14*
G36*
X165594191Y-84362053D02*
X165615426Y-84365203D01*
X165636250Y-84370419D01*
X165656462Y-84377651D01*
X165675868Y-84386830D01*
X165694281Y-84397866D01*
X165711524Y-84410654D01*
X165727430Y-84425070D01*
X165741846Y-84440976D01*
X165754634Y-84458219D01*
X165765670Y-84476632D01*
X165774849Y-84496038D01*
X165782081Y-84516250D01*
X165787297Y-84537074D01*
X165790447Y-84558309D01*
X165791500Y-84579750D01*
X165791500Y-85092250D01*
X165790447Y-85113691D01*
X165787297Y-85134926D01*
X165782081Y-85155750D01*
X165774849Y-85175962D01*
X165765670Y-85195368D01*
X165754634Y-85213781D01*
X165741846Y-85231024D01*
X165727430Y-85246930D01*
X165711524Y-85261346D01*
X165694281Y-85274134D01*
X165675868Y-85285170D01*
X165656462Y-85294349D01*
X165636250Y-85301581D01*
X165615426Y-85306797D01*
X165594191Y-85309947D01*
X165572750Y-85311000D01*
X165135250Y-85311000D01*
X165113809Y-85309947D01*
X165092574Y-85306797D01*
X165071750Y-85301581D01*
X165051538Y-85294349D01*
X165032132Y-85285170D01*
X165013719Y-85274134D01*
X164996476Y-85261346D01*
X164980570Y-85246930D01*
X164966154Y-85231024D01*
X164953366Y-85213781D01*
X164942330Y-85195368D01*
X164933151Y-85175962D01*
X164925919Y-85155750D01*
X164920703Y-85134926D01*
X164917553Y-85113691D01*
X164916500Y-85092250D01*
X164916500Y-84579750D01*
X164917553Y-84558309D01*
X164920703Y-84537074D01*
X164925919Y-84516250D01*
X164933151Y-84496038D01*
X164942330Y-84476632D01*
X164953366Y-84458219D01*
X164966154Y-84440976D01*
X164980570Y-84425070D01*
X164996476Y-84410654D01*
X165013719Y-84397866D01*
X165032132Y-84386830D01*
X165051538Y-84377651D01*
X165071750Y-84370419D01*
X165092574Y-84365203D01*
X165113809Y-84362053D01*
X165135250Y-84361000D01*
X165572750Y-84361000D01*
X165594191Y-84362053D01*
X165594191Y-84362053D01*
G37*
D11*
G04 #@! TD*
G04 #@! TO.P,C14,2*
G04 #@! TO.N,GNDD*
X165354000Y-84836000D03*
D10*
G04 #@! TO.N,GNDD*
G04 #@! TO.C,C15*
G36*
X166051191Y-90204053D02*
X166072426Y-90207203D01*
X166093250Y-90212419D01*
X166113462Y-90219651D01*
X166132868Y-90228830D01*
X166151281Y-90239866D01*
X166168524Y-90252654D01*
X166184430Y-90267070D01*
X166198846Y-90282976D01*
X166211634Y-90300219D01*
X166222670Y-90318632D01*
X166231849Y-90338038D01*
X166239081Y-90358250D01*
X166244297Y-90379074D01*
X166247447Y-90400309D01*
X166248500Y-90421750D01*
X166248500Y-90934250D01*
X166247447Y-90955691D01*
X166244297Y-90976926D01*
X166239081Y-90997750D01*
X166231849Y-91017962D01*
X166222670Y-91037368D01*
X166211634Y-91055781D01*
X166198846Y-91073024D01*
X166184430Y-91088930D01*
X166168524Y-91103346D01*
X166151281Y-91116134D01*
X166132868Y-91127170D01*
X166113462Y-91136349D01*
X166093250Y-91143581D01*
X166072426Y-91148797D01*
X166051191Y-91151947D01*
X166029750Y-91153000D01*
X165592250Y-91153000D01*
X165570809Y-91151947D01*
X165549574Y-91148797D01*
X165528750Y-91143581D01*
X165508538Y-91136349D01*
X165489132Y-91127170D01*
X165470719Y-91116134D01*
X165453476Y-91103346D01*
X165437570Y-91088930D01*
X165423154Y-91073024D01*
X165410366Y-91055781D01*
X165399330Y-91037368D01*
X165390151Y-91017962D01*
X165382919Y-90997750D01*
X165377703Y-90976926D01*
X165374553Y-90955691D01*
X165373500Y-90934250D01*
X165373500Y-90421750D01*
X165374553Y-90400309D01*
X165377703Y-90379074D01*
X165382919Y-90358250D01*
X165390151Y-90338038D01*
X165399330Y-90318632D01*
X165410366Y-90300219D01*
X165423154Y-90282976D01*
X165437570Y-90267070D01*
X165453476Y-90252654D01*
X165470719Y-90239866D01*
X165489132Y-90228830D01*
X165508538Y-90219651D01*
X165528750Y-90212419D01*
X165549574Y-90207203D01*
X165570809Y-90204053D01*
X165592250Y-90203000D01*
X166029750Y-90203000D01*
X166051191Y-90204053D01*
X166051191Y-90204053D01*
G37*
D11*
G04 #@! TD*
G04 #@! TO.P,C15,2*
G04 #@! TO.N,GNDD*
X165811000Y-90678000D03*
D10*
G04 #@! TO.N,/3V3_STM*
G04 #@! TO.C,C15*
G36*
X167626191Y-90204053D02*
X167647426Y-90207203D01*
X167668250Y-90212419D01*
X167688462Y-90219651D01*
X167707868Y-90228830D01*
X167726281Y-90239866D01*
X167743524Y-90252654D01*
X167759430Y-90267070D01*
X167773846Y-90282976D01*
X167786634Y-90300219D01*
X167797670Y-90318632D01*
X167806849Y-90338038D01*
X167814081Y-90358250D01*
X167819297Y-90379074D01*
X167822447Y-90400309D01*
X167823500Y-90421750D01*
X167823500Y-90934250D01*
X167822447Y-90955691D01*
X167819297Y-90976926D01*
X167814081Y-90997750D01*
X167806849Y-91017962D01*
X167797670Y-91037368D01*
X167786634Y-91055781D01*
X167773846Y-91073024D01*
X167759430Y-91088930D01*
X167743524Y-91103346D01*
X167726281Y-91116134D01*
X167707868Y-91127170D01*
X167688462Y-91136349D01*
X167668250Y-91143581D01*
X167647426Y-91148797D01*
X167626191Y-91151947D01*
X167604750Y-91153000D01*
X167167250Y-91153000D01*
X167145809Y-91151947D01*
X167124574Y-91148797D01*
X167103750Y-91143581D01*
X167083538Y-91136349D01*
X167064132Y-91127170D01*
X167045719Y-91116134D01*
X167028476Y-91103346D01*
X167012570Y-91088930D01*
X166998154Y-91073024D01*
X166985366Y-91055781D01*
X166974330Y-91037368D01*
X166965151Y-91017962D01*
X166957919Y-90997750D01*
X166952703Y-90976926D01*
X166949553Y-90955691D01*
X166948500Y-90934250D01*
X166948500Y-90421750D01*
X166949553Y-90400309D01*
X166952703Y-90379074D01*
X166957919Y-90358250D01*
X166965151Y-90338038D01*
X166974330Y-90318632D01*
X166985366Y-90300219D01*
X166998154Y-90282976D01*
X167012570Y-90267070D01*
X167028476Y-90252654D01*
X167045719Y-90239866D01*
X167064132Y-90228830D01*
X167083538Y-90219651D01*
X167103750Y-90212419D01*
X167124574Y-90207203D01*
X167145809Y-90204053D01*
X167167250Y-90203000D01*
X167604750Y-90203000D01*
X167626191Y-90204053D01*
X167626191Y-90204053D01*
G37*
D11*
G04 #@! TD*
G04 #@! TO.P,C15,1*
G04 #@! TO.N,/3V3_STM*
X167386000Y-90678000D03*
D10*
G04 #@! TO.N,Net-(C18-Pad1)*
G04 #@! TO.C,C18*
G36*
X158736191Y-106968053D02*
X158757426Y-106971203D01*
X158778250Y-106976419D01*
X158798462Y-106983651D01*
X158817868Y-106992830D01*
X158836281Y-107003866D01*
X158853524Y-107016654D01*
X158869430Y-107031070D01*
X158883846Y-107046976D01*
X158896634Y-107064219D01*
X158907670Y-107082632D01*
X158916849Y-107102038D01*
X158924081Y-107122250D01*
X158929297Y-107143074D01*
X158932447Y-107164309D01*
X158933500Y-107185750D01*
X158933500Y-107698250D01*
X158932447Y-107719691D01*
X158929297Y-107740926D01*
X158924081Y-107761750D01*
X158916849Y-107781962D01*
X158907670Y-107801368D01*
X158896634Y-107819781D01*
X158883846Y-107837024D01*
X158869430Y-107852930D01*
X158853524Y-107867346D01*
X158836281Y-107880134D01*
X158817868Y-107891170D01*
X158798462Y-107900349D01*
X158778250Y-107907581D01*
X158757426Y-107912797D01*
X158736191Y-107915947D01*
X158714750Y-107917000D01*
X158277250Y-107917000D01*
X158255809Y-107915947D01*
X158234574Y-107912797D01*
X158213750Y-107907581D01*
X158193538Y-107900349D01*
X158174132Y-107891170D01*
X158155719Y-107880134D01*
X158138476Y-107867346D01*
X158122570Y-107852930D01*
X158108154Y-107837024D01*
X158095366Y-107819781D01*
X158084330Y-107801368D01*
X158075151Y-107781962D01*
X158067919Y-107761750D01*
X158062703Y-107740926D01*
X158059553Y-107719691D01*
X158058500Y-107698250D01*
X158058500Y-107185750D01*
X158059553Y-107164309D01*
X158062703Y-107143074D01*
X158067919Y-107122250D01*
X158075151Y-107102038D01*
X158084330Y-107082632D01*
X158095366Y-107064219D01*
X158108154Y-107046976D01*
X158122570Y-107031070D01*
X158138476Y-107016654D01*
X158155719Y-107003866D01*
X158174132Y-106992830D01*
X158193538Y-106983651D01*
X158213750Y-106976419D01*
X158234574Y-106971203D01*
X158255809Y-106968053D01*
X158277250Y-106967000D01*
X158714750Y-106967000D01*
X158736191Y-106968053D01*
X158736191Y-106968053D01*
G37*
D11*
G04 #@! TD*
G04 #@! TO.P,C18,1*
G04 #@! TO.N,Net-(C18-Pad1)*
X158496000Y-107442000D03*
D10*
G04 #@! TO.N,GNDD*
G04 #@! TO.C,C18*
G36*
X160311191Y-106968053D02*
X160332426Y-106971203D01*
X160353250Y-106976419D01*
X160373462Y-106983651D01*
X160392868Y-106992830D01*
X160411281Y-107003866D01*
X160428524Y-107016654D01*
X160444430Y-107031070D01*
X160458846Y-107046976D01*
X160471634Y-107064219D01*
X160482670Y-107082632D01*
X160491849Y-107102038D01*
X160499081Y-107122250D01*
X160504297Y-107143074D01*
X160507447Y-107164309D01*
X160508500Y-107185750D01*
X160508500Y-107698250D01*
X160507447Y-107719691D01*
X160504297Y-107740926D01*
X160499081Y-107761750D01*
X160491849Y-107781962D01*
X160482670Y-107801368D01*
X160471634Y-107819781D01*
X160458846Y-107837024D01*
X160444430Y-107852930D01*
X160428524Y-107867346D01*
X160411281Y-107880134D01*
X160392868Y-107891170D01*
X160373462Y-107900349D01*
X160353250Y-107907581D01*
X160332426Y-107912797D01*
X160311191Y-107915947D01*
X160289750Y-107917000D01*
X159852250Y-107917000D01*
X159830809Y-107915947D01*
X159809574Y-107912797D01*
X159788750Y-107907581D01*
X159768538Y-107900349D01*
X159749132Y-107891170D01*
X159730719Y-107880134D01*
X159713476Y-107867346D01*
X159697570Y-107852930D01*
X159683154Y-107837024D01*
X159670366Y-107819781D01*
X159659330Y-107801368D01*
X159650151Y-107781962D01*
X159642919Y-107761750D01*
X159637703Y-107740926D01*
X159634553Y-107719691D01*
X159633500Y-107698250D01*
X159633500Y-107185750D01*
X159634553Y-107164309D01*
X159637703Y-107143074D01*
X159642919Y-107122250D01*
X159650151Y-107102038D01*
X159659330Y-107082632D01*
X159670366Y-107064219D01*
X159683154Y-107046976D01*
X159697570Y-107031070D01*
X159713476Y-107016654D01*
X159730719Y-107003866D01*
X159749132Y-106992830D01*
X159768538Y-106983651D01*
X159788750Y-106976419D01*
X159809574Y-106971203D01*
X159830809Y-106968053D01*
X159852250Y-106967000D01*
X160289750Y-106967000D01*
X160311191Y-106968053D01*
X160311191Y-106968053D01*
G37*
D11*
G04 #@! TD*
G04 #@! TO.P,C18,2*
G04 #@! TO.N,GNDD*
X160071000Y-107442000D03*
D10*
G04 #@! TO.N,GNDD*
G04 #@! TO.C,C19*
G36*
X162800191Y-107730053D02*
X162821426Y-107733203D01*
X162842250Y-107738419D01*
X162862462Y-107745651D01*
X162881868Y-107754830D01*
X162900281Y-107765866D01*
X162917524Y-107778654D01*
X162933430Y-107793070D01*
X162947846Y-107808976D01*
X162960634Y-107826219D01*
X162971670Y-107844632D01*
X162980849Y-107864038D01*
X162988081Y-107884250D01*
X162993297Y-107905074D01*
X162996447Y-107926309D01*
X162997500Y-107947750D01*
X162997500Y-108460250D01*
X162996447Y-108481691D01*
X162993297Y-108502926D01*
X162988081Y-108523750D01*
X162980849Y-108543962D01*
X162971670Y-108563368D01*
X162960634Y-108581781D01*
X162947846Y-108599024D01*
X162933430Y-108614930D01*
X162917524Y-108629346D01*
X162900281Y-108642134D01*
X162881868Y-108653170D01*
X162862462Y-108662349D01*
X162842250Y-108669581D01*
X162821426Y-108674797D01*
X162800191Y-108677947D01*
X162778750Y-108679000D01*
X162341250Y-108679000D01*
X162319809Y-108677947D01*
X162298574Y-108674797D01*
X162277750Y-108669581D01*
X162257538Y-108662349D01*
X162238132Y-108653170D01*
X162219719Y-108642134D01*
X162202476Y-108629346D01*
X162186570Y-108614930D01*
X162172154Y-108599024D01*
X162159366Y-108581781D01*
X162148330Y-108563368D01*
X162139151Y-108543962D01*
X162131919Y-108523750D01*
X162126703Y-108502926D01*
X162123553Y-108481691D01*
X162122500Y-108460250D01*
X162122500Y-107947750D01*
X162123553Y-107926309D01*
X162126703Y-107905074D01*
X162131919Y-107884250D01*
X162139151Y-107864038D01*
X162148330Y-107844632D01*
X162159366Y-107826219D01*
X162172154Y-107808976D01*
X162186570Y-107793070D01*
X162202476Y-107778654D01*
X162219719Y-107765866D01*
X162238132Y-107754830D01*
X162257538Y-107745651D01*
X162277750Y-107738419D01*
X162298574Y-107733203D01*
X162319809Y-107730053D01*
X162341250Y-107729000D01*
X162778750Y-107729000D01*
X162800191Y-107730053D01*
X162800191Y-107730053D01*
G37*
D11*
G04 #@! TD*
G04 #@! TO.P,C19,2*
G04 #@! TO.N,GNDD*
X162560000Y-108204000D03*
D10*
G04 #@! TO.N,Net-(C18-Pad1)*
G04 #@! TO.C,C19*
G36*
X164375191Y-107730053D02*
X164396426Y-107733203D01*
X164417250Y-107738419D01*
X164437462Y-107745651D01*
X164456868Y-107754830D01*
X164475281Y-107765866D01*
X164492524Y-107778654D01*
X164508430Y-107793070D01*
X164522846Y-107808976D01*
X164535634Y-107826219D01*
X164546670Y-107844632D01*
X164555849Y-107864038D01*
X164563081Y-107884250D01*
X164568297Y-107905074D01*
X164571447Y-107926309D01*
X164572500Y-107947750D01*
X164572500Y-108460250D01*
X164571447Y-108481691D01*
X164568297Y-108502926D01*
X164563081Y-108523750D01*
X164555849Y-108543962D01*
X164546670Y-108563368D01*
X164535634Y-108581781D01*
X164522846Y-108599024D01*
X164508430Y-108614930D01*
X164492524Y-108629346D01*
X164475281Y-108642134D01*
X164456868Y-108653170D01*
X164437462Y-108662349D01*
X164417250Y-108669581D01*
X164396426Y-108674797D01*
X164375191Y-108677947D01*
X164353750Y-108679000D01*
X163916250Y-108679000D01*
X163894809Y-108677947D01*
X163873574Y-108674797D01*
X163852750Y-108669581D01*
X163832538Y-108662349D01*
X163813132Y-108653170D01*
X163794719Y-108642134D01*
X163777476Y-108629346D01*
X163761570Y-108614930D01*
X163747154Y-108599024D01*
X163734366Y-108581781D01*
X163723330Y-108563368D01*
X163714151Y-108543962D01*
X163706919Y-108523750D01*
X163701703Y-108502926D01*
X163698553Y-108481691D01*
X163697500Y-108460250D01*
X163697500Y-107947750D01*
X163698553Y-107926309D01*
X163701703Y-107905074D01*
X163706919Y-107884250D01*
X163714151Y-107864038D01*
X163723330Y-107844632D01*
X163734366Y-107826219D01*
X163747154Y-107808976D01*
X163761570Y-107793070D01*
X163777476Y-107778654D01*
X163794719Y-107765866D01*
X163813132Y-107754830D01*
X163832538Y-107745651D01*
X163852750Y-107738419D01*
X163873574Y-107733203D01*
X163894809Y-107730053D01*
X163916250Y-107729000D01*
X164353750Y-107729000D01*
X164375191Y-107730053D01*
X164375191Y-107730053D01*
G37*
D11*
G04 #@! TD*
G04 #@! TO.P,C19,1*
G04 #@! TO.N,Net-(C18-Pad1)*
X164135000Y-108204000D03*
D10*
G04 #@! TO.N,Net-(C22-Pad1)*
G04 #@! TO.C,C22*
G36*
X159244191Y-115731053D02*
X159265426Y-115734203D01*
X159286250Y-115739419D01*
X159306462Y-115746651D01*
X159325868Y-115755830D01*
X159344281Y-115766866D01*
X159361524Y-115779654D01*
X159377430Y-115794070D01*
X159391846Y-115809976D01*
X159404634Y-115827219D01*
X159415670Y-115845632D01*
X159424849Y-115865038D01*
X159432081Y-115885250D01*
X159437297Y-115906074D01*
X159440447Y-115927309D01*
X159441500Y-115948750D01*
X159441500Y-116461250D01*
X159440447Y-116482691D01*
X159437297Y-116503926D01*
X159432081Y-116524750D01*
X159424849Y-116544962D01*
X159415670Y-116564368D01*
X159404634Y-116582781D01*
X159391846Y-116600024D01*
X159377430Y-116615930D01*
X159361524Y-116630346D01*
X159344281Y-116643134D01*
X159325868Y-116654170D01*
X159306462Y-116663349D01*
X159286250Y-116670581D01*
X159265426Y-116675797D01*
X159244191Y-116678947D01*
X159222750Y-116680000D01*
X158785250Y-116680000D01*
X158763809Y-116678947D01*
X158742574Y-116675797D01*
X158721750Y-116670581D01*
X158701538Y-116663349D01*
X158682132Y-116654170D01*
X158663719Y-116643134D01*
X158646476Y-116630346D01*
X158630570Y-116615930D01*
X158616154Y-116600024D01*
X158603366Y-116582781D01*
X158592330Y-116564368D01*
X158583151Y-116544962D01*
X158575919Y-116524750D01*
X158570703Y-116503926D01*
X158567553Y-116482691D01*
X158566500Y-116461250D01*
X158566500Y-115948750D01*
X158567553Y-115927309D01*
X158570703Y-115906074D01*
X158575919Y-115885250D01*
X158583151Y-115865038D01*
X158592330Y-115845632D01*
X158603366Y-115827219D01*
X158616154Y-115809976D01*
X158630570Y-115794070D01*
X158646476Y-115779654D01*
X158663719Y-115766866D01*
X158682132Y-115755830D01*
X158701538Y-115746651D01*
X158721750Y-115739419D01*
X158742574Y-115734203D01*
X158763809Y-115731053D01*
X158785250Y-115730000D01*
X159222750Y-115730000D01*
X159244191Y-115731053D01*
X159244191Y-115731053D01*
G37*
D11*
G04 #@! TD*
G04 #@! TO.P,C22,1*
G04 #@! TO.N,Net-(C22-Pad1)*
X159004000Y-116205000D03*
D10*
G04 #@! TO.N,GNDA*
G04 #@! TO.C,C22*
G36*
X160819191Y-115731053D02*
X160840426Y-115734203D01*
X160861250Y-115739419D01*
X160881462Y-115746651D01*
X160900868Y-115755830D01*
X160919281Y-115766866D01*
X160936524Y-115779654D01*
X160952430Y-115794070D01*
X160966846Y-115809976D01*
X160979634Y-115827219D01*
X160990670Y-115845632D01*
X160999849Y-115865038D01*
X161007081Y-115885250D01*
X161012297Y-115906074D01*
X161015447Y-115927309D01*
X161016500Y-115948750D01*
X161016500Y-116461250D01*
X161015447Y-116482691D01*
X161012297Y-116503926D01*
X161007081Y-116524750D01*
X160999849Y-116544962D01*
X160990670Y-116564368D01*
X160979634Y-116582781D01*
X160966846Y-116600024D01*
X160952430Y-116615930D01*
X160936524Y-116630346D01*
X160919281Y-116643134D01*
X160900868Y-116654170D01*
X160881462Y-116663349D01*
X160861250Y-116670581D01*
X160840426Y-116675797D01*
X160819191Y-116678947D01*
X160797750Y-116680000D01*
X160360250Y-116680000D01*
X160338809Y-116678947D01*
X160317574Y-116675797D01*
X160296750Y-116670581D01*
X160276538Y-116663349D01*
X160257132Y-116654170D01*
X160238719Y-116643134D01*
X160221476Y-116630346D01*
X160205570Y-116615930D01*
X160191154Y-116600024D01*
X160178366Y-116582781D01*
X160167330Y-116564368D01*
X160158151Y-116544962D01*
X160150919Y-116524750D01*
X160145703Y-116503926D01*
X160142553Y-116482691D01*
X160141500Y-116461250D01*
X160141500Y-115948750D01*
X160142553Y-115927309D01*
X160145703Y-115906074D01*
X160150919Y-115885250D01*
X160158151Y-115865038D01*
X160167330Y-115845632D01*
X160178366Y-115827219D01*
X160191154Y-115809976D01*
X160205570Y-115794070D01*
X160221476Y-115779654D01*
X160238719Y-115766866D01*
X160257132Y-115755830D01*
X160276538Y-115746651D01*
X160296750Y-115739419D01*
X160317574Y-115734203D01*
X160338809Y-115731053D01*
X160360250Y-115730000D01*
X160797750Y-115730000D01*
X160819191Y-115731053D01*
X160819191Y-115731053D01*
G37*
D11*
G04 #@! TD*
G04 #@! TO.P,C22,2*
G04 #@! TO.N,GNDA*
X160579000Y-116205000D03*
D10*
G04 #@! TO.N,GNDA*
G04 #@! TO.C,C23*
G36*
X162800191Y-116112053D02*
X162821426Y-116115203D01*
X162842250Y-116120419D01*
X162862462Y-116127651D01*
X162881868Y-116136830D01*
X162900281Y-116147866D01*
X162917524Y-116160654D01*
X162933430Y-116175070D01*
X162947846Y-116190976D01*
X162960634Y-116208219D01*
X162971670Y-116226632D01*
X162980849Y-116246038D01*
X162988081Y-116266250D01*
X162993297Y-116287074D01*
X162996447Y-116308309D01*
X162997500Y-116329750D01*
X162997500Y-116842250D01*
X162996447Y-116863691D01*
X162993297Y-116884926D01*
X162988081Y-116905750D01*
X162980849Y-116925962D01*
X162971670Y-116945368D01*
X162960634Y-116963781D01*
X162947846Y-116981024D01*
X162933430Y-116996930D01*
X162917524Y-117011346D01*
X162900281Y-117024134D01*
X162881868Y-117035170D01*
X162862462Y-117044349D01*
X162842250Y-117051581D01*
X162821426Y-117056797D01*
X162800191Y-117059947D01*
X162778750Y-117061000D01*
X162341250Y-117061000D01*
X162319809Y-117059947D01*
X162298574Y-117056797D01*
X162277750Y-117051581D01*
X162257538Y-117044349D01*
X162238132Y-117035170D01*
X162219719Y-117024134D01*
X162202476Y-117011346D01*
X162186570Y-116996930D01*
X162172154Y-116981024D01*
X162159366Y-116963781D01*
X162148330Y-116945368D01*
X162139151Y-116925962D01*
X162131919Y-116905750D01*
X162126703Y-116884926D01*
X162123553Y-116863691D01*
X162122500Y-116842250D01*
X162122500Y-116329750D01*
X162123553Y-116308309D01*
X162126703Y-116287074D01*
X162131919Y-116266250D01*
X162139151Y-116246038D01*
X162148330Y-116226632D01*
X162159366Y-116208219D01*
X162172154Y-116190976D01*
X162186570Y-116175070D01*
X162202476Y-116160654D01*
X162219719Y-116147866D01*
X162238132Y-116136830D01*
X162257538Y-116127651D01*
X162277750Y-116120419D01*
X162298574Y-116115203D01*
X162319809Y-116112053D01*
X162341250Y-116111000D01*
X162778750Y-116111000D01*
X162800191Y-116112053D01*
X162800191Y-116112053D01*
G37*
D11*
G04 #@! TD*
G04 #@! TO.P,C23,2*
G04 #@! TO.N,GNDA*
X162560000Y-116586000D03*
D10*
G04 #@! TO.N,Net-(C23-Pad1)*
G04 #@! TO.C,C23*
G36*
X164375191Y-116112053D02*
X164396426Y-116115203D01*
X164417250Y-116120419D01*
X164437462Y-116127651D01*
X164456868Y-116136830D01*
X164475281Y-116147866D01*
X164492524Y-116160654D01*
X164508430Y-116175070D01*
X164522846Y-116190976D01*
X164535634Y-116208219D01*
X164546670Y-116226632D01*
X164555849Y-116246038D01*
X164563081Y-116266250D01*
X164568297Y-116287074D01*
X164571447Y-116308309D01*
X164572500Y-116329750D01*
X164572500Y-116842250D01*
X164571447Y-116863691D01*
X164568297Y-116884926D01*
X164563081Y-116905750D01*
X164555849Y-116925962D01*
X164546670Y-116945368D01*
X164535634Y-116963781D01*
X164522846Y-116981024D01*
X164508430Y-116996930D01*
X164492524Y-117011346D01*
X164475281Y-117024134D01*
X164456868Y-117035170D01*
X164437462Y-117044349D01*
X164417250Y-117051581D01*
X164396426Y-117056797D01*
X164375191Y-117059947D01*
X164353750Y-117061000D01*
X163916250Y-117061000D01*
X163894809Y-117059947D01*
X163873574Y-117056797D01*
X163852750Y-117051581D01*
X163832538Y-117044349D01*
X163813132Y-117035170D01*
X163794719Y-117024134D01*
X163777476Y-117011346D01*
X163761570Y-116996930D01*
X163747154Y-116981024D01*
X163734366Y-116963781D01*
X163723330Y-116945368D01*
X163714151Y-116925962D01*
X163706919Y-116905750D01*
X163701703Y-116884926D01*
X163698553Y-116863691D01*
X163697500Y-116842250D01*
X163697500Y-116329750D01*
X163698553Y-116308309D01*
X163701703Y-116287074D01*
X163706919Y-116266250D01*
X163714151Y-116246038D01*
X163723330Y-116226632D01*
X163734366Y-116208219D01*
X163747154Y-116190976D01*
X163761570Y-116175070D01*
X163777476Y-116160654D01*
X163794719Y-116147866D01*
X163813132Y-116136830D01*
X163832538Y-116127651D01*
X163852750Y-116120419D01*
X163873574Y-116115203D01*
X163894809Y-116112053D01*
X163916250Y-116111000D01*
X164353750Y-116111000D01*
X164375191Y-116112053D01*
X164375191Y-116112053D01*
G37*
D11*
G04 #@! TD*
G04 #@! TO.P,C23,1*
G04 #@! TO.N,Net-(C23-Pad1)*
X164135000Y-116586000D03*
D10*
G04 #@! TO.N,/3V3_STM*
G04 #@! TO.C,C27*
G36*
X155891191Y-90458053D02*
X155912426Y-90461203D01*
X155933250Y-90466419D01*
X155953462Y-90473651D01*
X155972868Y-90482830D01*
X155991281Y-90493866D01*
X156008524Y-90506654D01*
X156024430Y-90521070D01*
X156038846Y-90536976D01*
X156051634Y-90554219D01*
X156062670Y-90572632D01*
X156071849Y-90592038D01*
X156079081Y-90612250D01*
X156084297Y-90633074D01*
X156087447Y-90654309D01*
X156088500Y-90675750D01*
X156088500Y-91188250D01*
X156087447Y-91209691D01*
X156084297Y-91230926D01*
X156079081Y-91251750D01*
X156071849Y-91271962D01*
X156062670Y-91291368D01*
X156051634Y-91309781D01*
X156038846Y-91327024D01*
X156024430Y-91342930D01*
X156008524Y-91357346D01*
X155991281Y-91370134D01*
X155972868Y-91381170D01*
X155953462Y-91390349D01*
X155933250Y-91397581D01*
X155912426Y-91402797D01*
X155891191Y-91405947D01*
X155869750Y-91407000D01*
X155432250Y-91407000D01*
X155410809Y-91405947D01*
X155389574Y-91402797D01*
X155368750Y-91397581D01*
X155348538Y-91390349D01*
X155329132Y-91381170D01*
X155310719Y-91370134D01*
X155293476Y-91357346D01*
X155277570Y-91342930D01*
X155263154Y-91327024D01*
X155250366Y-91309781D01*
X155239330Y-91291368D01*
X155230151Y-91271962D01*
X155222919Y-91251750D01*
X155217703Y-91230926D01*
X155214553Y-91209691D01*
X155213500Y-91188250D01*
X155213500Y-90675750D01*
X155214553Y-90654309D01*
X155217703Y-90633074D01*
X155222919Y-90612250D01*
X155230151Y-90592038D01*
X155239330Y-90572632D01*
X155250366Y-90554219D01*
X155263154Y-90536976D01*
X155277570Y-90521070D01*
X155293476Y-90506654D01*
X155310719Y-90493866D01*
X155329132Y-90482830D01*
X155348538Y-90473651D01*
X155368750Y-90466419D01*
X155389574Y-90461203D01*
X155410809Y-90458053D01*
X155432250Y-90457000D01*
X155869750Y-90457000D01*
X155891191Y-90458053D01*
X155891191Y-90458053D01*
G37*
D11*
G04 #@! TD*
G04 #@! TO.P,C27,1*
G04 #@! TO.N,/3V3_STM*
X155651000Y-90932000D03*
D10*
G04 #@! TO.N,GNDD*
G04 #@! TO.C,C27*
G36*
X157466191Y-90458053D02*
X157487426Y-90461203D01*
X157508250Y-90466419D01*
X157528462Y-90473651D01*
X157547868Y-90482830D01*
X157566281Y-90493866D01*
X157583524Y-90506654D01*
X157599430Y-90521070D01*
X157613846Y-90536976D01*
X157626634Y-90554219D01*
X157637670Y-90572632D01*
X157646849Y-90592038D01*
X157654081Y-90612250D01*
X157659297Y-90633074D01*
X157662447Y-90654309D01*
X157663500Y-90675750D01*
X157663500Y-91188250D01*
X157662447Y-91209691D01*
X157659297Y-91230926D01*
X157654081Y-91251750D01*
X157646849Y-91271962D01*
X157637670Y-91291368D01*
X157626634Y-91309781D01*
X157613846Y-91327024D01*
X157599430Y-91342930D01*
X157583524Y-91357346D01*
X157566281Y-91370134D01*
X157547868Y-91381170D01*
X157528462Y-91390349D01*
X157508250Y-91397581D01*
X157487426Y-91402797D01*
X157466191Y-91405947D01*
X157444750Y-91407000D01*
X157007250Y-91407000D01*
X156985809Y-91405947D01*
X156964574Y-91402797D01*
X156943750Y-91397581D01*
X156923538Y-91390349D01*
X156904132Y-91381170D01*
X156885719Y-91370134D01*
X156868476Y-91357346D01*
X156852570Y-91342930D01*
X156838154Y-91327024D01*
X156825366Y-91309781D01*
X156814330Y-91291368D01*
X156805151Y-91271962D01*
X156797919Y-91251750D01*
X156792703Y-91230926D01*
X156789553Y-91209691D01*
X156788500Y-91188250D01*
X156788500Y-90675750D01*
X156789553Y-90654309D01*
X156792703Y-90633074D01*
X156797919Y-90612250D01*
X156805151Y-90592038D01*
X156814330Y-90572632D01*
X156825366Y-90554219D01*
X156838154Y-90536976D01*
X156852570Y-90521070D01*
X156868476Y-90506654D01*
X156885719Y-90493866D01*
X156904132Y-90482830D01*
X156923538Y-90473651D01*
X156943750Y-90466419D01*
X156964574Y-90461203D01*
X156985809Y-90458053D01*
X157007250Y-90457000D01*
X157444750Y-90457000D01*
X157466191Y-90458053D01*
X157466191Y-90458053D01*
G37*
D11*
G04 #@! TD*
G04 #@! TO.P,C27,2*
G04 #@! TO.N,GNDD*
X157226000Y-90932000D03*
D10*
G04 #@! TO.N,Net-(C8-Pad1)*
G04 #@! TO.C,C8*
G36*
X155715642Y-88455174D02*
X155739303Y-88458684D01*
X155762507Y-88464496D01*
X155785029Y-88472554D01*
X155806653Y-88482782D01*
X155827170Y-88495079D01*
X155846383Y-88509329D01*
X155864107Y-88525393D01*
X155880171Y-88543117D01*
X155894421Y-88562330D01*
X155906718Y-88582847D01*
X155916946Y-88604471D01*
X155925004Y-88626993D01*
X155930816Y-88650197D01*
X155934326Y-88673858D01*
X155935500Y-88697750D01*
X155935500Y-89610250D01*
X155934326Y-89634142D01*
X155930816Y-89657803D01*
X155925004Y-89681007D01*
X155916946Y-89703529D01*
X155906718Y-89725153D01*
X155894421Y-89745670D01*
X155880171Y-89764883D01*
X155864107Y-89782607D01*
X155846383Y-89798671D01*
X155827170Y-89812921D01*
X155806653Y-89825218D01*
X155785029Y-89835446D01*
X155762507Y-89843504D01*
X155739303Y-89849316D01*
X155715642Y-89852826D01*
X155691750Y-89854000D01*
X155204250Y-89854000D01*
X155180358Y-89852826D01*
X155156697Y-89849316D01*
X155133493Y-89843504D01*
X155110971Y-89835446D01*
X155089347Y-89825218D01*
X155068830Y-89812921D01*
X155049617Y-89798671D01*
X155031893Y-89782607D01*
X155015829Y-89764883D01*
X155001579Y-89745670D01*
X154989282Y-89725153D01*
X154979054Y-89703529D01*
X154970996Y-89681007D01*
X154965184Y-89657803D01*
X154961674Y-89634142D01*
X154960500Y-89610250D01*
X154960500Y-88697750D01*
X154961674Y-88673858D01*
X154965184Y-88650197D01*
X154970996Y-88626993D01*
X154979054Y-88604471D01*
X154989282Y-88582847D01*
X155001579Y-88562330D01*
X155015829Y-88543117D01*
X155031893Y-88525393D01*
X155049617Y-88509329D01*
X155068830Y-88495079D01*
X155089347Y-88482782D01*
X155110971Y-88472554D01*
X155133493Y-88464496D01*
X155156697Y-88458684D01*
X155180358Y-88455174D01*
X155204250Y-88454000D01*
X155691750Y-88454000D01*
X155715642Y-88455174D01*
X155715642Y-88455174D01*
G37*
D14*
G04 #@! TD*
G04 #@! TO.P,C8,1*
G04 #@! TO.N,Net-(C8-Pad1)*
X155448000Y-89154000D03*
D10*
G04 #@! TO.N,GNDD*
G04 #@! TO.C,C8*
G36*
X157590642Y-88455174D02*
X157614303Y-88458684D01*
X157637507Y-88464496D01*
X157660029Y-88472554D01*
X157681653Y-88482782D01*
X157702170Y-88495079D01*
X157721383Y-88509329D01*
X157739107Y-88525393D01*
X157755171Y-88543117D01*
X157769421Y-88562330D01*
X157781718Y-88582847D01*
X157791946Y-88604471D01*
X157800004Y-88626993D01*
X157805816Y-88650197D01*
X157809326Y-88673858D01*
X157810500Y-88697750D01*
X157810500Y-89610250D01*
X157809326Y-89634142D01*
X157805816Y-89657803D01*
X157800004Y-89681007D01*
X157791946Y-89703529D01*
X157781718Y-89725153D01*
X157769421Y-89745670D01*
X157755171Y-89764883D01*
X157739107Y-89782607D01*
X157721383Y-89798671D01*
X157702170Y-89812921D01*
X157681653Y-89825218D01*
X157660029Y-89835446D01*
X157637507Y-89843504D01*
X157614303Y-89849316D01*
X157590642Y-89852826D01*
X157566750Y-89854000D01*
X157079250Y-89854000D01*
X157055358Y-89852826D01*
X157031697Y-89849316D01*
X157008493Y-89843504D01*
X156985971Y-89835446D01*
X156964347Y-89825218D01*
X156943830Y-89812921D01*
X156924617Y-89798671D01*
X156906893Y-89782607D01*
X156890829Y-89764883D01*
X156876579Y-89745670D01*
X156864282Y-89725153D01*
X156854054Y-89703529D01*
X156845996Y-89681007D01*
X156840184Y-89657803D01*
X156836674Y-89634142D01*
X156835500Y-89610250D01*
X156835500Y-88697750D01*
X156836674Y-88673858D01*
X156840184Y-88650197D01*
X156845996Y-88626993D01*
X156854054Y-88604471D01*
X156864282Y-88582847D01*
X156876579Y-88562330D01*
X156890829Y-88543117D01*
X156906893Y-88525393D01*
X156924617Y-88509329D01*
X156943830Y-88495079D01*
X156964347Y-88482782D01*
X156985971Y-88472554D01*
X157008493Y-88464496D01*
X157031697Y-88458684D01*
X157055358Y-88455174D01*
X157079250Y-88454000D01*
X157566750Y-88454000D01*
X157590642Y-88455174D01*
X157590642Y-88455174D01*
G37*
D14*
G04 #@! TD*
G04 #@! TO.P,C8,2*
G04 #@! TO.N,GNDD*
X157323000Y-89154000D03*
D10*
G04 #@! TO.N,Net-(C7-Pad1)*
G04 #@! TO.C,C7*
G36*
X158214142Y-81174674D02*
X158237803Y-81178184D01*
X158261007Y-81183996D01*
X158283529Y-81192054D01*
X158305153Y-81202282D01*
X158325670Y-81214579D01*
X158344883Y-81228829D01*
X158362607Y-81244893D01*
X158378671Y-81262617D01*
X158392921Y-81281830D01*
X158405218Y-81302347D01*
X158415446Y-81323971D01*
X158423504Y-81346493D01*
X158429316Y-81369697D01*
X158432826Y-81393358D01*
X158434000Y-81417250D01*
X158434000Y-81904750D01*
X158432826Y-81928642D01*
X158429316Y-81952303D01*
X158423504Y-81975507D01*
X158415446Y-81998029D01*
X158405218Y-82019653D01*
X158392921Y-82040170D01*
X158378671Y-82059383D01*
X158362607Y-82077107D01*
X158344883Y-82093171D01*
X158325670Y-82107421D01*
X158305153Y-82119718D01*
X158283529Y-82129946D01*
X158261007Y-82138004D01*
X158237803Y-82143816D01*
X158214142Y-82147326D01*
X158190250Y-82148500D01*
X157277750Y-82148500D01*
X157253858Y-82147326D01*
X157230197Y-82143816D01*
X157206993Y-82138004D01*
X157184471Y-82129946D01*
X157162847Y-82119718D01*
X157142330Y-82107421D01*
X157123117Y-82093171D01*
X157105393Y-82077107D01*
X157089329Y-82059383D01*
X157075079Y-82040170D01*
X157062782Y-82019653D01*
X157052554Y-81998029D01*
X157044496Y-81975507D01*
X157038684Y-81952303D01*
X157035174Y-81928642D01*
X157034000Y-81904750D01*
X157034000Y-81417250D01*
X157035174Y-81393358D01*
X157038684Y-81369697D01*
X157044496Y-81346493D01*
X157052554Y-81323971D01*
X157062782Y-81302347D01*
X157075079Y-81281830D01*
X157089329Y-81262617D01*
X157105393Y-81244893D01*
X157123117Y-81228829D01*
X157142330Y-81214579D01*
X157162847Y-81202282D01*
X157184471Y-81192054D01*
X157206993Y-81183996D01*
X157230197Y-81178184D01*
X157253858Y-81174674D01*
X157277750Y-81173500D01*
X158190250Y-81173500D01*
X158214142Y-81174674D01*
X158214142Y-81174674D01*
G37*
D14*
G04 #@! TD*
G04 #@! TO.P,C7,1*
G04 #@! TO.N,Net-(C7-Pad1)*
X157734000Y-81661000D03*
D10*
G04 #@! TO.N,GNDD*
G04 #@! TO.C,C7*
G36*
X158214142Y-83049674D02*
X158237803Y-83053184D01*
X158261007Y-83058996D01*
X158283529Y-83067054D01*
X158305153Y-83077282D01*
X158325670Y-83089579D01*
X158344883Y-83103829D01*
X158362607Y-83119893D01*
X158378671Y-83137617D01*
X158392921Y-83156830D01*
X158405218Y-83177347D01*
X158415446Y-83198971D01*
X158423504Y-83221493D01*
X158429316Y-83244697D01*
X158432826Y-83268358D01*
X158434000Y-83292250D01*
X158434000Y-83779750D01*
X158432826Y-83803642D01*
X158429316Y-83827303D01*
X158423504Y-83850507D01*
X158415446Y-83873029D01*
X158405218Y-83894653D01*
X158392921Y-83915170D01*
X158378671Y-83934383D01*
X158362607Y-83952107D01*
X158344883Y-83968171D01*
X158325670Y-83982421D01*
X158305153Y-83994718D01*
X158283529Y-84004946D01*
X158261007Y-84013004D01*
X158237803Y-84018816D01*
X158214142Y-84022326D01*
X158190250Y-84023500D01*
X157277750Y-84023500D01*
X157253858Y-84022326D01*
X157230197Y-84018816D01*
X157206993Y-84013004D01*
X157184471Y-84004946D01*
X157162847Y-83994718D01*
X157142330Y-83982421D01*
X157123117Y-83968171D01*
X157105393Y-83952107D01*
X157089329Y-83934383D01*
X157075079Y-83915170D01*
X157062782Y-83894653D01*
X157052554Y-83873029D01*
X157044496Y-83850507D01*
X157038684Y-83827303D01*
X157035174Y-83803642D01*
X157034000Y-83779750D01*
X157034000Y-83292250D01*
X157035174Y-83268358D01*
X157038684Y-83244697D01*
X157044496Y-83221493D01*
X157052554Y-83198971D01*
X157062782Y-83177347D01*
X157075079Y-83156830D01*
X157089329Y-83137617D01*
X157105393Y-83119893D01*
X157123117Y-83103829D01*
X157142330Y-83089579D01*
X157162847Y-83077282D01*
X157184471Y-83067054D01*
X157206993Y-83058996D01*
X157230197Y-83053184D01*
X157253858Y-83049674D01*
X157277750Y-83048500D01*
X158190250Y-83048500D01*
X158214142Y-83049674D01*
X158214142Y-83049674D01*
G37*
D14*
G04 #@! TD*
G04 #@! TO.P,C7,2*
G04 #@! TO.N,GNDD*
X157734000Y-83536000D03*
D10*
G04 #@! TO.N,Net-(C23-Pad1)*
G04 #@! TO.C,C26*
G36*
X164304505Y-113626204D02*
X164328773Y-113629804D01*
X164352572Y-113635765D01*
X164375671Y-113644030D01*
X164397850Y-113654520D01*
X164418893Y-113667132D01*
X164438599Y-113681747D01*
X164456777Y-113698223D01*
X164473253Y-113716401D01*
X164487868Y-113736107D01*
X164500480Y-113757150D01*
X164510970Y-113779329D01*
X164519235Y-113802428D01*
X164525196Y-113826227D01*
X164528796Y-113850495D01*
X164530000Y-113874999D01*
X164530000Y-114725001D01*
X164528796Y-114749505D01*
X164525196Y-114773773D01*
X164519235Y-114797572D01*
X164510970Y-114820671D01*
X164500480Y-114842850D01*
X164487868Y-114863893D01*
X164473253Y-114883599D01*
X164456777Y-114901777D01*
X164438599Y-114918253D01*
X164418893Y-114932868D01*
X164397850Y-114945480D01*
X164375671Y-114955970D01*
X164352572Y-114964235D01*
X164328773Y-114970196D01*
X164304505Y-114973796D01*
X164280001Y-114975000D01*
X163379999Y-114975000D01*
X163355495Y-114973796D01*
X163331227Y-114970196D01*
X163307428Y-114964235D01*
X163284329Y-114955970D01*
X163262150Y-114945480D01*
X163241107Y-114932868D01*
X163221401Y-114918253D01*
X163203223Y-114901777D01*
X163186747Y-114883599D01*
X163172132Y-114863893D01*
X163159520Y-114842850D01*
X163149030Y-114820671D01*
X163140765Y-114797572D01*
X163134804Y-114773773D01*
X163131204Y-114749505D01*
X163130000Y-114725001D01*
X163130000Y-113874999D01*
X163131204Y-113850495D01*
X163134804Y-113826227D01*
X163140765Y-113802428D01*
X163149030Y-113779329D01*
X163159520Y-113757150D01*
X163172132Y-113736107D01*
X163186747Y-113716401D01*
X163203223Y-113698223D01*
X163221401Y-113681747D01*
X163241107Y-113667132D01*
X163262150Y-113654520D01*
X163284329Y-113644030D01*
X163307428Y-113635765D01*
X163331227Y-113629804D01*
X163355495Y-113626204D01*
X163379999Y-113625000D01*
X164280001Y-113625000D01*
X164304505Y-113626204D01*
X164304505Y-113626204D01*
G37*
D15*
G04 #@! TD*
G04 #@! TO.P,C26,1*
G04 #@! TO.N,Net-(C23-Pad1)*
X163830000Y-114300000D03*
D10*
G04 #@! TO.N,GNDA*
G04 #@! TO.C,C26*
G36*
X161604505Y-113626204D02*
X161628773Y-113629804D01*
X161652572Y-113635765D01*
X161675671Y-113644030D01*
X161697850Y-113654520D01*
X161718893Y-113667132D01*
X161738599Y-113681747D01*
X161756777Y-113698223D01*
X161773253Y-113716401D01*
X161787868Y-113736107D01*
X161800480Y-113757150D01*
X161810970Y-113779329D01*
X161819235Y-113802428D01*
X161825196Y-113826227D01*
X161828796Y-113850495D01*
X161830000Y-113874999D01*
X161830000Y-114725001D01*
X161828796Y-114749505D01*
X161825196Y-114773773D01*
X161819235Y-114797572D01*
X161810970Y-114820671D01*
X161800480Y-114842850D01*
X161787868Y-114863893D01*
X161773253Y-114883599D01*
X161756777Y-114901777D01*
X161738599Y-114918253D01*
X161718893Y-114932868D01*
X161697850Y-114945480D01*
X161675671Y-114955970D01*
X161652572Y-114964235D01*
X161628773Y-114970196D01*
X161604505Y-114973796D01*
X161580001Y-114975000D01*
X160679999Y-114975000D01*
X160655495Y-114973796D01*
X160631227Y-114970196D01*
X160607428Y-114964235D01*
X160584329Y-114955970D01*
X160562150Y-114945480D01*
X160541107Y-114932868D01*
X160521401Y-114918253D01*
X160503223Y-114901777D01*
X160486747Y-114883599D01*
X160472132Y-114863893D01*
X160459520Y-114842850D01*
X160449030Y-114820671D01*
X160440765Y-114797572D01*
X160434804Y-114773773D01*
X160431204Y-114749505D01*
X160430000Y-114725001D01*
X160430000Y-113874999D01*
X160431204Y-113850495D01*
X160434804Y-113826227D01*
X160440765Y-113802428D01*
X160449030Y-113779329D01*
X160459520Y-113757150D01*
X160472132Y-113736107D01*
X160486747Y-113716401D01*
X160503223Y-113698223D01*
X160521401Y-113681747D01*
X160541107Y-113667132D01*
X160562150Y-113654520D01*
X160584329Y-113644030D01*
X160607428Y-113635765D01*
X160631227Y-113629804D01*
X160655495Y-113626204D01*
X160679999Y-113625000D01*
X161580001Y-113625000D01*
X161604505Y-113626204D01*
X161604505Y-113626204D01*
G37*
D15*
G04 #@! TD*
G04 #@! TO.P,C26,2*
G04 #@! TO.N,GNDA*
X161130000Y-114300000D03*
D16*
G04 #@! TO.P,J3,6*
G04 #@! TO.N,GND*
X124886084Y-82520446D03*
X124886084Y-87520446D03*
D17*
X122186084Y-81520446D03*
X122186084Y-88520446D03*
G04 #@! TD*
D10*
G04 #@! TO.N,+3.3VA*
G04 #@! TO.C,L5*
G36*
X155491642Y-112458174D02*
X155515303Y-112461684D01*
X155538507Y-112467496D01*
X155561029Y-112475554D01*
X155582653Y-112485782D01*
X155603170Y-112498079D01*
X155622383Y-112512329D01*
X155640107Y-112528393D01*
X155656171Y-112546117D01*
X155670421Y-112565330D01*
X155682718Y-112585847D01*
X155692946Y-112607471D01*
X155701004Y-112629993D01*
X155706816Y-112653197D01*
X155710326Y-112676858D01*
X155711500Y-112700750D01*
X155711500Y-113613250D01*
X155710326Y-113637142D01*
X155706816Y-113660803D01*
X155701004Y-113684007D01*
X155692946Y-113706529D01*
X155682718Y-113728153D01*
X155670421Y-113748670D01*
X155656171Y-113767883D01*
X155640107Y-113785607D01*
X155622383Y-113801671D01*
X155603170Y-113815921D01*
X155582653Y-113828218D01*
X155561029Y-113838446D01*
X155538507Y-113846504D01*
X155515303Y-113852316D01*
X155491642Y-113855826D01*
X155467750Y-113857000D01*
X154980250Y-113857000D01*
X154956358Y-113855826D01*
X154932697Y-113852316D01*
X154909493Y-113846504D01*
X154886971Y-113838446D01*
X154865347Y-113828218D01*
X154844830Y-113815921D01*
X154825617Y-113801671D01*
X154807893Y-113785607D01*
X154791829Y-113767883D01*
X154777579Y-113748670D01*
X154765282Y-113728153D01*
X154755054Y-113706529D01*
X154746996Y-113684007D01*
X154741184Y-113660803D01*
X154737674Y-113637142D01*
X154736500Y-113613250D01*
X154736500Y-112700750D01*
X154737674Y-112676858D01*
X154741184Y-112653197D01*
X154746996Y-112629993D01*
X154755054Y-112607471D01*
X154765282Y-112585847D01*
X154777579Y-112565330D01*
X154791829Y-112546117D01*
X154807893Y-112528393D01*
X154825617Y-112512329D01*
X154844830Y-112498079D01*
X154865347Y-112485782D01*
X154886971Y-112475554D01*
X154909493Y-112467496D01*
X154932697Y-112461684D01*
X154956358Y-112458174D01*
X154980250Y-112457000D01*
X155467750Y-112457000D01*
X155491642Y-112458174D01*
X155491642Y-112458174D01*
G37*
D14*
G04 #@! TD*
G04 #@! TO.P,L5,1*
G04 #@! TO.N,+3.3VA*
X155224000Y-113157000D03*
D10*
G04 #@! TO.N,Net-(C30-Pad1)*
G04 #@! TO.C,L5*
G36*
X157366642Y-112458174D02*
X157390303Y-112461684D01*
X157413507Y-112467496D01*
X157436029Y-112475554D01*
X157457653Y-112485782D01*
X157478170Y-112498079D01*
X157497383Y-112512329D01*
X157515107Y-112528393D01*
X157531171Y-112546117D01*
X157545421Y-112565330D01*
X157557718Y-112585847D01*
X157567946Y-112607471D01*
X157576004Y-112629993D01*
X157581816Y-112653197D01*
X157585326Y-112676858D01*
X157586500Y-112700750D01*
X157586500Y-113613250D01*
X157585326Y-113637142D01*
X157581816Y-113660803D01*
X157576004Y-113684007D01*
X157567946Y-113706529D01*
X157557718Y-113728153D01*
X157545421Y-113748670D01*
X157531171Y-113767883D01*
X157515107Y-113785607D01*
X157497383Y-113801671D01*
X157478170Y-113815921D01*
X157457653Y-113828218D01*
X157436029Y-113838446D01*
X157413507Y-113846504D01*
X157390303Y-113852316D01*
X157366642Y-113855826D01*
X157342750Y-113857000D01*
X156855250Y-113857000D01*
X156831358Y-113855826D01*
X156807697Y-113852316D01*
X156784493Y-113846504D01*
X156761971Y-113838446D01*
X156740347Y-113828218D01*
X156719830Y-113815921D01*
X156700617Y-113801671D01*
X156682893Y-113785607D01*
X156666829Y-113767883D01*
X156652579Y-113748670D01*
X156640282Y-113728153D01*
X156630054Y-113706529D01*
X156621996Y-113684007D01*
X156616184Y-113660803D01*
X156612674Y-113637142D01*
X156611500Y-113613250D01*
X156611500Y-112700750D01*
X156612674Y-112676858D01*
X156616184Y-112653197D01*
X156621996Y-112629993D01*
X156630054Y-112607471D01*
X156640282Y-112585847D01*
X156652579Y-112565330D01*
X156666829Y-112546117D01*
X156682893Y-112528393D01*
X156700617Y-112512329D01*
X156719830Y-112498079D01*
X156740347Y-112485782D01*
X156761971Y-112475554D01*
X156784493Y-112467496D01*
X156807697Y-112461684D01*
X156831358Y-112458174D01*
X156855250Y-112457000D01*
X157342750Y-112457000D01*
X157366642Y-112458174D01*
X157366642Y-112458174D01*
G37*
D14*
G04 #@! TD*
G04 #@! TO.P,L5,2*
G04 #@! TO.N,Net-(C30-Pad1)*
X157099000Y-113157000D03*
D10*
G04 #@! TO.N,/3V3_STM*
G04 #@! TO.C,L1*
G36*
X157452142Y-92096674D02*
X157475803Y-92100184D01*
X157499007Y-92105996D01*
X157521529Y-92114054D01*
X157543153Y-92124282D01*
X157563670Y-92136579D01*
X157582883Y-92150829D01*
X157600607Y-92166893D01*
X157616671Y-92184617D01*
X157630921Y-92203830D01*
X157643218Y-92224347D01*
X157653446Y-92245971D01*
X157661504Y-92268493D01*
X157667316Y-92291697D01*
X157670826Y-92315358D01*
X157672000Y-92339250D01*
X157672000Y-92826750D01*
X157670826Y-92850642D01*
X157667316Y-92874303D01*
X157661504Y-92897507D01*
X157653446Y-92920029D01*
X157643218Y-92941653D01*
X157630921Y-92962170D01*
X157616671Y-92981383D01*
X157600607Y-92999107D01*
X157582883Y-93015171D01*
X157563670Y-93029421D01*
X157543153Y-93041718D01*
X157521529Y-93051946D01*
X157499007Y-93060004D01*
X157475803Y-93065816D01*
X157452142Y-93069326D01*
X157428250Y-93070500D01*
X156515750Y-93070500D01*
X156491858Y-93069326D01*
X156468197Y-93065816D01*
X156444993Y-93060004D01*
X156422471Y-93051946D01*
X156400847Y-93041718D01*
X156380330Y-93029421D01*
X156361117Y-93015171D01*
X156343393Y-92999107D01*
X156327329Y-92981383D01*
X156313079Y-92962170D01*
X156300782Y-92941653D01*
X156290554Y-92920029D01*
X156282496Y-92897507D01*
X156276684Y-92874303D01*
X156273174Y-92850642D01*
X156272000Y-92826750D01*
X156272000Y-92339250D01*
X156273174Y-92315358D01*
X156276684Y-92291697D01*
X156282496Y-92268493D01*
X156290554Y-92245971D01*
X156300782Y-92224347D01*
X156313079Y-92203830D01*
X156327329Y-92184617D01*
X156343393Y-92166893D01*
X156361117Y-92150829D01*
X156380330Y-92136579D01*
X156400847Y-92124282D01*
X156422471Y-92114054D01*
X156444993Y-92105996D01*
X156468197Y-92100184D01*
X156491858Y-92096674D01*
X156515750Y-92095500D01*
X157428250Y-92095500D01*
X157452142Y-92096674D01*
X157452142Y-92096674D01*
G37*
D14*
G04 #@! TD*
G04 #@! TO.P,L1,2*
G04 #@! TO.N,/3V3_STM*
X156972000Y-92583000D03*
D10*
G04 #@! TO.N,+3V3*
G04 #@! TO.C,L1*
G36*
X157452142Y-93971674D02*
X157475803Y-93975184D01*
X157499007Y-93980996D01*
X157521529Y-93989054D01*
X157543153Y-93999282D01*
X157563670Y-94011579D01*
X157582883Y-94025829D01*
X157600607Y-94041893D01*
X157616671Y-94059617D01*
X157630921Y-94078830D01*
X157643218Y-94099347D01*
X157653446Y-94120971D01*
X157661504Y-94143493D01*
X157667316Y-94166697D01*
X157670826Y-94190358D01*
X157672000Y-94214250D01*
X157672000Y-94701750D01*
X157670826Y-94725642D01*
X157667316Y-94749303D01*
X157661504Y-94772507D01*
X157653446Y-94795029D01*
X157643218Y-94816653D01*
X157630921Y-94837170D01*
X157616671Y-94856383D01*
X157600607Y-94874107D01*
X157582883Y-94890171D01*
X157563670Y-94904421D01*
X157543153Y-94916718D01*
X157521529Y-94926946D01*
X157499007Y-94935004D01*
X157475803Y-94940816D01*
X157452142Y-94944326D01*
X157428250Y-94945500D01*
X156515750Y-94945500D01*
X156491858Y-94944326D01*
X156468197Y-94940816D01*
X156444993Y-94935004D01*
X156422471Y-94926946D01*
X156400847Y-94916718D01*
X156380330Y-94904421D01*
X156361117Y-94890171D01*
X156343393Y-94874107D01*
X156327329Y-94856383D01*
X156313079Y-94837170D01*
X156300782Y-94816653D01*
X156290554Y-94795029D01*
X156282496Y-94772507D01*
X156276684Y-94749303D01*
X156273174Y-94725642D01*
X156272000Y-94701750D01*
X156272000Y-94214250D01*
X156273174Y-94190358D01*
X156276684Y-94166697D01*
X156282496Y-94143493D01*
X156290554Y-94120971D01*
X156300782Y-94099347D01*
X156313079Y-94078830D01*
X156327329Y-94059617D01*
X156343393Y-94041893D01*
X156361117Y-94025829D01*
X156380330Y-94011579D01*
X156400847Y-93999282D01*
X156422471Y-93989054D01*
X156444993Y-93980996D01*
X156468197Y-93975184D01*
X156491858Y-93971674D01*
X156515750Y-93970500D01*
X157428250Y-93970500D01*
X157452142Y-93971674D01*
X157452142Y-93971674D01*
G37*
D14*
G04 #@! TD*
G04 #@! TO.P,L1,1*
G04 #@! TO.N,+3V3*
X156972000Y-94458000D03*
D10*
G04 #@! TO.N,+3V3*
G04 #@! TO.C,L2*
G36*
X168161642Y-107505174D02*
X168185303Y-107508684D01*
X168208507Y-107514496D01*
X168231029Y-107522554D01*
X168252653Y-107532782D01*
X168273170Y-107545079D01*
X168292383Y-107559329D01*
X168310107Y-107575393D01*
X168326171Y-107593117D01*
X168340421Y-107612330D01*
X168352718Y-107632847D01*
X168362946Y-107654471D01*
X168371004Y-107676993D01*
X168376816Y-107700197D01*
X168380326Y-107723858D01*
X168381500Y-107747750D01*
X168381500Y-108660250D01*
X168380326Y-108684142D01*
X168376816Y-108707803D01*
X168371004Y-108731007D01*
X168362946Y-108753529D01*
X168352718Y-108775153D01*
X168340421Y-108795670D01*
X168326171Y-108814883D01*
X168310107Y-108832607D01*
X168292383Y-108848671D01*
X168273170Y-108862921D01*
X168252653Y-108875218D01*
X168231029Y-108885446D01*
X168208507Y-108893504D01*
X168185303Y-108899316D01*
X168161642Y-108902826D01*
X168137750Y-108904000D01*
X167650250Y-108904000D01*
X167626358Y-108902826D01*
X167602697Y-108899316D01*
X167579493Y-108893504D01*
X167556971Y-108885446D01*
X167535347Y-108875218D01*
X167514830Y-108862921D01*
X167495617Y-108848671D01*
X167477893Y-108832607D01*
X167461829Y-108814883D01*
X167447579Y-108795670D01*
X167435282Y-108775153D01*
X167425054Y-108753529D01*
X167416996Y-108731007D01*
X167411184Y-108707803D01*
X167407674Y-108684142D01*
X167406500Y-108660250D01*
X167406500Y-107747750D01*
X167407674Y-107723858D01*
X167411184Y-107700197D01*
X167416996Y-107676993D01*
X167425054Y-107654471D01*
X167435282Y-107632847D01*
X167447579Y-107612330D01*
X167461829Y-107593117D01*
X167477893Y-107575393D01*
X167495617Y-107559329D01*
X167514830Y-107545079D01*
X167535347Y-107532782D01*
X167556971Y-107522554D01*
X167579493Y-107514496D01*
X167602697Y-107508684D01*
X167626358Y-107505174D01*
X167650250Y-107504000D01*
X168137750Y-107504000D01*
X168161642Y-107505174D01*
X168161642Y-107505174D01*
G37*
D14*
G04 #@! TD*
G04 #@! TO.P,L2,1*
G04 #@! TO.N,+3V3*
X167894000Y-108204000D03*
D10*
G04 #@! TO.N,Net-(C18-Pad1)*
G04 #@! TO.C,L2*
G36*
X166286642Y-107505174D02*
X166310303Y-107508684D01*
X166333507Y-107514496D01*
X166356029Y-107522554D01*
X166377653Y-107532782D01*
X166398170Y-107545079D01*
X166417383Y-107559329D01*
X166435107Y-107575393D01*
X166451171Y-107593117D01*
X166465421Y-107612330D01*
X166477718Y-107632847D01*
X166487946Y-107654471D01*
X166496004Y-107676993D01*
X166501816Y-107700197D01*
X166505326Y-107723858D01*
X166506500Y-107747750D01*
X166506500Y-108660250D01*
X166505326Y-108684142D01*
X166501816Y-108707803D01*
X166496004Y-108731007D01*
X166487946Y-108753529D01*
X166477718Y-108775153D01*
X166465421Y-108795670D01*
X166451171Y-108814883D01*
X166435107Y-108832607D01*
X166417383Y-108848671D01*
X166398170Y-108862921D01*
X166377653Y-108875218D01*
X166356029Y-108885446D01*
X166333507Y-108893504D01*
X166310303Y-108899316D01*
X166286642Y-108902826D01*
X166262750Y-108904000D01*
X165775250Y-108904000D01*
X165751358Y-108902826D01*
X165727697Y-108899316D01*
X165704493Y-108893504D01*
X165681971Y-108885446D01*
X165660347Y-108875218D01*
X165639830Y-108862921D01*
X165620617Y-108848671D01*
X165602893Y-108832607D01*
X165586829Y-108814883D01*
X165572579Y-108795670D01*
X165560282Y-108775153D01*
X165550054Y-108753529D01*
X165541996Y-108731007D01*
X165536184Y-108707803D01*
X165532674Y-108684142D01*
X165531500Y-108660250D01*
X165531500Y-107747750D01*
X165532674Y-107723858D01*
X165536184Y-107700197D01*
X165541996Y-107676993D01*
X165550054Y-107654471D01*
X165560282Y-107632847D01*
X165572579Y-107612330D01*
X165586829Y-107593117D01*
X165602893Y-107575393D01*
X165620617Y-107559329D01*
X165639830Y-107545079D01*
X165660347Y-107532782D01*
X165681971Y-107522554D01*
X165704493Y-107514496D01*
X165727697Y-107508684D01*
X165751358Y-107505174D01*
X165775250Y-107504000D01*
X166262750Y-107504000D01*
X166286642Y-107505174D01*
X166286642Y-107505174D01*
G37*
D14*
G04 #@! TD*
G04 #@! TO.P,L2,2*
G04 #@! TO.N,Net-(C18-Pad1)*
X166019000Y-108204000D03*
D18*
G04 #@! TO.N,/I2S3_CK*
X160782000Y-94742000D03*
X162306000Y-94742000D03*
G04 #@! TO.N,Net-(J3-Pad1)*
X126746000Y-83312000D03*
X127000000Y-90424000D03*
G04 #@! TO.N,+3V3*
X150494998Y-94360998D03*
X164084000Y-95885000D03*
X165608000Y-101600000D03*
G04 #@! TO.N,+3.3VA*
X150749000Y-111887000D03*
G04 #@! TO.N,GND*
X121920000Y-104140000D03*
X124460000Y-101600000D03*
X121920000Y-99060000D03*
X124460000Y-96520000D03*
X121920000Y-93980000D03*
X127000000Y-93980000D03*
X124460000Y-91440000D03*
X129540000Y-96520000D03*
X129540000Y-101600000D03*
G04 #@! TO.N,SPI_MOSI*
X164418795Y-104430990D03*
X165948825Y-104516023D03*
G04 #@! TO.N,I2S_MCK*
X151892000Y-105156000D03*
X169672000Y-111506000D03*
X158242000Y-105918000D03*
X166624000Y-102616000D03*
X152908000Y-92710000D03*
X152908000Y-90424004D03*
G04 #@! TO.N,/I2S2ext_SD*
X154692045Y-102616008D03*
X151892000Y-102616000D03*
G04 #@! TO.N,I2S_CK*
X165862000Y-98044000D03*
X150368000Y-98044000D03*
G04 #@! TO.N,I2S_WSI*
X153162000Y-100076000D03*
X150622000Y-99568000D03*
G04 #@! TO.N,Net-(C20-Pad1)*
X131064000Y-105918000D03*
X129413000Y-105918000D03*
G04 #@! TO.N,Net-(C18-Pad1)*
X166116000Y-110236000D03*
X165862000Y-106934000D03*
X157174567Y-107202946D03*
X162740007Y-109623876D03*
G04 #@! TO.N,Net-(C22-Pad1)*
X158242000Y-117094000D03*
G04 #@! TO.N,Net-(C23-Pad1)*
X165354000Y-115316000D03*
G04 #@! TO.N,Net-(C7-Pad1)*
X156591000Y-80137000D03*
G04 #@! TO.N,Net-(C8-Pad1)*
X154178000Y-90170000D03*
G04 #@! TO.N,GNDA*
X177038000Y-119634000D03*
X184404000Y-119634000D03*
X146304000Y-121158000D03*
X154178000Y-121158000D03*
X143002000Y-120904000D03*
X133350000Y-120904000D03*
X162560000Y-115570000D03*
X159766000Y-114300000D03*
X129794000Y-114681000D03*
X147320000Y-109220000D03*
X144780000Y-106680000D03*
X142240000Y-109220000D03*
X137160000Y-109220000D03*
X132080000Y-109220000D03*
X185420000Y-114300000D03*
X190500000Y-114300000D03*
X195580000Y-114300000D03*
X193040000Y-116840000D03*
X187960000Y-116840000D03*
X182880000Y-116840000D03*
X180340000Y-114300000D03*
X177800000Y-116840000D03*
X190500000Y-119380000D03*
X195580000Y-119380000D03*
X193040000Y-121920000D03*
X195580000Y-124460000D03*
X190500000Y-124460000D03*
X187960000Y-121920000D03*
X187960000Y-127000000D03*
X193040000Y-127000000D03*
X190500000Y-129540000D03*
X195580000Y-129540000D03*
X193040000Y-132080000D03*
X187960000Y-132080000D03*
X190500000Y-134620000D03*
X195580000Y-134620000D03*
X193040000Y-137160000D03*
X190500000Y-139700000D03*
X195580000Y-139700000D03*
X193040000Y-142240000D03*
X185420000Y-139700000D03*
X180340000Y-139700000D03*
X175260000Y-139700000D03*
X177800000Y-137160000D03*
X177800000Y-142240000D03*
X182880000Y-142240000D03*
X182880000Y-137160000D03*
X180340000Y-134620000D03*
X185420000Y-134620000D03*
X182880000Y-132080000D03*
X180340000Y-144780000D03*
X182880000Y-147320000D03*
X177800000Y-147320000D03*
X185420000Y-144780000D03*
X187960000Y-147320000D03*
X175260000Y-144780000D03*
X172720000Y-147320000D03*
X167640000Y-147320000D03*
X170180000Y-144780000D03*
X165100000Y-144780000D03*
X162560000Y-147320000D03*
X160020000Y-144780000D03*
X157480000Y-147320000D03*
X154940000Y-144780000D03*
X152400000Y-147320000D03*
X149860000Y-144780000D03*
X157480000Y-142240000D03*
X162560000Y-142240000D03*
X160020000Y-139700000D03*
X154940000Y-139700000D03*
X157480000Y-137160000D03*
X162560000Y-137160000D03*
X160020000Y-134620000D03*
X162560000Y-132080000D03*
X157480000Y-132080000D03*
X160020000Y-129540000D03*
X162560000Y-127000000D03*
X157480000Y-127000000D03*
X160020000Y-124460000D03*
X165100000Y-124460000D03*
X167640000Y-127000000D03*
X170180000Y-124460000D03*
X172720000Y-127000000D03*
X175260000Y-124460000D03*
X177800000Y-127000000D03*
X180340000Y-124460000D03*
X182880000Y-127000000D03*
X180340000Y-129540000D03*
X177800000Y-132080000D03*
X175260000Y-134620000D03*
X167640000Y-132080000D03*
X172720000Y-132080000D03*
X175260000Y-129540000D03*
X170180000Y-139700000D03*
X165100000Y-139700000D03*
X147320000Y-147320000D03*
X144780000Y-144780000D03*
X142240000Y-147320000D03*
X139700000Y-144780000D03*
X137160000Y-147320000D03*
X134620000Y-144780000D03*
X132080000Y-147320000D03*
X129540000Y-144780000D03*
X137160000Y-142240000D03*
X142240000Y-142240000D03*
X139700000Y-139700000D03*
X134620000Y-139700000D03*
X137160000Y-137160000D03*
X142240000Y-137160000D03*
X144780000Y-139700000D03*
X139700000Y-134620000D03*
X142240000Y-132080000D03*
X137160000Y-129540000D03*
X134620000Y-132080000D03*
X132080000Y-134620000D03*
X129540000Y-139700000D03*
X132080000Y-137160000D03*
X132080000Y-142240000D03*
X142240000Y-127000000D03*
X144780000Y-124460000D03*
X147320000Y-127000000D03*
X137160000Y-124460000D03*
X132080000Y-124460000D03*
X134620000Y-127000000D03*
X129540000Y-127000000D03*
X127000000Y-124460000D03*
X124460000Y-127000000D03*
X121920000Y-124460000D03*
X124460000Y-121920000D03*
X129540000Y-121920000D03*
X127000000Y-119380000D03*
X132080000Y-119380000D03*
X121920000Y-119380000D03*
X124460000Y-116840000D03*
X129540000Y-116840000D03*
X134620000Y-116840000D03*
X121920000Y-114300000D03*
X121920000Y-109220000D03*
X121920000Y-129540000D03*
X127000000Y-129540000D03*
X124460000Y-132080000D03*
X121920000Y-134620000D03*
X124460000Y-137160000D03*
X121920000Y-139700000D03*
X124460000Y-142240000D03*
X121920000Y-144780000D03*
X127000000Y-147320000D03*
X162560000Y-121920000D03*
X157480000Y-121920000D03*
X160020000Y-119380000D03*
X165100000Y-119380000D03*
X154940000Y-119380000D03*
X154940000Y-129540000D03*
X152400000Y-124460000D03*
X152400000Y-134620000D03*
G04 #@! TO.N,GNDD*
X163195000Y-91567000D03*
X165354000Y-83185000D03*
X165354000Y-86106000D03*
X172212000Y-93218000D03*
X173228000Y-87503000D03*
X178054000Y-108966000D03*
X164846000Y-106680000D03*
X163322000Y-71882000D03*
X134366000Y-97028000D03*
X142367000Y-100838000D03*
X135382000Y-102489000D03*
X146177000Y-71882000D03*
X129540000Y-71120000D03*
X132080000Y-73660000D03*
X134620000Y-71120000D03*
X137160000Y-73660000D03*
X139700000Y-71120000D03*
X142240000Y-73660000D03*
X144780000Y-71120000D03*
X144780000Y-76200000D03*
X139700000Y-76200000D03*
X134620000Y-76200000D03*
X129540000Y-76200000D03*
X127000000Y-73660000D03*
X127000000Y-78740000D03*
X132080000Y-78740000D03*
X137160000Y-78740000D03*
X142240000Y-78740000D03*
X147320000Y-78740000D03*
X137160000Y-83820000D03*
X142240000Y-83820000D03*
X147320000Y-83820000D03*
X144780000Y-86360000D03*
X149860000Y-86360000D03*
X139700000Y-86360000D03*
X134620000Y-86360000D03*
X137160000Y-88900000D03*
X142240000Y-88900000D03*
X147320000Y-88900000D03*
X144780000Y-91440000D03*
X139700000Y-91440000D03*
X134620000Y-91440000D03*
X137160000Y-93980000D03*
X142240000Y-93980000D03*
X147320000Y-93980000D03*
X149860000Y-91440000D03*
X147320000Y-99060000D03*
X144780000Y-101600000D03*
X147320000Y-104140000D03*
X149860000Y-101600000D03*
X149860000Y-106680000D03*
X152400000Y-109220000D03*
X167640000Y-71120000D03*
X170180000Y-73660000D03*
X172720000Y-71120000D03*
X175260000Y-73660000D03*
X177800000Y-71120000D03*
X180340000Y-73660000D03*
X182880000Y-71120000D03*
X185420000Y-73660000D03*
X187960000Y-71120000D03*
X190500000Y-73660000D03*
X187960000Y-76200000D03*
X182880000Y-76200000D03*
X177800000Y-76200000D03*
X172720000Y-76200000D03*
X167640000Y-76200000D03*
X165100000Y-73660000D03*
X180340000Y-78740000D03*
X185420000Y-78740000D03*
X190500000Y-78740000D03*
X182880000Y-81280000D03*
X187960000Y-81280000D03*
X193040000Y-81280000D03*
X195580000Y-78740000D03*
X185420000Y-83820000D03*
X190500000Y-83820000D03*
X195580000Y-83820000D03*
X193040000Y-86360000D03*
X187960000Y-86360000D03*
X182880000Y-86360000D03*
X185420000Y-88900000D03*
X190500000Y-88900000D03*
X195580000Y-88900000D03*
X182880000Y-91440000D03*
X187960000Y-91440000D03*
X193040000Y-91440000D03*
X190500000Y-93980000D03*
X185420000Y-93980000D03*
X195580000Y-93980000D03*
X193040000Y-96520000D03*
X182880000Y-96520000D03*
X195580000Y-99060000D03*
X190500000Y-99060000D03*
X185420000Y-99060000D03*
X187960000Y-96520000D03*
X185420000Y-104140000D03*
X195580000Y-104140000D03*
X187960000Y-101600000D03*
X193040000Y-101600000D03*
X190500000Y-104140000D03*
X182880000Y-101600000D03*
X182880000Y-106680000D03*
X190500000Y-109220000D03*
X195580000Y-109220000D03*
X193040000Y-106680000D03*
X187960000Y-106680000D03*
X185420000Y-109220000D03*
X180340000Y-104140000D03*
X182880000Y-111760000D03*
X187960000Y-111760000D03*
X193040000Y-111760000D03*
G04 #@! TO.N,/3V3_STM*
X167386000Y-91694000D03*
X165735000Y-92710000D03*
X155448000Y-92456000D03*
X155575000Y-80264000D03*
X164465000Y-80136996D03*
X168012855Y-84579416D03*
G04 #@! TO.N,Net-(C30-Pad1)*
X156210000Y-112268000D03*
G04 #@! TO.N,LED7*
X165862000Y-80010000D03*
X165862000Y-76962000D03*
G04 #@! TO.N,USB_D+*
X133350000Y-81788000D03*
X133350000Y-85344000D03*
G04 #@! TD*
D19*
G04 #@! TO.N,/I2S3_CK*
X160782000Y-94742000D02*
X162306000Y-94742000D01*
G04 #@! TO.N,Net-(J3-Pad1)*
X126746000Y-83312000D02*
X126238000Y-83820000D01*
X126238000Y-83820000D02*
X124206000Y-83820000D01*
X124206000Y-83820000D02*
X123698000Y-84328000D01*
X123698000Y-84328000D02*
X123698000Y-89154000D01*
X123698000Y-89154000D02*
X124968000Y-90424000D01*
X124968000Y-90424000D02*
X127000000Y-90424000D01*
G04 #@! TO.N,+3V3*
X156972000Y-94458000D02*
X150592000Y-94458000D01*
X150592000Y-94458000D02*
X150494998Y-94360998D01*
X167894000Y-108204000D02*
X167894000Y-105410000D01*
X167894000Y-105410000D02*
X165608000Y-103124000D01*
X158526000Y-96012000D02*
X156972000Y-94458000D01*
X158526000Y-96012000D02*
X163957000Y-96012000D01*
X163957000Y-96012000D02*
X164084000Y-95885000D01*
X165608000Y-101600000D02*
X165608000Y-103124000D01*
G04 #@! TO.N,+3.3VA*
X155224000Y-113157000D02*
X152019000Y-113157000D01*
X152019000Y-113157000D02*
X150749000Y-111887000D01*
G04 #@! TO.N,SPI_MOSI*
X164418795Y-104430990D02*
X165863792Y-104430990D01*
X165863792Y-104430990D02*
X165948825Y-104516023D01*
G04 #@! TO.N,I2S_MCK*
X169672000Y-106229685D02*
X169672000Y-111506000D01*
X151892000Y-105156000D02*
X157480000Y-105156000D01*
X157480000Y-105156000D02*
X158242000Y-105918000D01*
X166624000Y-103181685D02*
X169672000Y-106229685D01*
X166624000Y-102616000D02*
X166624000Y-103181685D01*
X152908000Y-92710000D02*
X152908000Y-90424004D01*
G04 #@! TO.N,/I2S2ext_SD*
X151892000Y-102616000D02*
X154692037Y-102616000D01*
X154692037Y-102616000D02*
X154692045Y-102616008D01*
G04 #@! TO.N,I2S_CK*
X165862000Y-98044000D02*
X150368000Y-98044000D01*
G04 #@! TO.N,I2S_WSI*
X153162000Y-100076000D02*
X152654000Y-99568000D01*
X152654000Y-99568000D02*
X150622000Y-99568000D01*
G04 #@! TO.N,Net-(C20-Pad1)*
X131064000Y-105918000D02*
X129413000Y-105918000D01*
G04 #@! TO.N,Net-(C18-Pad1)*
X166116000Y-108301000D02*
X166019000Y-108204000D01*
X166116000Y-110236000D02*
X166116000Y-108301000D01*
X166019000Y-108204000D02*
X164135000Y-108204000D01*
X165862000Y-108047000D02*
X166019000Y-108204000D01*
X165862000Y-106934000D02*
X165862000Y-108047000D01*
X157413621Y-107442000D02*
X157174567Y-107202946D01*
X158496000Y-107442000D02*
X157413621Y-107442000D01*
X160655000Y-109601000D02*
X158496000Y-107442000D01*
X162740007Y-109623876D02*
X162717131Y-109601000D01*
X162717131Y-109601000D02*
X160655000Y-109601000D01*
G04 #@! TO.N,Net-(C22-Pad1)*
X157658000Y-116510000D02*
X158242000Y-117094000D01*
X157099000Y-116510000D02*
X157658000Y-116510000D01*
X159004000Y-116332000D02*
X158242000Y-117094000D01*
X159004000Y-116205000D02*
X159004000Y-116332000D01*
G04 #@! TO.N,Net-(C23-Pad1)*
X163830000Y-114300000D02*
X164338000Y-114300000D01*
X164338000Y-114300000D02*
X165354000Y-115316000D01*
X164135000Y-114605000D02*
X163830000Y-114300000D01*
X164135000Y-116586000D02*
X164135000Y-114605000D01*
G04 #@! TO.N,Net-(C7-Pad1)*
X157734000Y-81661000D02*
X157734000Y-81280000D01*
X157734000Y-81280000D02*
X156591000Y-80137000D01*
G04 #@! TO.N,Net-(C8-Pad1)*
X154432000Y-90170000D02*
X155448000Y-89154000D01*
X154178000Y-90170000D02*
X154432000Y-90170000D01*
G04 #@! TO.N,GNDA*
X162560000Y-115570000D02*
X162560000Y-116586000D01*
X159766000Y-114300000D02*
X161130000Y-114300000D01*
X160299500Y-113469500D02*
X161130000Y-114300000D01*
X160299500Y-112395000D02*
X160299500Y-113469500D01*
G04 #@! TO.N,GNDD*
X163652000Y-91567000D02*
X164084000Y-91135000D01*
X163195000Y-91567000D02*
X163652000Y-91567000D01*
X164084000Y-106680000D02*
X162560000Y-108204000D01*
X164846000Y-106680000D02*
X164084000Y-106680000D01*
X160833000Y-108204000D02*
X162560000Y-108204000D01*
X160071000Y-107442000D02*
X160833000Y-108204000D01*
G04 #@! TO.N,/3V3_STM*
X167386000Y-91694000D02*
X167386000Y-90678000D01*
X164084000Y-92710000D02*
X165735000Y-92710000D01*
X155651000Y-90932000D02*
X155651000Y-92253000D01*
X155651000Y-92253000D02*
X155448000Y-92456000D01*
X155575000Y-92583000D02*
X155448000Y-92456000D01*
X156972000Y-92583000D02*
X155575000Y-92583000D01*
X155956000Y-80645000D02*
X155956000Y-81407000D01*
X155575000Y-80264000D02*
X155956000Y-80645000D01*
X164084000Y-80517996D02*
X164465000Y-80136996D01*
X164084000Y-81508500D02*
X164084000Y-80517996D01*
X166929000Y-84836000D02*
X167756271Y-84836000D01*
X167756271Y-84836000D02*
X168012855Y-84579416D01*
G04 #@! TO.N,Net-(C30-Pad1)*
X157099000Y-114935000D02*
X157099000Y-113157000D01*
X156210000Y-112268000D02*
X157099000Y-113157000D01*
X157861000Y-112395000D02*
X157099000Y-113157000D01*
X158724500Y-112395000D02*
X157861000Y-112395000D01*
G04 #@! TO.N,LED7*
X165862000Y-80010000D02*
X165862000Y-76962000D01*
G04 #@! TO.N,USB_D+*
X133350000Y-81788000D02*
X133350000Y-85344000D01*
G04 #@! TD*
D20*
G04 #@! TO.N,GNDD*
G36*
X193721642Y-70882258D02*
X194378701Y-71075018D01*
X194987445Y-71388541D01*
X195525923Y-71811522D01*
X195974703Y-72328695D01*
X196317592Y-72921400D01*
X196542217Y-73568253D01*
X196644095Y-74270890D01*
X196648001Y-74430713D01*
X196648000Y-111887000D01*
X170634461Y-111887000D01*
X170707000Y-111711874D01*
X170707000Y-111300126D01*
X170549431Y-110919720D01*
X170432000Y-110802289D01*
X170432000Y-106304532D01*
X170446888Y-106229685D01*
X170432000Y-106154838D01*
X170432000Y-106154833D01*
X170387904Y-105933148D01*
X170219929Y-105681756D01*
X170156473Y-105639356D01*
X167565271Y-103048155D01*
X167659000Y-102821874D01*
X167659000Y-102410126D01*
X167501431Y-102029720D01*
X167210280Y-101738569D01*
X166829874Y-101581000D01*
X166643000Y-101581000D01*
X166643000Y-101394126D01*
X166485431Y-101013720D01*
X166194280Y-100722569D01*
X165813874Y-100565000D01*
X165402126Y-100565000D01*
X165021720Y-100722569D01*
X164730569Y-101013720D01*
X164573000Y-101394126D01*
X164573000Y-101805874D01*
X164730569Y-102186280D01*
X164848000Y-102303711D01*
X164848001Y-103049149D01*
X164833112Y-103124000D01*
X164892097Y-103420537D01*
X164971758Y-103539759D01*
X164624669Y-103395990D01*
X164212921Y-103395990D01*
X163832515Y-103553559D01*
X163541364Y-103844710D01*
X163383795Y-104225116D01*
X163383795Y-104636864D01*
X163541364Y-105017270D01*
X163832515Y-105308421D01*
X164212921Y-105465990D01*
X164624669Y-105465990D01*
X165005075Y-105308421D01*
X165122506Y-105190990D01*
X165160081Y-105190990D01*
X165362545Y-105393454D01*
X165742951Y-105551023D01*
X166154699Y-105551023D01*
X166535105Y-105393454D01*
X166668879Y-105259680D01*
X167134001Y-105724803D01*
X167134000Y-107041467D01*
X167020084Y-107117584D01*
X166956500Y-107212744D01*
X166897000Y-107123696D01*
X166897000Y-106728126D01*
X166739431Y-106347720D01*
X166448280Y-106056569D01*
X166067874Y-105899000D01*
X165656126Y-105899000D01*
X165275720Y-106056569D01*
X164984569Y-106347720D01*
X164827000Y-106728126D01*
X164827000Y-107139874D01*
X164885619Y-107281392D01*
X164685227Y-107147495D01*
X164353750Y-107081560D01*
X163916250Y-107081560D01*
X163584773Y-107147495D01*
X163422469Y-107255943D01*
X163357198Y-107190673D01*
X163123809Y-107094000D01*
X162845750Y-107094000D01*
X162687000Y-107252750D01*
X162687000Y-108077000D01*
X162707000Y-108077000D01*
X162707000Y-108331000D01*
X162687000Y-108331000D01*
X162687000Y-108351000D01*
X162433000Y-108351000D01*
X162433000Y-108331000D01*
X161646250Y-108331000D01*
X161487500Y-108489750D01*
X161487500Y-108805310D01*
X161502283Y-108841000D01*
X160969802Y-108841000D01*
X160667331Y-108538529D01*
X160868198Y-108455327D01*
X161046827Y-108276699D01*
X161143500Y-108043310D01*
X161143500Y-107727750D01*
X161018440Y-107602690D01*
X161487500Y-107602690D01*
X161487500Y-107918250D01*
X161646250Y-108077000D01*
X162433000Y-108077000D01*
X162433000Y-107252750D01*
X162274250Y-107094000D01*
X161996191Y-107094000D01*
X161762802Y-107190673D01*
X161584173Y-107369301D01*
X161487500Y-107602690D01*
X161018440Y-107602690D01*
X160984750Y-107569000D01*
X160198000Y-107569000D01*
X160198000Y-107589000D01*
X159944000Y-107589000D01*
X159944000Y-107569000D01*
X159924000Y-107569000D01*
X159924000Y-107315000D01*
X159944000Y-107315000D01*
X159944000Y-106490750D01*
X160198000Y-106490750D01*
X160198000Y-107315000D01*
X160984750Y-107315000D01*
X161143500Y-107156250D01*
X161143500Y-106840690D01*
X161046827Y-106607301D01*
X160868198Y-106428673D01*
X160634809Y-106332000D01*
X160356750Y-106332000D01*
X160198000Y-106490750D01*
X159944000Y-106490750D01*
X159785250Y-106332000D01*
X159507191Y-106332000D01*
X159273802Y-106428673D01*
X159208531Y-106493943D01*
X159142099Y-106449555D01*
X159277000Y-106123874D01*
X159277000Y-105712126D01*
X159119431Y-105331720D01*
X158828280Y-105040569D01*
X158447874Y-104883000D01*
X158281801Y-104883000D01*
X158070331Y-104671530D01*
X158027929Y-104608071D01*
X157776537Y-104440096D01*
X157554852Y-104396000D01*
X157554847Y-104396000D01*
X157480000Y-104381112D01*
X157405153Y-104396000D01*
X152595711Y-104396000D01*
X152478280Y-104278569D01*
X152097874Y-104121000D01*
X151686126Y-104121000D01*
X151305720Y-104278569D01*
X151014569Y-104569720D01*
X150857000Y-104950126D01*
X150857000Y-105361874D01*
X151014569Y-105742280D01*
X151305720Y-106033431D01*
X151686126Y-106191000D01*
X152097874Y-106191000D01*
X152478280Y-106033431D01*
X152595711Y-105916000D01*
X157165199Y-105916000D01*
X157207000Y-105957801D01*
X157207000Y-106123874D01*
X157225255Y-106167946D01*
X156968693Y-106167946D01*
X156588287Y-106325515D01*
X156297136Y-106616666D01*
X156139567Y-106997072D01*
X156139567Y-107408820D01*
X156297136Y-107789226D01*
X156588287Y-108080377D01*
X156968693Y-108237946D01*
X157380441Y-108237946D01*
X157447595Y-108210130D01*
X157488467Y-108202000D01*
X157592104Y-108202000D01*
X157664761Y-108310739D01*
X157945773Y-108498505D01*
X158277250Y-108564440D01*
X158543639Y-108564440D01*
X160064670Y-110085472D01*
X160107071Y-110148929D01*
X160358463Y-110316904D01*
X160580148Y-110361000D01*
X160580152Y-110361000D01*
X160654999Y-110375888D01*
X160729846Y-110361000D01*
X162013420Y-110361000D01*
X162153727Y-110501307D01*
X162534133Y-110658876D01*
X162945881Y-110658876D01*
X163326287Y-110501307D01*
X163617438Y-110210156D01*
X163775007Y-109829750D01*
X163775007Y-109418002D01*
X163720993Y-109287601D01*
X163916250Y-109326440D01*
X164353750Y-109326440D01*
X164685227Y-109260505D01*
X164966239Y-109072739D01*
X164982938Y-109047748D01*
X165145084Y-109290416D01*
X165356000Y-109431346D01*
X165356000Y-109532289D01*
X165238569Y-109649720D01*
X165081000Y-110030126D01*
X165081000Y-110441874D01*
X165238569Y-110822280D01*
X165529720Y-111113431D01*
X165910126Y-111271000D01*
X166321874Y-111271000D01*
X166702280Y-111113431D01*
X166993431Y-110822280D01*
X167151000Y-110441874D01*
X167151000Y-110030126D01*
X166993431Y-109649720D01*
X166876000Y-109532289D01*
X166876000Y-109301719D01*
X166892916Y-109290416D01*
X166956500Y-109195256D01*
X167020084Y-109290416D01*
X167309206Y-109483602D01*
X167650250Y-109551440D01*
X168137750Y-109551440D01*
X168478794Y-109483602D01*
X168767916Y-109290416D01*
X168912001Y-109074779D01*
X168912001Y-110802288D01*
X168794569Y-110919720D01*
X168637000Y-111300126D01*
X168637000Y-111711874D01*
X168709539Y-111887000D01*
X163368441Y-111887000D01*
X161154203Y-111561377D01*
X161130739Y-111526261D01*
X160849727Y-111338495D01*
X160518250Y-111272560D01*
X160080750Y-111272560D01*
X159749273Y-111338495D01*
X159729310Y-111351834D01*
X159096389Y-111258757D01*
X159004000Y-111252000D01*
X156461744Y-111252000D01*
X156415874Y-111233000D01*
X156004126Y-111233000D01*
X155958256Y-111252000D01*
X152549169Y-111252000D01*
X145752482Y-103961008D01*
X145531004Y-103807336D01*
X145288000Y-103759000D01*
X134747000Y-103759000D01*
X134416709Y-103851660D01*
X134234307Y-104019339D01*
X132011555Y-107061000D01*
X120344000Y-107061000D01*
X120344000Y-105712126D01*
X128378000Y-105712126D01*
X128378000Y-106123874D01*
X128535569Y-106504280D01*
X128826720Y-106795431D01*
X129207126Y-106953000D01*
X129618874Y-106953000D01*
X129999280Y-106795431D01*
X130116711Y-106678000D01*
X130360289Y-106678000D01*
X130477720Y-106795431D01*
X130858126Y-106953000D01*
X131269874Y-106953000D01*
X131650280Y-106795431D01*
X131941431Y-106504280D01*
X132099000Y-106123874D01*
X132099000Y-105712126D01*
X131941431Y-105331720D01*
X131650280Y-105040569D01*
X131269874Y-104883000D01*
X130858126Y-104883000D01*
X130477720Y-105040569D01*
X130360289Y-105158000D01*
X130116711Y-105158000D01*
X129999280Y-105040569D01*
X129618874Y-104883000D01*
X129207126Y-104883000D01*
X128826720Y-105040569D01*
X128535569Y-105331720D01*
X128378000Y-105712126D01*
X120344000Y-105712126D01*
X120344000Y-103934126D01*
X120885000Y-103934126D01*
X120885000Y-104345874D01*
X121042569Y-104726280D01*
X121333720Y-105017431D01*
X121714126Y-105175000D01*
X122125874Y-105175000D01*
X122506280Y-105017431D01*
X122797431Y-104726280D01*
X122955000Y-104345874D01*
X122955000Y-103934126D01*
X122797431Y-103553720D01*
X122506280Y-103262569D01*
X122125874Y-103105000D01*
X121714126Y-103105000D01*
X121333720Y-103262569D01*
X121042569Y-103553720D01*
X120885000Y-103934126D01*
X120344000Y-103934126D01*
X120344000Y-101394126D01*
X123425000Y-101394126D01*
X123425000Y-101805874D01*
X123582569Y-102186280D01*
X123873720Y-102477431D01*
X124254126Y-102635000D01*
X124665874Y-102635000D01*
X125046280Y-102477431D01*
X125337431Y-102186280D01*
X125495000Y-101805874D01*
X125495000Y-101394126D01*
X128505000Y-101394126D01*
X128505000Y-101805874D01*
X128662569Y-102186280D01*
X128953720Y-102477431D01*
X129334126Y-102635000D01*
X129745874Y-102635000D01*
X130126280Y-102477431D01*
X130193585Y-102410126D01*
X150857000Y-102410126D01*
X150857000Y-102821874D01*
X151014569Y-103202280D01*
X151305720Y-103493431D01*
X151686126Y-103651000D01*
X152097874Y-103651000D01*
X152478280Y-103493431D01*
X152595711Y-103376000D01*
X153988326Y-103376000D01*
X154105765Y-103493439D01*
X154486171Y-103651008D01*
X154897919Y-103651008D01*
X155278325Y-103493439D01*
X155569476Y-103202288D01*
X155727045Y-102821882D01*
X155727045Y-102410134D01*
X155569476Y-102029728D01*
X155278325Y-101738577D01*
X154897919Y-101581008D01*
X154486171Y-101581008D01*
X154105765Y-101738577D01*
X153988342Y-101856000D01*
X152595711Y-101856000D01*
X152478280Y-101738569D01*
X152097874Y-101581000D01*
X151686126Y-101581000D01*
X151305720Y-101738569D01*
X151014569Y-102029720D01*
X150857000Y-102410126D01*
X130193585Y-102410126D01*
X130417431Y-102186280D01*
X130575000Y-101805874D01*
X130575000Y-101394126D01*
X130417431Y-101013720D01*
X130126280Y-100722569D01*
X129745874Y-100565000D01*
X129334126Y-100565000D01*
X128953720Y-100722569D01*
X128662569Y-101013720D01*
X128505000Y-101394126D01*
X125495000Y-101394126D01*
X125337431Y-101013720D01*
X125046280Y-100722569D01*
X124665874Y-100565000D01*
X124254126Y-100565000D01*
X123873720Y-100722569D01*
X123582569Y-101013720D01*
X123425000Y-101394126D01*
X120344000Y-101394126D01*
X120344000Y-98854126D01*
X120885000Y-98854126D01*
X120885000Y-99265874D01*
X121042569Y-99646280D01*
X121333720Y-99937431D01*
X121714126Y-100095000D01*
X122125874Y-100095000D01*
X122506280Y-99937431D01*
X122797431Y-99646280D01*
X122955000Y-99265874D01*
X122955000Y-98854126D01*
X122797431Y-98473720D01*
X122506280Y-98182569D01*
X122125874Y-98025000D01*
X121714126Y-98025000D01*
X121333720Y-98182569D01*
X121042569Y-98473720D01*
X120885000Y-98854126D01*
X120344000Y-98854126D01*
X120344000Y-97838126D01*
X149333000Y-97838126D01*
X149333000Y-98249874D01*
X149490569Y-98630280D01*
X149781720Y-98921431D01*
X149798081Y-98928208D01*
X149744569Y-98981720D01*
X149587000Y-99362126D01*
X149587000Y-99773874D01*
X149744569Y-100154280D01*
X150035720Y-100445431D01*
X150416126Y-100603000D01*
X150827874Y-100603000D01*
X151208280Y-100445431D01*
X151325711Y-100328000D01*
X152146106Y-100328000D01*
X152284569Y-100662280D01*
X152575720Y-100953431D01*
X152956126Y-101111000D01*
X153367874Y-101111000D01*
X153748280Y-100953431D01*
X154039431Y-100662280D01*
X154197000Y-100281874D01*
X154197000Y-99870126D01*
X154039431Y-99489720D01*
X153748280Y-99198569D01*
X153367874Y-99041000D01*
X153215913Y-99041000D01*
X153201929Y-99020071D01*
X152950537Y-98852096D01*
X152728852Y-98808000D01*
X152728847Y-98808000D01*
X152708738Y-98804000D01*
X165158289Y-98804000D01*
X165275720Y-98921431D01*
X165656126Y-99079000D01*
X166067874Y-99079000D01*
X166448280Y-98921431D01*
X166739431Y-98630280D01*
X166897000Y-98249874D01*
X166897000Y-97838126D01*
X166739431Y-97457720D01*
X166448280Y-97166569D01*
X166067874Y-97009000D01*
X165656126Y-97009000D01*
X165275720Y-97166569D01*
X165158289Y-97284000D01*
X151071711Y-97284000D01*
X150954280Y-97166569D01*
X150573874Y-97009000D01*
X150162126Y-97009000D01*
X149781720Y-97166569D01*
X149490569Y-97457720D01*
X149333000Y-97838126D01*
X120344000Y-97838126D01*
X120344000Y-96314126D01*
X123425000Y-96314126D01*
X123425000Y-96725874D01*
X123582569Y-97106280D01*
X123873720Y-97397431D01*
X124254126Y-97555000D01*
X124665874Y-97555000D01*
X125046280Y-97397431D01*
X125337431Y-97106280D01*
X125495000Y-96725874D01*
X125495000Y-96314126D01*
X128505000Y-96314126D01*
X128505000Y-96725874D01*
X128662569Y-97106280D01*
X128953720Y-97397431D01*
X129334126Y-97555000D01*
X129745874Y-97555000D01*
X130126280Y-97397431D01*
X130417431Y-97106280D01*
X130575000Y-96725874D01*
X130575000Y-96314126D01*
X130417431Y-95933720D01*
X130126280Y-95642569D01*
X129745874Y-95485000D01*
X129334126Y-95485000D01*
X128953720Y-95642569D01*
X128662569Y-95933720D01*
X128505000Y-96314126D01*
X125495000Y-96314126D01*
X125337431Y-95933720D01*
X125046280Y-95642569D01*
X124665874Y-95485000D01*
X124254126Y-95485000D01*
X123873720Y-95642569D01*
X123582569Y-95933720D01*
X123425000Y-96314126D01*
X120344000Y-96314126D01*
X120344000Y-93774126D01*
X120885000Y-93774126D01*
X120885000Y-94185874D01*
X121042569Y-94566280D01*
X121333720Y-94857431D01*
X121714126Y-95015000D01*
X122125874Y-95015000D01*
X122506280Y-94857431D01*
X122797431Y-94566280D01*
X122955000Y-94185874D01*
X122955000Y-93774126D01*
X125965000Y-93774126D01*
X125965000Y-94185874D01*
X126122569Y-94566280D01*
X126413720Y-94857431D01*
X126794126Y-95015000D01*
X127205874Y-95015000D01*
X127586280Y-94857431D01*
X127877431Y-94566280D01*
X128035000Y-94185874D01*
X128035000Y-94155124D01*
X149459998Y-94155124D01*
X149459998Y-94566872D01*
X149617567Y-94947278D01*
X149908718Y-95238429D01*
X150289124Y-95395998D01*
X150700872Y-95395998D01*
X151081278Y-95238429D01*
X151101707Y-95218000D01*
X155809467Y-95218000D01*
X155885584Y-95331916D01*
X156174706Y-95525102D01*
X156515750Y-95592940D01*
X157032139Y-95592940D01*
X157935671Y-96496473D01*
X157978071Y-96559929D01*
X158229463Y-96727904D01*
X158451148Y-96772000D01*
X158451153Y-96772000D01*
X158526000Y-96786888D01*
X158600847Y-96772000D01*
X163520822Y-96772000D01*
X163878126Y-96920000D01*
X164289874Y-96920000D01*
X164670280Y-96762431D01*
X164961431Y-96471280D01*
X165119000Y-96090874D01*
X165119000Y-95679126D01*
X164961431Y-95298720D01*
X164670280Y-95007569D01*
X164289874Y-94850000D01*
X163878126Y-94850000D01*
X163497720Y-95007569D01*
X163253289Y-95252000D01*
X163215027Y-95252000D01*
X163341000Y-94947874D01*
X163341000Y-94536126D01*
X163183431Y-94155720D01*
X162892280Y-93864569D01*
X162511874Y-93707000D01*
X162100126Y-93707000D01*
X161719720Y-93864569D01*
X161602289Y-93982000D01*
X161485711Y-93982000D01*
X161368280Y-93864569D01*
X160987874Y-93707000D01*
X160576126Y-93707000D01*
X160195720Y-93864569D01*
X159904569Y-94155720D01*
X159747000Y-94536126D01*
X159747000Y-94947874D01*
X159872973Y-95252000D01*
X158840802Y-95252000D01*
X158314647Y-94725846D01*
X158319440Y-94701750D01*
X158319440Y-94214250D01*
X158251602Y-93873206D01*
X158058416Y-93584084D01*
X157963256Y-93520500D01*
X158058416Y-93456916D01*
X158251602Y-93167794D01*
X158319440Y-92826750D01*
X158319440Y-92491250D01*
X162961560Y-92491250D01*
X162961560Y-92928750D01*
X163027495Y-93260227D01*
X163215261Y-93541239D01*
X163496273Y-93729005D01*
X163827750Y-93794940D01*
X164340250Y-93794940D01*
X164671727Y-93729005D01*
X164952739Y-93541239D01*
X165000339Y-93470000D01*
X165031289Y-93470000D01*
X165148720Y-93587431D01*
X165529126Y-93745000D01*
X165940874Y-93745000D01*
X166321280Y-93587431D01*
X166612431Y-93296280D01*
X166770000Y-92915874D01*
X166770000Y-92541711D01*
X166799720Y-92571431D01*
X167180126Y-92729000D01*
X167591874Y-92729000D01*
X167972280Y-92571431D01*
X168263431Y-92280280D01*
X168421000Y-91899874D01*
X168421000Y-91488126D01*
X168358011Y-91336058D01*
X168405005Y-91265727D01*
X168470940Y-90934250D01*
X168470940Y-90421750D01*
X168405005Y-90090273D01*
X168217239Y-89809261D01*
X167936227Y-89621495D01*
X167604750Y-89555560D01*
X167167250Y-89555560D01*
X166835773Y-89621495D01*
X166673469Y-89729943D01*
X166608198Y-89664673D01*
X166374809Y-89568000D01*
X166096750Y-89568000D01*
X165938000Y-89726750D01*
X165938000Y-90551000D01*
X165958000Y-90551000D01*
X165958000Y-90805000D01*
X165938000Y-90805000D01*
X165938000Y-90825000D01*
X165684000Y-90825000D01*
X165684000Y-90805000D01*
X165664000Y-90805000D01*
X165664000Y-90551000D01*
X165684000Y-90551000D01*
X165684000Y-89726750D01*
X165525250Y-89568000D01*
X165247191Y-89568000D01*
X165013802Y-89664673D01*
X164835173Y-89843301D01*
X164738500Y-90076690D01*
X164738500Y-90084532D01*
X164685310Y-90062500D01*
X164369750Y-90062500D01*
X164211000Y-90221250D01*
X164211000Y-91008000D01*
X164231000Y-91008000D01*
X164231000Y-91262000D01*
X164211000Y-91262000D01*
X164211000Y-91282000D01*
X163957000Y-91282000D01*
X163957000Y-91262000D01*
X163132750Y-91262000D01*
X162974000Y-91420750D01*
X162974000Y-91698809D01*
X163070673Y-91932198D01*
X163135943Y-91997469D01*
X163027495Y-92159773D01*
X162961560Y-92491250D01*
X158319440Y-92491250D01*
X158319440Y-92339250D01*
X158251602Y-91998206D01*
X158138936Y-91829590D01*
X158201827Y-91766699D01*
X158298500Y-91533310D01*
X158298500Y-91217750D01*
X158139750Y-91059000D01*
X157353000Y-91059000D01*
X157353000Y-91079000D01*
X157099000Y-91079000D01*
X157099000Y-91059000D01*
X157079000Y-91059000D01*
X157079000Y-90805000D01*
X157099000Y-90805000D01*
X157099000Y-90427250D01*
X157196000Y-90330250D01*
X157196000Y-89980750D01*
X157353000Y-89980750D01*
X157353000Y-90805000D01*
X158139750Y-90805000D01*
X158298500Y-90646250D01*
X158298500Y-90571191D01*
X162974000Y-90571191D01*
X162974000Y-90849250D01*
X163132750Y-91008000D01*
X163957000Y-91008000D01*
X163957000Y-90221250D01*
X163798250Y-90062500D01*
X163482690Y-90062500D01*
X163249301Y-90159173D01*
X163070673Y-90337802D01*
X162974000Y-90571191D01*
X158298500Y-90571191D01*
X158298500Y-90330690D01*
X158278974Y-90283551D01*
X158348827Y-90213699D01*
X158445500Y-89980310D01*
X158445500Y-89439750D01*
X158286750Y-89281000D01*
X157450000Y-89281000D01*
X157450000Y-89883750D01*
X157353000Y-89980750D01*
X157196000Y-89980750D01*
X157196000Y-89281000D01*
X157176000Y-89281000D01*
X157176000Y-89027000D01*
X157196000Y-89027000D01*
X157196000Y-87977750D01*
X157450000Y-87977750D01*
X157450000Y-89027000D01*
X158286750Y-89027000D01*
X158445500Y-88868250D01*
X158445500Y-88327690D01*
X158348827Y-88094301D01*
X158170198Y-87915673D01*
X157936809Y-87819000D01*
X157608750Y-87819000D01*
X157450000Y-87977750D01*
X157196000Y-87977750D01*
X157037250Y-87819000D01*
X156709191Y-87819000D01*
X156475802Y-87915673D01*
X156322707Y-88068767D01*
X156321916Y-88067584D01*
X156032794Y-87874398D01*
X155691750Y-87806560D01*
X155204250Y-87806560D01*
X154863206Y-87874398D01*
X154574084Y-88067584D01*
X154380898Y-88356706D01*
X154313060Y-88697750D01*
X154313060Y-89135000D01*
X153972126Y-89135000D01*
X153591720Y-89292569D01*
X153383572Y-89500717D01*
X153113874Y-89389004D01*
X152702126Y-89389004D01*
X152321720Y-89546573D01*
X152030569Y-89837724D01*
X151873000Y-90218130D01*
X151873000Y-90629878D01*
X152030569Y-91010284D01*
X152148001Y-91127716D01*
X152148000Y-92006289D01*
X152030569Y-92123720D01*
X151873000Y-92504126D01*
X151873000Y-92915874D01*
X152030569Y-93296280D01*
X152321720Y-93587431D01*
X152588658Y-93698000D01*
X151295711Y-93698000D01*
X151081278Y-93483567D01*
X150700872Y-93325998D01*
X150289124Y-93325998D01*
X149908718Y-93483567D01*
X149617567Y-93774718D01*
X149459998Y-94155124D01*
X128035000Y-94155124D01*
X128035000Y-93774126D01*
X127877431Y-93393720D01*
X127586280Y-93102569D01*
X127205874Y-92945000D01*
X126794126Y-92945000D01*
X126413720Y-93102569D01*
X126122569Y-93393720D01*
X125965000Y-93774126D01*
X122955000Y-93774126D01*
X122797431Y-93393720D01*
X122506280Y-93102569D01*
X122125874Y-92945000D01*
X121714126Y-92945000D01*
X121333720Y-93102569D01*
X121042569Y-93393720D01*
X120885000Y-93774126D01*
X120344000Y-93774126D01*
X120344000Y-81520446D01*
X120576889Y-81520446D01*
X120672740Y-82002319D01*
X120945699Y-82410831D01*
X121354211Y-82683790D01*
X121714448Y-82755446D01*
X122657720Y-82755446D01*
X123017957Y-82683790D01*
X123426469Y-82410831D01*
X123526084Y-82261747D01*
X123526084Y-82790967D01*
X123710777Y-83236854D01*
X123658071Y-83272071D01*
X123615672Y-83335525D01*
X123213529Y-83737670D01*
X123150071Y-83780071D01*
X122982096Y-84031464D01*
X122938000Y-84253149D01*
X122938000Y-84253153D01*
X122923112Y-84328000D01*
X122938000Y-84402847D01*
X122938001Y-87341198D01*
X122657720Y-87285446D01*
X121714448Y-87285446D01*
X121354211Y-87357102D01*
X120945699Y-87630061D01*
X120672740Y-88038573D01*
X120576889Y-88520446D01*
X120672740Y-89002319D01*
X120945699Y-89410831D01*
X121354211Y-89683790D01*
X121714448Y-89755446D01*
X122657720Y-89755446D01*
X123017957Y-89683790D01*
X123100914Y-89628360D01*
X123150072Y-89701929D01*
X123213528Y-89744329D01*
X123985476Y-90516278D01*
X123873720Y-90562569D01*
X123582569Y-90853720D01*
X123425000Y-91234126D01*
X123425000Y-91645874D01*
X123582569Y-92026280D01*
X123873720Y-92317431D01*
X124254126Y-92475000D01*
X124665874Y-92475000D01*
X125046280Y-92317431D01*
X125337431Y-92026280D01*
X125495000Y-91645874D01*
X125495000Y-91234126D01*
X125474237Y-91184000D01*
X126296289Y-91184000D01*
X126413720Y-91301431D01*
X126794126Y-91459000D01*
X127205874Y-91459000D01*
X127586280Y-91301431D01*
X127877431Y-91010280D01*
X128035000Y-90629874D01*
X128035000Y-90218126D01*
X127877431Y-89837720D01*
X127586280Y-89546569D01*
X127205874Y-89389000D01*
X126794126Y-89389000D01*
X126413720Y-89546569D01*
X126296289Y-89664000D01*
X125282802Y-89664000D01*
X124458000Y-88839199D01*
X124458000Y-88815181D01*
X124615563Y-88880446D01*
X125156605Y-88880446D01*
X125656462Y-88673398D01*
X126039036Y-88290824D01*
X126246084Y-87790967D01*
X126246084Y-87249925D01*
X126039036Y-86750068D01*
X125656462Y-86367494D01*
X125156605Y-86160446D01*
X124615563Y-86160446D01*
X124458000Y-86225711D01*
X124458000Y-84642802D01*
X124520802Y-84580000D01*
X126163153Y-84580000D01*
X126238000Y-84594888D01*
X126312847Y-84580000D01*
X126312852Y-84580000D01*
X126534537Y-84535904D01*
X126785929Y-84367929D01*
X126799913Y-84347000D01*
X126951874Y-84347000D01*
X127332280Y-84189431D01*
X127623431Y-83898280D01*
X127781000Y-83517874D01*
X127781000Y-83106126D01*
X127623431Y-82725720D01*
X127332280Y-82434569D01*
X126951874Y-82277000D01*
X126540126Y-82277000D01*
X126246084Y-82398796D01*
X126246084Y-82249925D01*
X126039036Y-81750068D01*
X125871094Y-81582126D01*
X132315000Y-81582126D01*
X132315000Y-81993874D01*
X132472569Y-82374280D01*
X132590000Y-82491711D01*
X132590001Y-84640288D01*
X132472569Y-84757720D01*
X132315000Y-85138126D01*
X132315000Y-85549874D01*
X132472569Y-85930280D01*
X132763720Y-86221431D01*
X133144126Y-86379000D01*
X133555874Y-86379000D01*
X133936280Y-86221431D01*
X134227431Y-85930280D01*
X134385000Y-85549874D01*
X134385000Y-85138126D01*
X134378217Y-85121750D01*
X164281500Y-85121750D01*
X164281500Y-85437310D01*
X164378173Y-85670699D01*
X164556802Y-85849327D01*
X164790191Y-85946000D01*
X165068250Y-85946000D01*
X165227000Y-85787250D01*
X165227000Y-84963000D01*
X164440250Y-84963000D01*
X164281500Y-85121750D01*
X134378217Y-85121750D01*
X134227431Y-84757720D01*
X134110000Y-84640289D01*
X134110000Y-83267750D01*
X154846000Y-83267750D01*
X154846000Y-83545809D01*
X154942673Y-83779198D01*
X155121301Y-83957827D01*
X155354690Y-84054500D01*
X155670250Y-84054500D01*
X155829000Y-83895750D01*
X155829000Y-83109000D01*
X155004750Y-83109000D01*
X154846000Y-83267750D01*
X134110000Y-83267750D01*
X134110000Y-82491711D01*
X134227431Y-82374280D01*
X134385000Y-81993874D01*
X134385000Y-81582126D01*
X134227431Y-81201720D01*
X133936280Y-80910569D01*
X133555874Y-80753000D01*
X133144126Y-80753000D01*
X132763720Y-80910569D01*
X132472569Y-81201720D01*
X132315000Y-81582126D01*
X125871094Y-81582126D01*
X125656462Y-81367494D01*
X125156605Y-81160446D01*
X124615563Y-81160446D01*
X124115706Y-81367494D01*
X123753694Y-81729506D01*
X123795279Y-81520446D01*
X123699428Y-81038573D01*
X123426469Y-80630061D01*
X123017957Y-80357102D01*
X122657720Y-80285446D01*
X121714448Y-80285446D01*
X121354211Y-80357102D01*
X120945699Y-80630061D01*
X120672740Y-81038573D01*
X120576889Y-81520446D01*
X120344000Y-81520446D01*
X120344000Y-80058126D01*
X154540000Y-80058126D01*
X154540000Y-80469874D01*
X154697569Y-80850280D01*
X154867071Y-81019782D01*
X154833560Y-81188250D01*
X154833560Y-81625750D01*
X154899495Y-81957227D01*
X155007943Y-82119531D01*
X154942673Y-82184802D01*
X154846000Y-82418191D01*
X154846000Y-82696250D01*
X155004750Y-82855000D01*
X155829000Y-82855000D01*
X155829000Y-82835000D01*
X156083000Y-82835000D01*
X156083000Y-82855000D01*
X156103000Y-82855000D01*
X156103000Y-83109000D01*
X156083000Y-83109000D01*
X156083000Y-83895750D01*
X156241750Y-84054500D01*
X156399000Y-84054500D01*
X156399000Y-84149809D01*
X156495673Y-84383198D01*
X156674301Y-84561827D01*
X156907690Y-84658500D01*
X157448250Y-84658500D01*
X157607000Y-84499750D01*
X157607000Y-83663000D01*
X157861000Y-83663000D01*
X157861000Y-84499750D01*
X158019750Y-84658500D01*
X158560310Y-84658500D01*
X158793699Y-84561827D01*
X158972327Y-84383198D01*
X159069000Y-84149809D01*
X159069000Y-83821750D01*
X158910250Y-83663000D01*
X157861000Y-83663000D01*
X157607000Y-83663000D01*
X157587000Y-83663000D01*
X157587000Y-83409000D01*
X157607000Y-83409000D01*
X157607000Y-83389000D01*
X157861000Y-83389000D01*
X157861000Y-83409000D01*
X158910250Y-83409000D01*
X158950000Y-83369250D01*
X162974000Y-83369250D01*
X162974000Y-83647309D01*
X163070673Y-83880698D01*
X163249301Y-84059327D01*
X163482690Y-84156000D01*
X163798250Y-84156000D01*
X163957000Y-83997250D01*
X163957000Y-83210500D01*
X164211000Y-83210500D01*
X164211000Y-83997250D01*
X164330396Y-84116646D01*
X164281500Y-84234690D01*
X164281500Y-84550250D01*
X164440250Y-84709000D01*
X165227000Y-84709000D01*
X165227000Y-83884750D01*
X165481000Y-83884750D01*
X165481000Y-84709000D01*
X165501000Y-84709000D01*
X165501000Y-84963000D01*
X165481000Y-84963000D01*
X165481000Y-85787250D01*
X165639750Y-85946000D01*
X165917809Y-85946000D01*
X166151198Y-85849327D01*
X166216469Y-85784057D01*
X166378773Y-85892505D01*
X166710250Y-85958440D01*
X167147750Y-85958440D01*
X167479227Y-85892505D01*
X167760239Y-85704739D01*
X167820591Y-85614416D01*
X168218729Y-85614416D01*
X168599135Y-85456847D01*
X168890286Y-85165696D01*
X169047855Y-84785290D01*
X169047855Y-84373542D01*
X168890286Y-83993136D01*
X168599135Y-83701985D01*
X168218729Y-83544416D01*
X167806981Y-83544416D01*
X167426575Y-83701985D01*
X167370660Y-83757900D01*
X167147750Y-83713560D01*
X166710250Y-83713560D01*
X166378773Y-83779495D01*
X166216469Y-83887943D01*
X166151198Y-83822673D01*
X165917809Y-83726000D01*
X165639750Y-83726000D01*
X165481000Y-83884750D01*
X165227000Y-83884750D01*
X165134121Y-83791871D01*
X165194000Y-83647309D01*
X165194000Y-83369250D01*
X165035250Y-83210500D01*
X164211000Y-83210500D01*
X163957000Y-83210500D01*
X163132750Y-83210500D01*
X162974000Y-83369250D01*
X158950000Y-83369250D01*
X159069000Y-83250250D01*
X159069000Y-82922191D01*
X158972327Y-82688802D01*
X158819233Y-82535707D01*
X158820416Y-82534916D01*
X159013602Y-82245794D01*
X159081440Y-81904750D01*
X159081440Y-81417250D01*
X159056079Y-81289750D01*
X162961560Y-81289750D01*
X162961560Y-81727250D01*
X163027495Y-82058727D01*
X163135943Y-82221031D01*
X163070673Y-82286302D01*
X162974000Y-82519691D01*
X162974000Y-82797750D01*
X163132750Y-82956500D01*
X163957000Y-82956500D01*
X163957000Y-82936500D01*
X164211000Y-82936500D01*
X164211000Y-82956500D01*
X165035250Y-82956500D01*
X165194000Y-82797750D01*
X165194000Y-82519691D01*
X165097327Y-82286302D01*
X165032057Y-82221031D01*
X165140505Y-82058727D01*
X165206440Y-81727250D01*
X165206440Y-81289750D01*
X165140505Y-80958273D01*
X165127259Y-80938448D01*
X165226998Y-80838709D01*
X165275720Y-80887431D01*
X165656126Y-81045000D01*
X166067874Y-81045000D01*
X166448280Y-80887431D01*
X166739431Y-80596280D01*
X166897000Y-80215874D01*
X166897000Y-79804126D01*
X166739431Y-79423720D01*
X166622000Y-79306289D01*
X166622000Y-77665711D01*
X166739431Y-77548280D01*
X166897000Y-77167874D01*
X166897000Y-76756126D01*
X166739431Y-76375720D01*
X166448280Y-76084569D01*
X166067874Y-75927000D01*
X165656126Y-75927000D01*
X165275720Y-76084569D01*
X164984569Y-76375720D01*
X164827000Y-76756126D01*
X164827000Y-77167874D01*
X164984569Y-77548280D01*
X165102001Y-77665712D01*
X165102000Y-79306289D01*
X165100002Y-79308287D01*
X165051280Y-79259565D01*
X164670874Y-79101996D01*
X164259126Y-79101996D01*
X163878720Y-79259565D01*
X163587569Y-79550716D01*
X163430000Y-79931122D01*
X163430000Y-80128815D01*
X163368097Y-80221459D01*
X163309112Y-80517996D01*
X163324001Y-80592847D01*
X163324001Y-80604603D01*
X163215261Y-80677261D01*
X163027495Y-80958273D01*
X162961560Y-81289750D01*
X159056079Y-81289750D01*
X159013602Y-81076206D01*
X158820416Y-80787084D01*
X158531294Y-80593898D01*
X158190250Y-80526060D01*
X158054862Y-80526060D01*
X157626000Y-80097199D01*
X157626000Y-79931126D01*
X157468431Y-79550720D01*
X157177280Y-79259569D01*
X156796874Y-79102000D01*
X156385126Y-79102000D01*
X156004720Y-79259569D01*
X155960773Y-79303516D01*
X155780874Y-79229000D01*
X155369126Y-79229000D01*
X154988720Y-79386569D01*
X154697569Y-79677720D01*
X154540000Y-80058126D01*
X120344000Y-80058126D01*
X120344000Y-74601270D01*
X120355373Y-74562874D01*
X120365677Y-74491808D01*
X120414752Y-73977431D01*
X121717000Y-73977431D01*
X121717000Y-74866569D01*
X122057259Y-75688026D01*
X122685974Y-76316741D01*
X123507431Y-76657000D01*
X124396569Y-76657000D01*
X125218026Y-76316741D01*
X125846741Y-75688026D01*
X126187000Y-74866569D01*
X126187000Y-73977431D01*
X126134395Y-73850431D01*
X190805000Y-73850431D01*
X190805000Y-74739569D01*
X191145259Y-75561026D01*
X191773974Y-76189741D01*
X192595431Y-76530000D01*
X193484569Y-76530000D01*
X194306026Y-76189741D01*
X194934741Y-75561026D01*
X195275000Y-74739569D01*
X195275000Y-73850431D01*
X194934741Y-73028974D01*
X194306026Y-72400259D01*
X193484569Y-72060000D01*
X192595431Y-72060000D01*
X191773974Y-72400259D01*
X191145259Y-73028974D01*
X190805000Y-73850431D01*
X126134395Y-73850431D01*
X125846741Y-73155974D01*
X125218026Y-72527259D01*
X124396569Y-72187000D01*
X123507431Y-72187000D01*
X122685974Y-72527259D01*
X122057259Y-73155974D01*
X121717000Y-73977431D01*
X120414752Y-73977431D01*
X120436918Y-73745107D01*
X120628335Y-73092627D01*
X120939676Y-72488120D01*
X121359709Y-71953395D01*
X121873279Y-71507742D01*
X122461857Y-71167240D01*
X123104199Y-70944183D01*
X123802999Y-70842861D01*
X123969957Y-70838781D01*
X124108577Y-70822129D01*
X124133972Y-70814000D01*
X193006212Y-70814000D01*
X193721642Y-70882258D01*
X193721642Y-70882258D01*
G37*
X193721642Y-70882258D02*
X194378701Y-71075018D01*
X194987445Y-71388541D01*
X195525923Y-71811522D01*
X195974703Y-72328695D01*
X196317592Y-72921400D01*
X196542217Y-73568253D01*
X196644095Y-74270890D01*
X196648001Y-74430713D01*
X196648000Y-111887000D01*
X170634461Y-111887000D01*
X170707000Y-111711874D01*
X170707000Y-111300126D01*
X170549431Y-110919720D01*
X170432000Y-110802289D01*
X170432000Y-106304532D01*
X170446888Y-106229685D01*
X170432000Y-106154838D01*
X170432000Y-106154833D01*
X170387904Y-105933148D01*
X170219929Y-105681756D01*
X170156473Y-105639356D01*
X167565271Y-103048155D01*
X167659000Y-102821874D01*
X167659000Y-102410126D01*
X167501431Y-102029720D01*
X167210280Y-101738569D01*
X166829874Y-101581000D01*
X166643000Y-101581000D01*
X166643000Y-101394126D01*
X166485431Y-101013720D01*
X166194280Y-100722569D01*
X165813874Y-100565000D01*
X165402126Y-100565000D01*
X165021720Y-100722569D01*
X164730569Y-101013720D01*
X164573000Y-101394126D01*
X164573000Y-101805874D01*
X164730569Y-102186280D01*
X164848000Y-102303711D01*
X164848001Y-103049149D01*
X164833112Y-103124000D01*
X164892097Y-103420537D01*
X164971758Y-103539759D01*
X164624669Y-103395990D01*
X164212921Y-103395990D01*
X163832515Y-103553559D01*
X163541364Y-103844710D01*
X163383795Y-104225116D01*
X163383795Y-104636864D01*
X163541364Y-105017270D01*
X163832515Y-105308421D01*
X164212921Y-105465990D01*
X164624669Y-105465990D01*
X165005075Y-105308421D01*
X165122506Y-105190990D01*
X165160081Y-105190990D01*
X165362545Y-105393454D01*
X165742951Y-105551023D01*
X166154699Y-105551023D01*
X166535105Y-105393454D01*
X166668879Y-105259680D01*
X167134001Y-105724803D01*
X167134000Y-107041467D01*
X167020084Y-107117584D01*
X166956500Y-107212744D01*
X166897000Y-107123696D01*
X166897000Y-106728126D01*
X166739431Y-106347720D01*
X166448280Y-106056569D01*
X166067874Y-105899000D01*
X165656126Y-105899000D01*
X165275720Y-106056569D01*
X164984569Y-106347720D01*
X164827000Y-106728126D01*
X164827000Y-107139874D01*
X164885619Y-107281392D01*
X164685227Y-107147495D01*
X164353750Y-107081560D01*
X163916250Y-107081560D01*
X163584773Y-107147495D01*
X163422469Y-107255943D01*
X163357198Y-107190673D01*
X163123809Y-107094000D01*
X162845750Y-107094000D01*
X162687000Y-107252750D01*
X162687000Y-108077000D01*
X162707000Y-108077000D01*
X162707000Y-108331000D01*
X162687000Y-108331000D01*
X162687000Y-108351000D01*
X162433000Y-108351000D01*
X162433000Y-108331000D01*
X161646250Y-108331000D01*
X161487500Y-108489750D01*
X161487500Y-108805310D01*
X161502283Y-108841000D01*
X160969802Y-108841000D01*
X160667331Y-108538529D01*
X160868198Y-108455327D01*
X161046827Y-108276699D01*
X161143500Y-108043310D01*
X161143500Y-107727750D01*
X161018440Y-107602690D01*
X161487500Y-107602690D01*
X161487500Y-107918250D01*
X161646250Y-108077000D01*
X162433000Y-108077000D01*
X162433000Y-107252750D01*
X162274250Y-107094000D01*
X161996191Y-107094000D01*
X161762802Y-107190673D01*
X161584173Y-107369301D01*
X161487500Y-107602690D01*
X161018440Y-107602690D01*
X160984750Y-107569000D01*
X160198000Y-107569000D01*
X160198000Y-107589000D01*
X159944000Y-107589000D01*
X159944000Y-107569000D01*
X159924000Y-107569000D01*
X159924000Y-107315000D01*
X159944000Y-107315000D01*
X159944000Y-106490750D01*
X160198000Y-106490750D01*
X160198000Y-107315000D01*
X160984750Y-107315000D01*
X161143500Y-107156250D01*
X161143500Y-106840690D01*
X161046827Y-106607301D01*
X160868198Y-106428673D01*
X160634809Y-106332000D01*
X160356750Y-106332000D01*
X160198000Y-106490750D01*
X159944000Y-106490750D01*
X159785250Y-106332000D01*
X159507191Y-106332000D01*
X159273802Y-106428673D01*
X159208531Y-106493943D01*
X159142099Y-106449555D01*
X159277000Y-106123874D01*
X159277000Y-105712126D01*
X159119431Y-105331720D01*
X158828280Y-105040569D01*
X158447874Y-104883000D01*
X158281801Y-104883000D01*
X158070331Y-104671530D01*
X158027929Y-104608071D01*
X157776537Y-104440096D01*
X157554852Y-104396000D01*
X157554847Y-104396000D01*
X157480000Y-104381112D01*
X157405153Y-104396000D01*
X152595711Y-104396000D01*
X152478280Y-104278569D01*
X152097874Y-104121000D01*
X151686126Y-104121000D01*
X151305720Y-104278569D01*
X151014569Y-104569720D01*
X150857000Y-104950126D01*
X150857000Y-105361874D01*
X151014569Y-105742280D01*
X151305720Y-106033431D01*
X151686126Y-106191000D01*
X152097874Y-106191000D01*
X152478280Y-106033431D01*
X152595711Y-105916000D01*
X157165199Y-105916000D01*
X157207000Y-105957801D01*
X157207000Y-106123874D01*
X157225255Y-106167946D01*
X156968693Y-106167946D01*
X156588287Y-106325515D01*
X156297136Y-106616666D01*
X156139567Y-106997072D01*
X156139567Y-107408820D01*
X156297136Y-107789226D01*
X156588287Y-108080377D01*
X156968693Y-108237946D01*
X157380441Y-108237946D01*
X157447595Y-108210130D01*
X157488467Y-108202000D01*
X157592104Y-108202000D01*
X157664761Y-108310739D01*
X157945773Y-108498505D01*
X158277250Y-108564440D01*
X158543639Y-108564440D01*
X160064670Y-110085472D01*
X160107071Y-110148929D01*
X160358463Y-110316904D01*
X160580148Y-110361000D01*
X160580152Y-110361000D01*
X160654999Y-110375888D01*
X160729846Y-110361000D01*
X162013420Y-110361000D01*
X162153727Y-110501307D01*
X162534133Y-110658876D01*
X162945881Y-110658876D01*
X163326287Y-110501307D01*
X163617438Y-110210156D01*
X163775007Y-109829750D01*
X163775007Y-109418002D01*
X163720993Y-109287601D01*
X163916250Y-109326440D01*
X164353750Y-109326440D01*
X164685227Y-109260505D01*
X164966239Y-109072739D01*
X164982938Y-109047748D01*
X165145084Y-109290416D01*
X165356000Y-109431346D01*
X165356000Y-109532289D01*
X165238569Y-109649720D01*
X165081000Y-110030126D01*
X165081000Y-110441874D01*
X165238569Y-110822280D01*
X165529720Y-111113431D01*
X165910126Y-111271000D01*
X166321874Y-111271000D01*
X166702280Y-111113431D01*
X166993431Y-110822280D01*
X167151000Y-110441874D01*
X167151000Y-110030126D01*
X166993431Y-109649720D01*
X166876000Y-109532289D01*
X166876000Y-109301719D01*
X166892916Y-109290416D01*
X166956500Y-109195256D01*
X167020084Y-109290416D01*
X167309206Y-109483602D01*
X167650250Y-109551440D01*
X168137750Y-109551440D01*
X168478794Y-109483602D01*
X168767916Y-109290416D01*
X168912001Y-109074779D01*
X168912001Y-110802288D01*
X168794569Y-110919720D01*
X168637000Y-111300126D01*
X168637000Y-111711874D01*
X168709539Y-111887000D01*
X163368441Y-111887000D01*
X161154203Y-111561377D01*
X161130739Y-111526261D01*
X160849727Y-111338495D01*
X160518250Y-111272560D01*
X160080750Y-111272560D01*
X159749273Y-111338495D01*
X159729310Y-111351834D01*
X159096389Y-111258757D01*
X159004000Y-111252000D01*
X156461744Y-111252000D01*
X156415874Y-111233000D01*
X156004126Y-111233000D01*
X155958256Y-111252000D01*
X152549169Y-111252000D01*
X145752482Y-103961008D01*
X145531004Y-103807336D01*
X145288000Y-103759000D01*
X134747000Y-103759000D01*
X134416709Y-103851660D01*
X134234307Y-104019339D01*
X132011555Y-107061000D01*
X120344000Y-107061000D01*
X120344000Y-105712126D01*
X128378000Y-105712126D01*
X128378000Y-106123874D01*
X128535569Y-106504280D01*
X128826720Y-106795431D01*
X129207126Y-106953000D01*
X129618874Y-106953000D01*
X129999280Y-106795431D01*
X130116711Y-106678000D01*
X130360289Y-106678000D01*
X130477720Y-106795431D01*
X130858126Y-106953000D01*
X131269874Y-106953000D01*
X131650280Y-106795431D01*
X131941431Y-106504280D01*
X132099000Y-106123874D01*
X132099000Y-105712126D01*
X131941431Y-105331720D01*
X131650280Y-105040569D01*
X131269874Y-104883000D01*
X130858126Y-104883000D01*
X130477720Y-105040569D01*
X130360289Y-105158000D01*
X130116711Y-105158000D01*
X129999280Y-105040569D01*
X129618874Y-104883000D01*
X129207126Y-104883000D01*
X128826720Y-105040569D01*
X128535569Y-105331720D01*
X128378000Y-105712126D01*
X120344000Y-105712126D01*
X120344000Y-103934126D01*
X120885000Y-103934126D01*
X120885000Y-104345874D01*
X121042569Y-104726280D01*
X121333720Y-105017431D01*
X121714126Y-105175000D01*
X122125874Y-105175000D01*
X122506280Y-105017431D01*
X122797431Y-104726280D01*
X122955000Y-104345874D01*
X122955000Y-103934126D01*
X122797431Y-103553720D01*
X122506280Y-103262569D01*
X122125874Y-103105000D01*
X121714126Y-103105000D01*
X121333720Y-103262569D01*
X121042569Y-103553720D01*
X120885000Y-103934126D01*
X120344000Y-103934126D01*
X120344000Y-101394126D01*
X123425000Y-101394126D01*
X123425000Y-101805874D01*
X123582569Y-102186280D01*
X123873720Y-102477431D01*
X124254126Y-102635000D01*
X124665874Y-102635000D01*
X125046280Y-102477431D01*
X125337431Y-102186280D01*
X125495000Y-101805874D01*
X125495000Y-101394126D01*
X128505000Y-101394126D01*
X128505000Y-101805874D01*
X128662569Y-102186280D01*
X128953720Y-102477431D01*
X129334126Y-102635000D01*
X129745874Y-102635000D01*
X130126280Y-102477431D01*
X130193585Y-102410126D01*
X150857000Y-102410126D01*
X150857000Y-102821874D01*
X151014569Y-103202280D01*
X151305720Y-103493431D01*
X151686126Y-103651000D01*
X152097874Y-103651000D01*
X152478280Y-103493431D01*
X152595711Y-103376000D01*
X153988326Y-103376000D01*
X154105765Y-103493439D01*
X154486171Y-103651008D01*
X154897919Y-103651008D01*
X155278325Y-103493439D01*
X155569476Y-103202288D01*
X155727045Y-102821882D01*
X155727045Y-102410134D01*
X155569476Y-102029728D01*
X155278325Y-101738577D01*
X154897919Y-101581008D01*
X154486171Y-101581008D01*
X154105765Y-101738577D01*
X153988342Y-101856000D01*
X152595711Y-101856000D01*
X152478280Y-101738569D01*
X152097874Y-101581000D01*
X151686126Y-101581000D01*
X151305720Y-101738569D01*
X151014569Y-102029720D01*
X150857000Y-102410126D01*
X130193585Y-102410126D01*
X130417431Y-102186280D01*
X130575000Y-101805874D01*
X130575000Y-101394126D01*
X130417431Y-101013720D01*
X130126280Y-100722569D01*
X129745874Y-100565000D01*
X129334126Y-100565000D01*
X128953720Y-100722569D01*
X128662569Y-101013720D01*
X128505000Y-101394126D01*
X125495000Y-101394126D01*
X125337431Y-101013720D01*
X125046280Y-100722569D01*
X124665874Y-100565000D01*
X124254126Y-100565000D01*
X123873720Y-100722569D01*
X123582569Y-101013720D01*
X123425000Y-101394126D01*
X120344000Y-101394126D01*
X120344000Y-98854126D01*
X120885000Y-98854126D01*
X120885000Y-99265874D01*
X121042569Y-99646280D01*
X121333720Y-99937431D01*
X121714126Y-100095000D01*
X122125874Y-100095000D01*
X122506280Y-99937431D01*
X122797431Y-99646280D01*
X122955000Y-99265874D01*
X122955000Y-98854126D01*
X122797431Y-98473720D01*
X122506280Y-98182569D01*
X122125874Y-98025000D01*
X121714126Y-98025000D01*
X121333720Y-98182569D01*
X121042569Y-98473720D01*
X120885000Y-98854126D01*
X120344000Y-98854126D01*
X120344000Y-97838126D01*
X149333000Y-97838126D01*
X149333000Y-98249874D01*
X149490569Y-98630280D01*
X149781720Y-98921431D01*
X149798081Y-98928208D01*
X149744569Y-98981720D01*
X149587000Y-99362126D01*
X149587000Y-99773874D01*
X149744569Y-100154280D01*
X150035720Y-100445431D01*
X150416126Y-100603000D01*
X150827874Y-100603000D01*
X151208280Y-100445431D01*
X151325711Y-100328000D01*
X152146106Y-100328000D01*
X152284569Y-100662280D01*
X152575720Y-100953431D01*
X152956126Y-101111000D01*
X153367874Y-101111000D01*
X153748280Y-100953431D01*
X154039431Y-100662280D01*
X154197000Y-100281874D01*
X154197000Y-99870126D01*
X154039431Y-99489720D01*
X153748280Y-99198569D01*
X153367874Y-99041000D01*
X153215913Y-99041000D01*
X153201929Y-99020071D01*
X152950537Y-98852096D01*
X152728852Y-98808000D01*
X152728847Y-98808000D01*
X152708738Y-98804000D01*
X165158289Y-98804000D01*
X165275720Y-98921431D01*
X165656126Y-99079000D01*
X166067874Y-99079000D01*
X166448280Y-98921431D01*
X166739431Y-98630280D01*
X166897000Y-98249874D01*
X166897000Y-97838126D01*
X166739431Y-97457720D01*
X166448280Y-97166569D01*
X166067874Y-97009000D01*
X165656126Y-97009000D01*
X165275720Y-97166569D01*
X165158289Y-97284000D01*
X151071711Y-97284000D01*
X150954280Y-97166569D01*
X150573874Y-97009000D01*
X150162126Y-97009000D01*
X149781720Y-97166569D01*
X149490569Y-97457720D01*
X149333000Y-97838126D01*
X120344000Y-97838126D01*
X120344000Y-96314126D01*
X123425000Y-96314126D01*
X123425000Y-96725874D01*
X123582569Y-97106280D01*
X123873720Y-97397431D01*
X124254126Y-97555000D01*
X124665874Y-97555000D01*
X125046280Y-97397431D01*
X125337431Y-97106280D01*
X125495000Y-96725874D01*
X125495000Y-96314126D01*
X128505000Y-96314126D01*
X128505000Y-96725874D01*
X128662569Y-97106280D01*
X128953720Y-97397431D01*
X129334126Y-97555000D01*
X129745874Y-97555000D01*
X130126280Y-97397431D01*
X130417431Y-97106280D01*
X130575000Y-96725874D01*
X130575000Y-96314126D01*
X130417431Y-95933720D01*
X130126280Y-95642569D01*
X129745874Y-95485000D01*
X129334126Y-95485000D01*
X128953720Y-95642569D01*
X128662569Y-95933720D01*
X128505000Y-96314126D01*
X125495000Y-96314126D01*
X125337431Y-95933720D01*
X125046280Y-95642569D01*
X124665874Y-95485000D01*
X124254126Y-95485000D01*
X123873720Y-95642569D01*
X123582569Y-95933720D01*
X123425000Y-96314126D01*
X120344000Y-96314126D01*
X120344000Y-93774126D01*
X120885000Y-93774126D01*
X120885000Y-94185874D01*
X121042569Y-94566280D01*
X121333720Y-94857431D01*
X121714126Y-95015000D01*
X122125874Y-95015000D01*
X122506280Y-94857431D01*
X122797431Y-94566280D01*
X122955000Y-94185874D01*
X122955000Y-93774126D01*
X125965000Y-93774126D01*
X125965000Y-94185874D01*
X126122569Y-94566280D01*
X126413720Y-94857431D01*
X126794126Y-95015000D01*
X127205874Y-95015000D01*
X127586280Y-94857431D01*
X127877431Y-94566280D01*
X128035000Y-94185874D01*
X128035000Y-94155124D01*
X149459998Y-94155124D01*
X149459998Y-94566872D01*
X149617567Y-94947278D01*
X149908718Y-95238429D01*
X150289124Y-95395998D01*
X150700872Y-95395998D01*
X151081278Y-95238429D01*
X151101707Y-95218000D01*
X155809467Y-95218000D01*
X155885584Y-95331916D01*
X156174706Y-95525102D01*
X156515750Y-95592940D01*
X157032139Y-95592940D01*
X157935671Y-96496473D01*
X157978071Y-96559929D01*
X158229463Y-96727904D01*
X158451148Y-96772000D01*
X158451153Y-96772000D01*
X158526000Y-96786888D01*
X158600847Y-96772000D01*
X163520822Y-96772000D01*
X163878126Y-96920000D01*
X164289874Y-96920000D01*
X164670280Y-96762431D01*
X164961431Y-96471280D01*
X165119000Y-96090874D01*
X165119000Y-95679126D01*
X164961431Y-95298720D01*
X164670280Y-95007569D01*
X164289874Y-94850000D01*
X163878126Y-94850000D01*
X163497720Y-95007569D01*
X163253289Y-95252000D01*
X163215027Y-95252000D01*
X163341000Y-94947874D01*
X163341000Y-94536126D01*
X163183431Y-94155720D01*
X162892280Y-93864569D01*
X162511874Y-93707000D01*
X162100126Y-93707000D01*
X161719720Y-93864569D01*
X161602289Y-93982000D01*
X161485711Y-93982000D01*
X161368280Y-93864569D01*
X160987874Y-93707000D01*
X160576126Y-93707000D01*
X160195720Y-93864569D01*
X159904569Y-94155720D01*
X159747000Y-94536126D01*
X159747000Y-94947874D01*
X159872973Y-95252000D01*
X158840802Y-95252000D01*
X158314647Y-94725846D01*
X158319440Y-94701750D01*
X158319440Y-94214250D01*
X158251602Y-93873206D01*
X158058416Y-93584084D01*
X157963256Y-93520500D01*
X158058416Y-93456916D01*
X158251602Y-93167794D01*
X158319440Y-92826750D01*
X158319440Y-92491250D01*
X162961560Y-92491250D01*
X162961560Y-92928750D01*
X163027495Y-93260227D01*
X163215261Y-93541239D01*
X163496273Y-93729005D01*
X163827750Y-93794940D01*
X164340250Y-93794940D01*
X164671727Y-93729005D01*
X164952739Y-93541239D01*
X165000339Y-93470000D01*
X165031289Y-93470000D01*
X165148720Y-93587431D01*
X165529126Y-93745000D01*
X165940874Y-93745000D01*
X166321280Y-93587431D01*
X166612431Y-93296280D01*
X166770000Y-92915874D01*
X166770000Y-92541711D01*
X166799720Y-92571431D01*
X167180126Y-92729000D01*
X167591874Y-92729000D01*
X167972280Y-92571431D01*
X168263431Y-92280280D01*
X168421000Y-91899874D01*
X168421000Y-91488126D01*
X168358011Y-91336058D01*
X168405005Y-91265727D01*
X168470940Y-90934250D01*
X168470940Y-90421750D01*
X168405005Y-90090273D01*
X168217239Y-89809261D01*
X167936227Y-89621495D01*
X167604750Y-89555560D01*
X167167250Y-89555560D01*
X166835773Y-89621495D01*
X166673469Y-89729943D01*
X166608198Y-89664673D01*
X166374809Y-89568000D01*
X166096750Y-89568000D01*
X165938000Y-89726750D01*
X165938000Y-90551000D01*
X165958000Y-90551000D01*
X165958000Y-90805000D01*
X165938000Y-90805000D01*
X165938000Y-90825000D01*
X165684000Y-90825000D01*
X165684000Y-90805000D01*
X165664000Y-90805000D01*
X165664000Y-90551000D01*
X165684000Y-90551000D01*
X165684000Y-89726750D01*
X165525250Y-89568000D01*
X165247191Y-89568000D01*
X165013802Y-89664673D01*
X164835173Y-89843301D01*
X164738500Y-90076690D01*
X164738500Y-90084532D01*
X164685310Y-90062500D01*
X164369750Y-90062500D01*
X164211000Y-90221250D01*
X164211000Y-91008000D01*
X164231000Y-91008000D01*
X164231000Y-91262000D01*
X164211000Y-91262000D01*
X164211000Y-91282000D01*
X163957000Y-91282000D01*
X163957000Y-91262000D01*
X163132750Y-91262000D01*
X162974000Y-91420750D01*
X162974000Y-91698809D01*
X163070673Y-91932198D01*
X163135943Y-91997469D01*
X163027495Y-92159773D01*
X162961560Y-92491250D01*
X158319440Y-92491250D01*
X158319440Y-92339250D01*
X158251602Y-91998206D01*
X158138936Y-91829590D01*
X158201827Y-91766699D01*
X158298500Y-91533310D01*
X158298500Y-91217750D01*
X158139750Y-91059000D01*
X157353000Y-91059000D01*
X157353000Y-91079000D01*
X157099000Y-91079000D01*
X157099000Y-91059000D01*
X157079000Y-91059000D01*
X157079000Y-90805000D01*
X157099000Y-90805000D01*
X157099000Y-90427250D01*
X157196000Y-90330250D01*
X157196000Y-89980750D01*
X157353000Y-89980750D01*
X157353000Y-90805000D01*
X158139750Y-90805000D01*
X158298500Y-90646250D01*
X158298500Y-90571191D01*
X162974000Y-90571191D01*
X162974000Y-90849250D01*
X163132750Y-91008000D01*
X163957000Y-91008000D01*
X163957000Y-90221250D01*
X163798250Y-90062500D01*
X163482690Y-90062500D01*
X163249301Y-90159173D01*
X163070673Y-90337802D01*
X162974000Y-90571191D01*
X158298500Y-90571191D01*
X158298500Y-90330690D01*
X158278974Y-90283551D01*
X158348827Y-90213699D01*
X158445500Y-89980310D01*
X158445500Y-89439750D01*
X158286750Y-89281000D01*
X157450000Y-89281000D01*
X157450000Y-89883750D01*
X157353000Y-89980750D01*
X157196000Y-89980750D01*
X157196000Y-89281000D01*
X157176000Y-89281000D01*
X157176000Y-89027000D01*
X157196000Y-89027000D01*
X157196000Y-87977750D01*
X157450000Y-87977750D01*
X157450000Y-89027000D01*
X158286750Y-89027000D01*
X158445500Y-88868250D01*
X158445500Y-88327690D01*
X158348827Y-88094301D01*
X158170198Y-87915673D01*
X157936809Y-87819000D01*
X157608750Y-87819000D01*
X157450000Y-87977750D01*
X157196000Y-87977750D01*
X157037250Y-87819000D01*
X156709191Y-87819000D01*
X156475802Y-87915673D01*
X156322707Y-88068767D01*
X156321916Y-88067584D01*
X156032794Y-87874398D01*
X155691750Y-87806560D01*
X155204250Y-87806560D01*
X154863206Y-87874398D01*
X154574084Y-88067584D01*
X154380898Y-88356706D01*
X154313060Y-88697750D01*
X154313060Y-89135000D01*
X153972126Y-89135000D01*
X153591720Y-89292569D01*
X153383572Y-89500717D01*
X153113874Y-89389004D01*
X152702126Y-89389004D01*
X152321720Y-89546573D01*
X152030569Y-89837724D01*
X151873000Y-90218130D01*
X151873000Y-90629878D01*
X152030569Y-91010284D01*
X152148001Y-91127716D01*
X152148000Y-92006289D01*
X152030569Y-92123720D01*
X151873000Y-92504126D01*
X151873000Y-92915874D01*
X152030569Y-93296280D01*
X152321720Y-93587431D01*
X152588658Y-93698000D01*
X151295711Y-93698000D01*
X151081278Y-93483567D01*
X150700872Y-93325998D01*
X150289124Y-93325998D01*
X149908718Y-93483567D01*
X149617567Y-93774718D01*
X149459998Y-94155124D01*
X128035000Y-94155124D01*
X128035000Y-93774126D01*
X127877431Y-93393720D01*
X127586280Y-93102569D01*
X127205874Y-92945000D01*
X126794126Y-92945000D01*
X126413720Y-93102569D01*
X126122569Y-93393720D01*
X125965000Y-93774126D01*
X122955000Y-93774126D01*
X122797431Y-93393720D01*
X122506280Y-93102569D01*
X122125874Y-92945000D01*
X121714126Y-92945000D01*
X121333720Y-93102569D01*
X121042569Y-93393720D01*
X120885000Y-93774126D01*
X120344000Y-93774126D01*
X120344000Y-81520446D01*
X120576889Y-81520446D01*
X120672740Y-82002319D01*
X120945699Y-82410831D01*
X121354211Y-82683790D01*
X121714448Y-82755446D01*
X122657720Y-82755446D01*
X123017957Y-82683790D01*
X123426469Y-82410831D01*
X123526084Y-82261747D01*
X123526084Y-82790967D01*
X123710777Y-83236854D01*
X123658071Y-83272071D01*
X123615672Y-83335525D01*
X123213529Y-83737670D01*
X123150071Y-83780071D01*
X122982096Y-84031464D01*
X122938000Y-84253149D01*
X122938000Y-84253153D01*
X122923112Y-84328000D01*
X122938000Y-84402847D01*
X122938001Y-87341198D01*
X122657720Y-87285446D01*
X121714448Y-87285446D01*
X121354211Y-87357102D01*
X120945699Y-87630061D01*
X120672740Y-88038573D01*
X120576889Y-88520446D01*
X120672740Y-89002319D01*
X120945699Y-89410831D01*
X121354211Y-89683790D01*
X121714448Y-89755446D01*
X122657720Y-89755446D01*
X123017957Y-89683790D01*
X123100914Y-89628360D01*
X123150072Y-89701929D01*
X123213528Y-89744329D01*
X123985476Y-90516278D01*
X123873720Y-90562569D01*
X123582569Y-90853720D01*
X123425000Y-91234126D01*
X123425000Y-91645874D01*
X123582569Y-92026280D01*
X123873720Y-92317431D01*
X124254126Y-92475000D01*
X124665874Y-92475000D01*
X125046280Y-92317431D01*
X125337431Y-92026280D01*
X125495000Y-91645874D01*
X125495000Y-91234126D01*
X125474237Y-91184000D01*
X126296289Y-91184000D01*
X126413720Y-91301431D01*
X126794126Y-91459000D01*
X127205874Y-91459000D01*
X127586280Y-91301431D01*
X127877431Y-91010280D01*
X128035000Y-90629874D01*
X128035000Y-90218126D01*
X127877431Y-89837720D01*
X127586280Y-89546569D01*
X127205874Y-89389000D01*
X126794126Y-89389000D01*
X126413720Y-89546569D01*
X126296289Y-89664000D01*
X125282802Y-89664000D01*
X124458000Y-88839199D01*
X124458000Y-88815181D01*
X124615563Y-88880446D01*
X125156605Y-88880446D01*
X125656462Y-88673398D01*
X126039036Y-88290824D01*
X126246084Y-87790967D01*
X126246084Y-87249925D01*
X126039036Y-86750068D01*
X125656462Y-86367494D01*
X125156605Y-86160446D01*
X124615563Y-86160446D01*
X124458000Y-86225711D01*
X124458000Y-84642802D01*
X124520802Y-84580000D01*
X126163153Y-84580000D01*
X126238000Y-84594888D01*
X126312847Y-84580000D01*
X126312852Y-84580000D01*
X126534537Y-84535904D01*
X126785929Y-84367929D01*
X126799913Y-84347000D01*
X126951874Y-84347000D01*
X127332280Y-84189431D01*
X127623431Y-83898280D01*
X127781000Y-83517874D01*
X127781000Y-83106126D01*
X127623431Y-82725720D01*
X127332280Y-82434569D01*
X126951874Y-82277000D01*
X126540126Y-82277000D01*
X126246084Y-82398796D01*
X126246084Y-82249925D01*
X126039036Y-81750068D01*
X125871094Y-81582126D01*
X132315000Y-81582126D01*
X132315000Y-81993874D01*
X132472569Y-82374280D01*
X132590000Y-82491711D01*
X132590001Y-84640288D01*
X132472569Y-84757720D01*
X132315000Y-85138126D01*
X132315000Y-85549874D01*
X132472569Y-85930280D01*
X132763720Y-86221431D01*
X133144126Y-86379000D01*
X133555874Y-86379000D01*
X133936280Y-86221431D01*
X134227431Y-85930280D01*
X134385000Y-85549874D01*
X134385000Y-85138126D01*
X134378217Y-85121750D01*
X164281500Y-85121750D01*
X164281500Y-85437310D01*
X164378173Y-85670699D01*
X164556802Y-85849327D01*
X164790191Y-85946000D01*
X165068250Y-85946000D01*
X165227000Y-85787250D01*
X165227000Y-84963000D01*
X164440250Y-84963000D01*
X164281500Y-85121750D01*
X134378217Y-85121750D01*
X134227431Y-84757720D01*
X134110000Y-84640289D01*
X134110000Y-83267750D01*
X154846000Y-83267750D01*
X154846000Y-83545809D01*
X154942673Y-83779198D01*
X155121301Y-83957827D01*
X155354690Y-84054500D01*
X155670250Y-84054500D01*
X155829000Y-83895750D01*
X155829000Y-83109000D01*
X155004750Y-83109000D01*
X154846000Y-83267750D01*
X134110000Y-83267750D01*
X134110000Y-82491711D01*
X134227431Y-82374280D01*
X134385000Y-81993874D01*
X134385000Y-81582126D01*
X134227431Y-81201720D01*
X133936280Y-80910569D01*
X133555874Y-80753000D01*
X133144126Y-80753000D01*
X132763720Y-80910569D01*
X132472569Y-81201720D01*
X132315000Y-81582126D01*
X125871094Y-81582126D01*
X125656462Y-81367494D01*
X125156605Y-81160446D01*
X124615563Y-81160446D01*
X124115706Y-81367494D01*
X123753694Y-81729506D01*
X123795279Y-81520446D01*
X123699428Y-81038573D01*
X123426469Y-80630061D01*
X123017957Y-80357102D01*
X122657720Y-80285446D01*
X121714448Y-80285446D01*
X121354211Y-80357102D01*
X120945699Y-80630061D01*
X120672740Y-81038573D01*
X120576889Y-81520446D01*
X120344000Y-81520446D01*
X120344000Y-80058126D01*
X154540000Y-80058126D01*
X154540000Y-80469874D01*
X154697569Y-80850280D01*
X154867071Y-81019782D01*
X154833560Y-81188250D01*
X154833560Y-81625750D01*
X154899495Y-81957227D01*
X155007943Y-82119531D01*
X154942673Y-82184802D01*
X154846000Y-82418191D01*
X154846000Y-82696250D01*
X155004750Y-82855000D01*
X155829000Y-82855000D01*
X155829000Y-82835000D01*
X156083000Y-82835000D01*
X156083000Y-82855000D01*
X156103000Y-82855000D01*
X156103000Y-83109000D01*
X156083000Y-83109000D01*
X156083000Y-83895750D01*
X156241750Y-84054500D01*
X156399000Y-84054500D01*
X156399000Y-84149809D01*
X156495673Y-84383198D01*
X156674301Y-84561827D01*
X156907690Y-84658500D01*
X157448250Y-84658500D01*
X157607000Y-84499750D01*
X157607000Y-83663000D01*
X157861000Y-83663000D01*
X157861000Y-84499750D01*
X158019750Y-84658500D01*
X158560310Y-84658500D01*
X158793699Y-84561827D01*
X158972327Y-84383198D01*
X159069000Y-84149809D01*
X159069000Y-83821750D01*
X158910250Y-83663000D01*
X157861000Y-83663000D01*
X157607000Y-83663000D01*
X157587000Y-83663000D01*
X157587000Y-83409000D01*
X157607000Y-83409000D01*
X157607000Y-83389000D01*
X157861000Y-83389000D01*
X157861000Y-83409000D01*
X158910250Y-83409000D01*
X158950000Y-83369250D01*
X162974000Y-83369250D01*
X162974000Y-83647309D01*
X163070673Y-83880698D01*
X163249301Y-84059327D01*
X163482690Y-84156000D01*
X163798250Y-84156000D01*
X163957000Y-83997250D01*
X163957000Y-83210500D01*
X164211000Y-83210500D01*
X164211000Y-83997250D01*
X164330396Y-84116646D01*
X164281500Y-84234690D01*
X164281500Y-84550250D01*
X164440250Y-84709000D01*
X165227000Y-84709000D01*
X165227000Y-83884750D01*
X165481000Y-83884750D01*
X165481000Y-84709000D01*
X165501000Y-84709000D01*
X165501000Y-84963000D01*
X165481000Y-84963000D01*
X165481000Y-85787250D01*
X165639750Y-85946000D01*
X165917809Y-85946000D01*
X166151198Y-85849327D01*
X166216469Y-85784057D01*
X166378773Y-85892505D01*
X166710250Y-85958440D01*
X167147750Y-85958440D01*
X167479227Y-85892505D01*
X167760239Y-85704739D01*
X167820591Y-85614416D01*
X168218729Y-85614416D01*
X168599135Y-85456847D01*
X168890286Y-85165696D01*
X169047855Y-84785290D01*
X169047855Y-84373542D01*
X168890286Y-83993136D01*
X168599135Y-83701985D01*
X168218729Y-83544416D01*
X167806981Y-83544416D01*
X167426575Y-83701985D01*
X167370660Y-83757900D01*
X167147750Y-83713560D01*
X166710250Y-83713560D01*
X166378773Y-83779495D01*
X166216469Y-83887943D01*
X166151198Y-83822673D01*
X165917809Y-83726000D01*
X165639750Y-83726000D01*
X165481000Y-83884750D01*
X165227000Y-83884750D01*
X165134121Y-83791871D01*
X165194000Y-83647309D01*
X165194000Y-83369250D01*
X165035250Y-83210500D01*
X164211000Y-83210500D01*
X163957000Y-83210500D01*
X163132750Y-83210500D01*
X162974000Y-83369250D01*
X158950000Y-83369250D01*
X159069000Y-83250250D01*
X159069000Y-82922191D01*
X158972327Y-82688802D01*
X158819233Y-82535707D01*
X158820416Y-82534916D01*
X159013602Y-82245794D01*
X159081440Y-81904750D01*
X159081440Y-81417250D01*
X159056079Y-81289750D01*
X162961560Y-81289750D01*
X162961560Y-81727250D01*
X163027495Y-82058727D01*
X163135943Y-82221031D01*
X163070673Y-82286302D01*
X162974000Y-82519691D01*
X162974000Y-82797750D01*
X163132750Y-82956500D01*
X163957000Y-82956500D01*
X163957000Y-82936500D01*
X164211000Y-82936500D01*
X164211000Y-82956500D01*
X165035250Y-82956500D01*
X165194000Y-82797750D01*
X165194000Y-82519691D01*
X165097327Y-82286302D01*
X165032057Y-82221031D01*
X165140505Y-82058727D01*
X165206440Y-81727250D01*
X165206440Y-81289750D01*
X165140505Y-80958273D01*
X165127259Y-80938448D01*
X165226998Y-80838709D01*
X165275720Y-80887431D01*
X165656126Y-81045000D01*
X166067874Y-81045000D01*
X166448280Y-80887431D01*
X166739431Y-80596280D01*
X166897000Y-80215874D01*
X166897000Y-79804126D01*
X166739431Y-79423720D01*
X166622000Y-79306289D01*
X166622000Y-77665711D01*
X166739431Y-77548280D01*
X166897000Y-77167874D01*
X166897000Y-76756126D01*
X166739431Y-76375720D01*
X166448280Y-76084569D01*
X166067874Y-75927000D01*
X165656126Y-75927000D01*
X165275720Y-76084569D01*
X164984569Y-76375720D01*
X164827000Y-76756126D01*
X164827000Y-77167874D01*
X164984569Y-77548280D01*
X165102001Y-77665712D01*
X165102000Y-79306289D01*
X165100002Y-79308287D01*
X165051280Y-79259565D01*
X164670874Y-79101996D01*
X164259126Y-79101996D01*
X163878720Y-79259565D01*
X163587569Y-79550716D01*
X163430000Y-79931122D01*
X163430000Y-80128815D01*
X163368097Y-80221459D01*
X163309112Y-80517996D01*
X163324001Y-80592847D01*
X163324001Y-80604603D01*
X163215261Y-80677261D01*
X163027495Y-80958273D01*
X162961560Y-81289750D01*
X159056079Y-81289750D01*
X159013602Y-81076206D01*
X158820416Y-80787084D01*
X158531294Y-80593898D01*
X158190250Y-80526060D01*
X158054862Y-80526060D01*
X157626000Y-80097199D01*
X157626000Y-79931126D01*
X157468431Y-79550720D01*
X157177280Y-79259569D01*
X156796874Y-79102000D01*
X156385126Y-79102000D01*
X156004720Y-79259569D01*
X155960773Y-79303516D01*
X155780874Y-79229000D01*
X155369126Y-79229000D01*
X154988720Y-79386569D01*
X154697569Y-79677720D01*
X154540000Y-80058126D01*
X120344000Y-80058126D01*
X120344000Y-74601270D01*
X120355373Y-74562874D01*
X120365677Y-74491808D01*
X120414752Y-73977431D01*
X121717000Y-73977431D01*
X121717000Y-74866569D01*
X122057259Y-75688026D01*
X122685974Y-76316741D01*
X123507431Y-76657000D01*
X124396569Y-76657000D01*
X125218026Y-76316741D01*
X125846741Y-75688026D01*
X126187000Y-74866569D01*
X126187000Y-73977431D01*
X126134395Y-73850431D01*
X190805000Y-73850431D01*
X190805000Y-74739569D01*
X191145259Y-75561026D01*
X191773974Y-76189741D01*
X192595431Y-76530000D01*
X193484569Y-76530000D01*
X194306026Y-76189741D01*
X194934741Y-75561026D01*
X195275000Y-74739569D01*
X195275000Y-73850431D01*
X194934741Y-73028974D01*
X194306026Y-72400259D01*
X193484569Y-72060000D01*
X192595431Y-72060000D01*
X191773974Y-72400259D01*
X191145259Y-73028974D01*
X190805000Y-73850431D01*
X126134395Y-73850431D01*
X125846741Y-73155974D01*
X125218026Y-72527259D01*
X124396569Y-72187000D01*
X123507431Y-72187000D01*
X122685974Y-72527259D01*
X122057259Y-73155974D01*
X121717000Y-73977431D01*
X120414752Y-73977431D01*
X120436918Y-73745107D01*
X120628335Y-73092627D01*
X120939676Y-72488120D01*
X121359709Y-71953395D01*
X121873279Y-71507742D01*
X122461857Y-71167240D01*
X123104199Y-70944183D01*
X123802999Y-70842861D01*
X123969957Y-70838781D01*
X124108577Y-70822129D01*
X124133972Y-70814000D01*
X193006212Y-70814000D01*
X193721642Y-70882258D01*
G04 #@! TO.N,GNDA*
G36*
X151247563Y-110973235D02*
X150954874Y-110852000D01*
X150543126Y-110852000D01*
X150162720Y-111009569D01*
X149871569Y-111300720D01*
X149714000Y-111681126D01*
X149714000Y-112092874D01*
X149871569Y-112473280D01*
X150162720Y-112764431D01*
X150543126Y-112922000D01*
X150709199Y-112922000D01*
X151428671Y-113641473D01*
X151471071Y-113704929D01*
X151722463Y-113872904D01*
X151944148Y-113917000D01*
X151944152Y-113917000D01*
X152018999Y-113931888D01*
X152093846Y-113917000D01*
X154149480Y-113917000D01*
X154156898Y-113954294D01*
X154350084Y-114243416D01*
X154639206Y-114436602D01*
X154980250Y-114504440D01*
X155467750Y-114504440D01*
X155808794Y-114436602D01*
X156097916Y-114243416D01*
X156161500Y-114148256D01*
X156181015Y-114177463D01*
X156042495Y-114384773D01*
X155976560Y-114716250D01*
X155976560Y-115153750D01*
X156042495Y-115485227D01*
X156201036Y-115722500D01*
X156042495Y-115959773D01*
X155976560Y-116291250D01*
X155976560Y-116728750D01*
X156042495Y-117060227D01*
X156230261Y-117341239D01*
X156511273Y-117529005D01*
X156842750Y-117594940D01*
X157329220Y-117594940D01*
X157364569Y-117680280D01*
X157655720Y-117971431D01*
X158036126Y-118129000D01*
X158447874Y-118129000D01*
X158828280Y-117971431D01*
X159119431Y-117680280D01*
X159269428Y-117318155D01*
X159554227Y-117261505D01*
X159716531Y-117153057D01*
X159781802Y-117218327D01*
X160015191Y-117315000D01*
X160293250Y-117315000D01*
X160452000Y-117156250D01*
X160452000Y-116332000D01*
X160432000Y-116332000D01*
X160432000Y-116078000D01*
X160452000Y-116078000D01*
X160452000Y-116058000D01*
X160706000Y-116058000D01*
X160706000Y-116078000D01*
X160726000Y-116078000D01*
X160726000Y-116332000D01*
X160706000Y-116332000D01*
X160706000Y-117156250D01*
X160864750Y-117315000D01*
X161142809Y-117315000D01*
X161376198Y-117218327D01*
X161487500Y-117107026D01*
X161487500Y-117187310D01*
X161584173Y-117420699D01*
X161762802Y-117599327D01*
X161996191Y-117696000D01*
X162274250Y-117696000D01*
X162433000Y-117537250D01*
X162433000Y-116713000D01*
X162413000Y-116713000D01*
X162413000Y-116459000D01*
X162433000Y-116459000D01*
X162433000Y-115634750D01*
X162274250Y-115476000D01*
X162227025Y-115476000D01*
X162368327Y-115334699D01*
X162465000Y-115101310D01*
X162465000Y-114585750D01*
X162306250Y-114427000D01*
X161257000Y-114427000D01*
X161257000Y-114447000D01*
X161003000Y-114447000D01*
X161003000Y-114427000D01*
X159953750Y-114427000D01*
X159795000Y-114585750D01*
X159795000Y-115101310D01*
X159825015Y-115173773D01*
X159781802Y-115191673D01*
X159716531Y-115256943D01*
X159554227Y-115148495D01*
X159222750Y-115082560D01*
X158785250Y-115082560D01*
X158453773Y-115148495D01*
X158187033Y-115326725D01*
X158221440Y-115153750D01*
X158221440Y-114716250D01*
X158155505Y-114384773D01*
X158016985Y-114177463D01*
X158166102Y-113954294D01*
X158233940Y-113613250D01*
X158233940Y-113463374D01*
X158505750Y-113517440D01*
X158943250Y-113517440D01*
X159274727Y-113451505D01*
X159437031Y-113343057D01*
X159502302Y-113408327D01*
X159735691Y-113505000D01*
X159795000Y-113505000D01*
X159795000Y-114014250D01*
X159953750Y-114173000D01*
X161003000Y-114173000D01*
X161003000Y-114153000D01*
X161257000Y-114153000D01*
X161257000Y-114173000D01*
X162306250Y-114173000D01*
X162465000Y-114014250D01*
X162465000Y-113874999D01*
X162482560Y-113874999D01*
X162482560Y-114725001D01*
X162550873Y-115068436D01*
X162745414Y-115359586D01*
X162919639Y-115476000D01*
X162845750Y-115476000D01*
X162687000Y-115634750D01*
X162687000Y-116459000D01*
X162707000Y-116459000D01*
X162707000Y-116713000D01*
X162687000Y-116713000D01*
X162687000Y-117537250D01*
X162845750Y-117696000D01*
X163123809Y-117696000D01*
X163357198Y-117599327D01*
X163422469Y-117534057D01*
X163584773Y-117642505D01*
X163916250Y-117708440D01*
X164353750Y-117708440D01*
X164685227Y-117642505D01*
X164966239Y-117454739D01*
X165154005Y-117173727D01*
X165219940Y-116842250D01*
X165219940Y-116351000D01*
X165559874Y-116351000D01*
X165940280Y-116193431D01*
X166231431Y-115902280D01*
X166389000Y-115521874D01*
X166389000Y-115110126D01*
X166231431Y-114729720D01*
X165940280Y-114438569D01*
X165559874Y-114281000D01*
X165393802Y-114281000D01*
X165177440Y-114064639D01*
X165177440Y-113874999D01*
X165109127Y-113531564D01*
X164914586Y-113240414D01*
X164623436Y-113045873D01*
X164280001Y-112977560D01*
X163379999Y-112977560D01*
X163036564Y-113045873D01*
X162745414Y-113240414D01*
X162550873Y-113531564D01*
X162482560Y-113874999D01*
X162465000Y-113874999D01*
X162465000Y-113498690D01*
X162368327Y-113265301D01*
X162189698Y-113086673D01*
X161956309Y-112990000D01*
X161415750Y-112990000D01*
X161345526Y-113060224D01*
X161372000Y-112996310D01*
X161372000Y-112680750D01*
X161213250Y-112522000D01*
X160426500Y-112522000D01*
X160426500Y-112542000D01*
X160172500Y-112542000D01*
X160172500Y-112522000D01*
X160152500Y-112522000D01*
X160152500Y-112268000D01*
X160172500Y-112268000D01*
X160172500Y-112248000D01*
X160426500Y-112248000D01*
X160426500Y-112268000D01*
X160721909Y-112268000D01*
X163303522Y-112647649D01*
X163322000Y-112649000D01*
X182321650Y-112649000D01*
X182674126Y-112795000D01*
X183085874Y-112795000D01*
X183438350Y-112649000D01*
X187401650Y-112649000D01*
X187754126Y-112795000D01*
X188165874Y-112795000D01*
X188518350Y-112649000D01*
X192481650Y-112649000D01*
X192834126Y-112795000D01*
X193245874Y-112795000D01*
X193598350Y-112649000D01*
X196648000Y-112649000D01*
X196648000Y-145870730D01*
X196636627Y-145909126D01*
X196626323Y-145980192D01*
X196555082Y-146726893D01*
X196363665Y-147379373D01*
X196052325Y-147983877D01*
X195632293Y-148518603D01*
X195118723Y-148964257D01*
X194530142Y-149304760D01*
X193887803Y-149527817D01*
X193189001Y-149629139D01*
X193022043Y-149633219D01*
X192883423Y-149649871D01*
X192858028Y-149658000D01*
X124131270Y-149658000D01*
X124092874Y-149646627D01*
X124021808Y-149636323D01*
X123275107Y-149565082D01*
X122622627Y-149373665D01*
X122018123Y-149062325D01*
X121483397Y-148642293D01*
X121037743Y-148128723D01*
X120697240Y-147540142D01*
X120474183Y-146897803D01*
X120372861Y-146199001D01*
X120368781Y-146032043D01*
X120352129Y-145893423D01*
X120344000Y-145868028D01*
X120344000Y-145605431D01*
X121717000Y-145605431D01*
X121717000Y-146494569D01*
X122057259Y-147316026D01*
X122685974Y-147944741D01*
X123507431Y-148285000D01*
X124396569Y-148285000D01*
X125218026Y-147944741D01*
X125846741Y-147316026D01*
X126187000Y-146494569D01*
X126187000Y-145605431D01*
X190805000Y-145605431D01*
X190805000Y-146494569D01*
X191145259Y-147316026D01*
X191773974Y-147944741D01*
X192595431Y-148285000D01*
X193484569Y-148285000D01*
X194306026Y-147944741D01*
X194934741Y-147316026D01*
X195275000Y-146494569D01*
X195275000Y-145605431D01*
X194934741Y-144783974D01*
X194306026Y-144155259D01*
X193484569Y-143815000D01*
X192595431Y-143815000D01*
X191773974Y-144155259D01*
X191145259Y-144783974D01*
X190805000Y-145605431D01*
X126187000Y-145605431D01*
X125846741Y-144783974D01*
X125218026Y-144155259D01*
X124396569Y-143815000D01*
X123507431Y-143815000D01*
X122685974Y-144155259D01*
X122057259Y-144783974D01*
X121717000Y-145605431D01*
X120344000Y-145605431D01*
X120344000Y-141942322D01*
X127786000Y-141942322D01*
X127786000Y-142791678D01*
X128111034Y-143576380D01*
X128711620Y-144176966D01*
X129496322Y-144502000D01*
X130345678Y-144502000D01*
X131130380Y-144176966D01*
X131730966Y-143576380D01*
X132056000Y-142791678D01*
X132056000Y-141942322D01*
X144016000Y-141942322D01*
X144016000Y-142791678D01*
X144341034Y-143576380D01*
X144941620Y-144176966D01*
X145726322Y-144502000D01*
X146575678Y-144502000D01*
X147360380Y-144176966D01*
X147960966Y-143576380D01*
X148286000Y-142791678D01*
X148286000Y-141942322D01*
X148360000Y-141942322D01*
X148360000Y-142791678D01*
X148685034Y-143576380D01*
X149285620Y-144176966D01*
X150070322Y-144502000D01*
X150919678Y-144502000D01*
X151704380Y-144176966D01*
X152304966Y-143576380D01*
X152630000Y-142791678D01*
X152630000Y-141942322D01*
X164590000Y-141942322D01*
X164590000Y-142791678D01*
X164915034Y-143576380D01*
X165515620Y-144176966D01*
X166300322Y-144502000D01*
X167149678Y-144502000D01*
X167934380Y-144176966D01*
X168534966Y-143576380D01*
X168770000Y-143008957D01*
X169005034Y-143576380D01*
X169605620Y-144176966D01*
X170390322Y-144502000D01*
X171239678Y-144502000D01*
X172024380Y-144176966D01*
X172624966Y-143576380D01*
X172950000Y-142791678D01*
X172950000Y-141942322D01*
X184910000Y-141942322D01*
X184910000Y-142791678D01*
X185235034Y-143576380D01*
X185835620Y-144176966D01*
X186620322Y-144502000D01*
X187469678Y-144502000D01*
X188254380Y-144176966D01*
X188854966Y-143576380D01*
X189180000Y-142791678D01*
X189180000Y-141942322D01*
X188854966Y-141157620D01*
X188254380Y-140557034D01*
X187469678Y-140232000D01*
X186620322Y-140232000D01*
X185835620Y-140557034D01*
X185235034Y-141157620D01*
X184910000Y-141942322D01*
X172950000Y-141942322D01*
X172624966Y-141157620D01*
X172024380Y-140557034D01*
X171239678Y-140232000D01*
X170390322Y-140232000D01*
X169605620Y-140557034D01*
X169005034Y-141157620D01*
X168770000Y-141725043D01*
X168534966Y-141157620D01*
X167934380Y-140557034D01*
X167149678Y-140232000D01*
X166300322Y-140232000D01*
X165515620Y-140557034D01*
X164915034Y-141157620D01*
X164590000Y-141942322D01*
X152630000Y-141942322D01*
X152304966Y-141157620D01*
X151704380Y-140557034D01*
X150919678Y-140232000D01*
X150070322Y-140232000D01*
X149285620Y-140557034D01*
X148685034Y-141157620D01*
X148360000Y-141942322D01*
X148286000Y-141942322D01*
X147960966Y-141157620D01*
X147360380Y-140557034D01*
X146575678Y-140232000D01*
X145726322Y-140232000D01*
X144941620Y-140557034D01*
X144341034Y-141157620D01*
X144016000Y-141942322D01*
X132056000Y-141942322D01*
X131730966Y-141157620D01*
X131130380Y-140557034D01*
X130345678Y-140232000D01*
X129496322Y-140232000D01*
X128711620Y-140557034D01*
X128111034Y-141157620D01*
X127786000Y-141942322D01*
X120344000Y-141942322D01*
X120344000Y-135592322D01*
X127786000Y-135592322D01*
X127786000Y-136441678D01*
X128111034Y-137226380D01*
X128711620Y-137826966D01*
X129496322Y-138152000D01*
X130345678Y-138152000D01*
X131130380Y-137826966D01*
X131730966Y-137226380D01*
X132056000Y-136441678D01*
X132056000Y-135592322D01*
X144016000Y-135592322D01*
X144016000Y-136441678D01*
X144341034Y-137226380D01*
X144941620Y-137826966D01*
X145726322Y-138152000D01*
X146575678Y-138152000D01*
X147360380Y-137826966D01*
X147960966Y-137226380D01*
X148286000Y-136441678D01*
X148286000Y-135592322D01*
X148360000Y-135592322D01*
X148360000Y-136441678D01*
X148685034Y-137226380D01*
X149285620Y-137826966D01*
X150070322Y-138152000D01*
X150919678Y-138152000D01*
X151704380Y-137826966D01*
X152304966Y-137226380D01*
X152630000Y-136441678D01*
X152630000Y-135592322D01*
X164590000Y-135592322D01*
X164590000Y-136441678D01*
X164915034Y-137226380D01*
X165515620Y-137826966D01*
X166300322Y-138152000D01*
X167149678Y-138152000D01*
X167934380Y-137826966D01*
X168534966Y-137226380D01*
X168770000Y-136658957D01*
X169005034Y-137226380D01*
X169605620Y-137826966D01*
X170390322Y-138152000D01*
X171239678Y-138152000D01*
X172024380Y-137826966D01*
X172624966Y-137226380D01*
X172950000Y-136441678D01*
X172950000Y-135592322D01*
X184910000Y-135592322D01*
X184910000Y-136441678D01*
X185235034Y-137226380D01*
X185835620Y-137826966D01*
X186620322Y-138152000D01*
X187469678Y-138152000D01*
X188254380Y-137826966D01*
X188854966Y-137226380D01*
X189180000Y-136441678D01*
X189180000Y-135592322D01*
X188854966Y-134807620D01*
X188254380Y-134207034D01*
X187469678Y-133882000D01*
X186620322Y-133882000D01*
X185835620Y-134207034D01*
X185235034Y-134807620D01*
X184910000Y-135592322D01*
X172950000Y-135592322D01*
X172624966Y-134807620D01*
X172024380Y-134207034D01*
X171239678Y-133882000D01*
X170390322Y-133882000D01*
X169605620Y-134207034D01*
X169005034Y-134807620D01*
X168770000Y-135375043D01*
X168534966Y-134807620D01*
X167934380Y-134207034D01*
X167149678Y-133882000D01*
X166300322Y-133882000D01*
X165515620Y-134207034D01*
X164915034Y-134807620D01*
X164590000Y-135592322D01*
X152630000Y-135592322D01*
X152304966Y-134807620D01*
X151704380Y-134207034D01*
X150919678Y-133882000D01*
X150070322Y-133882000D01*
X149285620Y-134207034D01*
X148685034Y-134807620D01*
X148360000Y-135592322D01*
X148286000Y-135592322D01*
X147960966Y-134807620D01*
X147360380Y-134207034D01*
X146575678Y-133882000D01*
X145726322Y-133882000D01*
X144941620Y-134207034D01*
X144341034Y-134807620D01*
X144016000Y-135592322D01*
X132056000Y-135592322D01*
X131730966Y-134807620D01*
X131130380Y-134207034D01*
X130345678Y-133882000D01*
X129496322Y-133882000D01*
X128711620Y-134207034D01*
X128111034Y-134807620D01*
X127786000Y-135592322D01*
X120344000Y-135592322D01*
X120344000Y-129952750D01*
X127786000Y-129952750D01*
X127786000Y-131293309D01*
X127882673Y-131526698D01*
X128061301Y-131705327D01*
X128294690Y-131802000D01*
X129635250Y-131802000D01*
X129794000Y-131643250D01*
X129794000Y-129794000D01*
X130048000Y-129794000D01*
X130048000Y-131643250D01*
X130206750Y-131802000D01*
X131547310Y-131802000D01*
X131780699Y-131705327D01*
X131959327Y-131526698D01*
X132056000Y-131293309D01*
X132056000Y-129952750D01*
X131897250Y-129794000D01*
X130048000Y-129794000D01*
X129794000Y-129794000D01*
X127944750Y-129794000D01*
X127786000Y-129952750D01*
X120344000Y-129952750D01*
X120344000Y-128040691D01*
X127786000Y-128040691D01*
X127786000Y-129381250D01*
X127944750Y-129540000D01*
X129794000Y-129540000D01*
X129794000Y-127690750D01*
X130048000Y-127690750D01*
X130048000Y-129540000D01*
X131897250Y-129540000D01*
X132056000Y-129381250D01*
X132056000Y-129242322D01*
X144016000Y-129242322D01*
X144016000Y-130091678D01*
X144341034Y-130876380D01*
X144941620Y-131476966D01*
X145726322Y-131802000D01*
X146575678Y-131802000D01*
X147360380Y-131476966D01*
X147960966Y-130876380D01*
X148286000Y-130091678D01*
X148286000Y-129952750D01*
X148360000Y-129952750D01*
X148360000Y-131293309D01*
X148456673Y-131526698D01*
X148635301Y-131705327D01*
X148868690Y-131802000D01*
X150209250Y-131802000D01*
X150368000Y-131643250D01*
X150368000Y-129794000D01*
X150622000Y-129794000D01*
X150622000Y-131643250D01*
X150780750Y-131802000D01*
X152121310Y-131802000D01*
X152354699Y-131705327D01*
X152533327Y-131526698D01*
X152630000Y-131293309D01*
X152630000Y-129952750D01*
X152471250Y-129794000D01*
X150622000Y-129794000D01*
X150368000Y-129794000D01*
X148518750Y-129794000D01*
X148360000Y-129952750D01*
X148286000Y-129952750D01*
X148286000Y-129242322D01*
X147960966Y-128457620D01*
X147544037Y-128040691D01*
X148360000Y-128040691D01*
X148360000Y-129381250D01*
X148518750Y-129540000D01*
X150368000Y-129540000D01*
X150368000Y-127690750D01*
X150622000Y-127690750D01*
X150622000Y-129540000D01*
X152471250Y-129540000D01*
X152630000Y-129381250D01*
X152630000Y-129242322D01*
X164590000Y-129242322D01*
X164590000Y-130091678D01*
X164915034Y-130876380D01*
X165515620Y-131476966D01*
X166300322Y-131802000D01*
X167149678Y-131802000D01*
X167934380Y-131476966D01*
X168534966Y-130876380D01*
X168680000Y-130526237D01*
X168680000Y-131293309D01*
X168776673Y-131526698D01*
X168955301Y-131705327D01*
X169188690Y-131802000D01*
X170529250Y-131802000D01*
X170688000Y-131643250D01*
X170688000Y-129794000D01*
X170942000Y-129794000D01*
X170942000Y-131643250D01*
X171100750Y-131802000D01*
X172441310Y-131802000D01*
X172674699Y-131705327D01*
X172853327Y-131526698D01*
X172950000Y-131293309D01*
X172950000Y-129952750D01*
X172791250Y-129794000D01*
X170942000Y-129794000D01*
X170688000Y-129794000D01*
X170668000Y-129794000D01*
X170668000Y-129540000D01*
X170688000Y-129540000D01*
X170688000Y-127690750D01*
X170942000Y-127690750D01*
X170942000Y-129540000D01*
X172791250Y-129540000D01*
X172950000Y-129381250D01*
X172950000Y-129242322D01*
X184910000Y-129242322D01*
X184910000Y-130091678D01*
X185235034Y-130876380D01*
X185835620Y-131476966D01*
X186620322Y-131802000D01*
X187469678Y-131802000D01*
X188254380Y-131476966D01*
X188854966Y-130876380D01*
X189180000Y-130091678D01*
X189180000Y-129242322D01*
X188854966Y-128457620D01*
X188254380Y-127857034D01*
X187469678Y-127532000D01*
X186620322Y-127532000D01*
X185835620Y-127857034D01*
X185235034Y-128457620D01*
X184910000Y-129242322D01*
X172950000Y-129242322D01*
X172950000Y-128040691D01*
X172853327Y-127807302D01*
X172674699Y-127628673D01*
X172441310Y-127532000D01*
X171100750Y-127532000D01*
X170942000Y-127690750D01*
X170688000Y-127690750D01*
X170529250Y-127532000D01*
X169188690Y-127532000D01*
X168955301Y-127628673D01*
X168776673Y-127807302D01*
X168680000Y-128040691D01*
X168680000Y-128807763D01*
X168534966Y-128457620D01*
X167934380Y-127857034D01*
X167149678Y-127532000D01*
X166300322Y-127532000D01*
X165515620Y-127857034D01*
X164915034Y-128457620D01*
X164590000Y-129242322D01*
X152630000Y-129242322D01*
X152630000Y-128040691D01*
X152533327Y-127807302D01*
X152354699Y-127628673D01*
X152121310Y-127532000D01*
X150780750Y-127532000D01*
X150622000Y-127690750D01*
X150368000Y-127690750D01*
X150209250Y-127532000D01*
X148868690Y-127532000D01*
X148635301Y-127628673D01*
X148456673Y-127807302D01*
X148360000Y-128040691D01*
X147544037Y-128040691D01*
X147360380Y-127857034D01*
X146575678Y-127532000D01*
X145726322Y-127532000D01*
X144941620Y-127857034D01*
X144341034Y-128457620D01*
X144016000Y-129242322D01*
X132056000Y-129242322D01*
X132056000Y-128040691D01*
X131959327Y-127807302D01*
X131780699Y-127628673D01*
X131547310Y-127532000D01*
X130206750Y-127532000D01*
X130048000Y-127690750D01*
X129794000Y-127690750D01*
X129635250Y-127532000D01*
X128294690Y-127532000D01*
X128061301Y-127628673D01*
X127882673Y-127807302D01*
X127786000Y-128040691D01*
X120344000Y-128040691D01*
X120344000Y-107823000D01*
X132334000Y-107823000D01*
X132382601Y-107813333D01*
X132436539Y-107770932D01*
X134811489Y-104521000D01*
X145232767Y-104521000D01*
X151247563Y-110973235D01*
X151247563Y-110973235D01*
G37*
X151247563Y-110973235D02*
X150954874Y-110852000D01*
X150543126Y-110852000D01*
X150162720Y-111009569D01*
X149871569Y-111300720D01*
X149714000Y-111681126D01*
X149714000Y-112092874D01*
X149871569Y-112473280D01*
X150162720Y-112764431D01*
X150543126Y-112922000D01*
X150709199Y-112922000D01*
X151428671Y-113641473D01*
X151471071Y-113704929D01*
X151722463Y-113872904D01*
X151944148Y-113917000D01*
X151944152Y-113917000D01*
X152018999Y-113931888D01*
X152093846Y-113917000D01*
X154149480Y-113917000D01*
X154156898Y-113954294D01*
X154350084Y-114243416D01*
X154639206Y-114436602D01*
X154980250Y-114504440D01*
X155467750Y-114504440D01*
X155808794Y-114436602D01*
X156097916Y-114243416D01*
X156161500Y-114148256D01*
X156181015Y-114177463D01*
X156042495Y-114384773D01*
X155976560Y-114716250D01*
X155976560Y-115153750D01*
X156042495Y-115485227D01*
X156201036Y-115722500D01*
X156042495Y-115959773D01*
X155976560Y-116291250D01*
X155976560Y-116728750D01*
X156042495Y-117060227D01*
X156230261Y-117341239D01*
X156511273Y-117529005D01*
X156842750Y-117594940D01*
X157329220Y-117594940D01*
X157364569Y-117680280D01*
X157655720Y-117971431D01*
X158036126Y-118129000D01*
X158447874Y-118129000D01*
X158828280Y-117971431D01*
X159119431Y-117680280D01*
X159269428Y-117318155D01*
X159554227Y-117261505D01*
X159716531Y-117153057D01*
X159781802Y-117218327D01*
X160015191Y-117315000D01*
X160293250Y-117315000D01*
X160452000Y-117156250D01*
X160452000Y-116332000D01*
X160432000Y-116332000D01*
X160432000Y-116078000D01*
X160452000Y-116078000D01*
X160452000Y-116058000D01*
X160706000Y-116058000D01*
X160706000Y-116078000D01*
X160726000Y-116078000D01*
X160726000Y-116332000D01*
X160706000Y-116332000D01*
X160706000Y-117156250D01*
X160864750Y-117315000D01*
X161142809Y-117315000D01*
X161376198Y-117218327D01*
X161487500Y-117107026D01*
X161487500Y-117187310D01*
X161584173Y-117420699D01*
X161762802Y-117599327D01*
X161996191Y-117696000D01*
X162274250Y-117696000D01*
X162433000Y-117537250D01*
X162433000Y-116713000D01*
X162413000Y-116713000D01*
X162413000Y-116459000D01*
X162433000Y-116459000D01*
X162433000Y-115634750D01*
X162274250Y-115476000D01*
X162227025Y-115476000D01*
X162368327Y-115334699D01*
X162465000Y-115101310D01*
X162465000Y-114585750D01*
X162306250Y-114427000D01*
X161257000Y-114427000D01*
X161257000Y-114447000D01*
X161003000Y-114447000D01*
X161003000Y-114427000D01*
X159953750Y-114427000D01*
X159795000Y-114585750D01*
X159795000Y-115101310D01*
X159825015Y-115173773D01*
X159781802Y-115191673D01*
X159716531Y-115256943D01*
X159554227Y-115148495D01*
X159222750Y-115082560D01*
X158785250Y-115082560D01*
X158453773Y-115148495D01*
X158187033Y-115326725D01*
X158221440Y-115153750D01*
X158221440Y-114716250D01*
X158155505Y-114384773D01*
X158016985Y-114177463D01*
X158166102Y-113954294D01*
X158233940Y-113613250D01*
X158233940Y-113463374D01*
X158505750Y-113517440D01*
X158943250Y-113517440D01*
X159274727Y-113451505D01*
X159437031Y-113343057D01*
X159502302Y-113408327D01*
X159735691Y-113505000D01*
X159795000Y-113505000D01*
X159795000Y-114014250D01*
X159953750Y-114173000D01*
X161003000Y-114173000D01*
X161003000Y-114153000D01*
X161257000Y-114153000D01*
X161257000Y-114173000D01*
X162306250Y-114173000D01*
X162465000Y-114014250D01*
X162465000Y-113874999D01*
X162482560Y-113874999D01*
X162482560Y-114725001D01*
X162550873Y-115068436D01*
X162745414Y-115359586D01*
X162919639Y-115476000D01*
X162845750Y-115476000D01*
X162687000Y-115634750D01*
X162687000Y-116459000D01*
X162707000Y-116459000D01*
X162707000Y-116713000D01*
X162687000Y-116713000D01*
X162687000Y-117537250D01*
X162845750Y-117696000D01*
X163123809Y-117696000D01*
X163357198Y-117599327D01*
X163422469Y-117534057D01*
X163584773Y-117642505D01*
X163916250Y-117708440D01*
X164353750Y-117708440D01*
X164685227Y-117642505D01*
X164966239Y-117454739D01*
X165154005Y-117173727D01*
X165219940Y-116842250D01*
X165219940Y-116351000D01*
X165559874Y-116351000D01*
X165940280Y-116193431D01*
X166231431Y-115902280D01*
X166389000Y-115521874D01*
X166389000Y-115110126D01*
X166231431Y-114729720D01*
X165940280Y-114438569D01*
X165559874Y-114281000D01*
X165393802Y-114281000D01*
X165177440Y-114064639D01*
X165177440Y-113874999D01*
X165109127Y-113531564D01*
X164914586Y-113240414D01*
X164623436Y-113045873D01*
X164280001Y-112977560D01*
X163379999Y-112977560D01*
X163036564Y-113045873D01*
X162745414Y-113240414D01*
X162550873Y-113531564D01*
X162482560Y-113874999D01*
X162465000Y-113874999D01*
X162465000Y-113498690D01*
X162368327Y-113265301D01*
X162189698Y-113086673D01*
X161956309Y-112990000D01*
X161415750Y-112990000D01*
X161345526Y-113060224D01*
X161372000Y-112996310D01*
X161372000Y-112680750D01*
X161213250Y-112522000D01*
X160426500Y-112522000D01*
X160426500Y-112542000D01*
X160172500Y-112542000D01*
X160172500Y-112522000D01*
X160152500Y-112522000D01*
X160152500Y-112268000D01*
X160172500Y-112268000D01*
X160172500Y-112248000D01*
X160426500Y-112248000D01*
X160426500Y-112268000D01*
X160721909Y-112268000D01*
X163303522Y-112647649D01*
X163322000Y-112649000D01*
X182321650Y-112649000D01*
X182674126Y-112795000D01*
X183085874Y-112795000D01*
X183438350Y-112649000D01*
X187401650Y-112649000D01*
X187754126Y-112795000D01*
X188165874Y-112795000D01*
X188518350Y-112649000D01*
X192481650Y-112649000D01*
X192834126Y-112795000D01*
X193245874Y-112795000D01*
X193598350Y-112649000D01*
X196648000Y-112649000D01*
X196648000Y-145870730D01*
X196636627Y-145909126D01*
X196626323Y-145980192D01*
X196555082Y-146726893D01*
X196363665Y-147379373D01*
X196052325Y-147983877D01*
X195632293Y-148518603D01*
X195118723Y-148964257D01*
X194530142Y-149304760D01*
X193887803Y-149527817D01*
X193189001Y-149629139D01*
X193022043Y-149633219D01*
X192883423Y-149649871D01*
X192858028Y-149658000D01*
X124131270Y-149658000D01*
X124092874Y-149646627D01*
X124021808Y-149636323D01*
X123275107Y-149565082D01*
X122622627Y-149373665D01*
X122018123Y-149062325D01*
X121483397Y-148642293D01*
X121037743Y-148128723D01*
X120697240Y-147540142D01*
X120474183Y-146897803D01*
X120372861Y-146199001D01*
X120368781Y-146032043D01*
X120352129Y-145893423D01*
X120344000Y-145868028D01*
X120344000Y-145605431D01*
X121717000Y-145605431D01*
X121717000Y-146494569D01*
X122057259Y-147316026D01*
X122685974Y-147944741D01*
X123507431Y-148285000D01*
X124396569Y-148285000D01*
X125218026Y-147944741D01*
X125846741Y-147316026D01*
X126187000Y-146494569D01*
X126187000Y-145605431D01*
X190805000Y-145605431D01*
X190805000Y-146494569D01*
X191145259Y-147316026D01*
X191773974Y-147944741D01*
X192595431Y-148285000D01*
X193484569Y-148285000D01*
X194306026Y-147944741D01*
X194934741Y-147316026D01*
X195275000Y-146494569D01*
X195275000Y-145605431D01*
X194934741Y-144783974D01*
X194306026Y-144155259D01*
X193484569Y-143815000D01*
X192595431Y-143815000D01*
X191773974Y-144155259D01*
X191145259Y-144783974D01*
X190805000Y-145605431D01*
X126187000Y-145605431D01*
X125846741Y-144783974D01*
X125218026Y-144155259D01*
X124396569Y-143815000D01*
X123507431Y-143815000D01*
X122685974Y-144155259D01*
X122057259Y-144783974D01*
X121717000Y-145605431D01*
X120344000Y-145605431D01*
X120344000Y-141942322D01*
X127786000Y-141942322D01*
X127786000Y-142791678D01*
X128111034Y-143576380D01*
X128711620Y-144176966D01*
X129496322Y-144502000D01*
X130345678Y-144502000D01*
X131130380Y-144176966D01*
X131730966Y-143576380D01*
X132056000Y-142791678D01*
X132056000Y-141942322D01*
X144016000Y-141942322D01*
X144016000Y-142791678D01*
X144341034Y-143576380D01*
X144941620Y-144176966D01*
X145726322Y-144502000D01*
X146575678Y-144502000D01*
X147360380Y-144176966D01*
X147960966Y-143576380D01*
X148286000Y-142791678D01*
X148286000Y-141942322D01*
X148360000Y-141942322D01*
X148360000Y-142791678D01*
X148685034Y-143576380D01*
X149285620Y-144176966D01*
X150070322Y-144502000D01*
X150919678Y-144502000D01*
X151704380Y-144176966D01*
X152304966Y-143576380D01*
X152630000Y-142791678D01*
X152630000Y-141942322D01*
X164590000Y-141942322D01*
X164590000Y-142791678D01*
X164915034Y-143576380D01*
X165515620Y-144176966D01*
X166300322Y-144502000D01*
X167149678Y-144502000D01*
X167934380Y-144176966D01*
X168534966Y-143576380D01*
X168770000Y-143008957D01*
X169005034Y-143576380D01*
X169605620Y-144176966D01*
X170390322Y-144502000D01*
X171239678Y-144502000D01*
X172024380Y-144176966D01*
X172624966Y-143576380D01*
X172950000Y-142791678D01*
X172950000Y-141942322D01*
X184910000Y-141942322D01*
X184910000Y-142791678D01*
X185235034Y-143576380D01*
X185835620Y-144176966D01*
X186620322Y-144502000D01*
X187469678Y-144502000D01*
X188254380Y-144176966D01*
X188854966Y-143576380D01*
X189180000Y-142791678D01*
X189180000Y-141942322D01*
X188854966Y-141157620D01*
X188254380Y-140557034D01*
X187469678Y-140232000D01*
X186620322Y-140232000D01*
X185835620Y-140557034D01*
X185235034Y-141157620D01*
X184910000Y-141942322D01*
X172950000Y-141942322D01*
X172624966Y-141157620D01*
X172024380Y-140557034D01*
X171239678Y-140232000D01*
X170390322Y-140232000D01*
X169605620Y-140557034D01*
X169005034Y-141157620D01*
X168770000Y-141725043D01*
X168534966Y-141157620D01*
X167934380Y-140557034D01*
X167149678Y-140232000D01*
X166300322Y-140232000D01*
X165515620Y-140557034D01*
X164915034Y-141157620D01*
X164590000Y-141942322D01*
X152630000Y-141942322D01*
X152304966Y-141157620D01*
X151704380Y-140557034D01*
X150919678Y-140232000D01*
X150070322Y-140232000D01*
X149285620Y-140557034D01*
X148685034Y-141157620D01*
X148360000Y-141942322D01*
X148286000Y-141942322D01*
X147960966Y-141157620D01*
X147360380Y-140557034D01*
X146575678Y-140232000D01*
X145726322Y-140232000D01*
X144941620Y-140557034D01*
X144341034Y-141157620D01*
X144016000Y-141942322D01*
X132056000Y-141942322D01*
X131730966Y-141157620D01*
X131130380Y-140557034D01*
X130345678Y-140232000D01*
X129496322Y-140232000D01*
X128711620Y-140557034D01*
X128111034Y-141157620D01*
X127786000Y-141942322D01*
X120344000Y-141942322D01*
X120344000Y-135592322D01*
X127786000Y-135592322D01*
X127786000Y-136441678D01*
X128111034Y-137226380D01*
X128711620Y-137826966D01*
X129496322Y-138152000D01*
X130345678Y-138152000D01*
X131130380Y-137826966D01*
X131730966Y-137226380D01*
X132056000Y-136441678D01*
X132056000Y-135592322D01*
X144016000Y-135592322D01*
X144016000Y-136441678D01*
X144341034Y-137226380D01*
X144941620Y-137826966D01*
X145726322Y-138152000D01*
X146575678Y-138152000D01*
X147360380Y-137826966D01*
X147960966Y-137226380D01*
X148286000Y-136441678D01*
X148286000Y-135592322D01*
X148360000Y-135592322D01*
X148360000Y-136441678D01*
X148685034Y-137226380D01*
X149285620Y-137826966D01*
X150070322Y-138152000D01*
X150919678Y-138152000D01*
X151704380Y-137826966D01*
X152304966Y-137226380D01*
X152630000Y-136441678D01*
X152630000Y-135592322D01*
X164590000Y-135592322D01*
X164590000Y-136441678D01*
X164915034Y-137226380D01*
X165515620Y-137826966D01*
X166300322Y-138152000D01*
X167149678Y-138152000D01*
X167934380Y-137826966D01*
X168534966Y-137226380D01*
X168770000Y-136658957D01*
X169005034Y-137226380D01*
X169605620Y-137826966D01*
X170390322Y-138152000D01*
X171239678Y-138152000D01*
X172024380Y-137826966D01*
X172624966Y-137226380D01*
X172950000Y-136441678D01*
X172950000Y-135592322D01*
X184910000Y-135592322D01*
X184910000Y-136441678D01*
X185235034Y-137226380D01*
X185835620Y-137826966D01*
X186620322Y-138152000D01*
X187469678Y-138152000D01*
X188254380Y-137826966D01*
X188854966Y-137226380D01*
X189180000Y-136441678D01*
X189180000Y-135592322D01*
X188854966Y-134807620D01*
X188254380Y-134207034D01*
X187469678Y-133882000D01*
X186620322Y-133882000D01*
X185835620Y-134207034D01*
X185235034Y-134807620D01*
X184910000Y-135592322D01*
X172950000Y-135592322D01*
X172624966Y-134807620D01*
X172024380Y-134207034D01*
X171239678Y-133882000D01*
X170390322Y-133882000D01*
X169605620Y-134207034D01*
X169005034Y-134807620D01*
X168770000Y-135375043D01*
X168534966Y-134807620D01*
X167934380Y-134207034D01*
X167149678Y-133882000D01*
X166300322Y-133882000D01*
X165515620Y-134207034D01*
X164915034Y-134807620D01*
X164590000Y-135592322D01*
X152630000Y-135592322D01*
X152304966Y-134807620D01*
X151704380Y-134207034D01*
X150919678Y-133882000D01*
X150070322Y-133882000D01*
X149285620Y-134207034D01*
X148685034Y-134807620D01*
X148360000Y-135592322D01*
X148286000Y-135592322D01*
X147960966Y-134807620D01*
X147360380Y-134207034D01*
X146575678Y-133882000D01*
X145726322Y-133882000D01*
X144941620Y-134207034D01*
X144341034Y-134807620D01*
X144016000Y-135592322D01*
X132056000Y-135592322D01*
X131730966Y-134807620D01*
X131130380Y-134207034D01*
X130345678Y-133882000D01*
X129496322Y-133882000D01*
X128711620Y-134207034D01*
X128111034Y-134807620D01*
X127786000Y-135592322D01*
X120344000Y-135592322D01*
X120344000Y-129952750D01*
X127786000Y-129952750D01*
X127786000Y-131293309D01*
X127882673Y-131526698D01*
X128061301Y-131705327D01*
X128294690Y-131802000D01*
X129635250Y-131802000D01*
X129794000Y-131643250D01*
X129794000Y-129794000D01*
X130048000Y-129794000D01*
X130048000Y-131643250D01*
X130206750Y-131802000D01*
X131547310Y-131802000D01*
X131780699Y-131705327D01*
X131959327Y-131526698D01*
X132056000Y-131293309D01*
X132056000Y-129952750D01*
X131897250Y-129794000D01*
X130048000Y-129794000D01*
X129794000Y-129794000D01*
X127944750Y-129794000D01*
X127786000Y-129952750D01*
X120344000Y-129952750D01*
X120344000Y-128040691D01*
X127786000Y-128040691D01*
X127786000Y-129381250D01*
X127944750Y-129540000D01*
X129794000Y-129540000D01*
X129794000Y-127690750D01*
X130048000Y-127690750D01*
X130048000Y-129540000D01*
X131897250Y-129540000D01*
X132056000Y-129381250D01*
X132056000Y-129242322D01*
X144016000Y-129242322D01*
X144016000Y-130091678D01*
X144341034Y-130876380D01*
X144941620Y-131476966D01*
X145726322Y-131802000D01*
X146575678Y-131802000D01*
X147360380Y-131476966D01*
X147960966Y-130876380D01*
X148286000Y-130091678D01*
X148286000Y-129952750D01*
X148360000Y-129952750D01*
X148360000Y-131293309D01*
X148456673Y-131526698D01*
X148635301Y-131705327D01*
X148868690Y-131802000D01*
X150209250Y-131802000D01*
X150368000Y-131643250D01*
X150368000Y-129794000D01*
X150622000Y-129794000D01*
X150622000Y-131643250D01*
X150780750Y-131802000D01*
X152121310Y-131802000D01*
X152354699Y-131705327D01*
X152533327Y-131526698D01*
X152630000Y-131293309D01*
X152630000Y-129952750D01*
X152471250Y-129794000D01*
X150622000Y-129794000D01*
X150368000Y-129794000D01*
X148518750Y-129794000D01*
X148360000Y-129952750D01*
X148286000Y-129952750D01*
X148286000Y-129242322D01*
X147960966Y-128457620D01*
X147544037Y-128040691D01*
X148360000Y-128040691D01*
X148360000Y-129381250D01*
X148518750Y-129540000D01*
X150368000Y-129540000D01*
X150368000Y-127690750D01*
X150622000Y-127690750D01*
X150622000Y-129540000D01*
X152471250Y-129540000D01*
X152630000Y-129381250D01*
X152630000Y-129242322D01*
X164590000Y-129242322D01*
X164590000Y-130091678D01*
X164915034Y-130876380D01*
X165515620Y-131476966D01*
X166300322Y-131802000D01*
X167149678Y-131802000D01*
X167934380Y-131476966D01*
X168534966Y-130876380D01*
X168680000Y-130526237D01*
X168680000Y-131293309D01*
X168776673Y-131526698D01*
X168955301Y-131705327D01*
X169188690Y-131802000D01*
X170529250Y-131802000D01*
X170688000Y-131643250D01*
X170688000Y-129794000D01*
X170942000Y-129794000D01*
X170942000Y-131643250D01*
X171100750Y-131802000D01*
X172441310Y-131802000D01*
X172674699Y-131705327D01*
X172853327Y-131526698D01*
X172950000Y-131293309D01*
X172950000Y-129952750D01*
X172791250Y-129794000D01*
X170942000Y-129794000D01*
X170688000Y-129794000D01*
X170668000Y-129794000D01*
X170668000Y-129540000D01*
X170688000Y-129540000D01*
X170688000Y-127690750D01*
X170942000Y-127690750D01*
X170942000Y-129540000D01*
X172791250Y-129540000D01*
X172950000Y-129381250D01*
X172950000Y-129242322D01*
X184910000Y-129242322D01*
X184910000Y-130091678D01*
X185235034Y-130876380D01*
X185835620Y-131476966D01*
X186620322Y-131802000D01*
X187469678Y-131802000D01*
X188254380Y-131476966D01*
X188854966Y-130876380D01*
X189180000Y-130091678D01*
X189180000Y-129242322D01*
X188854966Y-128457620D01*
X188254380Y-127857034D01*
X187469678Y-127532000D01*
X186620322Y-127532000D01*
X185835620Y-127857034D01*
X185235034Y-128457620D01*
X184910000Y-129242322D01*
X172950000Y-129242322D01*
X172950000Y-128040691D01*
X172853327Y-127807302D01*
X172674699Y-127628673D01*
X172441310Y-127532000D01*
X171100750Y-127532000D01*
X170942000Y-127690750D01*
X170688000Y-127690750D01*
X170529250Y-127532000D01*
X169188690Y-127532000D01*
X168955301Y-127628673D01*
X168776673Y-127807302D01*
X168680000Y-128040691D01*
X168680000Y-128807763D01*
X168534966Y-128457620D01*
X167934380Y-127857034D01*
X167149678Y-127532000D01*
X166300322Y-127532000D01*
X165515620Y-127857034D01*
X164915034Y-128457620D01*
X164590000Y-129242322D01*
X152630000Y-129242322D01*
X152630000Y-128040691D01*
X152533327Y-127807302D01*
X152354699Y-127628673D01*
X152121310Y-127532000D01*
X150780750Y-127532000D01*
X150622000Y-127690750D01*
X150368000Y-127690750D01*
X150209250Y-127532000D01*
X148868690Y-127532000D01*
X148635301Y-127628673D01*
X148456673Y-127807302D01*
X148360000Y-128040691D01*
X147544037Y-128040691D01*
X147360380Y-127857034D01*
X146575678Y-127532000D01*
X145726322Y-127532000D01*
X144941620Y-127857034D01*
X144341034Y-128457620D01*
X144016000Y-129242322D01*
X132056000Y-129242322D01*
X132056000Y-128040691D01*
X131959327Y-127807302D01*
X131780699Y-127628673D01*
X131547310Y-127532000D01*
X130206750Y-127532000D01*
X130048000Y-127690750D01*
X129794000Y-127690750D01*
X129635250Y-127532000D01*
X128294690Y-127532000D01*
X128061301Y-127628673D01*
X127882673Y-127807302D01*
X127786000Y-128040691D01*
X120344000Y-128040691D01*
X120344000Y-107823000D01*
X132334000Y-107823000D01*
X132382601Y-107813333D01*
X132436539Y-107770932D01*
X134811489Y-104521000D01*
X145232767Y-104521000D01*
X151247563Y-110973235D01*
G04 #@! TD*
M02*
