M48
;DRILL file {KiCad (5.0.2)-1} date 2/1/2019 3:19:10 PM
;FORMAT={-:-/ absolute / metric / decimal}
FMAT,2
METRIC,TZ
T1C0.400
T2C0.600
T3C0.850
T4C1.500
T5C3.200
%
G90
G05
T1
X121.92Y-93.98
X121.92Y-99.06
X121.92Y-104.14
X121.92Y-109.22
X121.92Y-114.3
X121.92Y-119.38
X121.92Y-124.46
X121.92Y-129.54
X121.92Y-134.62
X121.92Y-139.7
X121.92Y-144.78
X124.46Y-91.44
X124.46Y-96.52
X124.46Y-101.6
X124.46Y-116.84
X124.46Y-121.92
X124.46Y-127.
X124.46Y-132.08
X124.46Y-137.16
X124.46Y-142.24
X126.746Y-83.312
X127.Y-73.66
X127.Y-78.74
X127.Y-90.424
X127.Y-93.98
X127.Y-119.38
X127.Y-124.46
X127.Y-129.54
X127.Y-147.32
X129.413Y-105.918
X129.54Y-71.12
X129.54Y-76.2
X129.54Y-96.52
X129.54Y-101.6
X129.54Y-116.84
X129.54Y-121.92
X129.54Y-127.
X129.54Y-139.7
X129.54Y-144.78
X129.794Y-114.681
X131.064Y-105.918
X132.08Y-73.66
X132.08Y-78.74
X132.08Y-109.22
X132.08Y-119.38
X132.08Y-124.46
X132.08Y-134.62
X132.08Y-137.16
X132.08Y-142.24
X132.08Y-147.32
X133.35Y-81.788
X133.35Y-85.344
X133.35Y-120.904
X134.366Y-97.028
X134.62Y-71.12
X134.62Y-76.2
X134.62Y-86.36
X134.62Y-91.44
X134.62Y-116.84
X134.62Y-127.
X134.62Y-132.08
X134.62Y-139.7
X134.62Y-144.78
X135.382Y-102.489
X137.16Y-73.66
X137.16Y-78.74
X137.16Y-83.82
X137.16Y-88.9
X137.16Y-93.98
X137.16Y-109.22
X137.16Y-124.46
X137.16Y-129.54
X137.16Y-137.16
X137.16Y-142.24
X137.16Y-147.32
X139.7Y-71.12
X139.7Y-76.2
X139.7Y-86.36
X139.7Y-91.44
X139.7Y-134.62
X139.7Y-139.7
X139.7Y-144.78
X142.24Y-73.66
X142.24Y-78.74
X142.24Y-83.82
X142.24Y-88.9
X142.24Y-93.98
X142.24Y-109.22
X142.24Y-127.
X142.24Y-132.08
X142.24Y-137.16
X142.24Y-142.24
X142.24Y-147.32
X142.367Y-100.838
X143.002Y-120.904
X144.78Y-71.12
X144.78Y-76.2
X144.78Y-86.36
X144.78Y-91.44
X144.78Y-101.6
X144.78Y-106.68
X144.78Y-124.46
X144.78Y-139.7
X144.78Y-144.78
X146.177Y-71.882
X146.304Y-121.158
X147.32Y-78.74
X147.32Y-83.82
X147.32Y-88.9
X147.32Y-93.98
X147.32Y-99.06
X147.32Y-104.14
X147.32Y-109.22
X147.32Y-127.
X147.32Y-147.32
X149.86Y-86.36
X149.86Y-91.44
X149.86Y-101.6
X149.86Y-106.68
X149.86Y-144.78
X150.368Y-98.044
X150.495Y-94.361
X150.622Y-99.568
X150.749Y-111.887
X151.892Y-102.616
X151.892Y-105.156
X152.4Y-109.22
X152.4Y-124.46
X152.4Y-134.62
X152.4Y-147.32
X152.908Y-90.424
X152.908Y-92.71
X153.162Y-100.076
X154.178Y-90.17
X154.178Y-121.158
X154.692Y-102.616
X154.94Y-119.38
X154.94Y-129.54
X154.94Y-139.7
X154.94Y-144.78
X155.448Y-92.456
X155.575Y-80.264
X156.21Y-112.268
X156.591Y-80.137
X157.175Y-107.203
X157.48Y-121.92
X157.48Y-127.
X157.48Y-132.08
X157.48Y-137.16
X157.48Y-142.24
X157.48Y-147.32
X158.242Y-105.918
X158.242Y-117.094
X159.766Y-114.3
X160.02Y-119.38
X160.02Y-124.46
X160.02Y-129.54
X160.02Y-134.62
X160.02Y-139.7
X160.02Y-144.78
X160.782Y-94.742
X162.306Y-94.742
X162.56Y-115.57
X162.56Y-121.92
X162.56Y-127.
X162.56Y-132.08
X162.56Y-137.16
X162.56Y-142.24
X162.56Y-147.32
X162.74Y-109.624
X163.195Y-91.567
X163.322Y-71.882
X164.084Y-95.885
X164.419Y-104.431
X164.465Y-80.137
X164.846Y-106.68
X165.1Y-73.66
X165.1Y-119.38
X165.1Y-124.46
X165.1Y-139.7
X165.1Y-144.78
X165.354Y-83.185
X165.354Y-86.106
X165.354Y-115.316
X165.608Y-101.6
X165.735Y-92.71
X165.862Y-76.962
X165.862Y-80.01
X165.862Y-98.044
X165.862Y-106.934
X165.949Y-104.516
X166.116Y-110.236
X166.624Y-102.616
X167.386Y-91.694
X167.64Y-71.12
X167.64Y-76.2
X167.64Y-127.
X167.64Y-132.08
X167.64Y-147.32
X168.013Y-84.579
X169.672Y-111.506
X170.18Y-73.66
X170.18Y-124.46
X170.18Y-139.7
X170.18Y-144.78
X172.212Y-93.218
X172.72Y-71.12
X172.72Y-76.2
X172.72Y-127.
X172.72Y-132.08
X172.72Y-147.32
X173.228Y-87.503
X175.26Y-73.66
X175.26Y-124.46
X175.26Y-129.54
X175.26Y-134.62
X175.26Y-139.7
X175.26Y-144.78
X177.038Y-119.634
X177.8Y-71.12
X177.8Y-76.2
X177.8Y-116.84
X177.8Y-127.
X177.8Y-132.08
X177.8Y-137.16
X177.8Y-142.24
X177.8Y-147.32
X178.054Y-108.966
X180.34Y-73.66
X180.34Y-78.74
X180.34Y-104.14
X180.34Y-114.3
X180.34Y-124.46
X180.34Y-129.54
X180.34Y-134.62
X180.34Y-139.7
X180.34Y-144.78
X182.88Y-71.12
X182.88Y-76.2
X182.88Y-81.28
X182.88Y-86.36
X182.88Y-91.44
X182.88Y-96.52
X182.88Y-101.6
X182.88Y-106.68
X182.88Y-111.76
X182.88Y-116.84
X182.88Y-127.
X182.88Y-132.08
X182.88Y-137.16
X182.88Y-142.24
X182.88Y-147.32
X184.404Y-119.634
X185.42Y-73.66
X185.42Y-78.74
X185.42Y-83.82
X185.42Y-88.9
X185.42Y-93.98
X185.42Y-99.06
X185.42Y-104.14
X185.42Y-109.22
X185.42Y-114.3
X185.42Y-134.62
X185.42Y-139.7
X185.42Y-144.78
X187.96Y-71.12
X187.96Y-76.2
X187.96Y-81.28
X187.96Y-86.36
X187.96Y-91.44
X187.96Y-96.52
X187.96Y-101.6
X187.96Y-106.68
X187.96Y-111.76
X187.96Y-116.84
X187.96Y-121.92
X187.96Y-127.
X187.96Y-132.08
X187.96Y-147.32
X190.5Y-73.66
X190.5Y-78.74
X190.5Y-83.82
X190.5Y-88.9
X190.5Y-93.98
X190.5Y-99.06
X190.5Y-104.14
X190.5Y-109.22
X190.5Y-114.3
X190.5Y-119.38
X190.5Y-124.46
X190.5Y-129.54
X190.5Y-134.62
X190.5Y-139.7
X193.04Y-81.28
X193.04Y-86.36
X193.04Y-91.44
X193.04Y-96.52
X193.04Y-101.6
X193.04Y-106.68
X193.04Y-111.76
X193.04Y-116.84
X193.04Y-121.92
X193.04Y-127.
X193.04Y-132.08
X193.04Y-137.16
X193.04Y-142.24
X195.58Y-78.74
X195.58Y-83.82
X195.58Y-88.9
X195.58Y-93.98
X195.58Y-99.06
X195.58Y-104.14
X195.58Y-109.22
X195.58Y-114.3
X195.58Y-119.38
X195.58Y-124.46
X195.58Y-129.54
X195.58Y-134.62
X195.58Y-139.7
T3
X124.886Y-82.52
X124.886Y-87.52
T4
X150.495Y-129.667
X150.495Y-136.017
X150.495Y-142.367
X166.725Y-129.667
X166.725Y-136.017
X166.725Y-142.367
X170.815Y-129.667
X170.815Y-136.017
X170.815Y-142.367
X187.045Y-129.667
X187.045Y-136.017
X187.045Y-142.367
X129.921Y-129.667
X129.921Y-136.017
X129.921Y-142.367
X146.151Y-129.667
X146.151Y-136.017
X146.151Y-142.367
T5
X123.952Y-146.05
X193.04Y-146.05
X123.952Y-74.422
X193.04Y-74.295
T2
X121.836Y-81.52G85X122.536Y-81.52
G05
X122.536Y-88.52G85X121.836Y-88.52
G05
T0
M30
